<?xml version="1.0" standalone="no"?>
<!-- Generator: Adobe Fireworks 10, Export SVG Extension by Aaron Beall (http://fireworks.abeall.com) . Version: 0.6.0  -->
<!DOCTYPE svg PUBLIC "-//W3C//DTD SVG 1.1//EN" "http://www.w3.org/Graphics/SVG/1.1/DTD/svg11.dtd">
<svg id="" viewBox="0 0 333 148" style="background-color:#ffffff00" version="1.1"
xmlns="http://www.w3.org/2000/svg" xmlns:xlink="http://www.w3.org/1999/xlink" xml:space="preserve"
x="0px" y="0px" width="333px" height="148px"
>
<g id="Layer_1_1">
<path d="M 109.3188 72.1366 C 109.3188 69.5797 109.3129 67.5909 109.3217 65.6022 C 109.3246 64.9279 109.3183 64.3047 108.3782 64.3086 C 106.1409 64.3188 103.9036 64.3208 101.6664 64.3047 C 100.9155 64.2993 100.7082 64.6966 100.7399 65.3558 C 100.7589 65.7536 100.7399 66.1533 100.7399 66.552 L 100.7399 108.8936 C 100.7399 109.3717 100.756 109.8508 100.7428 110.3289 C 100.7238 111.0358 101.0634 111.3142 101.759 111.3055 C 103.3568 111.286 104.955 111.3172 106.5532 111.3016 C 109.892 111.2685 109.4227 111.6979 109.4886 108.3844 C 109.65 100.2608 109.2222 92.1363 109.7496 84.0118 C 110.1359 78.0557 114.2193 73.8732 119.4881 72.4146 C 121.7712 71.7822 124.0734 71.9356 126.3804 71.9507 C 127.0624 71.955 127.66 71.9706 127.6498 71.0169 C 127.6264 68.7842 127.6322 66.5515 127.6488 64.3188 C 127.6537 63.6153 127.3303 63.3568 126.6517 63.3028 C 120.1623 62.7887 113.2362 64.5033 109.3188 72.1366 ZM 284.3291 71.3104 C 284.3291 69.4254 284.2823 67.5384 284.3477 65.6557 C 284.3838 64.5978 283.9691 64.2638 282.9543 64.2906 C 280.96 64.3427 278.9628 64.3417 276.9684 64.292 C 276.0015 64.2677 275.6951 64.684 275.7683 65.5725 C 275.8064 66.0471 275.7742 66.5277 275.7742 67.0052 L 275.7742 108.584 C 275.7742 108.9024 275.7673 109.2208 275.7751 109.5392 C 275.8161 111.2549 275.8171 111.2753 277.4455 111.2987 C 279.2008 111.324 280.9571 111.3201 282.7133 111.2996 C 284.4764 111.2792 284.5038 111.2636 284.5067 109.4194 C 284.5184 102.33 284.5418 95.2405 284.4921 88.152 C 284.4784 86.2328 284.5965 84.3302 284.936 82.4588 C 285.4912 79.4062 286.8904 76.8245 289.3218 74.7685 C 292.5787 72.0149 296.2786 71.4623 300.2926 72.2691 C 301.12 72.4356 301.6234 72.457 301.9718 71.5631 C 302.7777 69.4935 303.6734 67.4595 304.5008 65.3982 C 304.8169 64.6114 304.6745 64.0413 303.6871 63.8334 C 299.8848 63.0321 296.1107 62.7716 292.4479 64.4055 C 289.1101 65.8948 286.3625 68.0865 284.3291 71.3104 ZM 142.4863 86.4529 L 142.5083 86.4529 C 142.5083 90.4392 142.4122 94.4294 142.5371 98.4118 C 142.6483 101.9872 143.7108 105.2705 146.194 108.0008 C 150.3271 112.545 158.5025 112.9228 163.6483 111.3824 C 164.5548 111.1107 164.7997 110.5879 164.4728 109.7739 C 163.7347 107.9316 162.9385 106.1128 162.2199 104.2627 C 161.9579 103.5889 161.5252 103.4565 160.9125 103.588 C 160.4461 103.6883 159.9909 103.8528 159.5216 103.9268 C 154.5265 104.7067 151.5526 102.1216 151.5399 97.5754 C 151.5184 89.6816 151.5423 81.7879 151.4911 73.8946 C 151.4833 72.7252 151.8755 72.3859 153.0069 72.4122 C 155.8018 72.4764 158.6006 72.3888 161.3955 72.4536 C 162.5839 72.4813 163.1483 72.1994 163.0649 70.8752 C 162.959 69.2073 162.9541 67.5223 163.0659 65.8553 C 163.1556 64.515 162.5692 64.2565 161.3925 64.2833 C 158.6772 64.3451 155.9598 64.3183 153.2435 64.2969 C 151.5589 64.2838 151.5291 64.2589 151.5199 62.6003 C 151.4994 59.092 151.5111 55.5838 151.514 52.0756 C 151.516 49.819 151.6936 49.9086 149.2631 49.9164 C 147.6654 49.9213 146.0672 49.9076 144.4695 49.9198 C 142.5151 49.9349 142.4971 49.9427 142.4902 51.838 C 142.4771 55.5054 142.4454 59.1738 142.5098 62.8408 C 142.5302 63.9985 142.1624 64.3768 141.0101 64.3247 C 139.1763 64.2419 137.3351 64.3393 135.4984 64.2906 C 134.5509 64.2653 134.2495 64.6465 134.2719 65.5535 C 134.3177 67.3865 134.3241 69.2224 134.2704 71.0544 C 134.2412 72.0539 134.549 72.4911 135.6184 72.4502 C 137.3737 72.3835 139.1367 72.5013 140.8901 72.4098 C 142.137 72.3445 142.5341 72.7569 142.5127 74.0149 C 142.4424 78.1599 142.4863 82.3069 142.4863 86.4529 ZM 180.3817 70.3431 C 180.3817 68.9156 180.3953 67.4882 180.3777 66.0608 C 180.3563 64.3475 180.3446 64.3286 178.7249 64.3081 C 176.9686 64.2857 175.2104 64.2828 173.4542 64.3091 C 171.8345 64.3329 171.8345 64.3549 171.7984 66.0817 C 171.7916 66.4006 171.7974 66.7195 171.7974 67.0384 L 171.7974 108.6473 C 171.7974 109.0455 171.8316 109.4477 171.7906 109.842 C 171.6657 111.0562 172.1506 111.6034 173.4151 111.5625 C 175.1704 111.5061 176.9296 111.5645 178.6859 111.545 C 180.7983 111.5216 180.8207 111.508 180.8237 109.4165 C 180.8334 101.4449 180.848 93.4742 180.81 85.5035 C 180.8022 83.9729 180.9349 82.4646 181.37 81.0265 C 183.179 75.0475 187.1608 70.1308 195.2543 71.0164 C 199.3981 71.4696 202.4618 73.437 203.8161 77.5367 C 204.4649 79.5007 204.8347 81.5279 204.8298 83.6194 L 204.8259 107.2929 C 204.8259 108.2491 204.8718 109.2091 204.8142 110.1614 C 204.7528 111.1672 205.0923 111.6044 206.1636 111.5664 C 207.9989 111.5022 209.8371 111.5625 211.6744 111.546 C 213.8131 111.5255 213.8414 111.5148 213.8424 109.437 L 213.8239 82.4159 C 213.8151 80.0275 213.5136 77.6409 212.8569 75.3557 C 211.8305 71.788 210.2411 68.4273 207.0993 66.2472 C 200.7007 61.8086 193.9449 61.5725 187.0116 65.016 C 184.4708 66.2779 182.5038 68.2112 180.3817 70.3431 ZM 83.0846 105.2238 C 83.0846 106.6483 83.068 108.0728 83.0885 109.4973 C 83.1138 111.2675 83.127 111.2811 84.9823 111.3016 C 86.6605 111.3201 88.3417 111.25 90.0169 111.324 C 91.201 111.3766 91.7 111.0747 91.6913 109.7544 C 91.6264 100.0233 91.8459 90.2853 91.5503 80.563 C 91.3478 73.9088 88.066 68.7681 82.1181 65.5165 C 76.1995 62.2809 69.9467 62.108 63.5608 63.7122 C 58.4671 64.9912 54.9043 68.2915 52.2543 72.6619 C 51.4494 73.9896 51.5562 74.2247 52.89 74.8299 C 54.6277 75.6186 56.4108 76.307 58.1593 77.0728 C 59.1169 77.4924 59.7502 77.396 60.2609 76.3449 C 61.0088 74.806 62.2606 73.6906 63.7242 72.7973 C 66.6596 71.0057 69.8906 70.6021 73.1841 71.0568 C 79.2774 71.8981 84.0647 77.1302 82.8992 83.2475 C 82.6753 83.1832 82.4426 83.1462 82.2352 83.0527 C 76.0254 80.2602 69.5843 79.9466 63.0846 81.6156 C 56.2049 83.3818 50.2493 87.7586 49.7165 95.8607 C 49.4331 100.1645 50.3351 104.1108 53.4047 107.2831 C 58.7384 112.7933 65.3161 113.8945 72.5372 112.3133 C 76.8742 111.3629 80.1126 108.7612 83.0846 105.2238 ZM 72.3167 88.2318 C 75.1253 88.1267 77.867 88.3526 80.4853 89.559 C 83.2495 90.8326 83.5983 91.4031 82.7904 94.3086 C 81.8259 97.777 79.6569 100.3826 76.7103 102.3115 C 72.5114 105.0583 68.0236 105.771 63.3456 103.5802 C 58.4237 101.2735 57.4914 95.9571 61.1713 91.9289 C 63.3485 89.5453 66.0708 88.4655 69.2018 88.2435 C 70.2351 88.1705 71.2786 88.2318 72.3167 88.2318 ZM 266.2367 100.0953 C 264.0004 99.1382 262.0392 98.2735 260.0576 97.4586 C 258.3042 96.737 258.2993 96.7643 257.3626 98.367 C 256.6367 99.6085 255.741 100.701 254.7039 101.7117 C 250.9279 105.3922 241.9524 105.5363 237.8144 102.7944 C 233.6326 100.0223 231.1602 96.2911 230.5103 91.3204 C 230.2888 89.63 230.2186 89.6038 231.9641 89.5969 C 237.0788 89.5784 242.1934 89.5901 247.308 89.5901 C 253.5418 89.5901 259.7756 89.5619 266.0084 89.6145 C 267.2407 89.6242 267.6846 89.263 267.6826 88.0059 C 267.6807 85.2075 267.4173 82.4617 266.7226 79.7422 C 263.5623 67.3777 253.0959 61.0083 240.0293 63.148 C 232.5056 64.3802 227.5052 69.2009 224.1302 75.7067 C 220.8382 82.0518 220.4996 88.8647 222.3798 95.6475 C 224.5283 103.3971 229.3717 108.99 237.1363 111.6336 C 240.9211 112.9228 244.8327 113.2616 248.8994 112.7456 C 256.9929 111.7174 262.4129 107.2929 266.2367 100.0953 ZM 231.2206 81.8502 C 232.292 75.7023 237.593 71.0841 243.654 70.9692 C 245.3996 70.9361 247.1217 71.0032 248.8584 71.4088 C 253.736 72.5475 256.3509 75.8907 257.8768 80.3293 C 258.393 81.8317 257.9159 82.1082 256.6845 82.0995 C 248.4008 82.042 240.1181 82.0596 231.8344 82.045 C 231.687 82.045 231.5397 81.9544 231.2206 81.8502 ZM 1.4792 77.0002 L 1.4792 108.584 C 1.4792 109.1419 1.4944 109.7008 1.4807 110.2588 C 1.4636 110.9189 1.6949 111.3065 2.4301 111.3026 C 4.7478 111.2909 7.0656 111.2899 9.3829 111.3074 C 10.1903 111.3133 10.5484 110.9647 10.5069 110.1575 C 10.4781 109.6005 10.504 109.0416 10.504 108.4827 L 10.5079 85.9923 C 10.5123 83.1452 10.2289 83.5026 13.1179 83.4909 C 17.2739 83.4743 21.4299 83.486 25.5859 83.486 C 27.1836 83.486 28.7535 83.3487 30.3269 82.9885 C 38.9633 81.0109 46.9387 72.9969 46.6577 62.72 C 46.4264 54.2377 41.2079 47.4418 33.795 44.2349 C 30.4347 42.7812 26.8499 42.509 23.2706 42.4569 C 16.8783 42.3634 10.4835 42.4306 4.0902 42.4311 C 3.6107 42.4311 3.1296 42.4579 2.652 42.4277 C 1.8685 42.3781 1.4358 42.6541 1.4768 43.5032 C 1.5041 44.0601 1.4792 44.6195 1.4792 45.1779 L 1.4792 77.0002 ZM 19.6063 74.9404 C 17.1305 74.9404 14.6537 74.9009 12.1788 74.9579 C 11.024 74.9852 10.4655 74.7422 10.4772 73.3995 C 10.5372 66.4658 10.5284 59.5312 10.4825 52.5975 C 10.4747 51.3692 10.8328 50.9354 12.1085 50.9558 C 16.4202 51.0259 20.7352 50.914 25.0464 50.9992 C 31.9285 51.136 35.7869 55.3803 37.1363 60.3189 C 39.1697 67.7628 32.6495 74.9667 26.5538 74.9058 C 24.2385 74.8824 21.9222 74.9019 19.6063 74.9019 L 19.6063 74.9404 Z" fill="#7d7d7d"/>
<path d="M 22.1856 4.0432 C 21.7861 4.4799 21.5792 4.7218 21.3563 4.9477 C 19.981 6.3416 19.9839 6.3323 18.3286 5.3849 C 14.7639 3.3431 11.3777 3.752 8.4784 5.9073 C 5.6328 8.0232 4.4268 12.1575 5.5518 15.5917 C 6.8105 19.4344 9.7249 21.4621 13.5721 21.6666 C 17.1802 21.8589 20.5123 19.8195 21.3928 16.6301 C 21.6651 15.6433 21.4465 15.3108 20.4513 15.3254 C 18.6931 15.3522 16.9329 15.2767 15.1771 15.3458 C 13.5521 15.4096 13.9502 14.2796 13.899 13.3897 C 13.8458 12.4583 13.838 11.6662 15.201 11.7023 C 17.9964 11.7767 20.7952 11.7008 23.5921 11.7334 C 25.1186 11.7509 25.3586 11.9681 25.3279 13.5932 C 25.2166 19.3959 22.2885 23.7483 16.1177 24.9484 C 9.8127 26.1743 3.5692 22.2966 1.8656 16.0951 C -0.337 8.0772 5.4601 1.4497 12.6662 0.7024 C 16.2592 0.3295 19.3941 1.4083 22.1856 4.0432 Z" fill="#4889f3"/>
<path d="M 72.5055 23.6179 C 69.5726 25.6495 66.8547 25.5492 64.2516 23.7337 C 61.3167 21.6875 60.318 18.707 61.0586 15.34 C 61.7177 12.343 63.7344 10.3649 66.7762 9.5119 C 67.4899 9.3118 68.1949 9.2743 68.9037 9.3284 C 70.0316 9.4141 71.0303 10.2583 71.9996 10.3352 C 72.7431 10.3941 73.7178 9.7208 74.7257 9.7631 C 75.5234 9.7967 75.8775 10.0499 75.8717 10.879 C 75.8336 15.8969 75.9273 20.9178 75.7634 25.9309 C 75.6619 29.0418 73.2358 31.4459 70.0292 32.0953 C 67.0962 32.6893 63.5408 31.1825 62.1309 28.7376 C 61.8504 28.2517 61.5747 27.7454 62.0748 27.222 C 62.6495 26.6212 64.1711 26.2838 64.7067 26.6908 C 65.0175 26.9275 65.2312 27.2877 65.5053 27.5769 C 66.7938 28.9391 68.3612 29.2818 70.0858 28.6504 C 71.7879 28.0272 72.4938 26.6723 72.505 24.9138 C 72.507 24.6013 72.5055 24.2892 72.5055 23.6179 ZM 68.611 21.8048 C 70.7405 22.0974 72.7368 20.0712 72.8817 17.3409 C 73.0217 14.7027 71.0781 12.5679 68.6349 12.5766 C 66.2727 12.5854 64.3857 14.543 64.3267 17.079 C 64.2691 19.5614 66.2883 22.0872 68.611 21.8048 Z" fill="#4889f3"/>
<path d="M 51.3659 25.0701 C 47.5583 25.3004 43.4198 21.5376 43.6228 17.079 C 43.8247 12.6326 47.1094 9.2855 51.605 9.3109 C 56.0342 9.3362 59.4823 12.7918 59.4823 17.2041 C 59.4818 21.7396 55.9947 25.1198 51.3659 25.0701 ZM 55.8239 17.2095 C 55.8278 14.3887 54.1394 12.5601 51.5362 12.5659 C 49.0482 12.5713 47.0641 14.6102 47.0958 17.1968 C 47.1241 19.5283 48.8564 21.9295 51.5069 21.8443 C 54.1345 21.7596 55.82 20.0308 55.8239 17.2095 Z" fill="#fabe0f"/>
<path d="M 87.8133 19.67 C 89.1417 21.9168 91.4722 22.5127 93.6485 21.2245 C 94.2476 20.8701 94.5852 19.9753 95.377 20.1135 C 96.2463 20.2649 96.8922 20.9499 97.5972 21.4597 C 95.818 24.8652 91.4259 26.1168 87.7387 24.2844 C 84.6886 22.7678 83.2026 19.9407 83.4817 16.1827 C 83.7168 13.0129 85.7141 10.5718 88.8637 9.6059 C 92.5211 8.4842 96.8 10.8736 97.745 14.5216 C 97.9533 15.3254 97.4591 15.4739 96.9371 15.6915 C 94.4418 16.7319 91.9498 17.7801 89.451 18.8127 C 88.8759 19.0503 88.2529 19.1856 87.8133 19.67 ZM 93.7558 13.953 C 92.6074 12.2573 91.0785 12.268 89.6418 12.7431 C 87.8372 13.3395 86.9928 14.785 86.9049 16.8682 C 89.3101 15.9271 91.5688 15.1457 93.7558 13.953 Z" fill="#ea4a3d"/>
<path d="M 34.258 25.0721 C 29.7888 25.0468 26.4041 21.6466 26.4148 17.1929 C 26.4255 12.7315 29.8122 9.3367 34.275 9.3138 C 38.8374 9.2909 42.2778 12.7534 42.2387 17.3292 C 42.2017 21.7479 38.7491 25.0974 34.258 25.0721 ZM 38.7882 17.1564 C 38.7652 14.5547 36.7909 12.5401 34.2833 12.5601 C 31.7865 12.5796 29.8161 14.5844 29.8863 17.2523 C 29.9644 20.2328 32.1446 21.9139 34.3746 21.8457 C 36.8714 21.7698 38.8111 19.7572 38.7882 17.1564 Z" fill="#ea4a3d"/>
<path d="M 78.248 12.8546 C 78.248 9.5957 78.3241 6.3343 78.2129 3.0792 C 78.1636 1.6469 78.8471 1.5627 79.936 1.5817 C 81.8098 1.6143 81.861 1.5744 81.8654 3.088 C 81.8859 9.7651 81.8854 16.4422 81.8659 23.1188 C 81.861 24.6188 81.8103 24.5765 79.9272 24.6105 C 78.8295 24.6305 78.1675 24.5283 78.2129 23.1076 C 78.3212 19.6929 78.248 16.2728 78.248 12.8546 Z" fill="#39aa57"/>
<path d="M 299.4418 4.4507 C 298.3383 4.5032 297.7607 5.1561 297.8065 6.2997 C 297.8445 7.269 298.6915 8.1901 299.5471 8.1945 C 300.5043 8.1989 301.362 7.1639 301.3025 6.0772 C 301.24 4.9604 300.5941 4.3952 299.4418 4.4507 ZM 282.968 4.4482 C 281.843 4.42 281.1522 5.0339 281.1015 6.1074 C 281.0517 7.1736 281.9162 8.1268 282.9563 8.1512 C 283.8676 8.1726 284.8199 7.3065 284.8736 6.4058 C 284.937 5.3654 284.0706 4.4765 282.968 4.4482 ZM 187.1901 8.1512 C 188.237 8.0898 189.0644 7.121 188.9844 6.0524 C 188.9044 4.9857 188.1941 4.3918 187.0662 4.4487 C 185.9773 4.5032 185.1236 5.4326 185.2182 6.4613 C 185.3002 7.3508 186.2954 8.2043 187.1901 8.1512 ZM 281.5874 17.895 C 281.5884 19.8813 281.6255 21.8681 281.5718 23.853 C 281.5445 24.8618 282.0557 25.0317 282.8958 25.036 C 283.7798 25.0399 284.4306 24.9849 284.416 23.8053 C 284.3701 19.9134 284.3682 16.0201 284.4189 12.1278 C 284.4335 11.0139 283.9232 10.8269 282.97 10.8133 C 281.9572 10.7987 281.5357 11.119 281.5688 12.176 C 281.6294 14.0805 281.5864 15.9885 281.5874 17.895 ZM 188.5024 17.9909 C 188.5024 16.005 188.4605 14.0177 188.518 12.0333 C 188.5532 10.8337 187.8389 10.8391 186.9774 10.8216 C 186.0944 10.804 185.669 11.0703 185.6768 12.0319 C 185.708 15.9242 185.7188 19.8175 185.6709 23.7094 C 185.6573 24.797 186.1198 25.0438 187.0974 25.0453 C 188.077 25.0468 188.559 24.799 188.521 23.7104 C 188.4556 21.8058 188.5024 19.8974 188.5024 17.9909 ZM 262.7846 12.9437 C 263.1827 11.2101 262.6471 10.7412 261.4177 10.8459 C 260.0946 10.9593 260.4703 11.9014 260.4644 12.6054 C 260.4352 16.1749 260.4507 19.7455 260.4517 23.3155 C 260.4517 24.1811 260.2732 25.1183 261.6977 25.0224 C 262.9729 24.9367 263.1681 24.8063 263.2042 23.2113 C 263.2374 21.7839 263.21 20.355 263.212 18.9271 C 263.2188 14.5167 263.2403 14.4593 267.547 13.413 C 268.6759 13.1385 268.5169 12.3488 268.5159 11.5679 C 268.5159 10.5825 267.79 10.7373 267.1665 10.6994 C 265.5332 10.6 264.3194 11.4691 262.7846 12.9437 ZM 155.4237 14.5284 C 155.4237 17.5478 155.4432 20.5673 155.4124 23.5862 C 155.4027 24.5151 155.5676 25.0619 156.6979 25.0516 C 157.7737 25.0419 158.2664 24.8092 158.2556 23.594 C 158.2015 17.7143 158.202 11.8337 158.2552 5.9545 C 158.2664 4.7467 157.7878 4.4984 156.7043 4.4891 C 155.5803 4.4794 155.4007 5.011 155.412 5.9467 C 155.4451 8.807 155.4237 11.6677 155.4237 14.5284 ZM 181.4383 25.0896 C 182.0257 24.8983 183.1614 25.5283 183.2258 24.2678 C 183.2834 23.1617 182.6755 22.5546 181.4208 22.6563 C 179.8216 22.7858 179.6567 21.4407 179.5533 20.3954 C 179.3903 18.7421 179.4723 17.0629 179.4821 15.395 C 179.4928 13.6141 179.5084 13.6068 181.2715 13.5075 C 181.9691 13.4681 182.7516 13.6652 183.0492 12.7261 C 183.4112 11.5854 182.8697 10.9666 181.411 10.8615 C 179.5299 10.7252 179.5289 10.7252 179.4781 8.8474 C 179.4694 8.5295 179.4528 8.2101 179.4762 7.8941 C 179.5562 6.8094 178.8313 6.844 178.0731 6.8197 C 177.2457 6.7934 176.913 7.141 176.9677 7.9487 C 176.9999 8.4233 176.9443 8.9039 176.9755 9.3785 C 177.0379 10.2943 176.8623 10.973 175.7178 10.8634 C 174.7284 10.7685 174.5284 11.3396 174.5323 12.1862 C 174.5352 13.0226 174.7031 13.6156 175.7119 13.5016 C 176.8535 13.3726 176.9989 14.0382 176.9823 14.9607 C 176.9452 16.9466 176.9335 18.9354 176.9852 20.9212 C 177.0574 23.7225 178.519 25.0852 181.4383 25.0896 ZM 277.1216 25.0701 L 278.0778 25.0701 C 279.0418 25.0623 279.4028 24.6558 278.9774 23.7206 C 278.713 23.1393 278.4759 22.7118 277.6475 22.6325 C 275.8659 22.4621 275.4551 21.9947 275.3819 20.2825 C 275.3039 18.4568 275.3868 16.6243 275.3488 14.7962 C 275.3312 13.9301 275.5654 13.4179 276.5421 13.4997 C 276.9372 13.5328 277.3382 13.4885 277.7363 13.5021 C 278.4388 13.527 278.7032 13.1915 278.751 12.5017 C 278.8408 11.1891 278.6583 10.8673 277.1704 10.8868 C 275.3585 10.9111 275.2961 10.6604 275.3575 8.9837 C 275.3663 8.7456 275.3293 8.5027 275.3634 8.2685 C 275.5322 7.083 274.9731 6.7987 273.8598 6.7968 C 272.4636 6.7953 272.606 7.6634 272.6031 8.5504 C 272.6002 9.7018 272.9583 11.0557 270.9659 10.9428 C 270.319 10.9063 270.1717 11.5995 270.1892 12.2076 C 270.2087 12.9238 270.4302 13.5299 271.2537 13.4783 C 272.5456 13.3965 272.6051 14.1438 272.6246 15.1287 C 272.6656 17.1871 272.4519 19.246 272.8441 21.3063 C 273.3476 23.9509 274.5077 25.0526 277.1216 25.0701 ZM 190.9027 18.0537 C 190.928 21.9733 193.216 24.7069 197.0457 25.3934 C 199.4684 25.8272 202.5662 24.4606 203.6863 22.464 C 204.2122 21.5249 203.9488 21.0512 202.9057 20.7367 C 201.8979 20.4329 201.492 21.133 200.9124 21.6675 C 198.8224 23.5925 195.9314 23.1451 194.3459 20.7752 C 193.6102 19.6768 193.6834 18.5074 193.7146 17.3244 C 193.7673 15.3531 194.8582 14.0396 196.5988 13.2913 C 198.2468 12.5835 199.9825 13.0109 201.2285 14.7241 C 202.0696 15.8804 202.735 15.2796 203.4268 14.9028 C 204.4435 14.3473 203.6961 13.6604 203.3565 13.1102 C 202.615 11.9067 201.4803 11.1054 200.1426 10.7748 C 194.3391 9.3406 190.5202 13.7577 190.9027 18.0537 ZM 166.797 20.9012 C 165.5461 17.9013 164.4875 15.3414 163.4108 12.7899 C 162.4668 10.5533 162.4443 10.5509 159.8343 11.2378 C 161.3916 14.7996 162.8678 18.3813 164.5255 21.8769 C 165.288 23.484 165.2348 24.8647 164.4079 26.3802 C 163.6186 27.8271 162.9741 29.3524 162.2482 30.8811 C 164.8621 31.3378 164.868 31.3402 165.7656 29.2945 C 167.6448 25.0146 169.5699 20.7532 171.3652 16.4383 C 172.1038 14.6638 173.2268 13.0158 173.542 11.045 C 170.8607 10.637 170.9915 10.5835 170.0353 12.8464 C 168.9601 15.3896 167.9707 17.969 166.797 20.9012 ZM 205.8007 21.5492 C 207.4379 24.947 210.9612 26.3622 214.3059 24.9786 C 215.9529 24.2975 217.3179 22.5108 217.2349 20.9738 C 217.1354 19.116 216.0875 17.8784 214.3829 17.2329 C 213.4999 16.8989 212.5574 16.7217 211.6432 16.4685 C 211.1104 16.321 210.5748 16.1803 210.0518 16.0055 C 209.2693 15.745 208.878 15.1896 209.0029 14.3668 C 209.1102 13.6618 209.5805 13.2295 210.2762 13.1297 C 211.4685 12.9583 212.7974 12.7461 213.6902 13.6711 C 214.7947 14.8152 215.6962 14.617 216.8037 13.6604 C 215.9997 11.3985 214.1312 10.6794 211.9817 10.5572 C 209.9484 10.4413 208.0009 10.8323 206.6749 12.6058 C 205.6192 14.0162 205.7509 15.6316 206.9276 16.9461 C 207.8731 18.0026 209.119 18.4782 210.4489 18.8049 C 211.2958 19.0128 212.1652 19.1632 212.977 19.4675 C 213.7146 19.7445 214.5176 20.1325 214.3878 21.1393 C 214.259 22.1393 213.5565 22.6208 212.6023 22.7639 C 210.4928 23.0799 208.8283 22.4616 207.9599 20.4037 C 207.0701 20.6875 206.2836 20.8399 205.8007 21.5492 ZM 128.1537 12.7144 C 128.3035 11.232 127.8279 10.6716 126.5726 10.841 C 125.273 11.0163 125.6969 11.9798 125.6896 12.6701 C 125.6525 16.3312 125.6984 19.9928 125.6569 23.6539 C 125.6457 24.6719 125.9828 25.0205 127.0253 25.0468 C 128.2508 25.0779 128.4943 24.5511 128.4684 23.4738 C 128.4138 21.2469 128.4099 19.0152 128.4918 16.7898 C 128.5572 15.0167 129.7232 13.4637 131.0555 13.1224 C 133.323 12.5416 135.1905 13.897 135.2778 16.32 C 135.3666 18.7844 135.3491 21.2552 135.291 23.7211 C 135.2647 24.833 135.7764 25.0643 136.738 25.0283 C 137.5327 24.999 138.1357 24.9513 138.1176 23.8993 C 138.0698 21.1145 138.2669 18.3132 138.0274 15.5474 C 137.7834 12.7251 136.2828 10.8415 133.505 10.5655 C 131.4428 10.36 129.8129 11.1307 128.1537 12.7144 ZM 306.018 18.6652 C 306.982 18.2528 307.7899 18.4295 308.5753 18.4208 C 310.9736 18.395 313.3719 18.3877 315.7692 18.4227 C 316.6698 18.4359 317.0317 18.1481 317.0356 17.1924 C 317.0503 13.2431 313.287 9.9481 309.3861 10.5591 C 306.0473 11.082 304.0451 13.1224 303.3348 16.7251 C 302.7553 19.671 304.2686 23.0302 306.8474 24.518 C 310.4262 26.5828 314.8188 25.1884 316.378 21.3964 C 315.455 21.2854 314.653 20.0084 313.6675 21.3725 C 312.4294 23.0843 310.5794 23.1047 308.8954 22.578 C 307.2298 22.0565 306.2473 20.6471 306.018 18.6652 ZM 314.1046 16.3078 L 306.3537 16.3078 C 306.9918 13.9091 307.8689 13.1307 309.9569 13.0513 C 312.2967 12.9627 313.1094 13.5635 314.1046 16.3078 ZM 247.1051 18.4115 L 249.6556 18.4115 C 252.05 18.411 254.4463 18.3813 256.8406 18.4251 C 257.7676 18.4422 258.1393 18.1145 258.0769 17.1851 C 257.9061 14.6418 256.9587 12.4725 254.6336 11.2923 C 252.3144 10.1146 249.8107 10.0752 247.5978 11.5737 C 243.5613 14.3064 243.1047 20.9738 247.3227 24.111 C 250.8342 26.7235 255.9001 25.4504 257.4466 21.4787 C 256.5538 21.1495 255.8913 20.3029 254.7331 21.3818 C 251.6265 24.278 248.2564 23.0526 247.1051 18.4115 ZM 251.2187 16.3741 C 250.2654 16.3741 249.3121 16.3901 248.3589 16.3702 C 247.3578 16.3487 247.3188 15.7295 247.7412 15.1009 C 248.5608 13.8819 249.5629 12.9836 251.2323 13.0177 C 252.7964 13.0499 254.0111 13.4919 254.8063 14.8877 C 255.4122 15.9505 255.262 16.3132 254.0784 16.3697 C 253.1271 16.4149 252.1719 16.3789 251.2187 16.3741 ZM 149.4821 23.7182 C 149.6275 23.8885 149.7753 23.9893 149.8183 24.1237 C 150.1983 25.3204 151.1789 25.1037 151.9936 24.9333 C 152.8795 24.7478 152.521 23.8978 152.5297 23.3306 C 152.5668 20.947 152.5858 18.561 152.5293 16.1774 C 152.4697 13.6487 151.033 11.5343 148.8186 10.9009 C 145.8862 10.0621 143.0723 10.5942 141.5628 12.4403 C 141.2101 12.8717 140.7593 13.3235 141.0257 13.9052 C 141.3643 14.6438 142.2039 14.6623 142.8615 14.8069 C 143.4059 14.9262 143.4757 14.1754 143.8484 13.8984 C 145.1837 12.9072 146.6096 12.7422 148.1039 13.4496 C 149.2606 13.9973 149.9758 14.8249 149.6617 16.2475 C 147.923 15.8668 146.2667 15.8171 144.6212 15.9899 C 141.9975 16.266 140.1969 18.0678 140.0959 20.392 C 139.989 22.8545 141.4331 24.6242 144.0489 25.2848 C 146.1721 25.8208 147.9293 25.0984 149.4821 23.7182 ZM 145.8676 23.0049 C 144.4646 23.039 143.1166 22.1252 142.9527 21.0293 C 142.7859 19.9095 143.4972 18.9509 144.8446 18.337 C 146.3443 17.6535 147.8039 17.9485 149.2426 18.4636 C 149.7709 18.6525 150.1373 19.0098 149.9183 19.7513 C 149.4612 21.3019 147.4653 22.9665 145.8676 23.0049 ZM 296.3264 4.8401 C 292.2704 3.5549 289.2076 5.7622 289.2964 9.4715 C 289.3208 10.4866 288.9842 10.9632 287.9295 10.8547 C 286.8972 10.7485 286.7976 11.4053 286.7859 12.2154 C 286.7733 13.0815 287.0035 13.6297 287.99 13.5094 C 289.113 13.3721 289.3062 13.9846 289.2945 14.9374 C 289.2574 17.8881 289.3179 20.8404 289.2642 23.7907 C 289.2418 24.9737 289.8945 25.0312 290.7853 25.0278 C 291.6332 25.0244 292.1347 24.8452 292.1074 23.8365 C 292.0538 21.8438 292.0391 19.8467 292.1113 17.8555 C 292.1621 16.4524 291.441 14.6199 292.5036 13.7602 C 293.4949 12.9574 295.2736 13.6204 296.6962 13.4992 C 297.9577 13.3916 298.3539 13.8819 298.3197 15.1292 C 298.2417 17.9982 298.3158 20.8716 298.2846 23.7425 C 298.2748 24.6373 298.5588 25.0409 299.515 25.0331 C 300.399 25.0258 300.8292 24.7814 300.8214 23.8199 C 300.7921 19.9115 300.7941 16.0031 300.8224 12.0951 C 300.8292 11.1658 300.4663 10.8206 299.5471 10.8391 C 297.6289 10.8775 295.7107 10.8673 293.7924 10.8435 C 292.1689 10.823 291.8362 10.4068 292.1191 8.8615 C 292.3338 7.6906 293.0704 6.8971 294.2198 6.956 C 295.8951 7.0422 296.1966 6.1152 296.3264 4.8401 ZM 224.5351 16.6525 C 224.6366 19.3278 226.6709 22.725 230.8752 24.5594 C 234.983 26.3515 238.8165 25.5122 242.2617 22.7595 C 242.6471 22.4514 243.3477 22.1213 242.9437 21.4358 C 242.6247 20.8954 242.168 20.3234 241.5143 20.2425 C 240.8411 20.1593 240.3932 20.781 239.8946 21.1495 C 237.1754 23.1583 234.257 23.3335 231.3494 21.8024 C 228.3784 20.2382 227.1783 17.58 227.3354 14.2543 C 227.4857 11.0879 228.9756 8.7296 231.8227 7.4745 C 234.6044 6.2486 237.4505 6.3021 239.8566 8.4764 C 240.6528 9.195 241.0918 9.1385 241.7885 8.4214 C 242.5788 7.6074 242.3154 7.0198 241.5846 6.4511 C 241.0216 6.0134 240.4518 5.5641 239.8254 5.2301 C 233.1272 1.6596 224.4073 6.5076 224.5351 16.6525 ZM 105.4672 24.7566 C 108.7343 25.3632 108.5431 24.7011 109.0963 23.1485 C 109.5383 21.9071 109.4856 20.1442 110.694 19.5848 C 111.818 19.0644 113.3436 19.3555 114.6905 19.3833 C 116.0326 19.41 117.6542 18.8419 118.6382 19.634 C 119.4949 20.3243 119.6705 21.8647 120.132 23.0356 C 121.0048 25.2527 120.9999 25.2546 123.7158 24.6933 L 116.5375 5.585 C 116.239 4.7846 115.756 4.4648 114.9227 4.5213 C 114.0714 4.5787 113.1265 4.3255 112.744 5.4779 C 112.4947 6.2277 112.1571 6.9477 111.8785 7.6887 L 105.4672 24.7566 ZM 117.7054 16.765 C 115.4925 17.0878 113.4748 16.8658 111.259 16.9456 C 112.3274 13.9963 113.2875 11.3376 114.2622 8.6843 C 114.3017 8.5772 114.4842 8.5222 114.8354 8.2812 C 115.7423 11.1409 117.0512 13.7792 117.7054 16.765 ZM 330.0096 12.046 C 324.7496 9.823 322.1893 10.2208 319.8633 13.5537 C 317.8435 16.449 318.2202 20.7776 320.7267 23.4645 C 323.0948 26.0034 326.0804 26.0993 329.9266 23.6626 C 329.8935 25.352 331.0789 25.093 332.0624 24.9825 C 333.1591 24.8588 332.7884 23.909 332.7913 23.2751 C 332.8167 17.4699 332.7855 11.6648 332.8235 5.8601 C 332.8303 4.7949 332.4196 4.4984 331.4175 4.5008 C 330.4438 4.5028 329.9549 4.7267 329.991 5.8255 C 330.0574 7.8805 330.0096 9.9394 330.0096 12.046 ZM 330.0437 17.8769 C 330.0593 21.2274 328.2055 23.0171 325.095 22.7746 C 323.8422 22.6768 323.0421 21.9782 322.3571 21.0965 C 320.9248 19.2557 321.0526 17.2095 322.0147 15.2825 C 322.8128 13.6837 324.2734 12.9277 326.1487 13.0654 C 328.4367 13.2334 330.031 15.1667 330.0437 17.8769 Z" fill="#848483"/>
<path d="M 46.928 132.6421 C 46.9006 131.906 46.5348 131.4551 45.8079 131.3636 C 45.0444 131.2682 44.6053 131.6168 44.5775 132.4064 C 44.5531 133.1065 44.7287 133.6645 45.5771 133.6908 C 46.3167 133.7131 46.7426 133.3324 46.928 132.6421 ZM 91.3171 141.379 C 91.8727 141.379 92.4294 141.3888 92.985 141.3761 C 93.4831 141.3654 93.9529 141.3041 93.9451 140.6273 C 93.9398 140.1863 93.7636 139.789 93.3431 139.716 C 91.9313 139.4716 90.4989 139.4901 89.0891 139.6984 C 88.5744 139.7754 88.4012 140.3041 88.4992 140.8318 C 88.5949 141.3459 89.0125 141.3674 89.4101 141.3761 C 90.0452 141.3898 90.6814 141.38 91.3171 141.379 ZM 46.5879 141.3878 C 46.5879 139.7968 46.5762 138.2048 46.5933 136.6128 C 46.6011 135.9263 46.3347 135.6138 45.6156 135.607 C 44.8917 135.6002 44.6307 135.9079 44.6336 136.5992 C 44.6463 139.7822 44.6458 142.9662 44.6341 146.1492 C 44.6316 146.8269 44.8673 147.1628 45.6015 147.1579 C 46.3142 147.1531 46.5996 146.8561 46.5928 146.1628 C 46.5767 144.5718 46.5874 142.9798 46.5879 141.3878 ZM 26.0016 141.4774 C 26.0016 142.9837 26.0221 144.491 25.9933 145.9963 C 25.9777 146.8376 26.2401 147.4257 27.1646 147.413 C 28.0842 147.4004 28.3237 146.8084 28.3096 145.969 C 28.2764 144.0665 28.2818 142.1629 28.3042 140.2603 C 28.3291 138.159 28.5574 137.8445 30.6981 137.5203 C 31.5616 137.3888 32.0583 137.1211 31.9929 136.2243 C 31.9338 135.4132 31.1338 134.9303 30.1825 135.3344 C 29.2243 135.7404 28.3916 135.9536 27.3383 135.6274 C 26.3504 135.3217 25.9455 135.938 25.986 136.9575 C 26.0455 138.4619 26.0016 139.9701 26.0016 141.4774 ZM 128.5216 139.0675 L 128.5206 131.6528 C 128.5196 130.8388 128.0313 130.5058 127.2912 130.5379 C 126.659 130.5652 126.2536 130.905 126.235 131.5876 L 126.2267 132.3052 L 126.2204 145.7003 C 126.2184 146.5435 126.2101 147.3897 127.3444 147.4121 C 128.4577 147.4325 128.546 146.6438 128.5357 145.7655 C 128.5094 143.5329 128.5216 141.3002 128.5216 139.0675 ZM 32.6915 135.8368 C 33.9687 139.3557 35.2439 142.8347 36.484 146.3264 C 36.6689 146.8473 36.927 147.1307 37.4822 147.1599 C 38.01 147.1881 38.4193 147.0265 38.6628 146.5377 C 38.7335 146.3955 38.8013 146.2514 38.8555 146.1024 C 39.9629 143.0431 41.0806 139.9867 42.1597 136.9166 C 42.3031 136.5086 42.5183 135.8825 41.8972 135.6975 C 41.3245 135.5271 40.5986 135.3694 40.2981 136.2301 C 40.1415 136.679 39.9766 137.1259 39.8248 137.5777 L 37.7227 143.8551 C 36.5362 141.5894 35.9669 139.2866 35.282 137.051 C 34.8331 135.5875 34.117 135.349 32.6915 135.8368 ZM 51.3357 141.2904 C 51.2386 140.4268 51.4152 139.4083 51.9841 138.5057 C 53.1807 136.6031 55.4112 136.5807 56.6938 138.4336 C 56.7835 138.5631 56.8767 138.7053 56.9148 138.8552 C 57.147 139.7734 57.8685 140.0314 58.5613 139.6848 C 59.4472 139.2418 58.9574 138.4745 58.652 137.8328 C 57.3221 135.0354 53.5925 134.4288 51.1249 136.5057 C 48.5803 138.6469 48.533 144.1804 51.2225 146.3546 C 53.5827 148.2631 57.2114 147.6954 58.691 145.0859 C 58.972 144.5903 59.2926 143.9817 58.7403 143.5884 C 58.2217 143.2193 57.5334 143.1804 57.1031 143.898 C 56.9806 144.1025 56.8684 144.3196 56.7123 144.4958 C 54.959 146.4783 52.689 146.0499 51.6645 143.5913 C 51.3742 142.8951 51.3577 142.2038 51.3357 141.2904 ZM 77.5036 147.5679 C 77.8592 147.6243 78.5349 147.3527 79.2086 147.1248 C 80.7995 146.5883 81.4942 145.6847 81.6279 144.2553 C 81.7766 142.6556 81.0234 141.6721 79.6081 141.1395 C 78.4997 140.7218 77.364 140.3732 76.2278 140.0353 C 75.4897 139.8163 74.8492 139.5329 74.9043 138.6264 C 74.9565 137.7598 75.6644 137.4385 76.3322 137.2058 C 77.2069 136.901 78.0675 137.014 78.7666 137.7024 C 78.992 137.9244 79.2052 138.1668 79.3793 138.4297 C 79.8784 139.1804 80.7131 139.2476 81.2522 138.8465 C 82.0357 138.2632 81.3098 137.5125 80.9653 136.9809 C 79.9243 135.3743 76.9191 134.8533 74.9057 135.8309 C 73.673 136.4288 72.8846 137.2652 72.8753 138.7617 C 72.8656 140.3012 73.711 141.1084 75.0004 141.5699 C 76.0405 141.9418 77.1474 142.1327 78.1826 142.5154 C 78.912 142.7851 79.7608 143.1385 79.6018 144.1628 C 79.4457 145.1687 78.7022 145.5854 77.7407 145.6818 C 76.3478 145.821 75.2585 145.4676 74.6252 144.0674 C 74.2632 143.2661 73.4105 143.1872 72.7899 143.5971 C 72.1089 144.047 72.5309 144.7412 72.8714 145.2787 C 73.853 146.8308 75.3755 147.3887 77.5036 147.5679 ZM 151.9214 138.7958 C 150.7535 135.6021 147.7088 134.3558 145.0197 135.8874 C 143.8909 136.53 142.9293 137.4317 143.0244 138.9098 C 143.1127 140.27 144.0211 141.0392 145.1978 141.491 C 146.1579 141.861 147.1726 142.085 148.141 142.4365 C 149.0674 142.7734 150.031 143.2252 149.6948 144.4569 C 149.3904 145.5708 148.3879 145.7169 147.3902 145.6896 C 146.1833 145.6565 145.2851 145.1911 144.7475 144.0139 C 144.4417 143.342 143.7172 143.2485 143.0918 143.5913 C 142.2209 144.0684 142.8015 144.7393 143.0615 145.2329 C 144.0441 147.1005 146.7053 147.9203 149.1475 147.1764 C 151.0754 146.5893 151.9458 145.6643 152.016 144.1258 C 152.0819 142.6828 151.1964 141.5816 149.3343 140.9097 C 148.2893 140.5329 147.2029 140.271 146.1496 139.9146 C 145.5642 139.7169 145.2856 139.2583 145.2788 138.6264 C 145.272 137.9828 145.612 137.6079 146.1589 137.3392 C 147.2346 136.8105 148.6167 136.9351 149.366 138.0646 C 150.068 139.121 150.7788 139.1113 151.9214 138.7958 ZM 70.577 140.3012 C 70.8151 136.4015 66.9479 134.4356 64.1491 135.6333 C 62.1319 136.4969 60.5605 138.8095 60.6551 141.3859 C 60.7429 143.787 61.4801 145.9593 63.9032 147.0333 C 65.9815 147.9544 67.9505 147.5903 69.6979 146.1638 C 70.0882 145.8454 70.7136 145.4686 70.1892 144.8133 C 69.796 144.3215 69.2989 144.1794 68.7681 144.6916 C 68.5988 144.8542 68.3856 144.9769 68.1802 145.0976 C 66.0878 146.3283 63.7681 145.4686 63.0212 143.2047 C 62.7119 142.2671 63.0041 141.8834 64.0013 141.9048 C 65.6722 141.9409 67.3455 141.935 69.0169 141.9068 C 70.5936 141.8805 70.5931 141.8581 70.577 140.3012 ZM 63.0066 140.3829 C 62.9719 139.2817 63.3842 138.6021 63.8613 137.9886 C 64.5306 137.1279 65.9151 136.7754 66.8679 137.2019 C 67.8934 137.6605 68.3861 138.5582 68.5612 139.6128 C 68.6656 140.2447 68.2124 140.3888 67.6719 140.3859 C 66.1742 140.3771 64.677 140.3829 63.0066 140.3829 ZM 13.9482 141.5806 C 14.0224 143.7422 14.6117 145.6127 16.667 146.7762 C 18.5087 147.8191 20.3386 147.7568 22.0968 146.7295 C 22.7422 146.3527 23.9336 145.8843 23.2706 144.8152 C 22.5652 143.6789 21.9524 144.8581 21.3489 145.1842 C 19.3204 146.2806 17.128 145.563 16.4275 143.5523 C 16.0279 142.4073 16.3104 141.9545 17.552 141.9263 C 19.3044 141.8873 21.0587 141.9156 22.812 141.9126 C 23.3925 141.9117 23.8848 141.8795 23.9907 141.0918 C 24.2229 139.3654 23.0832 136.8426 21.5807 135.94 C 19.8644 134.9079 17.5496 135.051 16.0226 136.4405 C 14.5371 137.7919 13.899 139.5602 13.9482 141.5806 ZM 16.4426 140.381 C 16.6656 137.9438 17.653 136.8971 19.3829 137.0734 C 20.4347 137.1805 21.1367 137.7462 21.5207 138.7053 C 21.9636 139.8124 21.6504 140.3333 20.4669 140.3713 C 19.1317 140.4141 17.7935 140.381 16.4426 140.381 ZM 131.016 141.4238 C 131.016 141.9009 130.9438 142.3907 131.0272 142.8532 C 131.8195 147.2436 136.3043 148.6594 139.3821 146.5542 C 139.9002 146.1988 140.8394 145.7821 140.3744 144.9291 C 139.7495 143.7821 139.0919 144.6477 138.4747 145.0937 C 138.2196 145.2777 137.9269 145.4296 137.6298 145.5348 C 135.9764 146.12 134.1138 145.2865 133.4791 143.6945 C 132.983 142.4511 133.2874 141.9565 134.6549 141.9253 C 136.3282 141.8873 138.0025 141.9253 139.6763 141.9087 C 140.209 141.9039 140.9003 142.0343 140.9467 141.2135 C 141.0482 139.4015 140.7003 137.7004 139.2363 136.4726 C 137.881 135.3363 136.3472 134.8913 134.5909 135.5817 C 132.179 136.531 130.9955 138.4064 131.016 141.4238 ZM 135.8618 140.3829 C 135.6232 140.3829 135.3788 140.4161 135.1471 140.3761 C 134.5617 140.2768 133.7548 140.7111 133.4367 139.9828 C 133.0708 139.1473 133.6206 138.4657 134.1982 137.8854 C 135.3583 136.7189 137.2224 136.7871 138.1532 138.0402 C 138.5928 138.6313 138.9275 139.3314 138.5738 140.0314 C 138.2747 140.6244 137.5805 140.3313 137.0541 140.3761 C 136.659 140.4092 136.2594 140.3829 135.8618 140.3829 ZM 123.2904 142.6419 L 123.2338 142.6419 C 123.2338 141.7666 123.2001 140.8893 123.2406 140.0159 C 123.3245 138.2009 122.7947 136.641 121.1019 135.8222 C 119.2705 134.9371 117.4064 135.05 115.6857 136.2574 C 114.51 137.0821 113.826 138.3625 114.4027 138.7121 C 115.4564 139.3518 116.0331 138.6624 116.7239 137.8484 C 117.6649 136.7394 119.4539 136.7871 120.3793 137.6761 C 120.8945 138.1707 121.0302 138.7617 120.9057 139.4161 C 120.7521 140.2281 120.0588 140.011 119.5559 139.9984 C 118.3357 139.9691 117.1878 140.2408 116.078 140.6945 C 114.6012 141.2992 113.8055 142.4413 113.8046 144.0148 C 113.8041 145.525 114.6734 146.5133 116.038 147.0966 C 117.102 147.5513 118.1357 147.6633 119.2714 147.2222 C 120.071 146.9126 120.8321 146.4257 121.8819 147.0752 C 122.7362 147.6029 123.2787 147.046 123.2879 145.9827 C 123.2977 144.8688 123.2904 143.7549 123.2904 142.6419 ZM 118.3299 145.6584 C 117.0805 145.6838 116.2131 145.0275 116.0619 143.9808 C 115.8979 142.8445 116.396 142.1999 117.7415 141.8464 C 118.0455 141.7666 118.3689 141.7637 118.6802 141.7062 C 119.4837 141.5592 120.4364 141.0081 120.9092 142.122 C 121.397 143.2719 120.8584 144.6224 119.8471 145.1862 C 119.3636 145.4559 118.866 145.713 118.3299 145.6584 ZM 106.3619 131.3412 L 106.1224 131.3432 C 103.5012 131.3967 101.5985 132.7657 101.1312 134.9342 C 100.7004 136.9302 101.9366 138.7637 104.4593 139.7588 C 105.5667 140.196 106.7371 140.4754 107.846 140.9088 C 108.9266 141.3323 109.8579 141.9857 109.8052 143.3177 C 109.7579 144.526 108.6538 145.5085 107.1659 145.6458 C 105.174 145.8288 103.4743 145.2962 102.7338 143.2339 C 102.4172 142.3518 101.8264 142.4082 101.2224 142.5728 C 100.4716 142.7773 100.6731 143.4559 100.7741 143.9769 C 100.9131 144.6925 101.2941 145.3118 101.8293 145.8123 C 103.7822 147.638 107.8304 147.9797 110.1106 146.5231 C 111.7634 145.4676 112.4157 143.5689 111.7215 141.7422 C 111.1673 140.2827 109.9559 139.53 108.5855 138.9993 C 107.3269 138.5135 106.0336 138.1162 104.7798 137.6186 C 103.7104 137.1951 103.0406 136.3499 103.2445 135.2029 C 103.4387 134.1114 104.2656 133.4454 105.3921 133.238 C 107.4723 132.8553 108.4977 133.3149 109.5812 135.3606 C 110.0389 136.2243 110.7209 136.2866 111.3653 136.0296 C 112.1556 135.7141 111.801 134.9634 111.5917 134.3957 C 110.8926 132.5048 108.8704 131.3393 106.3619 131.3412 ZM 6.5612 131.3373 C 6.2792 131.35 5.7938 131.3276 5.3235 131.3996 C 2.8218 131.7862 1.188 133.8456 1.4348 136.2457 C 1.6144 137.9916 2.8457 138.8737 4.2507 139.5018 C 5.5513 140.0831 6.971 140.3946 8.2794 140.9604 C 9.3312 141.4141 10.2323 142.1366 10.0786 143.4861 C 9.9269 144.825 8.8834 145.3167 7.7808 145.601 C 5.8748 146.0937 4.2005 145.3624 3.215 143.5075 C 2.7545 142.641 2.1822 142.1785 1.3656 142.6244 C 0.5611 143.0626 0.9514 143.899 1.2543 144.5329 C 1.4548 144.9525 1.7905 145.3274 2.1291 145.6575 C 4.12 147.6019 7.3227 148.1696 10.0991 146.7032 C 13.1062 145.1151 13.0808 141.2797 10.1069 139.5787 C 9.2239 139.0733 8.1862 138.8406 7.23 138.458 C 6.3499 138.1055 5.4006 137.9331 4.6161 137.3295 C 3.8785 136.7618 3.2706 136.1523 3.5785 135.1474 C 3.8731 134.1864 4.4678 133.4843 5.526 133.2526 C 7.5808 132.8047 8.8599 133.3266 9.9761 135.4152 C 10.4011 136.2097 10.9309 136.2097 11.5168 136.0558 C 12.4466 135.8114 12.0773 135.0452 11.9066 134.5018 C 11.3197 132.6314 9.2053 131.3636 6.5612 131.3373 Z" fill="#828281"/>
</g>
</svg>
