<?xml version="1.0" standalone="no"?>
<!-- Generator: Adobe Fireworks 10, Export SVG Extension by Aaron Beall (http://fireworks.abeall.com) . Version: 0.6.0  -->
<!DOCTYPE svg PUBLIC "-//W3C//DTD SVG 1.1//EN" "http://www.w3.org/Graphics/SVG/1.1/DTD/svg11.dtd">
<svg id="" viewBox="0 0 185 59" style="background-color:#ffffff00" version="1.1"
xmlns="http://www.w3.org/2000/svg" xmlns:xlink="http://www.w3.org/1999/xlink" xml:space="preserve"
x="0px" y="0px" width="185px" height="59px"
>
<g id="Layer%201">
<path d="M 14.5766 6.454 C 16.9686 6.454 18.9006 8.372 18.9006 10.733 C 18.9006 13.042 17.0343 14.933 14.708 14.998 L 8.1891 14.998 L 8.1891 6.454 L 14.5766 6.454 ZM 15.8646 21.286 C 21.608 21.064 26.1817 16.407 26.1817 10.681 C 26.1817 4.954 21.608 0.284 15.8646 0.049 L 4.588 0.049 C 2.5903 0.049 1 1.614 1 3.597 L 1 26.4 C 1 28.382 2.5903 29.961 4.588 29.961 C 6.5989 29.961 8.1891 28.382 8.1891 26.4 L 8.1891 21.312 L 15.8646 21.312 L 15.8646 21.286 ZM 33.8571 30 C 35.868 30 37.458 28.435 37.458 26.452 L 37.458 3.571 C 37.458 1.588 35.868 0.023 33.8571 0.023 C 31.8594 0.023 30.2691 1.588 30.2691 3.571 L 30.2691 26.452 C 30.2691 28.435 31.8594 30 33.8571 30 ZM 68.699 27.652 L 75.507 4.145 C 76.006 2.423 75.007 0.623 73.273 0.14 C 71.525 -0.355 69.724 0.636 69.225 2.358 L 65.492 15.272 L 61.746 2.358 C 61.352 0.975 60.103 0.075 58.723 0.023 L 58.513 0.023 L 58.316 0.023 C 56.936 0.075 55.687 0.975 55.293 2.358 L 51.574 15.22 L 47.841 2.358 C 47.355 0.636 45.541 -0.355 43.806 0.14 C 42.071 0.623 41.059 2.423 41.559 4.145 L 48.367 27.652 C 48.761 29.022 49.97 29.909 51.324 29.987 C 51.403 30 51.482 29.987 51.574 29.987 C 51.653 29.987 51.731 30 51.81 29.987 C 53.164 29.909 54.373 29.022 54.767 27.652 L 58.513 14.698 L 62.272 27.652 C 62.666 29.035 63.902 29.922 65.269 29.987 C 65.334 30 65.413 29.987 65.492 29.987 C 65.558 29.987 65.637 30 65.702 29.987 C 67.069 29.922 68.305 29.035 68.699 27.652 ZM 83.287 30 C 85.285 30 86.875 28.422 86.875 26.439 L 86.875 3.558 C 86.875 1.575 85.285 0.01 83.287 0.01 C 81.277 0.01 79.686 1.575 79.686 3.558 L 79.686 26.439 C 79.686 28.422 81.277 30 83.287 30 ZM 105.972 14.907 L 115.277 5.71 C 116.605 4.393 116.605 2.306 115.277 0.988 C 113.937 -0.329 111.834 -0.329 110.493 0.988 L 99.387 11.972 L 99.387 3.558 C 99.387 1.575 97.797 0.01 95.786 0.01 C 93.789 0.01 92.198 1.575 92.198 3.558 L 92.198 26.439 C 92.198 28.422 93.789 30 95.786 30 C 97.797 30 99.387 28.422 99.387 26.439 L 99.387 21.403 L 101.188 19.629 L 110.388 28.878 C 111.715 30.209 113.818 30.222 115.159 28.917 C 116.513 27.613 116.526 25.526 115.211 24.195 L 105.972 14.907 ZM 169.728 4.041 C 175.918 4.041 180.952 8.959 180.952 14.998 C 180.952 21.038 175.918 25.956 169.728 25.956 L 136.95 25.956 C 130.759 25.956 125.726 21.038 125.726 14.998 C 125.726 8.959 130.759 4.041 136.95 4.041 L 169.728 4.041 ZM 169.728 29.961 C 178.166 29.961 185 23.256 185 14.998 C 185 6.741 178.166 0.036 169.728 0.036 L 136.95 0.036 C 128.512 0.036 121.678 6.741 121.678 14.998 C 121.678 23.256 128.512 29.961 136.95 29.961 L 169.728 29.961 ZM 142.614 13.068 L 142.614 13.107 C 142.614 14.203 141.773 15.051 140.327 15.051 L 138.054 15.051 L 138.054 11.111 L 140.275 11.111 C 141.707 11.111 142.614 11.789 142.614 13.068 ZM 140.235 17.581 C 143.166 17.581 145.519 16.029 145.519 13.042 L 145.519 13.016 C 145.519 10.38 143.639 8.554 140.511 8.554 L 136.621 8.554 C 135.819 8.554 135.175 9.18 135.175 9.976 L 135.175 20.138 C 135.175 20.934 135.819 21.56 136.621 21.56 C 137.423 21.56 138.054 20.934 138.054 20.138 L 138.054 17.581 L 140.235 17.581 ZM 154.837 12.95 L 154.837 12.989 C 154.837 14.085 154.035 14.816 152.629 14.816 L 149.725 14.816 L 149.725 11.111 L 152.577 11.111 C 153.983 11.111 154.837 11.737 154.837 12.95 ZM 157.137 19.16 L 155.139 16.772 C 156.717 16.12 157.742 14.868 157.742 12.846 L 157.742 12.807 C 157.742 11.594 157.361 10.576 156.625 9.859 C 155.77 9.011 154.482 8.554 152.813 8.554 L 148.279 8.554 C 147.477 8.554 146.846 9.18 146.846 9.976 L 146.846 20.138 C 146.846 20.934 147.477 21.56 148.279 21.56 C 149.081 21.56 149.725 20.934 149.725 20.138 L 149.725 17.32 L 152.011 17.32 L 154.811 20.816 C 155.153 21.247 155.586 21.56 156.23 21.56 C 156.927 21.56 157.597 21.038 157.597 20.255 C 157.597 19.812 157.413 19.512 157.137 19.16 ZM 169.846 14.998 L 169.846 15.038 C 169.846 17.242 168.243 19.055 165.93 19.055 C 163.603 19.055 161.961 17.216 161.961 14.998 L 161.961 14.959 C 161.961 12.755 163.577 10.941 165.89 10.941 C 168.203 10.941 169.846 12.794 169.846 14.998 ZM 165.89 21.664 C 169.912 21.664 172.843 18.664 172.843 14.998 L 172.843 14.959 C 172.843 11.294 169.951 8.332 165.93 8.332 C 161.895 8.332 158.964 11.333 158.964 14.998 L 158.964 15.038 C 158.964 18.703 161.855 21.664 165.89 21.664 ZM 137.941 49 L 135.997 49 L 135.997 58 L 137.941 58 L 137.941 53.464 C 137.941 52.546 138.211 51.88 138.769 51.484 C 139.327 51.07 139.975 50.89 140.713 50.944 L 140.713 48.838 C 139.363 48.838 138.427 49.396 137.941 50.512 L 137.941 49 ZM 127.033 52.744 C 127.303 51.376 128.311 50.53 129.751 50.53 C 131.029 50.53 132.055 51.286 132.325 52.744 L 127.033 52.744 ZM 134.215 54.328 C 134.269 53.986 134.287 53.716 134.287 53.518 C 134.287 52.204 133.855 51.07 133.009 50.152 C 132.163 49.234 131.083 48.766 129.769 48.766 C 128.383 48.766 127.231 49.216 126.349 50.134 C 125.467 51.034 125.017 52.15 125.017 53.5 C 125.017 54.868 125.467 56.002 126.367 56.902 C 127.267 57.784 128.455 58.234 129.913 58.234 C 131.659 58.234 132.973 57.586 133.855 56.272 L 132.253 55.336 C 131.731 56.074 130.957 56.452 129.931 56.452 C 128.437 56.452 127.339 55.696 127.051 54.328 L 134.215 54.328 ZM 123.264 58 L 123.264 44.86 L 121.32 44.86 L 121.32 58 L 123.264 58 ZM 119.062 58 L 119.062 44.86 L 117.118 44.86 L 117.118 58 L 119.062 58 ZM 108.154 52.744 C 108.424 51.376 109.432 50.53 110.872 50.53 C 112.15 50.53 113.176 51.286 113.446 52.744 L 108.154 52.744 ZM 115.336 54.328 C 115.39 53.986 115.408 53.716 115.408 53.518 C 115.408 52.204 114.976 51.07 114.13 50.152 C 113.284 49.234 112.204 48.766 110.89 48.766 C 109.504 48.766 108.352 49.216 107.47 50.134 C 106.588 51.034 106.138 52.15 106.138 53.5 C 106.138 54.868 106.588 56.002 107.488 56.902 C 108.388 57.784 109.576 58.234 111.034 58.234 C 112.78 58.234 114.094 57.586 114.976 56.272 L 113.374 55.336 C 112.852 56.074 112.078 56.452 111.052 56.452 C 109.558 56.452 108.46 55.696 108.172 54.328 L 115.336 54.328 ZM 100.319 51.484 C 100.319 50.854 100.895 50.53 101.633 50.53 C 102.443 50.53 103.019 50.872 103.325 51.556 L 104.963 50.638 C 104.333 49.468 103.127 48.766 101.633 48.766 C 100.697 48.766 99.905 49.018 99.275 49.522 C 98.645 50.026 98.339 50.692 98.339 51.52 C 98.303 53.41 100.121 53.95 101.471 54.292 C 102.425 54.526 103.181 54.868 103.181 55.444 C 103.181 56.11 102.677 56.452 101.651 56.452 C 100.625 56.452 99.959 56.02 99.653 55.156 L 97.979 56.128 C 98.555 57.442 99.869 58.234 101.651 58.234 C 102.659 58.234 103.487 57.982 104.153 57.496 C 104.819 57.01 105.161 56.326 105.161 55.462 C 105.197 53.536 103.397 52.96 102.011 52.654 C 101.075 52.384 100.319 52.078 100.319 51.484 ZM 89.96 52.744 C 90.23 51.376 91.238 50.53 92.678 50.53 C 93.956 50.53 94.982 51.286 95.252 52.744 L 89.96 52.744 ZM 97.142 54.328 C 97.196 53.986 97.214 53.716 97.214 53.518 C 97.214 52.204 96.782 51.07 95.936 50.152 C 95.09 49.234 94.01 48.766 92.696 48.766 C 91.31 48.766 90.158 49.216 89.276 50.134 C 88.394 51.034 87.944 52.15 87.944 53.5 C 87.944 54.868 88.394 56.002 89.294 56.902 C 90.194 57.784 91.382 58.234 92.84 58.234 C 94.586 58.234 95.9 57.586 96.782 56.272 L 95.18 55.336 C 94.658 56.074 93.884 56.452 92.858 56.452 C 91.364 56.452 90.266 55.696 89.978 54.328 L 97.142 54.328 ZM 83.05 47.344 C 84.148 47.344 85.03 48.28 85.03 49.45 C 85.03 50.62 84.148 51.556 83.05 51.556 L 80.08 51.556 L 80.08 47.344 L 83.05 47.344 ZM 87.46 58 L 84.598 53.104 C 86.092 52.51 87.1 51.052 87.1 49.45 C 87.1 48.316 86.704 47.362 85.912 46.588 C 85.138 45.796 84.184 45.4 83.05 45.4 L 78.01 45.4 L 78.01 58 L 80.08 58 L 80.08 53.41 L 82.528 53.41 L 85.192 58 L 87.46 58 ZM 64.296 55.57 C 63.756 55.012 63.486 54.328 63.486 53.5 C 63.486 52.672 63.756 51.988 64.296 51.448 C 64.836 50.89 65.52 50.62 66.33 50.62 C 67.14 50.62 67.824 50.89 68.364 51.448 C 68.904 51.988 69.174 52.672 69.174 53.5 C 69.174 54.328 68.904 55.012 68.364 55.57 C 67.824 56.11 67.14 56.38 66.33 56.38 C 65.52 56.38 64.836 56.11 64.296 55.57 ZM 69.174 50.278 C 68.436 49.27 67.392 48.766 66.024 48.766 C 64.782 48.766 63.738 49.216 62.856 50.134 C 61.974 51.052 61.542 52.168 61.542 53.5 C 61.542 54.814 61.974 55.948 62.856 56.866 C 63.738 57.784 64.782 58.234 66.024 58.234 C 67.392 58.234 68.436 57.73 69.174 56.704 L 69.174 58 L 71.118 58 L 71.118 45.4 L 69.174 45.4 L 69.174 50.278 ZM 53.134 52.744 C 53.404 51.376 54.412 50.53 55.852 50.53 C 57.13 50.53 58.156 51.286 58.426 52.744 L 53.134 52.744 ZM 60.316 54.328 C 60.37 53.986 60.388 53.716 60.388 53.518 C 60.388 52.204 59.956 51.07 59.11 50.152 C 58.264 49.234 57.184 48.766 55.87 48.766 C 54.484 48.766 53.332 49.216 52.45 50.134 C 51.568 51.034 51.118 52.15 51.118 53.5 C 51.118 54.868 51.568 56.002 52.468 56.902 C 53.368 57.784 54.556 58.234 56.014 58.234 C 57.76 58.234 59.074 57.586 59.956 56.272 L 58.354 55.336 C 57.832 56.074 57.058 56.452 56.032 56.452 C 54.538 56.452 53.44 55.696 53.152 54.328 L 60.316 54.328 ZM 44.441 49 L 44.441 48.82 C 44.441 47.506 45.125 47.038 46.565 47.038 C 47.267 47.038 47.933 47.092 48.563 47.182 L 48.563 45.4 C 47.861 45.238 47.195 45.166 46.565 45.166 C 43.847 45.166 42.497 46.39 42.497 48.82 L 42.497 49 L 41.129 49 L 41.129 50.872 L 42.497 50.872 L 42.497 58 L 44.441 58 L 44.441 50.872 L 47.429 50.872 L 47.429 58 L 49.373 58 L 49.373 49 L 44.441 49 ZM 39.592 58 L 39.592 49 L 37.648 49 L 37.648 58 L 39.592 58 ZM 39.484 47.29 C 39.988 46.786 39.988 46.03 39.502 45.544 C 39.016 45.04 38.224 45.04 37.738 45.544 C 37.252 46.03 37.252 46.786 37.738 47.29 C 38.242 47.776 38.998 47.776 39.484 47.29 ZM 35.8845 49 L 33.6525 49 L 33.6525 46.48 L 31.7085 47.056 L 31.7085 49 L 30.0525 49 L 30.0525 50.872 L 31.7085 50.872 L 31.7085 55.192 C 31.7085 57.55 32.9145 58.36 35.8845 58 L 35.8845 56.254 C 34.4085 56.326 33.6525 56.344 33.6525 55.192 L 33.6525 50.872 L 35.8845 50.872 L 35.8845 49 ZM 26.4257 49 L 24.4817 49 L 24.4817 58 L 26.4257 58 L 26.4257 53.464 C 26.4257 52.546 26.6957 51.88 27.2537 51.484 C 27.8117 51.07 28.4597 50.89 29.1977 50.944 L 29.1977 48.838 C 27.8477 48.838 26.9117 49.396 26.4257 50.512 L 26.4257 49 ZM 15.5171 52.744 C 15.7871 51.376 16.7951 50.53 18.2351 50.53 C 19.5131 50.53 20.5391 51.286 20.8091 52.744 L 15.5171 52.744 ZM 22.6991 54.328 C 22.7531 53.986 22.7711 53.716 22.7711 53.518 C 22.7711 52.204 22.3391 51.07 21.4931 50.152 C 20.6471 49.234 19.5671 48.766 18.2531 48.766 C 16.8671 48.766 15.7151 49.216 14.8331 50.134 C 13.9511 51.034 13.5011 52.15 13.5011 53.5 C 13.5011 54.868 13.9511 56.002 14.8511 56.902 C 15.7511 57.784 16.9391 58.234 18.3971 58.234 C 20.1431 58.234 21.4571 57.586 22.3391 56.272 L 20.7371 55.336 C 20.2151 56.074 19.4411 56.452 18.4151 56.452 C 16.9211 56.452 15.8231 55.696 15.5351 54.328 L 22.6991 54.328 ZM 7.011 58.234 C 8.163 58.234 9.225 57.964 10.179 57.424 C 11.151 56.866 11.907 56.128 12.429 55.21 L 10.629 54.184 C 9.981 55.426 8.595 56.218 7.011 56.218 C 5.661 56.218 4.581 55.786 3.735 54.94 C 2.907 54.094 2.493 53.014 2.493 51.7 C 2.493 50.386 2.907 49.306 3.735 48.46 C 4.581 47.614 5.661 47.182 7.011 47.182 C 8.595 47.182 9.963 47.974 10.629 49.216 L 12.429 48.172 C 11.349 46.318 9.297 45.166 7.011 45.166 C 5.121 45.166 3.537 45.796 2.295 47.056 C 1.053 48.298 0.423 49.846 0.423 51.7 C 0.423 53.554 1.053 55.102 2.295 56.362 C 3.537 57.604 5.121 58.234 7.011 58.234 Z" fill="#626363"/>
</g>
</svg>
