<svg width="86" height="15" viewBox="0 0 86 15" fill="none" xmlns="http://www.w3.org/2000/svg">
<path opacity="0.2" d="M42.9288 2.17479C42.8927 2.13444 42.8595 2.0889 42.8191 2.04875C41.511 0.682717 39.7917 0 37.6544 0C35.5206 0 33.8013 0.682717 32.4928 2.04875C31.2839 3.31012 30.6419 4.95799 30.5465 6.97758C30.5265 7.08024 30.5137 7.19869 30.5066 7.32912C30.4896 7.69565 30.504 8.06157 30.5405 8.41731H30.5376C30.3468 7.93933 30.0651 7.50749 29.6705 7.15874C29.5591 7.0387 29.0142 6.67776 28.7013 6.61724C29.4437 5.94311 29.7785 4.97796 29.6441 3.47051C29.5981 1.50206 27.8351 0.236494 25.9134 0.249677H21.9448L21.9146 0.250476L21.9138 0.308201V10.2448L21.9256 13.9923L21.9223 13.9931L20.504 10.2467L16.6727 0.352145H14.5392L13.1209 4.02599L11.2401 8.8877L9.32807 13.8391L9.31919 13.8399L6.26139 9.33353C7.32018 9.14357 8.174 8.73111 8.8191 8.08974C9.13139 7.78154 9.37956 7.42879 9.57151 7.03989C10.1545 5.7969 10.3253 4.05436 9.57151 2.73027C9.35826 2.29703 9.07575 1.91432 8.71632 1.58735C7.79661 0.759218 6.47366 0.34755 4.74354 0.34755H0V15H2.97278V9.45178H3.25488L7.01618 15H8.88006H10.1057H11.6362L12.9702 11.3262H18.2638L19.5832 15L21.9284 14.9898V14.998H25.8978C27.4778 14.998 28.7278 14.6349 29.6331 13.6927C30.1454 13.1574 30.5354 12.5332 30.7228 11.7784C30.8345 11.2369 30.8915 10.6438 30.8668 10.054H30.8674C31.003 10.5074 31.1576 10.8959 31.302 11.1803C31.3815 11.3489 31.4656 11.5037 31.5545 11.6425C31.8183 12.0952 32.1298 12.5226 32.4966 12.9119C33.8122 14.3003 35.5313 14.994 37.6542 14.994C39.7806 14.994 41.4991 14.3003 42.8116 12.9119C44.1278 11.5281 44.7826 9.72003 44.7826 7.48911C44.7826 5.62193 44.3289 4.06275 43.4346 2.80577L43.423 2.78819L43.5747 2.787H46.1783V14.9203H51.1414L52.4762 11.2465H57.77L59.0884 14.9203H61.8491L56.1789 0.271249H54.0452L48.839 13.741L48.8325 13.7426V2.78739H51.9312V0.271449H43.0689V2.15681L43.0675 2.33398C43.0209 2.27985 42.9753 2.22672 42.9288 2.17479ZM6.51726 6.44946C6.16591 6.77604 5.50562 6.93643 4.54133 6.93643H2.97278V2.84971H4.60426C5.51312 2.84971 6.15407 3.03847 6.52752 3.41698C6.8406 3.72878 6.99822 4.22254 6.99822 4.89747C6.99822 5.6441 6.83646 6.15943 6.51726 6.44946ZM13.9203 8.67977L15.5985 3.92652L17.3107 8.67977H13.9203ZM83.3425 0.248878V9.60897C83.3425 10.4657 83.134 11.1378 82.7201 11.6314C82.276 12.1365 81.6528 12.3922 80.8463 12.3922C80.0442 12.3922 79.421 12.1367 78.9878 11.6314C78.5703 11.146 78.361 10.4697 78.361 9.60897V0.248878H75.7033V2.6274V3.7865L75.7011 3.7857C75.6244 3.38043 75.5072 2.99053 75.3571 2.63799C75.145 2.20355 74.8629 1.82204 74.5027 1.49467C73.5828 0.666937 72.26 0.254471 70.5297 0.254471H65.7862V14.9077H68.7587V9.3589H69.041L72.8019 14.9075H75.8927L72.0471 9.24005C73.1061 9.05049 73.9605 8.63883 74.606 7.99666C74.9175 7.68925 75.1665 7.33651 75.3573 6.94682C75.5098 6.66798 75.621 6.35338 75.6948 6.01862L75.7035 6.01542V6.93603V9.61237C75.7035 11.105 76.1588 12.3444 77.0669 13.3318C78.0282 14.3742 79.2847 14.8969 80.8463 14.8969C82.4078 14.8969 83.6688 14.3742 84.6248 13.3318C85.5411 12.3396 86 11.1002 86 9.61237V0.248878H83.3425ZM72.3034 6.35698C71.9521 6.68316 71.2914 6.84315 70.3287 6.84315H68.7589V2.75683H70.3904C71.2995 2.75683 71.94 2.94559 72.3143 3.3245C72.6268 3.6359 72.7836 4.13006 72.7836 4.80499C72.7836 5.55162 72.6224 6.06655 72.3034 6.35698ZM62.6051 14.9077H65.2067V12.2619H62.6051V14.9077ZM25.872 2.68393C26.5135 2.68393 27.0454 3.22183 27.0454 3.87219V4.44565C27.0454 5.0994 26.5169 5.63351 25.872 5.63351C25.8447 5.63351 25.8167 5.63271 25.7897 5.63112H24.5822V4.44545V3.87199V2.68373C24.9738 2.68393 25.4802 2.68393 25.872 2.68393ZM26.3707 8.07935C27.3539 8.07935 28.1582 8.8947 28.1582 9.89061V10.7657C28.1582 11.7612 27.3539 12.5757 26.3707 12.5757C26.3287 12.5757 26.287 12.5733 26.2466 12.5703H24.5824V10.7657V9.89061V8.07935H26.3673H26.3707ZM53.4257 8.59908L55.1079 3.84623L56.8159 8.59908H53.4257ZM41.0004 11.008C40.1468 11.9068 39.0324 12.3558 37.6542 12.3558C36.279 12.3558 35.1645 11.9068 34.3145 11.008C33.4608 10.1099 33.0351 8.93684 33.0351 7.48931C33.0351 6.02641 33.4608 4.85013 34.3072 3.96347C35.1578 3.08062 36.2722 2.63439 37.6542 2.63439C39.0397 2.63439 40.1541 3.08062 41.0004 3.96347C41.8511 4.85013 42.2724 6.02641 42.2724 7.48931C42.2726 8.93684 41.8513 10.1099 41.0004 11.008Z" fill="#202020"/>
</svg>
