<svg width="81" height="81" viewBox="0 0 81 81" fill="none" xmlns="http://www.w3.org/2000/svg">
<rect x="1.4248" y="1.42578" width="78.15" height="78.15" rx="1.25" stroke="#A3A6A9" stroke-width="1.5"/>
<path fill-rule="evenodd" clip-rule="evenodd" d="M39.6165 34.9772L39.6784 35.998L38.6466 35.873C34.8911 35.3938 31.6102 33.7689 28.8246 31.0399L27.4627 29.6859L27.1119 30.6858C26.369 32.9148 26.8436 35.2688 28.3912 36.8521C29.2166 37.727 29.0309 37.852 27.6071 37.3312C27.1119 37.1645 26.6786 37.0396 26.6373 37.102C26.4928 37.2479 26.9881 39.1436 27.3801 39.8935C27.9166 40.9351 29.0103 41.9559 30.2071 42.56L31.2182 43.0392L30.0214 43.06C28.8658 43.06 28.8246 43.0808 28.9484 43.5183C29.3611 44.8724 30.9912 46.3098 32.807 46.9347L34.0864 47.3722L32.9721 48.0388C31.3214 48.9971 29.3817 49.5387 27.442 49.5804C26.5135 49.6012 25.75 49.6846 25.75 49.7471C25.75 49.9554 28.2674 51.122 29.7325 51.5803C34.1277 52.9343 39.3482 52.351 43.2688 50.0387C46.0545 48.393 48.8402 45.1224 50.1401 41.9559C50.8417 40.2685 51.5433 37.1854 51.5433 35.7063C51.5433 34.748 51.6052 34.623 52.7607 33.4773C53.4417 32.8107 54.0814 32.0815 54.2052 31.8732C54.4115 31.4774 54.3909 31.4774 53.3385 31.8316C51.5846 32.4565 51.337 32.3732 52.2036 31.4358C52.8433 30.7691 53.6068 29.5609 53.6068 29.2067C53.6068 29.1442 53.2972 29.2484 52.9465 29.4359C52.575 29.6442 51.7496 29.9567 51.1306 30.1442L50.0163 30.4983L49.0052 29.8109C48.4481 29.4359 47.664 29.0192 47.2513 28.8943C46.1989 28.6026 44.5894 28.6443 43.6402 28.9776C41.0609 29.915 39.4308 32.3315 39.6165 34.9772Z" fill="#202020"/>
</svg>
