<svg width="81" height="81" viewBox="0 0 81 81" fill="none" xmlns="http://www.w3.org/2000/svg">
<rect x="1.4248" y="1.42578" width="78.15" height="78.15" rx="1.25" stroke="#A3A6A9" stroke-width="1.5"/>
<path fill-rule="evenodd" clip-rule="evenodd" d="M42.0431 50.1844C42.0431 50.1844 42.611 50.1225 42.9019 49.8158C43.1681 49.5348 43.1589 49.0045 43.1589 49.0045C43.1589 49.0045 43.1235 46.5285 44.2947 46.1629C45.449 45.8033 46.9311 48.5574 48.504 49.6164C49.6921 50.417 50.594 50.2418 50.594 50.2418L54.7971 50.1844C54.7971 50.1844 56.9948 50.0515 55.9529 48.3549C55.8667 48.2159 55.345 47.0995 52.8287 44.8063C50.1923 42.4057 50.5463 42.794 53.7198 38.641C55.6528 36.1121 56.4254 34.5682 56.1838 33.908C55.9545 33.2765 54.5324 33.4442 54.5324 33.4442L49.8014 33.4729C49.8014 33.4729 49.4505 33.4261 49.1904 33.5787C48.9365 33.7282 48.7718 34.0772 48.7718 34.0772C48.7718 34.0772 48.0238 36.0336 47.025 37.6984C44.918 41.2093 44.0762 41.3951 43.7314 41.1775C42.9296 40.6684 43.1297 39.135 43.1297 38.0458C43.1297 34.6422 43.656 33.2236 42.1062 32.8565C41.5922 32.7342 41.2136 32.6541 39.8977 32.6405C38.2094 32.6239 36.7811 32.6465 35.9716 33.0348C35.4329 33.2931 35.0174 33.8702 35.2714 33.9035C35.5838 33.9442 36.2917 34.0908 36.6673 34.5923C37.1521 35.2404 37.1351 36.6937 37.1351 36.6937C37.1351 36.6937 37.4137 40.7001 36.4841 41.1972C35.8469 41.5386 34.9728 40.8422 33.0936 37.6561C32.1317 36.0245 31.4053 34.2207 31.4053 34.2207C31.4053 34.2207 31.2652 33.8838 31.0144 33.7025C30.7112 33.4835 30.288 33.4155 30.288 33.4155L25.7924 33.4442C25.7924 33.4442 25.1168 33.4623 24.869 33.7509C24.6489 34.0062 24.8521 34.5364 24.8521 34.5364C24.8521 34.5364 28.3719 42.6203 32.358 46.6947C36.0132 50.4291 40.1624 50.1844 40.1624 50.1844H42.0431Z" fill="#202020"/>
</svg>
