<svg width="103" height="27" viewBox="0 0 103 27" fill="none" xmlns="http://www.w3.org/2000/svg">
<path d="M21.7494 7.19159V15.7771C21.7494 19.2773 18.9297 22.1171 15.4543 22.1171H6.9298C3.45442 22.1171 0.634766 19.2773 0.634766 15.7771V7.19159C0.634766 3.69137 3.45442 0.851562 6.9298 0.851562H15.4543C18.9297 0.851562 21.7494 3.69137 21.7494 7.19159ZM17.815 14.06V14.126C17.815 14.5223 17.5527 14.8525 17.1592 14.8525C16.8969 14.8525 16.6347 14.7864 16.4379 14.5223C16.2412 14.2581 15.9789 13.9279 15.7822 13.3335C16.3724 11.2862 18.2084 4.81408 18.2084 4.81408H14.733C14.733 4.81408 14.4052 6.33305 14.1429 7.71993V7.65389C13.8806 7.05951 13.4216 6.33305 12.897 5.87075C11.9789 5.01221 10.9298 4.61596 9.68388 4.61596C7.9134 4.61596 6.47079 5.27638 5.29047 6.53117C4.11015 7.78597 3.51999 9.43702 3.51999 11.2862C3.51999 13.3335 4.11015 14.9845 5.29047 16.2393C6.47079 17.5602 7.9134 18.1546 9.81503 18.1546C10.9298 18.1546 11.9789 17.8244 12.897 17.1639C13.4871 16.7677 14.0773 16.1733 14.6675 15.3808C14.8642 16.1073 15.1265 16.6356 15.3888 17.0318C15.8478 17.6262 16.5035 18.0225 17.2248 18.0225C17.9461 18.0225 18.6674 17.6262 18.9953 17.0318C19.3232 16.5035 19.4543 15.8431 19.4543 14.6543V13.9939L17.815 14.06ZM12.0445 15.3808C11.5199 16.1733 10.8642 16.5696 10.0773 16.5696C9.15929 16.5696 8.50356 16.1733 7.97897 15.3148C7.45439 14.4562 7.1921 13.1354 7.1921 11.4183C7.1921 9.83327 7.45439 8.57847 8.04455 7.71993C8.56913 6.86138 9.22487 6.53117 10.0773 6.53117C10.8642 6.53117 11.4544 6.86138 11.9789 7.58784C12.5691 8.31431 13.0281 9.5691 13.356 11.2202C13.0281 13.3335 12.5691 14.5883 12.0445 15.3808ZM32.3067 5.21033C32.0444 4.08762 31.3886 3.36116 29.8805 3.36116C28.5034 3.36116 27.7165 4.08762 27.4542 5.21033L26.4051 10.0974H27.5854C27.8477 10.0974 28.11 9.89931 28.1756 9.63515L28.3723 8.64452H31.4542L31.6509 9.63515C31.7165 9.89931 31.9788 10.0974 32.2411 10.0974H33.4214L32.3067 5.21033ZM28.7001 7.32368L29.0936 5.54054C29.0936 5.27637 29.3559 4.81408 29.8805 4.81408C30.4706 4.81408 30.6673 5.27637 30.7329 5.54054L31.1263 7.32368H28.7001ZM36.2411 5.01221V7.91805C36.2411 9.30494 35.4542 10.1635 34.3394 10.1635H34.0771L33.7493 8.7766L34.0771 8.71056C34.405 8.64452 34.6673 8.38035 34.6673 7.91805V4.48387C34.6673 3.95554 35.1263 3.49324 35.6509 3.49324H40.4378V10.0974H38.864V5.01221H36.2411ZM54.3393 3.55928H53.7491V2.76678H52.6344C52.3721 2.76678 52.1754 2.96491 52.1754 3.22907V3.49324H51.5852C49.618 3.49324 48.3721 4.81408 48.3721 6.79534C48.3721 8.71056 49.618 10.0974 51.5852 10.0974H52.1754V10.8899H53.2901C53.5524 10.8899 53.7491 10.6918 53.7491 10.4276V10.0974H54.3393C56.3065 10.0974 57.5524 8.7766 57.5524 6.79534C57.5524 4.94617 56.3065 3.55928 54.3393 3.55928ZM51.5852 8.71056C50.4705 8.71056 49.9459 8.05014 49.9459 6.86138C49.9459 5.67263 50.4705 5.01221 51.5852 5.01221H52.1754V8.71056H51.5852ZM54.3393 8.71056H53.7491V5.01221H54.3393C55.454 5.01221 55.9786 5.67263 55.9786 6.86138C55.9786 7.9841 55.454 8.71056 54.3393 8.71056ZM45.4213 5.21033H43.1263V3.55928H41.4869V9.70119C41.4869 9.96536 41.6837 10.1635 41.9459 10.1635H45.3558C46.7328 10.1635 47.782 9.10681 47.782 7.71993C47.8475 6.267 46.9951 5.21033 45.4213 5.21033ZM45.4213 8.64452H43.1263V6.66326H45.4213C45.8148 6.66326 46.2738 6.99347 46.2738 7.65389C46.2738 8.31431 45.8148 8.64452 45.4213 8.64452ZM63.5196 5.21033C63.2573 4.08762 62.6015 3.36116 61.0933 3.36116C59.7163 3.36116 58.9294 4.08762 58.6671 5.21033L57.5524 10.0974H58.7327C58.995 10.0974 59.2573 9.89931 59.3229 9.63515L59.5196 8.64452H62.6015L62.7983 9.63515C62.8638 9.89931 63.1261 10.0974 63.3884 10.0974H64.5687L63.5196 5.21033ZM59.913 7.32368L60.3065 5.54054C60.3065 5.27637 60.5688 4.81408 61.0933 4.81408C61.6179 4.81408 61.8802 5.27637 61.9458 5.54054L62.3392 7.32368H59.913ZM72.831 15.9752C73.0933 15.711 73.29 15.3148 73.29 14.7864C73.29 13.5977 72.3719 12.8052 71.2572 12.8052H67.3228C67.0605 12.8052 66.8638 13.0033 66.8638 13.2675V18.881C66.8638 19.1452 67.0605 19.3433 67.3228 19.3433H71.4539C72.6342 19.3433 73.4867 18.4848 73.4867 17.296C73.4867 16.7677 73.2244 16.3054 72.831 15.9752ZM71.1916 14.192C71.3884 14.192 71.7162 14.4562 71.7162 14.8525C71.7162 15.2487 71.4539 15.4468 71.1916 15.5129H68.372V14.192H71.1916ZM71.3228 18.0885H68.372V16.7677H71.3228C71.5195 16.7677 71.8474 17.0318 71.8474 17.4281C71.8474 17.8244 71.5195 18.0885 71.3228 18.0885ZM62.2081 12.6731C60.2409 12.6731 58.8639 14.06 58.8639 16.1073C58.8639 18.1546 60.2409 19.5414 62.2081 19.5414H62.7983C64.7654 19.5414 66.1425 18.1546 66.1425 16.1073C66.1425 14.06 64.7654 12.6731 62.7983 12.6731H62.2081ZM60.6343 16.1073C60.6343 14.9185 61.2245 13.9939 62.4048 13.9939H62.7327C63.8474 13.9939 64.5032 14.9185 64.5032 16.1073C64.5032 17.296 63.913 18.2206 62.7327 18.2206H62.4048C61.2245 18.2206 60.6343 17.296 60.6343 16.1073ZM32.3722 12.8052H38.4706L38.2738 13.7958C38.2083 14.06 37.946 14.2581 37.6837 14.2581H36.2411V19.4094H34.6017V14.2581H33.0935C32.8313 14.2581 32.569 14.06 32.5034 13.7958L32.3722 12.8052ZM86.3391 12.8052H87.9784V19.4094H86.3391V16.8337H83.2571V19.4094H81.6178V12.8052H83.2571V15.4468H86.3391V12.8052ZM50.9951 14.5223C50.7328 13.3995 50.077 12.6731 48.5688 12.6731C47.1918 12.6731 46.4049 13.3995 46.1426 14.5223L45.0279 19.4094H46.2082C46.4705 19.4094 46.7328 19.2112 46.7984 18.9471L46.9951 17.9564H50.077L50.2738 18.9471C50.3393 19.2112 50.6016 19.4094 50.8639 19.4094H52.0442L50.9951 14.5223ZM47.323 16.5696L47.7164 14.7864C47.782 14.5223 47.9787 14.06 48.5688 14.06C49.159 14.06 49.3557 14.5223 49.4213 14.7864L49.8147 16.5696H47.323ZM79.7817 14.5223C79.5194 13.3995 78.8637 12.6731 77.3555 12.6731C75.9785 12.6731 75.1916 13.3995 74.9293 14.5223L73.8146 19.4094H74.9949C75.2572 19.4094 75.5195 19.2112 75.585 18.9471L75.7818 17.9564H78.8637L79.0604 18.9471C79.126 19.2112 79.3883 19.4094 79.6506 19.4094H80.8309L79.7817 14.5223ZM76.1752 16.5696L76.5686 14.7864C76.6342 14.5223 76.8309 14.06 77.4211 14.06C78.0113 14.06 78.208 14.5223 78.2736 14.7864L78.667 16.5696H76.1752ZM32.8968 19.4094H29.7493C27.8477 19.4094 26.5362 18.0885 26.5362 16.1073C26.5362 14.192 27.8477 12.8052 29.7493 12.8052H32.1099L31.9132 13.7958C31.8477 14.06 31.5854 14.2581 31.3231 14.2581H29.7493C28.7001 14.2581 28.11 14.9845 28.11 16.0412C28.11 17.0979 28.7001 17.8244 29.7493 17.8244H32.0444C32.3067 17.8244 32.569 18.0225 32.6345 18.2866L32.8968 19.4094ZM42.7984 12.8052H39.3886C39.1263 12.8052 38.9296 13.0033 38.9296 13.2675V19.4094H40.5689V17.6923H42.864C44.4377 17.6923 45.2902 16.6356 45.2902 15.2487C45.2246 13.8618 44.1754 12.8052 42.7984 12.8052ZM42.7984 16.3054H40.5033V14.3241H42.7984C43.1918 14.3241 43.6508 14.6543 43.6508 15.3148C43.6508 15.9752 43.1918 16.3054 42.7984 16.3054ZM101.486 18.0225C101.749 18.0225 102.011 18.1546 102.077 18.4848L102.273 19.4094H96.8964C96.6341 19.4094 96.4374 19.2112 96.4374 18.9471V13.3335C96.4374 13.0693 96.6341 12.8712 96.8964 12.8712H102.273L102.077 13.7958C102.011 14.126 101.749 14.2581 101.486 14.2581H98.0111V15.5129H101.749V16.7677H98.0111V18.0225H101.486ZM89.0276 19.4094V12.8052H90.6669V17.1639L93.421 13.2014C93.5521 13.0033 93.9456 12.8052 94.2079 12.8052H95.3882V19.4094H93.7488V15.0506L90.9948 19.0131C90.8636 19.2112 90.4702 19.4094 90.2079 19.4094H89.0276ZM56.8967 16.1073L59.1917 19.4754H57.6835C57.3557 19.4754 57.159 19.4094 56.9622 19.0791L55.7163 17.1639H55.5196L54.3393 19.0131C54.1426 19.3433 53.9459 19.4094 53.618 19.4094H52.1754L54.4049 16.1733L52.1098 12.8052H53.618C53.9459 12.8052 54.1426 12.8712 54.3393 13.2014L55.5196 15.0506H55.7163L56.8967 13.2014C57.0934 12.8712 57.3557 12.8052 57.618 12.8052H59.0606L56.8967 16.1073ZM26.6674 24.4946C26.6674 23.636 27.2575 22.8435 28.2411 22.8435C28.6346 22.8435 28.8969 22.9096 29.1591 23.1077L28.9624 23.4379C28.7657 23.3058 28.569 23.2398 28.3067 23.2398C27.5854 23.2398 27.192 23.8342 27.192 24.4946C27.192 25.155 27.5854 25.7494 28.3067 25.7494C28.6346 25.7494 28.8969 25.6173 29.028 25.4852L29.2247 25.8154C29.0936 25.9475 28.7001 26.1456 28.2411 26.1456C27.1919 26.0796 26.6674 25.2871 26.6674 24.4946ZM29.7493 22.9096H31.3886V23.3058H30.1427V24.2304H31.2575V24.5606H30.1427V25.6833H31.4542V26.0796H29.7493V22.9096ZM32.1755 22.9096H33.028C33.6837 22.9096 34.1427 23.2398 34.1427 23.8342C34.1427 24.4285 33.6837 24.8248 32.9624 24.8248H32.6345V26.0796H32.1755V22.9096ZM32.9624 24.4286C33.487 24.4286 33.6837 24.2304 33.6837 23.8342C33.6837 23.504 33.487 23.2398 32.9624 23.2398H32.569V24.4286H32.9624ZM34.7329 22.9096H35.5853C36.1755 22.9096 36.6345 23.1077 36.6345 23.7021C36.6345 24.0983 36.4378 24.2965 36.0443 24.3625C36.4378 24.4285 36.7001 24.6927 36.7001 25.155C36.7001 25.8154 36.1755 26.0136 35.5198 26.0136H34.7329V22.9096ZM35.5853 24.2304C36.0443 24.2304 36.2411 24.0983 36.2411 23.7021C36.2411 23.3719 36.0443 23.2398 35.5853 23.2398H35.1919V24.2304H35.5853ZM35.5853 25.7494C36.1099 25.7494 36.3066 25.6173 36.3066 25.2211C36.3066 24.8248 36.1755 24.6267 35.5853 24.6267H35.1263V25.7494H35.5853ZM37.487 22.9096H37.8804V25.0229C37.8804 25.2871 37.8804 25.4192 37.8804 25.4852C37.946 25.4192 38.0115 25.2211 38.2083 25.0229L39.5853 22.9756H39.9787V26.1456H39.5853V23.9002C39.5853 23.7681 39.5853 23.57 39.5853 23.504C39.5197 23.57 39.4542 23.7681 39.323 23.9002L37.8148 26.0796H37.4214L37.487 22.9096ZM40.7001 24.4946C40.7001 23.636 41.2902 22.8435 42.2738 22.8435C42.6673 22.8435 42.9295 22.9096 43.1918 23.1077L42.9951 23.4379C42.7984 23.3058 42.6017 23.2398 42.3394 23.2398C41.6181 23.2398 41.2246 23.8342 41.2246 24.4946C41.2246 25.155 41.6181 25.7494 42.3394 25.7494C42.6673 25.7494 42.9295 25.6173 43.0607 25.4852L43.2574 25.8154C43.1263 25.9475 42.7328 26.1456 42.2738 26.1456C41.2246 26.0796 40.7001 25.2871 40.7001 24.4946ZM44.8312 22.9096H46.6016V23.3058H45.2902V24.2304H45.8148C46.4705 24.2304 46.9295 24.5606 46.9295 25.155C46.9295 25.7494 46.4705 26.1456 45.7492 26.1456H44.8967V22.9096H44.8312ZM45.6836 25.6833C46.2082 25.6833 46.4049 25.4852 46.4049 25.089C46.4049 24.7588 46.2082 24.4946 45.6836 24.4946H45.2246V25.6833H45.6836ZM47.3885 26.0136L47.4541 25.6833C47.4541 25.6833 47.5197 25.6833 47.5852 25.6833C47.8475 25.6833 47.9787 25.5513 48.1754 25.155L48.241 24.9569L47.323 22.7775H47.7164L48.4377 24.4946L49.159 22.7775H49.5524L48.4377 25.2871C48.241 25.8154 47.9787 25.9475 47.5197 25.9475C47.5197 26.0796 47.4541 26.0796 47.3885 26.0136ZM49.5524 25.6833H49.8147C50.077 25.4852 50.1426 25.155 50.2082 24.4946L50.3393 22.8435H52.1754V25.6173H52.5032L52.4377 26.74H52.1754V26.0796H50.077L50.0115 26.74H49.7492L49.5524 25.6833ZM51.7819 25.6833V23.2398H50.7983L50.6672 24.5606C50.6016 25.155 50.4705 25.4852 50.3393 25.6833H51.7819ZM53.0278 26.0136L53.0934 25.6833C53.0934 25.6833 53.159 25.6833 53.2245 25.6833C53.4868 25.6833 53.618 25.5513 53.8147 25.155L53.8803 24.9569L52.9623 22.7775H53.3557L54.077 24.4946L54.7983 22.7775H55.1917L54.077 25.2871C53.8803 25.8154 53.618 25.9475 53.159 25.9475C53.159 26.0796 53.0934 26.0796 53.0278 26.0136ZM59.5196 26.0796H55.7819V22.9096H56.2409V25.6833H57.4868V22.9096H57.9458V25.6833H59.1917V22.9096H59.6507V25.6833H59.9786L59.913 26.74H59.6507L59.5196 26.0796ZM60.5688 22.9096H62.2081V23.3058H60.9622V24.2304H62.0769V24.5606H60.9622V25.6833H62.2737V26.0796H60.5688V22.9096ZM62.995 22.9096H64.6999V23.2398H63.454V26.0796H62.995V22.9096ZM64.8966 24.4946C64.8966 23.636 65.4868 22.8435 66.4704 22.8435C67.454 22.8435 68.0441 23.57 68.0441 24.4946C68.0441 25.4192 67.454 26.1456 66.4704 26.1456C65.4868 26.0796 64.8966 25.3531 64.8966 24.4946ZM67.5851 24.4946C67.5851 23.8342 67.1917 23.2398 66.4704 23.2398C65.7491 23.2398 65.3556 23.8342 65.3556 24.4946C65.3556 25.155 65.7491 25.7494 66.4704 25.7494C67.1917 25.7494 67.5851 25.155 67.5851 24.4946ZM69.749 22.9096H70.6015C71.1916 22.9096 71.6507 23.1077 71.6507 23.7021C71.6507 24.0983 71.4539 24.2965 71.0605 24.3625C71.4539 24.4285 71.7162 24.6927 71.7162 25.155C71.7162 25.8154 71.1916 26.0136 70.5359 26.0136H69.6834L69.749 22.9096ZM70.5359 24.2304C70.9949 24.2304 71.1916 24.0983 71.1916 23.7021C71.1916 23.3719 70.9949 23.2398 70.5359 23.2398H70.1425V24.2304H70.5359ZM70.6015 25.7494C71.1261 25.7494 71.3228 25.6173 71.3228 25.2211C71.3228 24.8248 71.1261 24.6267 70.6015 24.6267H70.1425V25.7494H70.6015ZM73.4867 22.9096H73.9457V24.2304H75.6506V22.9096H76.1096V26.0796H75.6506V24.6267H73.9457V26.0796H73.4867V22.9096ZM77.8145 22.9096H78.208L79.3883 26.0796H78.9293L78.667 25.2871H77.29L77.0277 26.0136H76.5686L77.8145 22.9096ZM78.5358 24.9569L78.1424 23.9002C78.0768 23.636 78.0113 23.504 77.9457 23.3719C77.9457 23.504 77.8801 23.7021 77.749 23.9002L77.3555 24.9569H78.5358ZM79.6506 24.4946C79.6506 23.636 80.2407 22.8435 81.2243 22.8435C81.6178 22.8435 81.8801 22.9096 82.1424 23.1077L81.9457 23.4379C81.7489 23.3058 81.5522 23.2398 81.2899 23.2398C80.5686 23.2398 80.1752 23.8342 80.1752 24.4946C80.1752 25.155 80.5686 25.7494 81.2899 25.7494C81.6178 25.7494 81.8801 25.6173 82.0112 25.4852L82.2079 25.8154C82.0768 25.9475 81.6834 26.1456 81.2243 26.1456C80.1752 26.0796 79.6506 25.2871 79.6506 24.4946ZM83.3227 23.2398H82.4047V22.8435H84.6342V23.2398H83.7161V26.0136H83.2571L83.3227 23.2398ZM84.8965 24.4946C84.8965 23.636 85.4866 22.8435 86.4702 22.8435C87.4538 22.8435 88.044 23.57 88.044 24.4946C88.044 25.4192 87.4538 26.1456 86.4702 26.1456C85.4866 26.1456 84.8965 25.3531 84.8965 24.4946ZM87.5194 24.4946C87.5194 23.8342 87.126 23.2398 86.4046 23.2398C85.6833 23.2398 85.2899 23.8342 85.2899 24.4946C85.2899 25.155 85.6833 25.7494 86.4046 25.7494C87.126 25.7494 87.5194 25.155 87.5194 24.4946ZM88.3718 25.6833C88.6341 25.6833 88.7653 25.4192 89.0276 25.0229C89.1587 24.8248 89.2899 24.6267 89.421 24.5606C88.962 24.5606 88.5686 24.2304 88.5686 23.7681C88.5686 23.2398 88.962 22.9096 89.6177 22.9096H90.5358V26.0796H90.0767V24.6267H89.9456C89.7489 24.6267 89.6177 24.8908 89.3554 25.2871C88.962 25.8815 88.8308 26.0136 88.5686 26.0136H88.4374L88.3718 25.6833ZM90.0767 24.2965V23.2398H89.6177C89.1587 23.2398 88.962 23.3719 88.962 23.7681C88.962 24.1644 89.1587 24.2965 89.6177 24.2965H90.0767ZM95.1259 26.0796H91.3882V22.9096H91.8472V25.6833H93.0931V22.9096H93.5521V25.6833H94.798V22.9096H95.257V25.6833H95.5849L95.5193 26.74H95.257L95.1259 26.0796ZM96.1751 22.9096H97.8144V23.3058H96.5685V24.2304H97.6832V24.5606H96.6341V25.6833H97.88V26.0796H96.1751V22.9096ZM98.798 22.9096H99.1914L99.9127 25.0229C99.9783 25.2871 100.044 25.4192 100.109 25.6173C100.109 25.4852 100.175 25.2871 100.306 25.0229L101.027 22.9096H101.421L101.88 26.0796H101.421L101.159 24.0983C101.159 23.9002 101.159 23.7681 101.093 23.636C101.093 23.7021 101.027 23.9002 100.962 24.0983L100.241 26.0796H99.8472L99.1259 24.0983C99.0603 23.9002 98.9947 23.7681 98.9947 23.636C98.9947 23.7021 98.9947 23.9002 98.9291 24.0983L98.6668 26.0796H98.339L98.798 22.9096Z" fill="#000"/>
</svg>
