<svg width="86" height="54" viewBox="0 0 86 54" fill="none" xmlns="http://www.w3.org/2000/svg">
<path d="M81.8961 49.6944L81.1674 51.6447H79.8528L80.8173 49.4041C80.3956 49.1857 80.0951 48.6695 80.0951 48.0399C80.0951 47.2349 80.617 46.5701 81.4959 46.5701H83.375V51.6447H82.139V49.6944H81.8961ZM82.139 47.4816H81.853C81.5315 47.4816 81.3317 47.7224 81.3317 48.1112C81.3317 48.4996 81.5315 48.782 81.839 48.782H82.139V47.4816ZM77.3392 46.5701V47.8279C77.3392 48.3862 77.1824 49.1991 77.1534 49.7578H77.1609L78.2041 46.5701H79.3825V51.6447H78.2041V50.4647C78.2041 49.9203 78.3754 49.0935 78.4324 48.5561H78.4254L77.3607 51.6447H76.1602V46.5701H77.3392ZM73.4048 48.5278H74.2121V46.5701H75.4481V51.6447H74.2121V49.4893H73.4048V51.6447H72.1683V46.5701H73.4048V48.5278ZM68.7617 46.5701H71.6344V47.5316H69.9982V48.5278H71.4631V49.4893H69.9982V50.6832H71.6344V51.6447H68.7617V46.5701ZM68.0501 46.5701V51.6447H66.8141V47.5316H65.9992V49.2773C65.9992 51.1994 65.6421 51.7012 64.8063 51.7012C64.5419 51.7012 64.3561 51.6447 64.1417 51.5531V50.6976C64.1988 50.7258 64.32 50.7402 64.4417 50.7402C64.7848 50.7402 64.8063 50.5351 64.8063 48.9657V46.5701H68.0501ZM63.6579 46.5701V51.6447H62.4219V47.5316H61.6146V51.6447H60.3781V46.5701H63.6579ZM59.716 47.8918V50.1675C59.716 51.1786 59.2082 51.7651 58.0513 51.7651C56.9074 51.7651 56.3861 51.1786 56.3861 50.1675V47.8853C56.3861 47.0858 56.8934 46.4572 58.0578 46.4572C59.2232 46.4572 59.716 47.1007 59.716 47.8918ZM57.6221 47.8066V50.3795C57.6221 50.6832 57.8364 50.8323 58.0513 50.8323C58.2581 50.8323 58.4795 50.6832 58.4795 50.3795V47.8066C58.4795 47.5173 58.2581 47.39 58.0513 47.39C57.8364 47.39 57.6221 47.5173 57.6221 47.8066ZM53.7733 48.5912L54.6377 46.5701H55.9809L54.8446 48.8107L55.9809 51.6447H54.6803L54.1094 49.8777L53.7733 50.4647V51.6447H52.5939V46.5701H53.7733V48.5912ZM51.0669 46.5701L52.2033 51.6447H50.9888L50.803 50.6272H49.8595L49.7027 51.6447H48.4737L49.588 46.5701H51.0669ZM50.6387 49.7152L50.3102 47.4816H50.3027L49.9812 49.7152H50.6387ZM46.0393 48.5278H46.8471V46.5701H48.0826V51.6447H46.8471V49.4893H46.0393V51.6447H44.8033V46.5701H46.0393V48.5278ZM39.5257 46.5701H42.3978V47.5316H40.7622V48.5278H42.2266V49.4893H40.7622V50.6832H42.3978V51.6447H39.5257V46.5701ZM35.0273 48.5278H35.5848C36.3139 48.5278 37.0852 48.8459 37.0852 50.0967C37.0852 51.3906 36.2994 51.6447 35.5848 51.6447H33.7913V46.5701H35.0273V48.5278ZM35.0273 50.7332H35.2417C35.5993 50.7332 35.8492 50.6124 35.8492 50.1115C35.8492 49.6023 35.5702 49.4398 35.2632 49.4398H35.0273V50.7332ZM38.8145 46.5701V51.6447H37.578V46.5701H38.8145ZM31.0354 48.5278H31.8427V46.5701H33.0787V51.6447H31.8427V49.4893H31.0354V51.6447H29.7988V46.5701H31.0354V48.5278ZM27.0439 48.5278H27.8512V46.5701H29.0872V51.6447H27.8512V49.4893H27.0439V51.6447H25.8074V46.5701H27.0439V48.5278ZM25.1453 47.8918V50.1675C25.1453 51.1786 24.6375 51.7651 23.4801 51.7651C22.3367 51.7651 21.8154 51.1786 21.8154 50.1675V47.8853C21.8154 47.0858 22.3227 46.4572 23.4871 46.4572C24.652 46.4572 25.1453 47.1007 25.1453 47.8918ZM23.0514 47.8066V50.3795C23.0514 50.6832 23.2657 50.8323 23.4801 50.8323C23.6874 50.8323 23.9088 50.6832 23.9088 50.3795V47.8066C23.9088 47.5173 23.6874 47.39 23.4801 47.39C23.2657 47.39 23.0514 47.5173 23.0514 47.8066ZM19.1165 46.5701V47.8279C19.1165 48.3862 18.9597 49.1991 18.9307 49.7578H18.9382L19.9814 46.5701H21.1598V51.6447H19.9814V50.4647C19.9814 49.9203 20.1522 49.0935 20.2098 48.5561H20.2027L19.138 51.6447H17.9376V46.5701H19.1165ZM17.282 49.6375V50.1115C17.282 51.2628 16.7531 51.7651 15.6098 51.7651C14.4739 51.7651 13.9381 51.2702 13.9381 50.1036V47.8918C13.9381 47.0933 14.4379 46.4572 15.6098 46.4572C16.7677 46.4572 17.282 47.1071 17.282 47.8987V48.245H16.0455V47.7858C16.0455 47.5173 15.7886 47.39 15.5957 47.39C15.3884 47.39 15.1741 47.5029 15.1741 47.7645V50.2948C15.1741 50.6763 15.3383 50.8323 15.5957 50.8323C15.8602 50.8323 16.0455 50.6906 16.0455 50.3087V49.6375H17.282ZM11.2397 48.5278H12.047V46.5701H13.283V51.6447H12.047V49.4893H11.2397V51.6447H10.0032V46.5701H11.2397V48.5278ZM6.59711 46.5701H9.46928V47.5316H7.83362V48.5278H9.298V49.4893H7.83362V50.6832H9.46928V51.6447H6.59711V46.5701ZM5.88495 46.5701V51.6447H4.64894V47.5316H3.84163V51.6447H2.60512V46.5701H5.88495ZM0.726562 44.5104V53.7649H85.1058V44.5104H0.726562ZM84.5008 39.5453H85.0743V42.411H82.493V41.1057H79.4822V42.411H76.901V39.5453H77.0442C77.823 39.5453 77.8635 38.6541 77.8635 38.1271V26.9218H84.5008V39.5453ZM80.7317 38.4104C80.7317 38.9786 80.6085 39.3026 80.3415 39.5453H81.6327V28.4827H80.7317V38.4104ZM69.3627 26.9218H72.2299V32.8791H73.1313V26.9218H76V41.1057H73.1313V34.4395H72.2299V41.1057H69.3627V26.9218ZM61.1478 29.4546C61.1478 28.4619 61.2705 26.9218 63.2783 26.9218H65.6542C67.6619 26.9218 67.7851 28.4619 67.7851 29.4546V38.5729C67.7851 39.5656 67.6619 41.1057 65.6542 41.1057H63.2783C61.2705 41.1057 61.1478 39.5656 61.1478 38.5729V29.4546ZM64.917 28.9489C64.917 28.7051 64.7327 28.4827 64.4662 28.4827C64.3025 28.4827 64.016 28.5843 64.016 28.9489V39.0787C64.016 39.4433 64.3025 39.5453 64.4662 39.5453C64.7327 39.5453 64.917 39.3224 64.917 39.0787V28.9489ZM53.1383 39.687H51.4996C49.4914 39.687 49.3697 38.1469 49.3697 37.1542V30.164C49.3697 29.1713 49.4914 27.6307 51.4996 27.6307H53.1383V26.639H56.006V27.6307H57.6446C59.6519 27.6307 59.7751 29.1713 59.7751 30.164V37.1542C59.7751 38.1469 59.6519 39.687 57.6446 39.687H56.006V41.1057H53.1383V39.687ZM53.1383 29.1916H52.7692C52.2363 29.1916 52.2363 29.7593 52.2363 29.901V37.4182C52.2363 37.5594 52.2363 38.1266 52.7692 38.1266H53.1383V29.1916ZM56.3746 38.1266C56.6816 38.1266 56.9074 37.8635 56.9074 37.4182V29.901C56.9074 29.4546 56.6816 29.1916 56.3746 29.1916H56.006V38.1266H56.3746ZM44.2273 36.1416V39.0792C44.2273 39.4438 44.5128 39.5453 44.6775 39.5453C44.944 39.5453 45.1283 39.3229 45.1283 39.0792V35.5135C45.1283 35.0677 45.0462 34.5812 43.9819 34.5812H42.814V33.0213H44.0225C44.8418 33.0213 45.1283 32.8395 45.1283 31.9676V28.9489C45.1283 28.7051 44.944 28.4827 44.6775 28.4827C44.5128 28.4827 44.2273 28.5843 44.2273 28.9489V31.4609H41.3596V29.4551C41.3596 28.4624 41.4823 26.9218 43.4896 26.9218H45.866C47.8732 26.9218 47.9964 28.4624 47.9964 29.4551V31.7249C47.9964 33.264 46.9102 33.69 46.0503 33.6494V33.7916C47.9759 33.751 47.9964 35.2098 47.9964 35.7161V38.5729C47.9964 39.5656 47.8732 41.1057 45.866 41.1057H43.4896C41.4823 41.1057 41.3596 39.5656 41.3596 38.5729V36.1416H44.2273ZM34.5581 26.9218H39.0654L40.5609 41.1057H37.7543L37.4879 37.337H36.1357L35.8697 41.1057H33.0627L34.5581 26.9218ZM37.3857 35.7765L36.8939 28.6645H36.7291L36.2378 35.7765H37.3857ZM27.4706 26.9218H32.94V28.4827H30.3377V41.1057H27.4706V26.9218ZM15.0909 26.9322V31.3762C15.0959 31.3702 15.1019 31.3638 15.1075 31.3578C16.684 29.7974 19.2412 29.7974 20.8192 31.3578C22.3958 32.9173 22.3958 35.4466 20.8192 37.007C20.8122 37.014 20.8047 37.0179 20.7982 37.0244C20.7982 37.0254 20.7982 37.0254 20.7982 37.0254C20.7902 37.0343 20.7812 37.0412 20.7737 37.0477C19.2011 38.5927 17.1458 39.365 15.0909 39.365C13.0271 39.365 10.9622 38.5873 9.38715 37.0283C6.61163 34.2835 6.2826 30.0352 8.39804 26.9322C8.6835 26.5141 9.01254 26.1158 9.38715 25.7443C10.9622 24.1874 13.0271 23.4086 15.0909 23.4086V12.725C7.15752 12.725 0.726562 19.0866 0.726562 26.9322C0.726562 34.7799 7.15752 41.1414 15.0909 41.1414C19.2272 41.1414 22.9537 39.4096 25.574 36.6434V26.9322H15.0909ZM23.6804 7.48946C22.8 3.6771 20.5939 0.577075 20.2894 0.0703125C19.8091 0.782158 18.0492 3.51858 17.1548 6.55668C16.1787 9.94203 16.0355 12.946 16.372 15.9058C16.7061 18.8641 17.9711 21.9012 17.9711 21.9012C18.6422 23.4978 19.6488 25.2063 20.3044 26.045C21.264 24.8105 23.4721 21.1275 24.1597 16.316C24.5428 13.6424 24.5598 11.3013 23.6804 7.48946ZM20.2894 25.0979C19.8572 24.2894 19.1861 22.7548 19.122 20.3824C19.1045 18.0884 20.0335 16.1262 20.3044 15.7151C20.5463 16.1262 21.3446 17.8348 21.4403 20.1764C21.5044 22.4704 20.7376 24.2726 20.2894 25.0979ZM23.424 13.96C23.3909 15.4144 23.2156 16.9485 22.9923 17.867C23.0729 16.2847 22.8806 14.0546 22.5125 12.3144C22.1444 10.5736 21.1047 7.66333 20.2739 6.31841C19.5061 7.60042 18.5616 10.1149 18.0668 12.298C17.5695 14.4826 17.5549 17.1219 17.5549 17.914C17.4232 17.2477 17.0927 14.8665 17.1863 12.4719C17.2635 10.4973 17.7307 8.4693 17.9866 7.53652C18.9617 4.42015 20.0655 2.42827 20.2739 2.11173C20.4817 2.42827 21.872 4.87985 22.5931 7.45924C23.3108 10.0357 23.4555 12.5041 23.424 13.96Z" fill="white"/>
</svg>
