<svg width="155" height="16" viewBox="0 0 155 16" fill="none" xmlns="http://www.w3.org/2000/svg">
<path fill-rule="evenodd" clip-rule="evenodd" d="M4.72452 14.0923H0.341797V12.9371H1.79419V3.9271H0.341797V2.77155H4.72452V3.9271H3.27006V12.9371H4.72452V14.0923Z" fill="#000"/>
<path fill-rule="evenodd" clip-rule="evenodd" d="M13.3821 14.0923L8.99141 9.05202L7.88813 10.2532V14.0923H6.4133V2.77155H7.88813V8.67891L13.2775 2.77155H15.0662L10.1102 8.0933L15.2979 14.0923H13.3821Z" fill="#000"/>
<path fill-rule="evenodd" clip-rule="evenodd" d="M23.9993 14.0923H16.6873V2.77155H23.9993V4.10965H18.1631V7.21122H23.9993V8.55036H18.1631V12.7545H23.9993V14.0923Z" fill="#000"/>
<path fill-rule="evenodd" clip-rule="evenodd" d="M32.1972 9.64509L30.2508 4.08696L28.2995 9.64509H32.1972ZM35.3114 14.0928H33.7396L32.651 10.9381H27.8516L26.763 14.0928H25.2645L29.304 2.77201H31.2719L35.3114 14.0928ZM48.7855 13.6139C48.5645 13.7206 48.275 13.8324 47.917 13.9491C47.6138 14.0449 47.2842 14.1277 46.9291 14.1965C46.5741 14.2634 46.1828 14.2983 45.7554 14.2983C44.9505 14.2983 44.2189 14.1836 43.5606 13.9531C42.9014 13.7226 42.3292 13.3605 41.8421 12.8686C41.3648 12.3867 40.9932 11.7761 40.7242 11.0329C40.4562 10.2906 40.3212 9.42759 40.3212 8.44387C40.3212 7.51103 40.4513 6.67696 40.7095 5.94266C40.9677 5.20737 41.3404 4.58681 41.8275 4.07998C42.2989 3.58812 42.8701 3.21299 43.5381 2.95459C44.2061 2.69619 44.9475 2.56649 45.7633 2.56649C46.3589 2.56649 46.9546 2.64032 47.5482 2.78698C48.141 2.93463 48.8012 3.19304 49.5269 3.56218V5.35004H49.4144C48.8041 4.82725 48.1977 4.44713 47.5962 4.20868C46.9947 3.97023 46.3521 3.85151 45.6654 3.85151C45.104 3.85151 44.5993 3.94429 44.1494 4.12986C43.6995 4.31444 43.2985 4.60177 42.9454 4.99187C42.6031 5.37298 42.3351 5.85187 42.1444 6.43353C41.9527 7.01418 41.8578 7.68363 41.8578 8.44387C41.8578 9.24002 41.9624 9.92344 42.1737 10.4961C42.385 11.0698 42.6569 11.5357 42.9904 11.8959C43.3376 12.271 43.7435 12.5494 44.2091 12.7289C44.6737 12.9075 45.1637 12.9983 45.6811 12.9983C46.3912 12.9983 47.0573 12.8736 47.6783 12.6252C48.2994 12.3778 48.8814 12.0046 49.4222 11.5078H49.5269V13.2717C49.254 13.3934 49.0056 13.5071 48.7855 13.6139ZM57.0494 8.90081C57.0445 8.14955 56.8587 7.56889 56.4939 7.15885C56.1291 6.7488 55.5735 6.54327 54.8282 6.54327C54.078 6.54327 53.4804 6.76875 53.0354 7.2197C52.5913 7.67066 52.339 8.23136 52.2793 8.90081H57.0494ZM52.2793 9.99527C52.2793 10.5171 52.3566 10.972 52.5102 11.3601C52.6637 11.7472 52.876 12.0655 53.144 12.3139C53.4022 12.5563 53.7093 12.7389 54.0643 12.8606C54.4194 12.9824 54.8106 13.0432 55.238 13.0432C55.8043 13.0432 56.3746 12.9285 56.9487 12.698C57.5228 12.4675 57.9317 12.2411 58.1752 12.0176H58.2495V13.576C57.7771 13.7795 57.2949 13.9491 56.803 14.0848C56.311 14.2225 55.7946 14.2913 55.2527 14.2913C53.8716 14.2913 52.7938 13.9092 52.0182 13.146C51.2426 12.3837 50.8552 11.3002 50.8552 9.8965C50.8552 8.50672 51.2269 7.40527 51.9693 6.58917C52.7126 5.77306 53.6897 5.365 54.9025 5.365C56.0254 5.365 56.891 5.69923 57.5003 6.36868C58.1087 7.03713 58.4129 7.98793 58.4129 9.21907V9.99527H52.2793ZM65.7793 14.0928V9.25798C65.7793 8.86689 65.7568 8.50074 65.7119 8.15853C65.6678 7.81632 65.5857 7.54994 65.4664 7.35739C65.3421 7.14288 65.1632 6.98525 64.9294 6.88149C64.6966 6.77773 64.3934 6.72585 64.0198 6.72585C63.6373 6.72585 63.2373 6.82163 62.8206 7.01518C62.403 7.20673 62.003 7.45316 61.6205 7.75147V14.0928H60.219V5.60046H61.6205V6.54327C62.0577 6.17313 62.5096 5.8848 62.9762 5.67628C63.4437 5.46876 63.923 5.365 64.4149 5.365C65.3148 5.365 66.0004 5.64136 66.4728 6.19408C66.9452 6.7458 67.18 7.54196 67.18 8.58055V14.0928H65.7793ZM72.8318 14.1925C72.5218 14.2374 72.245 14.2604 72.0015 14.2604C71.1515 14.2604 70.505 14.0269 70.0629 13.561C69.6208 13.0941 69.3998 12.3468 69.3998 11.3182V6.80167H68.453V5.60046H69.3998V3.16011H70.8014V5.60046H73.6926V6.80167H70.8014V10.6717C70.8014 11.1177 70.8111 11.4659 70.8307 11.7173C70.8503 11.9677 70.9207 12.2022 71.04 12.4207C71.1486 12.6232 71.2992 12.7718 71.4909 12.8646C71.6806 12.9594 71.9731 13.0063 72.3663 13.0063C72.5952 13.0063 72.8328 12.9714 73.0813 12.9035C73.3307 12.8347 73.5097 12.7778 73.6182 12.7319H73.6926V14.017C73.4295 14.0878 73.1419 14.1457 72.8318 14.1925ZM80.2121 7.15885C80.0028 7.10796 79.8003 7.07205 79.6037 7.0491C79.4081 7.02516 79.1763 7.01518 78.9073 7.01518C78.475 7.01518 78.0574 7.11195 77.6554 7.3075C77.2524 7.50205 76.8651 7.75447 76.4925 8.06375V14.0928H75.0909V5.60046H76.4925V6.85455C77.049 6.39861 77.54 6.07635 77.9645 5.8858C78.389 5.69524 78.8232 5.60046 79.2653 5.60046C79.5089 5.60046 79.6849 5.60744 79.7945 5.61941C79.904 5.63238 80.0673 5.65633 80.2864 5.69125V7.15885H80.2121ZM87.0696 8.90081C87.0647 8.14955 86.8789 7.56889 86.5131 7.15885C86.1492 6.7488 85.5927 6.54327 84.8474 6.54327C84.0972 6.54327 83.5006 6.76875 83.0555 7.2197C82.6105 7.67066 82.3591 8.23136 82.2995 8.90081H87.0696ZM82.2995 9.99527C82.2995 10.5171 82.3758 10.972 82.5303 11.3601C82.6839 11.7472 82.8951 12.0655 83.1641 12.3139C83.4213 12.5563 83.7285 12.7389 84.0845 12.8606C84.4385 12.9824 84.8308 13.0432 85.2572 13.0432C85.8245 13.0432 86.3947 12.9285 86.9688 12.698C87.543 12.4675 87.9508 12.2411 88.1944 12.0176H88.2697V13.576C87.7973 13.7795 87.3161 13.9491 86.8231 14.0848C86.3311 14.2225 85.8147 14.2913 85.2728 14.2913C83.8918 14.2913 82.813 13.9092 82.0374 13.146C81.2627 12.3837 80.8754 11.3002 80.8754 9.8965C80.8754 8.50672 81.2471 7.40527 81.9894 6.58917C82.7318 5.77306 83.7099 5.365 84.9227 5.365C86.0455 5.365 86.9121 5.69923 87.5205 6.36868C88.1279 7.03713 88.433 7.98793 88.433 9.21907V9.99527H82.2995ZM95.4145 13.554C94.7855 14.0499 93.9278 14.2983 92.8392 14.2983C92.223 14.2983 91.6576 14.2235 91.1432 14.0748C90.6287 13.9242 90.1983 13.7615 89.8502 13.584V11.9797H89.9245C90.3676 12.3189 90.8586 12.5893 91.4004 12.7898C91.9423 12.9893 92.4616 13.0891 92.9585 13.0891C93.5747 13.0891 94.0569 12.9883 94.4041 12.7858C94.7513 12.5823 94.9254 12.263 94.9254 11.827C94.9254 11.4938 94.8315 11.2394 94.6427 11.0678C94.454 10.8952 94.0911 10.7475 93.5541 10.6258C93.3566 10.5809 93.0964 10.527 92.7756 10.4662C92.4548 10.4053 92.1633 10.3395 91.9002 10.2686C91.1696 10.0711 90.6522 9.78177 90.346 9.39766C90.0399 9.01554 89.8873 8.54563 89.8873 7.98792C89.8873 7.63774 89.9587 7.3085 90.0996 6.99922C90.2414 6.68993 90.4566 6.41357 90.7441 6.17014C91.0229 5.93269 91.3769 5.74313 91.8073 5.60445C92.2367 5.46477 92.7179 5.39493 93.249 5.39493C93.7458 5.39493 94.2486 5.45679 94.7582 5.5815C95.2677 5.70621 95.6913 5.85587 96.0287 6.03345V7.56191H95.9553C95.5974 7.29353 95.1621 7.06706 94.6506 6.88149C94.1381 6.69692 93.6373 6.60413 93.1443 6.60413C92.6328 6.60413 92.2005 6.7039 91.8484 6.90443C91.4953 7.10497 91.3182 7.40228 91.3182 7.79737C91.3182 8.14755 91.4249 8.41094 91.6391 8.58853C91.8484 8.76612 92.1858 8.90979 92.6524 9.02253C92.9106 9.08239 93.2001 9.14325 93.5209 9.20411C93.8417 9.26497 94.1087 9.32084 94.3219 9.37172C94.9733 9.52337 95.4751 9.78476 95.8282 10.1549C96.1813 10.53 96.3573 11.0259 96.3573 11.6445C96.3573 12.4207 96.0424 13.0562 95.4145 13.554Z" fill="#000"/>
<path d="M153.332 3.00754C153.952 3.00754 154.445 2.50776 154.445 1.84139C154.442 1.17502 153.954 0.675248 153.355 0.675248C152.704 0.675248 152.211 1.17502 152.211 1.84139C152.214 2.50776 152.701 3.00754 153.355 3.00754H153.332ZM151.938 1.84139C151.938 1.00843 152.593 0.453125 153.355 0.453125C154.079 0.453125 154.717 1.00843 154.717 1.84139C154.718 2.61882 154.063 3.22966 153.355 3.22966C152.577 3.22966 151.938 2.61882 151.938 1.84139ZM153.328 1.73033C153.532 1.73033 153.737 1.73033 153.737 1.45268C153.713 1.28609 153.519 1.23055 153.355 1.23055H153.041V1.73033H153.328ZM153.041 2.61882H152.802V1.00843H153.404C153.778 1.00843 153.954 1.17502 153.954 1.45268C153.963 1.78586 153.791 1.89692 153.573 1.89692L154.002 2.61882H153.734L153.317 1.95245H153.041V2.61882Z" fill="#000"/>
<path fill-rule="evenodd" clip-rule="evenodd" d="M151.35 0.791151H110.266V15.7944H151.35V0.791151ZM151.028 8.23989C151.028 12.0434 141.968 15.1081 130.806 15.1081C119.648 15.1081 110.599 12.0434 110.606 8.23989C110.606 4.4364 119.648 1.37263 130.817 1.37263C141.99 1.37263 151.017 4.4364 151.028 8.23989Z" fill="#000"/>
<path d="M142.464 8.76909C142.464 8.76909 142.092 7.81819 142.04 7.76537C142.012 7.65971 141.988 7.4484 141.988 7.4484H142C142 7.4484 141.988 7.65971 141.936 7.76537C141.93 7.81819 141.521 8.76909 141.521 8.76909H142.464ZM142.993 10.8822C142.993 10.8822 143.183 10.6709 143.08 10.4596L142.837 9.77281H141.226L140.962 10.4596C140.904 10.6709 141.053 10.8822 141.053 10.8822H137.812C137.812 10.8822 137.988 10.7237 138.092 10.4596L139.84 5.81075C139.957 5.49378 139.754 5.3353 139.754 5.3353H144.948C144.948 5.3353 144.742 5.49378 144.846 5.81075L146.691 10.4596C146.836 10.7237 147.028 10.8822 147.028 10.8822H142.993ZM115.884 10.8822C116.092 10.7765 116.062 10.4067 116.062 10.3539L116.078 5.70509C116.078 5.44096 115.906 5.3353 115.906 5.3353H119.664C119.664 5.3353 119.491 5.44096 119.491 5.70509L119.504 10.3539C119.504 10.4067 119.491 10.7765 119.699 10.8822H115.884ZM124.733 7.55406L125.991 5.75792C126.172 5.49378 125.985 5.3353 125.985 5.3353C125.967 5.3353 129.674 5.3353 129.674 5.3353C129.656 5.3353 129.467 5.44096 129.311 5.65227L127.947 7.60688L129.676 10.4067C129.826 10.6181 129.934 10.7237 130.038 10.7765C130.125 10.8294 130.194 10.8822 130.194 10.8822H125.861C125.861 10.8822 125.985 10.7765 125.882 10.5124L124.732 8.61061V10.3539C124.732 10.4067 124.686 10.7765 124.894 10.8822H121.214C121.421 10.7765 121.413 10.4067 121.413 10.3539L121.407 5.70509C121.407 5.44096 121.257 5.3353 121.257 5.3353H124.892C124.892 5.3353 124.738 5.44096 124.738 5.70509L124.733 7.55406ZM137.176 10.8822L137.176 8.92757C137.176 8.92757 136.949 9.19171 136.585 9.19171H134.302L134.301 8.71626H136.069C136.167 8.71626 136.481 8.76909 136.533 8.87474L136.548 7.18426C136.468 7.28992 136.169 7.34275 136.065 7.34275H134.301V6.8673H136.604C136.943 6.8673 137.156 7.13144 137.156 7.13144L137.176 5.3353H130.927C130.927 5.3353 131.077 5.44096 131.077 5.70509L131.087 10.3539C131.087 10.4067 131.077 10.7765 130.869 10.8822H137.176Z" fill="#000"/>
</svg>
