<svg width="119" height="41" viewBox="0 0 119 41" fill="none" xmlns="http://www.w3.org/2000/svg">
<path d="M40.1621 1.97034C42.0926 2.09341 42.5444 4.1445 42.2159 7.01604C42.7087 7.54933 43.1195 8.16466 43.4481 8.82101C44.4339 3.85735 43.6535 0.985813 40.6549 0.657637C38.1493 0.370483 34.2882 1.76523 30.8789 5.21107H32.7684C35.3151 3.07793 38.0672 1.80625 40.1621 1.97034Z" fill="#000"/>
<path d="M37.204 6.23801C33.7126 6.23801 31.5356 9.43773 31.5356 13.3758C31.5356 17.7242 33.8358 20.5137 37.204 20.5137C40.7366 20.5137 42.8725 17.3139 42.8725 13.3758C42.8725 9.15057 40.6544 6.23801 37.204 6.23801ZM37.204 18.8728C35.4789 18.8728 34.5341 16.1653 34.5341 13.3758C34.5341 10.5863 35.4789 7.87889 37.204 7.87889C38.8471 7.87889 39.874 10.5863 39.874 13.3758C39.874 16.1653 38.9703 18.8728 37.204 18.8728Z" fill="#000"/>
<path d="M3.14862 14.9721V6.56258H0.355469V20.2229H1.95742L6.80437 11.8954V20.2229H9.63863V6.56258H7.99556L3.14862 14.9721Z" fill="#000"/>
<path d="M19.1712 12.3877H15.5565V6.56258H12.7634V20.2229H15.5565V14.0286H19.1712V20.2229H21.9644V6.56258H19.1712V12.3877Z" fill="#000"/>
<path d="M68.7469 6.56542H63.0784V8.57549L63.4892 8.7806C64.1464 8.45243 65.2554 7.87812 66.118 7.87812V20.3077H69.1165V7.83709C70.0202 7.83709 71.1293 8.37038 71.7454 8.73958L72.1151 8.53447V6.52439H68.7469V6.56542Z" fill="#000"/>
<path d="M31.7788 6.56258H25.0835V20.2229H27.8766V7.83426H28.4106C29.725 7.83426 30.6698 8.24448 31.4091 8.85981L31.7788 8.6547V6.56258Z" fill="#000"/>
<path d="M85.1834 6.56258L84.937 6.84973L85.7174 8.36755L81.9384 20.2229H83.8279L85.0191 16.2848H88.3462L89.5785 20.2229H92.7003L88.3462 6.56258H85.1834ZM85.512 14.726L86.6621 10.9929L87.8123 14.726H85.512Z" fill="#000"/>
<path d="M77.3678 6.47857C75.7248 6.47857 75.0676 6.56062 73.5889 6.56062V20.2209H76.382V15.5444H77.0803C79.8735 15.5444 82.1737 13.6984 82.1737 10.95C82.1737 8.16048 80.2021 6.47857 77.3678 6.47857ZM76.8338 14.0676H76.382V8.03741H77.2035C78.3947 8.03741 79.3805 8.93989 79.3805 11.032C79.3805 13.0421 78.2715 14.0676 76.8338 14.0676Z" fill="#000"/>
<path d="M102.76 20.2229L99.1449 13.003L102.677 6.56258H100.665L98.1591 11.116L95.8588 6.56258H92.9424L96.4749 13.6184L92.8192 20.2229H94.8319L97.4197 15.5054L99.8021 20.2229H102.76Z" fill="#000"/>
<path d="M50.3008 8.00196C51.0401 8.00196 51.8206 8.65831 52.1492 9.64284H52.5189L52.8886 6.73028C52.2313 6.48414 51.1634 6.23801 50.1365 6.23801C46.3986 6.23801 43.8519 9.43773 43.8519 13.3758C43.8519 17.437 45.9878 20.5137 50.0132 20.5137C51.0401 20.5137 52.1492 20.2675 52.8886 19.5702V16.5755H52.5189C51.8617 17.8883 51.0812 18.5446 50.1365 18.5446C48.1237 18.5446 46.8915 16.0833 46.8915 13.4169C46.9326 10.7094 48.3291 8.00196 50.3008 8.00196Z" fill="#000"/>
<path d="M59.5857 8.00196C60.3251 8.00196 61.1055 8.57627 61.4341 9.64284H61.8038L62.1735 6.73028C61.5163 6.48414 60.4483 6.23801 59.4214 6.23801C55.6835 6.23801 53.1368 9.43773 53.1368 13.3758C53.1368 17.437 55.2728 20.5137 59.2982 20.5137C60.3251 20.5137 61.4341 20.2675 62.1735 19.5702V16.5755H61.8449C61.2287 17.8472 60.4072 18.5446 59.4625 18.5446C57.4498 18.5446 56.2175 16.0833 56.2175 13.4169C56.2175 10.7094 57.6141 8.00196 59.5857 8.00196Z" fill="#000"/>
<path d="M118.036 21.7015C116.927 20.6759 114.504 22.2348 112.86 23.9987C111.628 25.3114 110.108 27.5676 108.835 29.5367C107.11 30.8494 104.851 32.5313 104.111 33.0236C103.167 33.6388 102.55 33.9671 102.181 33.8029C101.729 33.5979 101.606 32.6953 101.523 31.9569C102.058 31.8749 102.55 31.8339 103.249 31.4647C104.276 30.9314 104.768 29.9469 104.152 29.2085C103.659 28.5932 102.633 28.8393 101.688 29.4956L102.263 28.6342C102.263 28.6342 102.427 28.5111 102.509 28.4701C104.399 27.1984 106.124 26.0088 107.151 25.1473C108.465 24.0397 109.903 22.5629 109.081 21.7015C108.054 20.5939 105.467 22.2348 103.824 24.0397C102.633 25.3114 101.195 27.5266 99.9626 29.4546C98.032 30.7674 94.3763 33.2696 93.8834 33.6388C93.3904 34.008 93.144 33.6799 93.4726 33.1466C93.6369 32.8594 93.8834 32.4493 94.1298 32.039C94.1298 32.039 95.0335 30.6442 95.5675 29.7828L95.8551 29.3316C95.8961 29.2905 95.8961 29.2495 95.9371 29.2085L96.1425 28.8803H94.3763L93.9656 29.5367C93.9245 29.6187 93.8834 29.6597 93.8834 29.6597C93.7602 29.4136 93.5959 29.1675 93.3904 29.0444C92.6101 28.5111 90.9259 28.7162 89.6526 29.8648C88.2971 30.8494 85.011 33.3107 84.3949 33.6388C83.6555 34.008 83.0394 33.5158 83.6966 32.5312C83.8609 32.2852 85.2164 31.0545 86.2022 30.275L85.7504 29.7008C84.6003 30.3161 83.6144 29.9879 83.4091 29.2085C83.4502 29.1675 83.902 28.7573 83.902 28.7573L83.1626 27.6907C82.3 28.0599 82.1358 28.8393 82.1768 29.2495C80.4105 30.6853 77.2477 33.1056 76.6726 33.5158C76.2619 33.8029 75.9743 33.5568 76.303 33.1466C76.3852 33.0236 80.3694 26.7062 80.6159 26.2959H85.2575L85.9558 25.1473H81.3553C82.1768 23.8346 83.6144 21.5784 83.6144 21.5784H81.8482C81.8482 21.5784 80.657 23.4654 79.5891 25.1473H62.2139L61.5156 26.2959H78.8086C78.3157 27.0754 77.7817 27.9368 77.2888 28.6752L72.0311 31.1366C72.0311 30.6853 72.0721 30.3161 72.1954 29.9059C72.2776 29.6597 72.4419 29.4546 72.6061 29.3316L73.0169 29.0034L71.8258 28.1009L65.7876 31.1775C65.7876 30.7263 65.8287 30.3571 65.993 29.9469C66.0751 29.7008 66.2394 29.5367 66.3626 29.3726L66.7734 29.0444L65.5822 28.1009C65.5822 28.1009 60.9406 30.9725 58.9279 32.2441C59.8727 30.6033 59.7494 29.3726 59.2155 28.9624C58.5172 28.347 57.0384 28.6752 55.8061 29.6597L50.0555 33.2696L52.7666 28.9213H51.0003C51.0003 28.9213 50.6306 29.5367 50.5484 29.7008C50.4663 29.4546 50.3842 29.2905 50.1788 29.1675C49.2751 28.4701 47.591 28.7162 46.3177 29.8238C45.5372 30.3982 41.5529 33.2696 40.9367 33.7209C40.2795 34.2131 39.992 33.844 40.4028 33.1877C40.8546 32.4902 41.5939 31.3417 41.9226 30.8083C42.3333 30.07 42.2511 29.1675 41.7172 28.9213C41.1832 28.6752 40.2384 28.6752 39.0062 29.5777C38.8008 29.7008 38.6776 29.7828 38.5133 29.9469C38.5954 29.7418 39.2116 28.5932 39.2116 28.5932L38.5544 28.6342C38.5133 28.6342 38.5133 28.6342 38.4722 28.6342C37.1989 28.7983 36.213 28.9624 34.6932 29.0034C34.6111 29.0034 34.4878 29.0034 34.4057 29.0034C35.9666 27.0754 37.4863 24.6961 38.8008 21.9886C38.2257 22.1527 37.6096 22.2348 36.9113 22.2348H36.8702C35.4737 24.8602 33.9128 27.1164 32.2697 28.9624C29.6409 28.6342 26.437 27.2394 25.9441 21.6194H24.3832C24.6707 26.2139 27.0531 29.1675 31.4893 29.7828C27.9568 33.3928 25.9852 34.1312 23.3563 34.1312C20.6864 34.1312 19.0844 31.998 19.0844 28.5932H17.1539C17.1539 32.6133 19.2487 35.2387 23.2742 35.3207C26.6834 35.3207 30.4624 33.5979 33.7074 29.9469C33.8306 29.9469 33.995 29.9469 34.1182 29.9469C35.0629 29.9059 35.9666 29.8648 36.9524 29.7008C36.7881 30.0289 36.5416 30.3571 36.1719 30.9725C35.7201 31.7109 33.7485 34.7464 33.7485 34.7464H35.5558C35.5558 34.7464 36.3773 33.3928 36.8702 32.6544C37.4453 31.7518 38.1846 31.0955 38.6365 30.7263C39.5812 29.9059 40.3617 29.5777 40.5671 29.6187C40.7313 29.6597 40.8546 29.9469 40.5671 30.4391C40.2384 30.9314 39.2527 32.2031 38.8008 33.0236C38.39 33.762 38.4311 34.7055 39.3759 34.9106C40.1152 35.0747 40.7724 34.6644 41.635 34.0491C42.0868 33.7209 43.6888 32.5312 45.0032 31.5467C44.4693 32.7364 44.5514 33.9671 45.3318 34.5414C45.989 35.0336 46.8927 34.8695 47.8785 34.1721C47.7964 34.3772 47.6732 34.5823 47.591 34.7875C45.989 35.731 45.0443 36.2233 43.4423 37.5769C42.2922 38.5615 41.7583 39.8332 42.4566 40.5306C43.5656 41.5971 45.4961 40.1614 46.9338 38.1102C47.4678 37.2898 49.2751 34.5414 49.2751 34.5414L54.4506 31.3006C53.8345 32.5723 53.8756 33.885 54.656 34.5004C55.4365 35.1567 56.5044 34.8285 57.5314 33.926L64.3499 29.6187C64.3088 29.7418 64.2677 29.8238 64.2677 29.9469C64.2677 30.6033 64.3499 31.0545 64.391 31.8339C64.391 31.8339 63.1176 32.4902 62.748 32.6544C62.1729 32.9004 61.6389 33.3928 61.68 34.0491C61.7211 34.7055 62.255 35.1156 63.0766 35.1156C64.2677 35.1156 65.6643 34.2952 65.7876 31.9569V31.7929L70.6345 29.3316C70.5934 29.4546 70.5113 29.6187 70.5113 29.9059C70.4702 30.5622 70.5934 31.0134 70.5934 31.7929C70.5934 31.7929 69.3611 32.4493 68.9504 32.6133C68.3754 32.8594 67.8414 33.3517 67.8825 34.008C67.9236 34.6644 68.4575 35.0747 69.279 35.0747C70.4702 35.0747 71.8668 34.2542 71.9489 31.916V31.7518L76.5905 29.5777C75.769 30.8494 75.1939 31.7518 75.1939 31.7518C75.1117 31.8339 74.9886 32.039 74.9475 32.2031C74.0849 33.762 74.2903 34.7464 75.235 34.7464C76.0154 34.7464 76.5494 34.3363 77.412 33.762C77.9871 33.3517 80.6159 31.2185 82.259 29.8238C82.6286 30.4391 83.4091 30.6853 84.3949 30.5212C83.0394 31.4647 82.5876 31.7929 81.9303 32.5312C81.6839 32.8185 81.5196 33.1466 81.5196 33.4748C81.5196 34.2542 82.0125 34.7875 82.8751 34.7875C83.6144 34.7875 84.1896 34.4183 85.0521 33.844C85.504 33.5158 86.9826 32.4493 88.2971 31.4647C87.8042 32.6544 87.8863 33.844 88.6257 34.4593C89.3651 35.0747 90.9259 34.3772 91.7064 33.4337C91.5831 34.2131 91.7885 34.7875 92.4458 34.7875C93.1851 34.7875 93.7602 34.3772 94.5817 33.8029C95.0335 33.4748 97.2105 31.998 99.0179 30.7674C98.6892 31.3006 96.7998 34.2542 96.6765 34.4183C96.6765 34.4183 96.6765 34.4593 96.6354 34.4593L96.5123 34.6644H98.2374L98.5249 34.2131C98.8946 33.6388 99.9215 32.039 99.9215 32.039C100.045 33.1056 100.373 34.7055 101.236 34.8696C102.222 35.0336 103.043 34.4593 103.988 33.844C104.645 33.3517 106.207 32.2031 107.643 31.0955C107.068 32.039 105.672 34.2131 105.59 34.3363C105.59 34.3772 105.549 34.3772 105.549 34.4183L105.385 34.6644H107.151L107.356 34.3772C107.356 34.3772 107.356 34.3363 107.398 34.3363C107.438 34.2952 107.603 34.008 107.808 33.7209H107.973C108.424 33.0236 109.04 32.039 109.04 32.039C109.492 31.5467 109.944 31.0955 110.314 30.7263C111.135 29.9059 111.792 29.5777 111.998 29.6187C112.162 29.6597 112.121 29.9469 111.793 30.4391C111.464 30.9314 110.478 32.2031 110.026 33.0236C109.615 33.762 109.492 34.6234 110.437 34.8285C111.177 34.9926 112.039 34.5414 112.902 33.9671C113.312 33.7209 114.134 33.1056 114.421 32.8185L113.97 32.2852C113.435 32.7774 112.573 33.3107 112.162 33.5568C111.464 33.9671 111.217 33.762 111.669 33.1056C112.121 32.4082 112.819 31.2596 113.189 30.7263C113.641 29.9879 113.764 29.0854 113.23 28.8393C112.696 28.5932 111.71 28.8803 110.56 29.7828C110.478 29.8648 110.396 29.9059 110.314 29.9879L111.217 28.5932C111.258 28.5521 111.3 28.5521 111.341 28.5111C113.189 27.2394 115.12 26.0088 116.106 25.1063C117.091 24.2448 118.98 22.5629 118.036 21.7015ZM104.851 24.9832C105.96 23.5885 107.89 21.5784 108.548 22.1937C108.917 22.5219 108.424 23.3013 106.494 24.8191C105.344 25.7216 104.029 26.7062 102.879 27.4035C103.495 26.7062 104.358 25.5986 104.851 24.9832ZM46.0301 37.7001C45.3318 38.9307 44.0174 40.3664 43.237 39.9563C42.7851 39.7101 43.1549 38.8077 44.5514 37.618C45.2907 37.0026 46.9749 35.9361 46.9749 35.9361C46.6462 36.5925 46.3177 37.2077 46.0301 37.7001ZM48.9465 31.9569C47.9196 33.6799 46.7284 34.2542 46.3177 33.9671C45.8658 33.6388 46.2355 32.4902 47.1802 31.2185C48.125 29.9469 49.0698 29.3316 49.5627 29.5367C50.1788 29.8648 49.768 30.6033 48.9465 31.9569ZM57.901 32.3672C56.9562 33.6388 56.0115 34.2542 55.6008 33.926C55.19 33.5979 55.6418 32.5313 56.5866 31.2185C57.5314 29.9469 58.3117 29.3316 58.7226 29.6187C59.0922 29.9469 58.8458 31.0545 57.901 32.3672ZM63.0766 34.5004C62.7069 34.5004 62.4604 34.2952 62.4604 34.008C62.4194 33.6799 62.5837 33.5158 62.8712 33.3517C63.0355 33.2696 64.391 32.5723 64.391 32.5723C64.3088 34.0901 63.6516 34.5004 63.0766 34.5004ZM69.32 34.5004C68.9504 34.5004 68.7039 34.2952 68.7039 34.008C68.6628 33.6799 68.8272 33.5158 69.1147 33.3517C69.279 33.2696 70.6345 32.5723 70.6345 32.5723C70.5113 34.0901 69.8952 34.5004 69.32 34.5004ZM92.3636 31.998C91.501 33.5158 90.2687 34.1721 89.8169 33.844C89.4062 33.5158 89.6526 32.5723 90.5563 31.2596C91.4599 29.9469 92.3225 29.2905 92.8976 29.5367C93.5137 29.8648 93.3494 30.3571 92.3636 31.998ZM100.579 31.3826C100.784 31.0134 101.236 30.5622 101.688 30.1931C102.14 29.8238 103.043 29.3726 103.249 29.7828C103.495 30.234 103.167 30.9314 102.304 31.2185C101.77 31.4237 101.072 31.4647 100.579 31.3826ZM115.366 24.9012C114.216 25.8447 112.86 26.7472 111.998 27.3215C112.655 26.419 113.23 25.6396 113.764 25.0243C114.873 23.6295 116.845 21.6194 117.502 22.2758C117.789 22.5219 117.297 23.3424 115.366 24.9012Z" fill="#000"/>
</svg>
