<svg width="96" height="17" viewBox="0 0 96 17" fill="none" xmlns="http://www.w3.org/2000/svg">
<path fill-rule="evenodd" clip-rule="evenodd" d="M68.0442 15.5587H65.648L72.6609 2.54356H72.9906H75.0351H75.4089L82.4217 15.5587H80.0035L78.1568 12.1282H69.8909L68.0442 15.5587ZM77.2995 10.5273L74.0239 4.45633L70.7483 10.5273H77.2995ZM57.1182 2.21091L58.745 0.422881H62.3724L57.1182 2.21091ZM52.4576 15.6003H64.7686V14.1241H54.5681V9.6125H62.1306V8.07397H54.5681V3.99893H64.7027V2.54356H52.4576V15.6003ZM35.7279 2.54356H37.6405H44.8072C47.2254 2.54356 49.204 4.24842 49.204 6.32752C49.204 8.13634 47.7091 9.65408 45.7086 10.0283L49.9734 15.5795H47.4673L43.2683 10.1115H37.6405V15.5795H35.7279V10.0907V2.54356ZM44.8952 4.0821L45.0271 4.10289L45.159 4.12368L45.2909 4.14447L45.4008 4.18605L45.5107 4.22763L45.6206 4.26921L45.7305 4.3108L45.8405 4.37317L45.9504 4.43554L46.0383 4.49791L46.1262 4.56029L46.2142 4.62266L46.3021 4.70583L46.3901 4.78899L46.456 4.87215L46.522 4.95532L46.5879 5.03848L46.6539 5.12164L46.7198 5.20481L46.7638 5.28797L46.8078 5.39193L46.8517 5.49588L46.8957 5.59984L46.9177 5.70379L46.9397 5.80775L46.9616 5.9117L46.9836 6.01566L47.0056 6.11961V6.22357V6.32752V6.43148V6.53543L46.9836 6.63939L46.9616 6.74334L46.9397 6.8473L46.9177 6.95125L46.8957 7.05521L46.8517 7.15916L46.8078 7.26312L46.7638 7.36707L46.7198 7.45024L46.6539 7.5334L46.5879 7.61656L46.522 7.69973L46.456 7.78289L46.3901 7.86606L46.3021 7.94922L46.2142 8.03238L46.1262 8.09476L46.0383 8.15713L45.9504 8.2195L45.8405 8.28188L45.7305 8.34425L45.6206 8.38583L45.5107 8.42741L45.4008 8.469L45.2909 8.51058L45.159 8.53137L45.0271 8.55216L44.8952 8.57295H44.7632H44.6094H37.7284V4.0821H44.6094H44.7632H44.8952ZM23.9445 1.7743C20.0533 1.7743 16.9096 4.74741 16.9096 8.42741C16.9096 12.1074 20.0533 15.0805 23.9445 15.0805C27.8356 15.0805 30.9793 12.1074 30.9793 8.42741C30.9793 4.7682 27.8356 1.7743 23.9445 1.7743ZM23.9445 0.277344C18.7563 0.277344 14.5573 3.93656 14.5573 8.42741C14.5573 12.9391 18.7563 16.5775 23.9445 16.5775C29.1327 16.5775 33.3316 12.9183 33.3316 8.42741C33.3096 3.93656 29.1107 0.277344 23.9445 0.277344ZM0.861328 15.6003V2.56435H2.62004V14.1657H13.0404V15.6003H0.861328ZM83.433 15.6003H95.788V14.1241H85.3676V2.56435H83.433V15.6003ZM9.45705 7.11758H11.0839L13.5241 2.64752H11.4576L9.45705 7.11758Z" fill="white"/>
</svg>
