<svg width="100" height="34" viewBox="0 0 100 34" fill="none" xmlns="http://www.w3.org/2000/svg">
<path d="M1.52475 17.8566V4.45351C2.74258 4.17546 4.02028 4.07574 5.27867 4.07574C7.93453 4.07574 10.3712 5.30589 10.3712 8.23983C10.3712 11.1354 7.9944 12.6206 5.23811 12.6206C4.81897 12.6206 4.43943 12.5803 4.02029 12.5218V17.8547H1.52475V17.8566ZM5.23811 6.19949C4.83925 6.19949 4.41915 6.23881 4.02029 6.31839V10.4422C4.41915 10.5007 4.79965 10.5208 5.17824 10.5208C6.65586 10.5208 7.77421 9.70776 7.77421 8.16408C7.77421 6.65493 6.69641 6.19949 5.23811 6.19949Z" fill="#000"/>
<path d="M20.0279 13.7721H13.5775C13.7359 15.2985 14.7751 16.0119 16.2537 16.0119C17.0726 16.0119 18.0703 15.8134 18.7888 15.4961L19.5479 17.3408C18.4701 17.7962 17.2918 18.0743 16.1126 18.0743C13.0377 18.0743 11.0009 15.9927 11.0009 12.9188C11.0009 10.0443 12.5789 7.72496 15.6336 7.72496C18.5087 7.72496 20.166 9.7068 20.166 12.4634C20.1669 12.9006 20.1071 13.3368 20.0279 13.7721ZM15.6539 9.68763C14.3762 9.68763 13.6374 10.7183 13.5775 11.9101H17.6907C17.6714 10.6589 16.9925 9.68763 15.6539 9.68763Z" fill="#000"/>
<path d="M30.1839 17.8566H27.9569V13.6926H24.1035V17.8566H21.8755V7.94452H24.1035V11.751H27.9569V7.94452H30.1839V17.8566Z" fill="#000"/>
<path d="M41.1048 13.7721H34.6545C34.8138 15.2985 35.852 16.0119 37.3297 16.0119C38.1486 16.0119 39.1463 15.8134 39.8658 15.4961L40.6249 17.3408C39.5471 17.7962 38.3679 18.0743 37.1906 18.0743C34.1156 18.0743 32.0778 15.9927 32.0778 12.9188C32.0778 10.0443 33.6559 7.72496 36.7106 7.72496C39.5876 7.72496 41.2449 9.7068 41.2449 12.4634C41.2449 12.9006 41.186 13.3368 41.1048 13.7721ZM36.7318 9.68763C35.4541 9.68763 34.7153 10.7183 34.6555 11.9101H38.7696C38.7493 10.6589 38.0694 9.68763 36.7318 9.68763Z" fill="#000"/>
<path d="M42.2995 12.9006C42.2995 9.82666 44.4155 7.72592 47.5117 7.72592C48.6098 7.72592 49.789 7.98384 50.8069 8.42009L50.0874 10.3425C49.3293 10.0443 48.4697 9.78639 47.6508 9.78639C45.894 9.78639 44.8549 11.1949 44.8549 12.8402C44.8549 14.6053 46.0138 16.0119 47.87 16.0119C48.6291 16.0119 49.4085 15.7741 50.1057 15.5172L50.8059 17.3801C49.8276 17.8154 48.7894 18.0743 47.73 18.0743C44.655 18.0753 42.2995 16.033 42.2995 12.9006Z" fill="#000"/>
<path d="M51.3032 12.9006C51.3032 9.82666 53.4202 7.72592 56.5154 7.72592C57.6126 7.72592 58.7908 7.98384 59.8097 8.42009L59.0911 10.3425C58.3321 10.0443 57.4735 9.78639 56.6555 9.78639C54.8978 9.78639 53.8586 11.1949 53.8586 12.8402C53.8586 14.6053 55.0166 16.0119 56.8747 16.0119C57.6328 16.0119 58.4122 15.7741 59.1114 15.5172L59.8097 17.3801C58.8313 17.8154 57.7922 18.0743 56.7347 18.0743C53.6597 18.0753 51.3032 16.033 51.3032 12.9006Z" fill="#000"/>
<path d="M64.9446 18.0752C63.0266 18.0752 60.4722 17.3811 60.4722 15.0608C60.4722 11.0568 66.6618 12.425 66.6618 10.6992C66.6618 9.86692 65.584 9.78734 64.9852 9.78734C64.0851 9.78734 63.0479 10.0261 62.2086 10.3818L61.3896 8.58021C62.5679 8.04328 64.0252 7.72687 65.3242 7.72687C67.4595 7.72687 69.0578 8.65883 69.0578 10.958V16.0541C69.0578 16.4702 69.1988 17.3015 69.1988 17.3015C67.8197 17.7176 66.402 18.0752 64.9446 18.0752ZM66.6608 15.4376V13.0003C65.8418 13.7731 63.1068 13.4548 63.1068 14.8824C63.1068 15.9131 64.1044 16.0934 64.964 16.0934C65.5434 16.0934 66.1422 15.9937 66.7004 15.8144C66.7004 15.8144 66.6608 15.6562 66.6608 15.4376Z" fill="#000"/>
<path d="M79.6764 17.8566H77.2804V13.6926H73.426V17.8566H71.0299V7.94452H73.426V11.751H77.2804V7.94452H79.6764V17.8566Z" fill="#000"/>
<path d="M81.4506 12.9006C81.4506 9.82666 83.5676 7.72592 86.6628 7.72592C87.7609 7.72592 88.9392 7.98384 89.958 8.42009L89.2395 10.3425C88.4804 10.0443 87.6209 9.78639 86.8038 9.78639C85.0461 9.78639 84.0079 11.1949 84.0079 12.8402C84.0079 14.6053 85.1659 16.0119 87.0231 16.0119C87.7812 16.0119 88.5606 15.7741 89.2598 15.5172L89.959 17.3801C88.9807 17.8154 87.9425 18.0743 86.884 18.0743C83.8071 18.0753 81.4506 16.033 81.4506 12.9006Z" fill="#000"/>
<path d="M4.28117 31.0488C2.36413 31.0488 0.780273 29.7535 0.780273 27.6115C0.780273 25.5645 2.09758 24.1493 4.12086 24.1493C4.82683 24.1493 5.54632 24.3094 6.18566 24.5721L5.8264 25.5386C5.45361 25.3919 4.8278 25.18 4.20198 25.18C2.76395 25.18 2.1111 26.3564 2.1111 27.5856C2.1111 29.0938 3.13578 30.0306 4.34781 30.0306C4.9321 30.0306 5.45264 29.8599 5.83895 29.7151L6.1847 30.6394C5.60041 30.904 4.94658 31.0488 4.28117 31.0488Z" fill="#000"/>
<path d="M10.1105 25.2998V30.904H8.91291V25.2998H6.76988V24.295H12.2545V25.2998H10.1105Z" fill="#000"/>
<path d="M15.5998 31.0488C15.1875 31.0488 14.7876 30.9692 14.3752 30.8254V33.8782H13.1767V25.459C13.1767 25.1809 13.0975 24.6258 13.0975 24.6258C13.7359 24.388 14.748 24.1502 15.5071 24.1502C17.6502 24.1502 18.8883 25.6172 18.8883 27.5866C18.8883 29.5809 17.5159 31.0488 15.5998 31.0488ZM15.5071 25.18C15.0532 25.18 14.6824 25.273 14.3347 25.4043C14.3347 25.4446 14.3752 25.6028 14.3752 25.7083V29.8052C14.6814 29.9519 15.0667 30.0171 15.4009 30.0171C16.9046 30.0171 17.5565 29.0382 17.5565 27.5837C17.5565 26.3162 16.9857 25.18 15.5071 25.18Z" fill="#000"/>
<path d="M22.4008 31.0488C20.7764 31.0488 19.6174 30.4016 19.6174 29.1063C19.6174 27.6527 20.816 27.2558 21.9073 27.0314C22.8663 26.832 23.7451 26.7275 23.7451 26.0803C23.7451 25.3152 23.0131 25.1809 22.4404 25.1809C21.7614 25.1809 20.9627 25.4839 20.6827 25.6038L20.2703 24.6776C20.9232 24.3755 21.8155 24.1502 22.5205 24.1502C24.1053 24.1502 24.9572 24.8779 24.9572 26.2653V29.7161C24.9572 29.9922 25.0499 30.5617 25.0499 30.5617C24.2637 30.812 23.3183 31.0488 22.4008 31.0488ZM23.7451 29.5291V27.4543C23.439 27.693 22.9194 27.7841 22.4278 27.8895C21.6552 28.0631 20.9502 28.274 20.9502 29.0133C20.9502 29.7007 21.5094 30.0181 22.4008 30.0181C22.8788 30.0181 23.3588 29.9376 23.7857 29.7928C23.7857 29.7928 23.7451 29.6221 23.7451 29.5291Z" fill="#000"/>
<path d="M30.6939 30.904L28.9507 28.3651L27.193 30.904H25.7685L28.2322 27.4667L25.9018 24.295H27.3659L29.0435 26.6862L30.6418 24.295H32.0528L29.7755 27.599L32.1851 30.904H30.6939Z" fill="#000"/>
<path d="M35.5682 31.0488C33.6386 31.0488 32.3464 29.6096 32.3464 27.599C32.3464 25.5903 33.6386 24.1493 35.5682 24.1493C37.4997 24.1493 38.8035 25.5894 38.8035 27.599C38.8025 29.6096 37.4997 31.0488 35.5682 31.0488ZM35.5807 25.18C34.304 25.18 33.6782 26.2768 33.6782 27.5981C33.6782 28.9203 34.304 30.0181 35.5807 30.0181C36.8594 30.0181 37.4717 28.9203 37.4717 27.5981C37.4717 26.2768 36.8604 25.18 35.5807 25.18Z" fill="#000"/>
<path d="M42.2407 31.0488C41.5212 31.0488 40.5767 30.9568 39.9905 30.7851V24.4139C40.4154 24.2691 41.3078 24.1493 42.1461 24.1493C42.8791 24.1493 43.4779 24.2691 43.8902 24.5069C44.4629 24.8377 44.715 25.3526 44.715 25.855C44.715 27.017 43.7695 27.3354 43.7695 27.3354C43.7695 27.3354 45.167 27.5731 45.167 28.9471C45.1689 30.3748 43.7985 31.0488 42.2407 31.0488ZM42.0814 25.18C41.7868 25.18 41.4816 25.2202 41.189 25.2864V27.017H42.3334C42.8936 27.017 43.4653 26.7265 43.4653 26.0793C43.4663 25.4839 42.8665 25.18 42.0814 25.18ZM42.2677 27.8896H41.189V29.9261C41.4295 29.9788 41.9075 30.0191 42.2803 30.0191C43.4653 30.0191 43.8381 29.5684 43.8381 28.9998C43.8391 28.4044 43.4527 27.8896 42.2677 27.8896Z" fill="#000"/>
<path d="M48.7527 31.0488C47.1283 31.0488 45.9704 30.4016 45.9704 29.1063C45.9704 27.6527 47.1689 27.2558 48.2592 27.0314C49.2182 26.832 50.0961 26.7275 50.0961 26.0803C50.0961 25.3152 49.365 25.1809 48.7923 25.1809C48.1134 25.1809 47.3147 25.4839 47.0347 25.6038L46.6213 24.6776C47.2742 24.3755 48.1665 24.1502 48.8715 24.1502C50.4554 24.1502 51.3072 24.8779 51.3072 26.2653V29.7161C51.3072 29.9922 51.4009 30.5617 51.4009 30.5617C50.6157 30.812 49.6702 31.0488 48.7527 31.0488ZM50.0961 29.5291V27.4543C49.7909 27.693 49.2714 27.7841 48.7788 27.8895C48.0062 28.0631 47.3002 28.274 47.3002 29.0133C47.3002 29.7007 47.8594 30.0181 48.7518 30.0181C49.2308 30.0181 49.7098 29.9376 50.1367 29.7928C50.1367 29.7928 50.0961 29.6221 50.0961 29.5291Z" fill="#000"/>
<path d="M57.1403 30.904V27.9174H54.0634V30.904H52.8649V24.295H54.0634V26.9116H57.1403V24.295H58.3504V30.904H57.1403Z" fill="#000"/>
<path d="M64.5276 30.904V25.5769H64.488C64.488 25.5769 64.4214 25.9077 64.262 26.1733C64.262 26.1733 62.4251 29.2108 61.8525 30.1379C61.4265 30.8379 60.933 30.9846 60.5342 30.9846C60.2415 30.9846 59.9489 30.8379 59.9489 30.8379V24.295H61.1465V29.5425H61.188C61.188 29.5425 61.2411 29.2913 61.4536 28.9481L64.2755 24.295H65.7261V30.904H64.5276Z" fill="#000"/>
<path d="M72.6516 28.0084H68.2178C68.2834 29.1859 69.0165 30.0191 70.2942 30.0191C70.8408 30.0191 71.3865 29.9136 71.879 29.7151L72.2518 30.6135C71.6134 30.905 70.8939 31.0498 70.1889 31.0498C68.1511 31.0498 66.913 29.556 66.913 27.5866C66.913 25.7763 67.8585 24.1502 69.8422 24.1502C71.7061 24.1502 72.7182 25.5261 72.7182 27.2836C72.7182 27.5051 72.6912 27.7582 72.6516 28.0084ZM69.8557 25.1675C68.8175 25.1675 68.2448 26.0132 68.2188 27.0429H71.4541C71.4396 26.0649 70.948 25.1675 69.8557 25.1675Z" fill="#000"/>
<path d="M99.5406 4.28497C99.5406 6.46337 97.7413 8.24962 95.5471 8.24962C93.3307 8.24962 91.5527 6.46337 91.5527 4.28497C91.5527 2.08547 93.3297 0.320312 95.5471 0.320312C97.7423 0.320313 99.5406 2.08547 99.5406 4.28497ZM98.8172 4.28497C98.8172 2.47666 97.3473 1.0164 95.5481 1.0164C93.7267 1.0164 92.278 2.47666 92.278 4.28497C92.278 5.50457 92.9367 6.55062 93.9246 7.11728V1.9963C94.452 1.84385 94.9561 1.82372 95.5046 1.82372C96.6684 1.82372 97.7423 2.41146 97.7423 3.69626C97.7423 5.00311 96.7109 5.67811 95.4824 5.67811C95.2188 5.67811 94.846 5.61291 94.846 5.61291V7.46628C95.0652 7.50847 95.3067 7.53052 95.5481 7.53052C97.3464 7.53148 98.8172 6.07218 98.8172 4.28497ZM95.438 4.89573C96.2502 4.89573 96.7978 4.52467 96.7978 3.69722C96.7978 2.86977 96.2714 2.58597 95.4824 2.58597C95.2622 2.58597 94.9995 2.62911 94.846 2.65117V4.87272C94.9986 4.87272 95.2178 4.89573 95.438 4.89573Z" fill="#000"/>
</svg>
