<svg width="91" height="31" viewBox="0 0 91 31" fill="none" xmlns="http://www.w3.org/2000/svg">
<path d="M90.7173 7.31971C89.4607 0.096805 68.3228 -2.15748 43.4598 2.25907C33.0479 4.14531 23.6233 6.90566 16.2632 9.98804C17.3851 10.034 18.2378 10.2641 18.7315 10.8161C19.1354 11.2302 19.3149 11.7823 19.3149 12.4723V13.2084H16.8915V12.5644C16.8915 12.0583 16.5773 11.6903 16.0388 11.6903C15.59 11.6903 15.2758 11.9203 15.1861 12.3343C15.1412 12.4723 15.1412 12.6564 15.1861 12.8404C15.4553 13.9445 19.0457 14.5886 19.4496 16.6129C19.4944 16.8889 19.5842 17.441 19.4496 18.2231C19.2252 19.8333 17.8339 20.4773 16.0388 20.4773C13.5704 20.4773 12.5382 19.2812 12.5382 17.625V16.8429H15.1412V17.809C15.1412 18.3611 15.5451 18.6831 16.0388 18.6831C16.5324 18.6831 16.8466 18.4531 16.9363 18.039C16.9812 17.855 17.0261 17.579 16.9363 17.349C16.4427 16.1068 13.0768 15.5087 12.6728 13.5305C12.5831 13.0704 12.5831 12.7024 12.628 12.1963C12.6728 11.9203 12.7626 11.6903 12.8524 11.5062C4.81903 15.3707 0.0618631 19.6492 0.690168 23.3757C1.94678 30.5986 23.0848 32.8529 47.9028 28.3903C58.8084 26.4581 68.6369 23.5137 76.1317 20.2473C76.0419 20.2473 75.9073 20.2473 75.8175 20.2473C74.1121 20.2473 72.5863 19.6032 72.4516 17.809C72.4067 17.487 72.4067 17.349 72.4067 17.1649V13.0704C72.4067 12.8864 72.4067 12.5644 72.4516 12.4263C72.6311 10.7241 73.9775 9.98804 75.8175 9.98804C77.2537 9.98804 79.0039 10.4021 79.1835 12.4263C79.2283 12.7024 79.2283 12.9324 79.1835 13.0244V13.3925H76.7151V12.8864C76.7151 12.8864 76.7151 12.6564 76.6702 12.5184C76.6254 12.3343 76.4458 11.8283 75.7727 11.8283C75.0995 11.8283 74.9199 12.2883 74.8751 12.5184C74.8302 12.6104 74.8302 12.7944 74.8302 12.9784V17.441C74.8302 17.579 74.8302 17.717 74.8302 17.809C74.8302 17.901 74.9648 18.4991 75.7727 18.4991C76.5805 18.4991 76.7151 17.901 76.7151 17.809C76.7151 17.671 76.76 17.533 76.76 17.441V16.0608H75.7727V14.5886H79.1835V17.2109C79.1835 17.395 79.1834 17.533 79.1386 17.855C79.0937 18.3151 78.9591 18.7291 78.7347 19.0512C86.7231 15.1867 91.3008 10.9542 90.7173 7.31971ZM26.2712 20.1093L25.0146 11.4142H24.9697L23.7131 20.1093H21.0652L22.8155 10.3101H27.1239L28.8742 20.1093H26.2712ZM38.8822 20.1093L38.8373 11.5982H38.7924L37.2665 20.1093H34.7982L33.2723 11.5982H33.2274L33.1825 20.1093H30.7142L30.9386 10.3101H34.8879L36.0548 17.579H36.0997L37.2665 10.3101H41.2159L41.4403 20.1093H38.8822ZM50.416 18.1771C50.1468 20.0633 48.3516 20.3853 47.0501 20.3853C44.9408 20.3853 43.5944 19.4652 43.5944 17.533V16.7509H46.1974V17.717C46.1974 18.2231 46.5565 18.5451 47.095 18.5451C47.5887 18.5451 47.9028 18.3611 47.9926 17.901C48.0375 17.717 48.0375 17.441 47.9926 17.2109C47.4989 15.9688 44.1779 15.3707 43.774 13.3925C43.6842 12.9324 43.6842 12.5644 43.7291 12.1043C43.9984 10.3101 45.7038 9.94203 47.0501 9.94203C48.2619 9.94203 49.1594 10.2181 49.6531 10.7701C50.057 11.1842 50.2365 11.7363 50.2365 12.4263V13.1164H47.8131V12.4723C47.8131 11.9203 47.4989 11.6442 46.9604 11.6442C46.5116 11.6442 46.1974 11.8743 46.1077 12.2883C46.1077 12.3803 46.0628 12.5644 46.1077 12.7944C46.3769 13.8985 49.9673 14.5426 50.3263 16.5669C50.4609 16.8429 50.5058 17.395 50.416 18.1771ZM59.347 17.3029C59.347 17.487 59.347 17.855 59.3021 17.947C59.1674 19.5572 58.0455 20.3853 55.981 20.3853C53.9166 20.3853 52.7946 19.5572 52.6151 17.947C52.6151 17.855 52.5702 17.487 52.5702 17.3029V10.2641H55.0386V17.487C55.0386 17.671 55.0386 17.763 55.0386 17.855C55.0835 18.039 55.2181 18.5451 55.9362 18.5451C56.6093 18.5451 56.7889 18.039 56.8337 17.855C56.8337 17.763 56.8337 17.625 56.8337 17.487V10.2641H59.3021C59.347 10.2641 59.347 17.3029 59.347 17.3029ZM69.9833 19.9713H66.5276L64.2388 12.1963H64.1939L64.3285 19.9713H61.9499V10.2641H65.5403L67.6944 17.717H67.7393L67.6047 10.2641H70.0282V19.9713H69.9833Z" fill="#000"/>
</svg>
