<svg width="104" height="19" viewBox="0 0 104 19" fill="none" xmlns="http://www.w3.org/2000/svg">
<path fill-rule="evenodd" clip-rule="evenodd" d="M12.2697 17.3706C10.9064 16.4855 9.8703 13.4984 9.8703 9.90279C9.8703 9.79216 9.8703 9.62621 9.8703 9.51557C6.05306 8.90709 3.32645 7.24757 3.21739 5.25615C2.29035 6.41781 1.74502 7.80074 1.74502 9.23899C1.74502 13.5537 6.38025 17.0387 12.2697 17.3706ZM0 9.57089C0 4.81361 5.83493 0.941406 13.0877 0.941406C20.2859 0.941406 26.1754 4.81361 26.1754 9.57089C26.1754 14.3282 20.3404 18.2004 13.0877 18.2004C5.83493 18.2004 0 14.3282 0 9.57089ZM13.0877 2.2137C14.5055 2.2137 15.6507 4.37107 16.0869 7.3582C18.8136 6.91567 20.7222 5.91996 20.7222 4.81361C20.7222 3.26473 17.2867 2.04775 13.0877 2.04775C8.88872 2.04775 5.4532 3.32005 5.4532 4.81361C5.4532 5.97527 7.36182 6.97098 10.0884 7.3582C10.4701 4.31576 11.6699 2.2137 13.0877 2.2137ZM13.9057 17.3153C19.7406 16.9834 24.3758 13.4984 24.3758 9.23899C24.3758 7.80074 23.8305 6.41781 22.9035 5.25615C22.8489 7.24757 20.0678 8.90709 16.2505 9.51557C16.2505 9.62621 16.2505 9.79216 16.2505 9.90279C16.3051 13.4431 15.269 16.4855 13.9057 17.3153ZM13.0877 7.52415C13.6875 7.52415 14.3419 7.52415 14.8872 7.46884C14.6146 5.53273 13.9057 4.20512 13.0877 4.20512C12.2697 4.20512 11.5608 5.53273 11.2881 7.46884C11.8335 7.52415 12.4333 7.52415 13.0877 7.52415ZM13.0877 14.6601C14.1238 14.6601 14.9963 12.4474 15.0508 9.68153C14.3965 9.73684 13.7421 9.79216 13.0877 9.79216C12.4333 9.79216 11.7789 9.73684 11.1245 9.68153C11.1791 12.4474 12.0516 14.6601 13.0877 14.6601Z" fill="#000"/>
<path fill-rule="evenodd" clip-rule="evenodd" d="M66.7453 9.57104C66.7453 5.9201 69.6355 2.98829 73.2346 2.98829C76.8337 2.98829 79.7239 5.9201 79.7239 9.57104C79.7239 13.222 76.8337 16.1538 73.2346 16.1538C69.6355 16.2091 66.7453 13.222 66.7453 9.57104ZM73.2346 13.7751C75.2523 13.7751 76.8883 11.8944 76.8883 9.57104C76.8883 7.24771 75.2523 5.36693 73.2346 5.36693C71.2169 5.36693 69.581 7.24771 69.581 9.57104C69.581 11.8944 71.2169 13.7751 73.2346 13.7751Z" fill="#000"/>
<path fill-rule="evenodd" clip-rule="evenodd" d="M87.1422 5.75357V15.8766H84.4156V5.75357H80.5438V3.43025H90.9594V5.75357H87.1422Z" fill="#000"/>
<path fill-rule="evenodd" clip-rule="evenodd" d="M94.2885 13.1108L93.2524 15.8766H90.035L95.1065 3.43025H98.4874L103.559 15.8766H100.342L99.3054 13.0554H94.2885V13.1108ZM98.542 11.0087L96.8515 6.4727L95.161 11.0087H98.542Z" fill="#000"/>
<path fill-rule="evenodd" clip-rule="evenodd" d="M36.5926 5.75357V15.8766H33.8114V5.75357H29.9942V3.43025H40.4098V5.75357H36.5926Z" fill="#000"/>
<path fill-rule="evenodd" clip-rule="evenodd" d="M41.1147 9.57104C41.1147 5.9201 44.0048 2.98829 47.604 2.98829C51.2031 2.98829 54.0933 5.9201 54.0933 9.57104C54.0933 13.222 51.2031 16.1538 47.604 16.1538C44.0048 16.2091 41.1147 13.222 41.1147 9.57104ZM47.604 13.7751C49.6217 13.7751 51.2576 11.8944 51.2576 9.57104C51.2576 7.24771 49.6217 5.36693 47.604 5.36693C45.5863 5.36693 43.9503 7.24771 43.9503 9.57104C43.9503 11.8944 45.5863 13.7751 47.604 13.7751Z" fill="#000"/>
<path fill-rule="evenodd" clip-rule="evenodd" d="M61.8377 15.8766V11.1747L66.5819 3.43025H63.4191L60.4198 8.68538L57.4206 3.43025H54.2577L59.0565 11.1747V15.8766H61.8377Z" fill="#000"/>
</svg>
