<svg width="115" height="30" viewBox="0 0 115 30" fill="none" xmlns="http://www.w3.org/2000/svg">
<path d="M52.9226 3.03083V4.47538H51.2674V8.4651H49.5269V3.03083H52.9226ZM62.6488 8.58548C62.3416 8.58548 62.0515 8.55108 61.7956 8.49949V10.5459L60.0551 10.9415V3.03083H61.369L61.4884 3.63272C61.9492 3.1512 62.4611 2.87605 63.1777 2.87605C64.7476 2.87605 65.4642 4.01106 65.4642 5.5244C65.4813 7.2613 64.5769 8.58548 62.6488 8.58548ZM62.8365 4.28621C62.4611 4.28621 62.1539 4.47538 61.8127 4.88811V6.98615C61.9833 7.10653 62.2392 7.20971 62.5976 7.20971C63.2972 7.20971 63.6726 6.711 63.6726 5.73076C63.6555 4.78492 63.4508 4.28621 62.8365 4.28621ZM69.9861 6.50463L70.0031 5.59319L69.4912 6.33266L67.9214 8.4651H66.4198V3.03083H68.1603V4.99129L68.1262 5.91993L68.6381 5.16326L70.2079 3.03083H71.7095V8.4651H69.9861V6.50463ZM72.5456 8.4479L73.7742 6.0747C73.194 5.86834 72.8357 5.36963 72.8357 4.71614C72.8357 3.51234 73.8595 2.91045 75.5829 2.91045C76.3166 2.91045 77.0333 2.96204 77.767 3.01363V8.4479H76.0266V6.48743H75.3782L74.4738 8.4479H72.5456ZM75.4976 5.40402H76.0266V4.07985C75.873 4.06265 75.7024 4.04545 75.4976 4.04545C74.8662 4.04545 74.6274 4.3378 74.6274 4.73333C74.6274 5.09447 74.8833 5.40402 75.4976 5.40402ZM59.1678 5.74796C59.1678 7.57085 58.1099 8.63707 56.2841 8.63707C54.4753 8.63707 53.4003 7.58805 53.4003 5.74796C53.4003 3.90788 54.4583 2.85885 56.2841 2.85885C58.0928 2.85885 59.1678 3.90788 59.1678 5.74796ZM56.2841 4.21742C55.4138 4.21742 55.192 4.85371 55.192 5.73076C55.192 6.60781 55.4138 7.2441 56.2841 7.2441C57.1543 7.2441 57.3761 6.60781 57.3761 5.73076C57.3761 4.85371 57.1543 4.21742 56.2841 4.21742ZM45.1075 0.984375C42.9745 0.984375 41.9337 2.13658 41.7118 3.99386H40.7563V1.15635L38.9305 1.55188V8.4479H40.7563V5.38682H41.6948C41.8483 7.38168 42.9063 8.63707 45.1075 8.63707C47.5305 8.63707 48.5543 7.15812 48.5543 4.81932C48.5543 2.46332 47.5305 0.984375 45.1075 0.984375ZM45.1075 7.12373C43.8789 7.12373 43.5718 6.14349 43.5718 4.80212C43.5718 3.46075 43.8789 2.48052 45.1075 2.48052C46.336 2.48052 46.6432 3.46075 46.6432 4.80212C46.6432 6.14349 46.336 7.12373 45.1075 7.12373ZM85.4115 8.4479V5.83395L84.8996 5.21485L83.2444 8.4651H81.2139L83.654 4.01106L81.248 1.15635H83.4321C84.0805 2.05059 84.746 2.94484 85.4286 3.82189V1.15635H87.2544V3.82189C87.9369 2.92764 88.6024 2.05059 89.2508 1.15635H91.4349L89.0631 3.95947L91.5202 8.4651H89.3702L87.7321 5.24925L87.2544 5.85114V8.4479H85.4115ZM95.5472 6.50463L95.5643 5.59319L95.0524 6.33266L93.4825 8.4651H91.9809V3.03083H93.7214V4.99129L93.6873 5.91993L94.1992 5.16326L95.7691 3.04802H97.2706V8.48229H95.5472V6.50463ZM99.7449 8.56828C99.2159 8.56828 98.721 8.53388 98.1921 8.4479L98.2091 7.33009C98.6699 7.36448 99.1135 7.38168 99.5913 7.38168C100.359 7.38168 100.717 7.15812 100.717 6.81418C100.717 6.38425 100.274 6.22948 99.523 6.22948H98.6869V5.16326H99.5572C100.308 5.16326 100.581 4.9053 100.581 4.57856C100.581 4.26901 100.342 4.06265 99.7449 4.06265C99.2841 4.06265 98.9087 4.14863 98.3627 4.30341L98.2091 3.23719C98.9087 2.99643 99.5742 2.85885 100.257 2.85885C101.656 2.85885 102.373 3.40916 102.373 4.26901C102.373 4.88811 101.997 5.40402 101.349 5.59319V5.61038C102.031 5.67917 102.543 6.17789 102.543 6.81418C102.543 8.03517 101.4 8.56828 99.7449 8.56828ZM106.946 6.36705H105.205V8.4651H103.465V3.03083H105.205V4.9397H106.946V3.03083H108.669V8.4651H106.946V6.36705ZM109.881 3.03083H111.621V4.59576C111.809 4.57856 112.099 4.56136 112.304 4.56136C114.419 4.56136 115 5.43841 115 6.50463C115 7.96638 113.635 8.56828 112.116 8.56828C111.433 8.56828 110.648 8.53388 109.881 8.4651V3.03083ZM112.184 5.81675C112.014 5.81675 111.809 5.83395 111.638 5.83395V7.2613C111.894 7.2785 112.099 7.2957 112.287 7.2957C112.867 7.2957 113.191 7.03774 113.191 6.57342C113.174 6.1091 112.901 5.81675 112.184 5.81675Z" fill="#000"/>
<path d="M40.2387 17.9191V18.2976H38.5957V21.4875H38.1707V17.9191H40.2387Z" fill="#000"/>
<path d="M44.116 19.702C44.116 20.2697 43.9744 20.7292 43.6628 21.0536C43.3512 21.378 42.9262 21.5402 42.388 21.5402C41.8214 21.5402 41.3965 21.378 41.1132 21.0536C40.8016 20.7292 40.66 20.2697 40.66 19.702C40.66 19.1073 40.8016 18.6748 41.1132 18.3504C41.3965 18.026 41.8498 17.8638 42.388 17.8638C42.9262 17.8638 43.3512 18.026 43.6345 18.3504C43.9744 18.6748 44.116 19.1343 44.116 19.702ZM41.1415 19.702C41.1415 20.1886 41.2548 20.54 41.4531 20.8103C41.6798 21.0536 41.9914 21.1888 42.388 21.1888C42.8129 21.1888 43.1245 21.0536 43.3228 20.8103C43.5495 20.5671 43.6345 20.1886 43.6345 19.702C43.6345 19.2154 43.5211 18.837 43.3228 18.5937C43.0962 18.3504 42.7846 18.2152 42.388 18.2152C41.9631 18.2152 41.6515 18.3504 41.4248 18.5937C41.2549 18.864 41.1415 19.2154 41.1415 19.702Z" fill="#000"/>
<path d="M46.5832 18.2422C46.1582 18.2422 45.8466 18.3774 45.62 18.6477C45.3934 18.918 45.2517 19.2695 45.2517 19.729C45.2517 20.1886 45.365 20.5671 45.5917 20.8103C45.8183 21.0807 46.1582 21.1888 46.5832 21.1888C46.8381 21.1888 47.1497 21.1347 47.4897 21.0536V21.4051C47.2347 21.4862 46.8948 21.5402 46.5265 21.5402C45.9599 21.5402 45.535 21.378 45.2517 21.0536C44.9401 20.7292 44.7985 20.2697 44.7985 19.702C44.7985 19.3235 44.8835 18.9991 45.0251 18.7288C45.1667 18.4585 45.3934 18.2422 45.6483 18.08C45.9316 17.9449 46.2432 17.8638 46.6115 17.8638C47.0081 17.8638 47.348 17.9449 47.6313 18.08L47.433 18.4315C47.1497 18.2963 46.8665 18.2422 46.5832 18.2422Z" fill="#000"/>
<path d="M48.7944 21.5415C48.5961 21.5415 48.4545 21.5145 48.3128 21.4604V21.0549C48.4545 21.136 48.6245 21.1631 48.7944 21.1631C48.9927 21.1631 49.1344 21.109 49.2477 21.0279C49.361 20.9468 49.4743 20.7846 49.5876 20.5684L48.1429 17.9191H48.6245L49.7293 19.9466C49.7576 20.0277 49.8143 20.1088 49.8143 20.1899H49.8426C49.8993 20.0547 49.9276 19.9736 49.9559 19.9196L50.8908 17.9191H51.344L50.1542 20.4873C50.0126 20.7846 49.8709 21.0009 49.7576 21.1631C49.6443 21.2982 49.5027 21.4064 49.361 21.4604C49.1627 21.5145 48.9927 21.5415 48.7944 21.5415Z" fill="#000"/>
<path d="M54.512 22.4336H54.087V21.4875H51.4808V22.4066H51.0559V21.109H51.3392C51.5941 20.6765 51.8207 20.1629 52.019 19.5681C52.2173 18.9734 52.3023 18.4057 52.3307 17.9191H54.002V21.109H54.4836V22.4336H54.512ZM53.6054 18.2976H52.7556C52.7273 18.7031 52.6139 19.1626 52.444 19.7303C52.274 20.271 52.0474 20.7576 51.8207 21.136H53.6054V18.2976Z" fill="#000"/>
<path d="M57.7731 21.4859L57.3198 20.3505H55.8184L55.3651 21.4859H54.9119L56.385 17.8905H56.7532L58.2263 21.4859H57.7731ZM57.1782 19.972L56.7532 18.8637C56.6966 18.7285 56.6399 18.5393 56.5833 18.3501C56.5549 18.5123 56.4983 18.6744 56.4133 18.8637L55.96 19.972H57.1782Z" fill="#000"/>
<path d="M61.1169 18.9734C61.1169 19.3248 60.9753 19.6222 60.7203 19.8114C60.4654 20.0007 60.0971 20.1088 59.6155 20.1088H59.1623V21.4875H58.7373V17.9191H59.7005C60.6637 17.9191 61.1169 18.2706 61.1169 18.9734ZM59.1906 19.7303H59.5872C59.9838 19.7303 60.2671 19.6763 60.437 19.5411C60.607 19.433 60.692 19.2437 60.692 18.9734C60.692 18.7301 60.607 18.5679 60.437 18.4328C60.2671 18.3246 60.0121 18.2435 59.6722 18.2435H59.1906V19.7303Z" fill="#000"/>
<path d="M63.5267 18.2422C63.1301 18.2422 62.7901 18.3774 62.5635 18.6477C62.3368 18.918 62.1952 19.2695 62.1952 19.729C62.1952 20.1886 62.3085 20.5671 62.5351 20.8103C62.7618 21.0807 63.1017 21.1888 63.5267 21.1888C63.7816 21.1888 64.0932 21.1347 64.4332 21.0536V21.4051C64.1782 21.4862 63.8666 21.5402 63.47 21.5402C62.9317 21.5402 62.5068 21.378 62.1952 21.0536C61.8836 20.7292 61.7419 20.2697 61.7419 19.702C61.7419 19.3235 61.7986 18.9991 61.9686 18.7288C62.1102 18.4585 62.3085 18.2422 62.5918 18.08C62.8751 17.9449 63.1867 17.8638 63.555 17.8638C63.9516 17.8638 64.2915 17.9449 64.5748 18.08L64.4048 18.4315C64.0932 18.2963 63.8099 18.2422 63.5267 18.2422Z" fill="#000"/>
<path d="M66.3575 21.4875H65.9326V18.2976H64.7427V17.9191H67.5473V18.2976H66.3575V21.4875Z" fill="#000"/>
<path d="M68.1139 17.9191H69.162C69.672 17.9191 70.0119 18.0002 70.2385 18.1354C70.4652 18.2706 70.5785 18.5139 70.5785 18.8112C70.5785 19.0275 70.5218 19.1897 70.4085 19.3248C70.2952 19.46 70.0969 19.5411 69.8703 19.5952V19.6222C70.4368 19.7303 70.7201 20.0007 70.7201 20.4873C70.7201 20.8117 70.6068 21.0549 70.3802 21.2442C70.1535 21.4334 69.8419 21.5145 69.417 21.5145H68.1139V17.9191ZM69.2754 19.46C69.587 19.46 69.8136 19.4059 69.9269 19.3248C70.0686 19.2437 70.1252 19.0815 70.1252 18.8653C70.1252 18.6761 70.0402 18.5139 69.8986 18.4328C69.757 18.3517 69.502 18.2976 69.1904 18.2976H68.5388V19.46H69.2754ZM68.5671 19.8114V21.1631H69.3603C69.672 21.1631 69.8986 21.109 70.0402 21.0009C70.1819 20.8927 70.2669 20.7035 70.2669 20.4873C70.2669 20.271 70.1819 20.1088 70.0402 20.0007C69.8703 19.8925 69.6436 19.8385 69.332 19.8385H68.5671V19.8114Z" fill="#000"/>
<path d="M73.6119 21.4875H71.5156V17.9191H73.6119V18.2976H71.9688V19.46H73.5269V19.8385H71.9688V21.1631H73.6119V21.4875Z" fill="#000"/>
<path d="M77.2936 21.4875H76.8403V19.8114H74.8573V21.4875H74.4324V17.9191H74.8573V19.433H76.8403V17.9191H77.2936V21.4875Z" fill="#000"/>
<path d="M81.1709 21.4875H80.7459V19.8114H78.7629V21.4875H78.338V17.9191H78.7629V19.433H80.7459V17.9191H81.1709V21.4875Z" fill="#000"/>
<path d="M84.5436 21.4859L84.062 20.3505H82.5606L82.1073 21.4859H81.6824L83.1555 17.8905H83.5238L84.9969 21.4859H84.5436ZM83.9487 19.972L83.5238 18.8637C83.4671 18.7285 83.4105 18.5393 83.3538 18.3501C83.3255 18.5123 83.2688 18.6744 83.1838 18.8637L82.7306 19.972H83.9487Z" fill="#000"/>
<path d="M86.6084 20.0007L85.6169 21.4875H85.107L86.1552 19.9196C85.8719 19.8385 85.6736 19.7033 85.5602 19.5411C85.4186 19.3789 85.3619 19.1626 85.3619 18.8923C85.3619 18.5679 85.4753 18.3246 85.7019 18.1624C85.9285 18.0002 86.2685 17.9191 86.7501 17.9191H87.7699V21.4875H87.345V20.0007H86.6084ZM87.3733 18.2706H86.8067C86.4951 18.2706 86.2685 18.3246 86.0985 18.4328C85.9285 18.5409 85.8435 18.7031 85.8435 18.9464C85.8435 19.433 86.1552 19.6492 86.8067 19.6492H87.3733V18.2706Z" fill="#000"/>
<path d="M39.9554 25.9023C39.5305 25.9023 39.2189 26.0375 38.9923 26.3078C38.7656 26.5781 38.624 26.9296 38.624 27.3891C38.624 27.8487 38.7373 28.2271 38.9639 28.4704C39.1906 28.7137 39.5305 28.8489 39.9554 28.8489C40.2104 28.8489 40.522 28.7948 40.862 28.7137V29.0652C40.607 29.1463 40.2954 29.2003 39.8988 29.2003C39.3322 29.2003 38.9073 29.0381 38.624 28.7137C38.3124 28.3893 38.1707 27.9298 38.1707 27.3351C38.1707 26.9836 38.2557 26.6592 38.3974 26.3619C38.539 26.0915 38.7656 25.8753 39.0206 25.7131C39.3039 25.5779 39.6155 25.4968 39.9838 25.4968C40.3804 25.4968 40.7203 25.5779 41.0036 25.7131L40.8336 26.0645C40.522 25.9564 40.2387 25.9023 39.9554 25.9023Z" fill="#000"/>
<path d="M42.9008 29.1453H42.4759V25.9555H41.2861V25.577H44.0906V25.9555H42.9008V29.1453Z" fill="#000"/>
<path d="M47.0903 26.6313C47.0903 26.9827 46.9486 27.2801 46.6937 27.4693C46.4387 27.6585 46.0704 27.7667 45.5888 27.7667H45.1356V29.1453H44.7107V25.577H45.6738C46.637 25.577 47.0903 25.9284 47.0903 26.6313ZM45.5322 27.3882C45.9005 27.3882 46.1837 27.3341 46.3537 27.199C46.5237 27.0638 46.6087 26.8746 46.6087 26.6313C46.6087 26.388 46.5237 26.2258 46.3537 26.0906C46.1837 25.9825 45.9288 25.9284 45.5888 25.9284H45.1073V27.3882H45.5322Z" fill="#000"/>
<path d="M49.9236 29.1476L49.4704 28.0122H47.9689L47.5157 29.1476H47.0624L48.5355 25.5522H48.9038L50.3769 29.1476H49.9236ZM49.3287 27.6607L48.9038 26.5524C48.8471 26.4172 48.7905 26.255 48.7338 26.0388C48.7055 26.201 48.6488 26.3632 48.5638 26.5524L48.1389 27.6607H49.3287Z" fill="#000"/>
<path d="M53.6371 29.1453H53.1556L52.1357 27.5774L51.1159 29.1453H50.6626L51.9091 27.2801L50.7476 25.577H51.2292L52.1641 26.9827L53.0989 25.577H53.5522L52.3907 27.2801L53.6371 29.1453Z" fill="#000"/>
<path d="M57.1768 27.3618C57.1768 27.9295 57.0352 28.389 56.7235 28.7134C56.4119 29.0378 55.987 29.2 55.4488 29.2C54.9105 29.2 54.4856 29.0378 54.174 28.7134C53.8624 28.389 53.7207 27.9295 53.7207 27.3618C53.7207 26.7671 53.8624 26.3345 54.174 26.0101C54.4573 25.6857 54.9105 25.5236 55.4488 25.5236C55.987 25.5236 56.4119 25.6857 56.6952 26.0101C57.0352 26.3345 57.1768 26.7941 57.1768 27.3618ZM54.2023 27.3618C54.2023 27.8484 54.3156 28.2268 54.5139 28.4701C54.7405 28.7134 55.0522 28.8486 55.4488 28.8486C55.8737 28.8486 56.1853 28.7134 56.3836 28.4701C56.5819 28.2268 56.6952 27.8484 56.6952 27.3618C56.6952 26.8752 56.5819 26.5238 56.3836 26.2805C56.157 26.0372 55.8737 25.902 55.4488 25.902C55.0238 25.902 54.7122 26.0372 54.4856 26.2805C54.3156 26.5238 54.2023 26.9022 54.2023 27.3618Z" fill="#000"/>
<path d="M58.0272 25.577H59.1037C59.5853 25.577 59.9536 25.6581 60.1802 25.7933C60.4068 25.9284 60.5201 26.1717 60.5201 26.4691C60.5201 26.6854 60.4635 26.8476 60.3218 26.9827C60.2085 27.1179 60.0102 27.199 59.7836 27.253V27.2801C60.3502 27.3882 60.6334 27.6585 60.6334 28.1451C60.6334 28.4695 60.5201 28.7128 60.2935 28.902C60.0669 29.0913 59.7553 29.1724 59.3303 29.1724H58.0272V25.577ZM59.1603 27.1179C59.472 27.1179 59.6986 27.0638 59.8119 26.9827C59.9536 26.9016 60.0102 26.7394 60.0102 26.5232C60.0102 26.3069 59.9252 26.1717 59.7836 26.0906C59.6419 26.0095 59.387 25.9555 59.0754 25.9555H58.4238V27.1179H59.1603ZM58.4521 27.4693V28.8209H59.2453C59.557 28.8209 59.7836 28.7669 59.9252 28.6587C60.0669 28.5506 60.1519 28.3614 60.1519 28.1451C60.1519 27.9289 60.0669 27.7667 59.9252 27.6585C59.7553 27.5504 59.5286 27.4963 59.217 27.4963H58.4521V27.4693Z" fill="#000"/>
<path d="M63.7785 29.1476L63.2969 28.0122H61.7955L61.3422 29.1476H60.9173L62.3904 25.5522H62.7587L64.2317 29.1476H63.7785ZM63.1836 27.6607L62.7587 26.5524C62.702 26.4172 62.6453 26.255 62.5887 26.0388C62.5604 26.201 62.5037 26.3632 62.4187 26.5524L61.9938 27.6607H63.1836Z" fill="#000"/>
<path d="M65.8493 27.6585L64.8862 29.1453H64.3762L65.4244 27.5774C65.1411 27.4963 64.9428 27.3612 64.8295 27.199C64.7162 27.0368 64.6312 26.8205 64.6312 26.5502C64.6312 26.2258 64.7445 25.9825 64.9711 25.8203C65.1978 25.6581 65.5377 25.577 66.0193 25.577H67.0391V29.1453H66.6142V27.6585H65.8493ZM66.6142 25.9284H66.0193C65.7077 25.9284 65.481 25.9825 65.3111 26.0906C65.1411 26.1988 65.0561 26.361 65.0561 26.6043C65.0561 27.0908 65.3677 27.3071 66.0193 27.3071H66.5859V25.9284H66.6142Z" fill="#000"/>
<path d="M72.1359 29.1453H71.626L69.898 27.3341V29.1453H69.473V25.577H69.898V27.3071L71.5977 25.577H72.1076L70.4645 27.3071L72.1359 29.1453Z" fill="#000"/>
<path d="M75.9032 27.3618C75.9032 27.9295 75.7616 28.389 75.4499 28.7134C75.1383 29.0378 74.7134 29.2 74.1751 29.2C73.6369 29.2 73.1836 29.0378 72.9004 28.7134C72.5887 28.389 72.4471 27.9295 72.4471 27.3618C72.4471 26.7671 72.5887 26.3345 72.9004 26.0101C73.212 25.6857 73.6369 25.5236 74.1751 25.5236C74.7134 25.5236 75.1383 25.6857 75.4499 26.0101C75.7616 26.3345 75.9032 26.7941 75.9032 27.3618ZM72.9287 27.3618C72.9287 27.8484 73.042 28.2268 73.2686 28.4701C73.4953 28.7134 73.7785 28.8486 74.2035 28.8486C74.6284 28.8486 74.94 28.7134 75.1383 28.4701C75.365 28.2268 75.4499 27.8484 75.4499 27.3618C75.4499 26.8752 75.3366 26.5238 75.1383 26.2805C74.9117 26.0372 74.6284 25.902 74.2035 25.902C73.7785 25.902 73.4669 26.0372 73.2686 26.2805C73.042 26.5238 72.9287 26.9022 72.9287 27.3618Z" fill="#000"/>
<path d="M78.3945 29.1453L77.1197 25.9825H77.0913C77.1197 26.2258 77.1197 26.5232 77.1197 26.8746V29.1453H76.7231V25.577H77.3746L78.5644 28.5236H78.5928L79.7826 25.577H80.4341V29.1453H79.9809V26.8476C79.9809 26.5772 80.0092 26.3069 80.0092 25.9825H79.9809L78.7627 29.1453H78.3945Z" fill="#000"/>
<path d="M83.8619 29.1453V25.9555H81.9355V29.1453H81.5106V25.577H84.3151V29.1453H83.8619Z" fill="#000"/>
<path d="M87.6589 29.1476L87.2057 28.0122H85.7043L85.251 29.1476H84.7977L86.2708 25.5522H86.6391L88.1122 29.1476H87.6589ZM87.064 27.6607L86.6108 26.5524C86.5541 26.4172 86.4975 26.255 86.4408 26.0388C86.4125 26.201 86.3558 26.3632 86.2708 26.5524L85.8176 27.6607H87.064Z" fill="#000"/>
<path d="M91.4844 29.1453H91.0311V27.4693H89.0481V29.1453H88.6232V25.577H89.0481V27.0908H91.0311V25.577H91.4844V29.1453Z" fill="#000"/>
<path d="M92.5059 25.577H92.9309V27.5774C92.9309 27.9559 92.9025 28.2803 92.9025 28.5777H92.9309L95.0272 25.604H95.5088V29.1453H95.0838V27.1719C95.0838 26.8475 95.0838 26.4961 95.1405 26.1447H95.1122L92.9875 29.1453H92.5059V25.577Z" fill="#000"/>
<path d="M97.6304 27.6585L96.6389 29.1453H96.129L97.1772 27.5774C96.8939 27.4963 96.6956 27.3612 96.5823 27.199C96.469 27.0368 96.384 26.8205 96.384 26.5502C96.384 26.2258 96.4973 25.9825 96.7239 25.8203C96.9506 25.6581 97.3188 25.577 97.7721 25.577H98.7919V29.1453H98.367V27.6585H97.6304ZM98.367 25.9284H97.7721C97.4605 25.9284 97.2338 25.9825 97.0639 26.0906C96.8939 26.1988 96.8089 26.361 96.8089 26.6043C96.8089 27.0908 97.1205 27.3071 97.7721 27.3071H98.3387V25.9284H98.367Z" fill="#000"/>
<path d="M8.37577 18.8745V22.2251H11.7082C13.563 22.2251 15.0406 20.7394 15.0406 18.8745C15.0406 20.7394 16.5496 22.2251 18.373 22.2251H21.7054V18.8745C21.7054 17.0095 20.2279 15.5238 18.373 15.5238C20.2279 15.5238 21.7054 14.0066 21.7054 12.1732V8.82254H18.4045C16.5496 8.82254 15.072 10.3398 15.072 12.1732C15.072 10.3082 13.563 8.82254 11.7396 8.82254H8.37577V12.1732C8.37577 14.0382 9.85335 15.5238 11.7082 15.5238C9.88479 15.5238 8.37577 17.0411 8.37577 18.8745ZM15.0406 12.1732C15.0406 14.0382 16.5496 15.5238 18.373 15.5238C16.5496 15.5238 15.0406 17.0411 15.0406 18.8745C15.0406 17.0411 13.563 15.5238 11.7082 15.5238C13.563 15.5238 15.0406 14.0382 15.0406 12.1732ZM0.893555 1.2994V29.7482H29.2191V1.2994H0.893555ZM24.5034 25.0068H5.60924V6.04087H24.472V25.0068H24.5034Z" fill="#000"/>
</svg>
