<svg width="137" height="21" viewBox="0 0 137 21" fill="none" xmlns="http://www.w3.org/2000/svg">
<path fill-rule="evenodd" clip-rule="evenodd" d="M6.48192 0.535156H0.337891L7.32937 10.6029L0.337891 20.6706H6.48192L13.4734 10.6029L6.48192 0.535156Z" fill="#000"/>
<path d="M14.2498 4.37048H17.1453L19.4051 8.10993L21.7356 4.37048H24.4899L20.8176 9.90774L24.843 16.0922H21.8063L19.3345 11.9932L16.7215 16.0922H13.8967L17.9221 9.90774L14.2498 4.37048Z" fill="#000"/>
<path d="M28.1614 6.2402L27.7377 8.82905C28.0202 8.5414 28.3733 8.25375 28.7264 8.18184C29.0795 8.03801 29.5032 7.9661 29.9269 7.9661C30.4919 7.9661 30.9862 8.03801 31.41 8.25375C31.8337 8.46949 32.1868 8.75714 32.4693 9.1167C32.7518 9.47626 32.9636 9.90774 33.1755 10.3392C33.3167 10.8426 33.3874 11.346 33.3874 11.8494C33.3874 12.4247 33.2461 13 33.0343 13.5034C32.8224 14.0067 32.4693 14.4382 32.1162 14.7978C31.7631 15.1573 31.2687 15.445 30.7744 15.6607C30.28 15.8765 29.7151 15.9484 29.1501 15.9484C28.5851 15.9484 28.0908 15.8765 27.5964 15.7326C27.1021 15.5888 26.6784 15.3731 26.2546 15.0854C25.9015 14.7978 25.5484 14.3663 25.3366 13.9348C25.1247 13.5034 24.9835 12.9281 24.9835 12.3528H27.2433C27.3139 12.8561 27.4552 13.2876 27.8083 13.5753C28.1614 13.8629 28.5851 14.0787 29.0795 14.0787C29.362 14.0787 29.6444 14.0067 29.8563 13.8629C30.0682 13.7191 30.28 13.5753 30.4919 13.3595C30.6331 13.1438 30.7744 12.9281 30.845 12.6404C30.9156 12.3528 30.9862 12.0651 30.9862 11.8494C30.9862 11.5617 30.9156 11.2741 30.845 10.9864C30.7744 10.6988 30.6331 10.483 30.4919 10.2673C30.3507 10.0516 30.1388 9.90774 29.8563 9.83582C29.6444 9.692 29.362 9.692 29.0089 9.692C28.5851 9.692 28.3026 9.76391 28.0202 9.90774C27.7377 10.0516 27.5258 10.2673 27.314 10.6269H25.2659L26.4665 4.37048H32.8224V6.31212H28.1614V6.2402Z" fill="#000"/>
<path d="M40.8018 4.37048C41.2961 4.37048 41.7198 4.4424 42.1436 4.51431C42.5673 4.65813 42.9204 4.80196 43.2735 5.08961C43.556 5.30534 43.8385 5.66491 44.0503 6.02447C44.2622 6.38403 44.3328 6.88742 44.3328 7.3908C44.3328 8.10993 44.121 8.75714 43.7678 9.33244C43.4147 9.90773 42.8498 10.1954 42.0729 10.4111C42.426 10.483 42.7792 10.5549 42.991 10.6988C43.2029 10.8426 43.4147 11.0583 43.6266 11.2741C43.7678 11.4898 43.9091 11.7775 43.9797 12.0651C44.0503 12.3528 44.121 12.7123 44.121 13.0719C44.121 13.2876 44.121 13.5034 44.121 13.791C44.121 14.0787 44.121 14.3663 44.1916 14.654C44.1916 14.9416 44.2622 15.2293 44.3328 15.445C44.4034 15.7326 44.4741 15.8765 44.6153 16.0203H43.4147C43.3441 15.8765 43.2735 15.8046 43.2735 15.5888C43.2029 15.445 43.2029 15.3012 43.2029 15.0854C43.2029 14.9416 43.2029 14.7259 43.1323 14.582C43.1323 14.4382 43.1323 14.2944 43.1323 14.1506C43.1323 13.7191 43.0616 13.3595 43.0616 12.9281C42.991 12.4966 42.9204 12.137 42.7792 11.8494C42.6379 11.4898 42.426 11.2741 42.0729 11.0583C41.7905 10.8426 41.3667 10.7707 40.8724 10.7707H36.7057V15.9484H35.5758V4.37048H40.8018ZM40.6605 9.90774C41.0136 9.90774 41.2961 9.83582 41.5786 9.76391C41.8611 9.692 42.1436 9.47626 42.3554 9.33244C42.5673 9.1167 42.7792 8.90096 42.9204 8.61331C43.0616 8.32566 43.1323 8.03801 43.1323 7.67845C43.1323 6.95933 42.9204 6.38403 42.4967 5.95256C42.0729 5.52108 41.4374 5.30534 40.6605 5.30534H36.5645V9.90774H40.6605Z" fill="#000"/>
<path d="M53.868 4.37048V5.30534H47.0177V9.54817H53.4442V10.483H47.0177V15.0854H53.9386V16.0922H45.9584V4.37048H53.868Z" fill="#000"/>
<path d="M63.687 4.37048V5.30534H59.6616V16.0922H58.5316V5.30534H54.5769V4.37048H63.687Z" fill="#000"/>
<path d="M67.7122 4.37048L72.232 16.0922H71.0314L69.619 12.4247H64.393L62.9806 16.0922H61.8507L66.441 4.37048H67.7122ZM69.2659 11.4179L67.006 5.37726L64.6755 11.4179H69.2659Z" fill="#000"/>
<path d="M74.4906 4.37048H73.3607V16.0922H74.4906V4.37048Z" fill="#000"/>
<path d="M77.9483 4.37048V15.0854H84.3748V16.0922H76.889V4.37048H77.9483Z" fill="#000"/>
<path d="M90.9442 16.0682C90.0261 16.0682 89.2493 15.9244 88.543 15.5648C87.8368 15.2053 87.2719 14.7738 86.7775 14.1985C86.2832 13.6232 85.9301 12.976 85.7182 12.185C85.5063 11.3939 85.3651 10.6029 85.3651 9.73994C85.3651 8.87699 85.5063 8.01404 85.7182 7.29492C86.0007 6.50388 86.3538 5.85667 86.8481 5.28137C87.3425 4.70607 87.9075 4.2746 88.6137 3.91504C89.3199 3.55548 90.0967 3.41165 90.9442 3.41165C91.5797 3.41165 92.2153 3.48356 92.7803 3.6993C93.3453 3.91504 93.8396 4.20269 94.2633 4.56225C94.6871 4.92181 95.0402 5.35329 95.3227 5.85667C95.6051 6.36006 95.817 6.93536 95.8876 7.51066L95.9582 7.72639H95.1814V7.58257C95.1108 7.07918 94.8989 6.5758 94.6871 6.14432C94.4752 5.71285 94.1221 5.35329 93.769 5.06564C93.4159 4.77799 92.9922 4.56225 92.4978 4.34651C92.0035 4.20269 91.5091 4.13078 90.8735 4.13078C90.0967 4.13078 89.3905 4.2746 88.8255 4.56225C88.1899 4.8499 87.6956 5.28137 87.2719 5.78476C86.8481 6.28815 86.5657 6.86345 86.2832 7.58257C86.0713 8.30169 85.9301 9.02082 85.9301 9.81185C85.9301 10.6029 86.0713 11.322 86.2125 12.0411C86.4244 12.6883 86.7069 13.3356 87.1306 13.8389C87.5543 14.3423 88.0487 14.7738 88.6843 15.0615C89.3199 15.3491 90.0261 15.4929 90.8029 15.4929C91.4385 15.4929 92.0035 15.3491 92.4978 15.1334C93.0628 14.9176 93.4865 14.63 93.9102 14.2704C94.334 13.9109 94.6164 13.4075 94.8283 12.9041C95.0402 12.4007 95.1814 11.8254 95.1814 11.1782V10.7467H90.7323V9.95568H95.8876V15.7806H95.1814V13.5513C94.8283 14.1985 94.334 14.7738 93.769 15.2053C93.0628 15.7806 92.0741 16.0682 90.9442 16.0682Z" fill="#000"/>
<path d="M97.1619 16.4518H96.95V4.37048H101.823C103.023 4.37048 104.012 4.58622 104.577 5.16152C105.213 5.66491 105.495 6.52785 105.495 7.60654C105.495 7.67845 105.495 7.67845 105.495 7.75036C105.495 8.5414 105.283 9.18861 104.86 9.692C104.506 10.1235 104.083 10.4111 103.518 10.6269C103.73 10.6988 103.941 10.7707 104.083 10.8426C104.436 11.0583 104.648 11.2741 104.86 11.5617C105.001 11.8494 105.142 12.2089 105.213 12.5685C105.283 12.9281 105.283 13.3595 105.283 13.8629C105.283 14.0067 105.283 14.2225 105.283 14.4382C105.283 14.654 105.283 14.9416 105.354 15.1573C105.354 15.3731 105.425 15.5888 105.425 15.8046C105.425 16.0203 105.495 16.0922 105.495 16.1641L105.707 16.4518H104.86L104.789 16.3799C104.718 16.236 104.648 16.0922 104.648 15.8046C104.648 15.5888 104.577 15.3731 104.577 15.1573C104.577 14.9416 104.577 14.7259 104.577 14.4382C104.577 14.2225 104.577 14.0067 104.577 13.791C104.577 13.2876 104.577 12.9281 104.506 12.5685C104.436 12.2089 104.295 11.9213 104.153 11.7055C103.941 11.4898 103.659 11.2741 103.306 11.2022C102.953 11.0583 102.388 10.9864 101.752 10.9864H97.5856V16.5237H97.1619V16.4518ZM101.823 10.2673C102.247 10.2673 102.6 10.1954 103.023 10.1235C103.377 10.0516 103.73 9.83582 104.012 9.62009C104.295 9.40435 104.506 9.1167 104.718 8.75714C104.86 8.39758 105.001 8.03801 105.001 7.53463C105.001 6.74359 104.789 6.16829 104.295 5.73682C103.871 5.30534 103.094 5.08961 102.035 5.08961H97.7268V10.2673H101.823Z" fill="#000"/>
<path d="M109.305 15.5648C108.599 15.2053 108.034 14.7738 107.61 14.1985C107.116 13.6232 106.833 12.976 106.551 12.185C106.339 11.3939 106.198 10.6029 106.198 9.73994C106.198 8.87699 106.339 8.08596 106.551 7.29492C106.763 6.50388 107.116 5.85667 107.61 5.28137C108.104 4.70607 108.669 4.2746 109.305 3.91504C110.011 3.55548 110.788 3.41165 111.636 3.41165C112.554 3.41165 113.33 3.55548 113.966 3.91504C114.672 4.2746 115.237 4.70607 115.661 5.28137C116.155 5.85667 116.438 6.50388 116.72 7.29492C116.932 8.08596 117.073 8.87699 117.073 9.73994C117.073 10.6029 116.932 11.3939 116.72 12.185C116.508 12.976 116.155 13.6232 115.661 14.1985C115.167 14.7738 114.602 15.2053 113.966 15.5648C113.26 15.9244 112.483 16.0682 111.636 16.0682C110.788 16.0682 109.941 15.8525 109.305 15.5648ZM108.175 13.767C108.599 14.2704 109.093 14.63 109.658 14.9176C110.223 15.2053 110.929 15.3491 111.636 15.3491C112.412 15.3491 113.048 15.2053 113.613 14.9176C114.178 14.63 114.672 14.2704 115.096 13.767C115.52 13.2636 115.802 12.6883 116.014 11.9692C116.226 11.2501 116.367 10.531 116.367 9.66803C116.367 8.87699 116.226 8.08596 116.014 7.36683C115.802 6.64771 115.449 6.07241 115.096 5.56902C114.672 5.06564 114.178 4.70607 113.613 4.41842C113.048 4.13078 112.342 3.98695 111.636 3.98695C110.859 3.98695 110.223 4.13078 109.658 4.41842C109.093 4.70607 108.599 5.06564 108.175 5.56902C107.751 6.07241 107.469 6.64771 107.257 7.36683C107.045 8.08596 106.904 8.80508 106.904 9.66803C106.904 10.4591 107.045 11.2501 107.257 11.9692C107.398 12.6883 107.751 13.3356 108.175 13.767Z" fill="#000"/>
<path d="M126.963 4.37048V11.9213C126.963 13.5034 126.61 14.7259 125.833 15.5169C125.056 16.3079 123.997 16.7394 122.584 16.7394C121.172 16.7394 120.042 16.3798 119.336 15.5169C118.559 14.7259 118.206 13.5034 118.206 11.9213V4.37048H118.912V11.9213C118.912 13.2876 119.195 14.2944 119.83 15.0135C120.395 15.6607 121.313 16.0203 122.655 16.0203C123.926 16.0203 124.844 15.6607 125.48 15.0135C126.045 14.2944 126.398 13.2876 126.398 11.9213V4.37048H126.963Z" fill="#000"/>
<path d="M127.952 16.4518V4.37048H132.825C133.955 4.37048 134.873 4.65813 135.508 5.23343C136.144 5.80873 136.497 6.67168 136.497 7.75036C136.497 8.25375 136.426 8.75714 136.214 9.18861C136.003 9.62009 135.72 9.97965 135.438 10.2673C135.084 10.5549 134.661 10.7707 134.237 10.9145C133.743 11.0583 133.248 11.1302 132.683 11.1302H128.658V16.4518H127.952ZM132.825 10.4111C133.248 10.4111 133.672 10.3392 134.025 10.2673C134.378 10.1235 134.731 9.97965 134.943 9.76391C135.226 9.54817 135.438 9.26052 135.579 8.90096C135.72 8.61331 135.791 8.18184 135.791 7.75036C135.791 6.88742 135.579 6.16829 135.084 5.73682C134.59 5.30534 133.884 5.01769 132.825 5.01769H128.658V10.3392H132.825V10.4111Z" fill="#000"/>
</svg>
