<svg width="73" height="68" viewBox="0 0 73 68" version="1.1" xmlns="http://www.w3.org/2000/svg" xmlns:xlink="http://www.w3.org/1999/xlink">
<title>Group 661.3</title>
<desc>Created using Figma</desc>
<g id="Canvas" transform="translate(94 -5625)">
<g id="Group 661.3">
<g id="Stroke 6959">
<use xlink:href="#path0_stroke" transform="translate(-92 5627)" fill="#F2412F"/>
</g>
<g id="Stroke 6961">
<use xlink:href="#path1_stroke" transform="translate(-86 5633.1)" fill="#F2412F"/>
</g>
</g>
</g>
<defs>
<path id="path0_stroke" d="M 34.5 64L 33.4281 65.0493C 33.7102 65.3375 34.0966 65.5 34.5 65.5C 34.9034 65.5 35.2898 65.3375 35.5719 65.0493L 34.5 64ZM 5.712 33.8164L 6.83687 32.8241L 6.83657 32.8237L 5.712 33.8164ZM 34.5 7.15886L 33.3388 8.10837C 33.6237 8.45678 34.0499 8.65886 34.5 8.65886C 34.9501 8.65886 35.3763 8.45678 35.6612 8.10837L 34.5 7.15886ZM 63.288 33.8164L 62.1634 32.8237L 62.1631 32.8241L 63.288 33.8164ZM 34.5 64C 35.5719 62.9507 35.5718 62.9506 35.5717 62.9505C 35.5715 62.9503 35.5713 62.9501 35.571 62.9497C 35.5703 62.9491 35.5693 62.9481 35.568 62.9467C 35.5654 62.944 35.5614 62.94 35.5562 62.9346C 35.5457 62.9239 35.53 62.9079 35.5093 62.8867C 35.4677 62.8442 35.406 62.7811 35.3252 62.6984C 35.1634 62.533 34.9253 62.2894 34.6197 61.9764C 34.0083 61.3503 33.1275 60.4475 32.0487 59.3393C 29.8904 57.1224 26.9424 54.0866 23.7777 50.8052C 17.4476 44.2417 10.2734 36.7201 6.83687 32.8241L 4.58713 34.8087C 8.06263 38.7481 15.2824 46.3183 21.6183 52.8878C 24.7866 56.1729 27.7396 59.2138 29.8991 61.432C 30.9791 62.5414 31.8614 63.4458 32.4733 64.0724C 32.7794 64.3858 33.0181 64.6301 33.1801 64.7958C 33.2612 64.8787 33.3232 64.9421 33.3648 64.9846C 33.3857 65.0059 33.4015 65.0221 33.4121 65.0329C 33.4173 65.0383 33.4214 65.0424 33.424 65.0451C 33.4254 65.0465 33.4264 65.0475 33.427 65.0482C 33.4274 65.0486 33.4276 65.0488 33.4278 65.049C 33.428 65.0492 33.4281 65.0493 34.5 64ZM 6.83657 32.8237C 3.62265 29.2017 1.45991 24.9355 1.5 19.8095L -1.5 19.8095C -1.45991 25.6245 1.13535 30.879 4.58743 34.809L 6.83657 32.8237ZM 1.5 19.8095C 1.5 9.67464 9.58061 1.5 19.5 1.5L 19.5 -1.5C 7.87939 -1.5 -1.5 8.0625 -1.5 19.8095L 1.5 19.8095ZM 19.5 1.5C 25.0587 1.5 30.032 4.06426 33.3388 8.10837L 35.6612 6.20935C 31.816 1.50678 26.0073 -1.5 19.5 -1.5L 19.5 1.5ZM 35.6612 8.10837C 38.968 4.06426 43.9413 1.5 49.5 1.5L 49.5 -1.5C 42.9927 -1.5 37.184 1.50678 33.3388 6.20935L 35.6612 8.10837ZM 49.5 1.5C 59.4194 1.5 67.5 9.67464 67.5 19.8095L 70.5 19.8095C 70.5 8.0625 61.1206 -1.5 49.5 -1.5L 49.5 1.5ZM 67.5 19.8095C 67.5401 24.9355 65.3774 29.2017 62.1634 32.8237L 64.4126 34.809C 67.8646 30.879 70.4599 25.6245 70.5 19.8095L 67.5 19.8095ZM 62.1631 32.8241C 58.7266 36.7201 51.5524 44.2417 45.2223 50.8052C 42.0576 54.0866 39.1096 57.1224 36.9513 59.3393C 35.8725 60.4475 34.9917 61.3503 34.3803 61.9764C 34.0747 62.2894 33.8366 62.533 33.6748 62.6984C 33.594 62.7811 33.5323 62.8442 33.4907 62.8867C 33.47 62.9079 33.4543 62.9239 33.4438 62.9346C 33.4386 62.94 33.4346 62.944 33.432 62.9467C 33.4307 62.9481 33.4297 62.9491 33.429 62.9497C 33.4287 62.9501 33.4285 62.9503 33.4283 62.9505C 33.4282 62.9506 33.4281 62.9507 34.5 64C 35.5719 65.0493 35.572 65.0492 35.5722 65.049C 35.5724 65.0488 35.5726 65.0486 35.573 65.0482C 35.5736 65.0475 35.5746 65.0465 35.576 65.0451C 35.5786 65.0424 35.5827 65.0383 35.5879 65.0329C 35.5985 65.0221 35.6143 65.0059 35.6352 64.9846C 35.6768 64.9421 35.7388 64.8787 35.8199 64.7958C 35.9819 64.6301 36.2206 64.3858 36.5267 64.0724C 37.1386 63.4458 38.0209 62.5414 39.1009 61.432C 41.2604 59.2138 44.2134 56.1729 47.3817 52.8878C 53.7176 46.3183 60.9374 38.7481 64.4129 34.8087L 62.1631 32.8241Z"/>
<path id="path1_stroke" d="M -1.5 13.7143C -1.5 14.5427 -0.828427 15.2143 0 15.2143C 0.828427 15.2143 1.5 14.5427 1.5 13.7143L -1.5 13.7143ZM 13.5 1.5C 14.3284 1.5 15 0.828427 15 0C 15 -0.828427 14.3284 -1.5 13.5 -1.5L 13.5 1.5ZM 1.5 13.7143C 1.5 6.95921 6.90761 1.5 13.5 1.5L 13.5 -1.5C 5.20639 -1.5 -1.5 5.34707 -1.5 13.7143L 1.5 13.7143Z"/>
</defs>
</svg>
