<svg width="85" height="84" viewBox="0 0 85 84" version="1.1" xmlns="http://www.w3.org/2000/svg" xmlns:xlink="http://www.w3.org/1999/xlink">
<title>Group</title>
<desc>Created using Figma</desc>
<g id="Canvas" transform="translate(100 -13552)">
<g id="Group">
<g id="Stroke 9084">
<use xlink:href="#path0_stroke" transform="translate(-98 13570.6)" fill="#F2412F"/>
</g>
<g id="Fill 9086">
<use xlink:href="#path1_fill" transform="translate(-64.5435 13586.5)" fill="#F2412F"/>
</g>
<g id="Stroke 9088">
<use xlink:href="#path2_stroke" transform="translate(-59.2609 13591.7)" fill="#F2412F"/>
</g>
<g id="Stroke 9090">
<use xlink:href="#path3_stroke" transform="translate(-98 13553)" fill="#F2412F"/>
</g>
<g id="Stroke 9092">
<use xlink:href="#path4_stroke" transform="translate(-28.5626 13585.1)" fill="#F2412F"/>
</g>
<g id="Stroke 9094">
<use xlink:href="#path5_stroke" transform="translate(-25.8044 13572.4)" fill="#F2412F"/>
</g>
<g id="Stroke 9096">
<use xlink:href="#path6_stroke" transform="translate(-41.6522 13556.5)" fill="#F2412F"/>
</g>
<g id="Stroke 9098">
<use xlink:href="#path7_stroke" transform="translate(-24.0435 13567.1)" fill="#F2412F"/>
</g>
<g id="Stroke 9100">
<use xlink:href="#path8_stroke" transform="translate(-31.087 13574.1)" fill="#F2412F"/>
</g>
</g>
</g>
<defs>
<path id="path0_stroke" d="M 64.8913 31.695C 64.8913 13.3603 50.0306 -1.5 31.6957 -1.5L 31.6957 1.5C 48.3738 1.5 61.8913 15.0173 61.8913 31.695L 64.8913 31.695ZM 31.6957 -1.5C 13.3607 -1.5 -1.5 13.3603 -1.5 31.695L 1.5 31.695C 1.5 15.0173 15.0175 1.5 31.6957 1.5L 31.6957 -1.5ZM -1.5 31.695C -1.5 50.026 13.3606 64.89 31.6957 64.89L 31.6957 61.89C 15.0176 61.89 1.5 48.3693 1.5 31.695L -1.5 31.695ZM 31.6957 64.89C 50.0307 64.89 64.8913 50.026 64.8913 31.695L 61.8913 31.695C 61.8913 48.3693 48.3737 61.89 31.6957 61.89L 31.6957 64.89Z"/>
<path id="path1_fill" fill-rule="evenodd" d="M 3.52174 1.76083C 3.52174 2.73281 2.73287 3.52167 1.76087 3.52167C 0.78887 3.52167 0 2.73281 0 1.76083C 0 0.788853 0.78887 0 1.76087 0C 2.73287 0 3.52174 0.788853 3.52174 1.76083Z"/>
<path id="path2_stroke" d="M 1.5 7.04333C 1.5 3.98387 3.98388 1.5 7.04348 1.5L 7.04348 -1.5C 2.32708 -1.5 -1.5 2.32696 -1.5 7.04333L 1.5 7.04333ZM 7.04348 1.5C 10.1031 1.5 12.587 3.98387 12.587 7.04333L 15.587 7.04333C 15.587 2.32696 11.7599 -1.5 7.04348 -1.5L 7.04348 1.5ZM 12.587 7.04333C 12.587 10.1028 10.1031 12.5867 7.04348 12.5867L 7.04348 15.5867C 11.7599 15.5867 15.587 11.7597 15.587 7.04333L 12.587 7.04333ZM 7.04348 12.5867C 3.98388 12.5867 1.5 10.1028 1.5 7.04333L -1.5 7.04333C -1.5 11.7597 2.32708 15.5867 7.04348 15.5867L 7.04348 12.5867Z"/>
<path id="path3_stroke" d="M 45.633 2.51828C 45.8976 2.59703 46.1761 2.44632 46.2548 2.18164C 46.3336 1.91697 46.1828 1.63856 45.9182 1.55981L 45.633 2.51828ZM -0.32174 11.1789C -0.533117 11.3566 -0.560424 11.672 -0.382732 11.8834C -0.20504 12.0948 0.110363 12.1221 0.32174 11.9444L -0.32174 11.1789ZM 1.05248 11.3419C 1.26722 11.1683 1.30058 10.8535 1.12697 10.6388C 0.953372 10.424 0.638551 10.3907 0.423803 10.5643L 1.05248 11.3419ZM 1.94962 9.37854C 1.72836 9.54376 1.68294 9.85707 1.84816 10.0783C 2.01338 10.2996 2.32669 10.345 2.54795 10.1798L 1.94962 9.37854ZM 4.08699 9.07605C 4.31445 8.91947 4.37191 8.60815 4.21533 8.38069C 4.05875 8.15323 3.74742 8.09577 3.51996 8.25234L 4.08699 9.07605ZM 5.13262 7.18751C 4.89928 7.33519 4.82985 7.64406 4.97753 7.87739C 5.12521 8.11073 5.43408 8.18017 5.66742 8.03249L 5.13262 7.18751ZM 7.287 7.0508C 7.52587 6.91226 7.60721 6.60631 7.46868 6.36743C 7.33014 6.12856 7.02418 6.04722 6.78531 6.18575L 7.287 7.0508ZM 8.47567 5.24876C 8.2316 5.37792 8.13845 5.68049 8.26761 5.92456C 8.39677 6.16863 8.69934 6.26179 8.94341 6.13262L 8.47567 5.24876ZM 10.634 5.27961C 10.8829 5.16004 10.9878 4.86133 10.8682 4.61242C 10.7487 4.3635 10.4499 4.25865 10.201 4.37822L 10.634 5.27961ZM 11.9591 3.57551C 11.7057 3.68529 11.5892 3.97969 11.699 4.23307C 11.8088 4.48646 12.1032 4.60288 12.3566 4.4931L 11.9591 3.57551ZM 14.1085 3.77443C 14.366 3.67464 14.4938 3.38501 14.3941 3.12753C 14.2943 2.87005 14.0046 2.74221 13.7472 2.842L 14.1085 3.77443ZM 15.5627 2.17893C 15.3015 2.26857 15.1625 2.55297 15.2521 2.81416C 15.3417 3.07535 15.6261 3.21442 15.8873 3.12478L 15.5627 2.17893ZM 17.6902 2.54528C 17.9547 2.46594 18.1048 2.18721 18.0255 1.92271C 17.9462 1.65821 17.6674 1.5081 17.4029 1.58744L 17.6902 2.54528ZM 19.2645 1.0686C 18.9971 1.13751 18.8362 1.41015 18.9051 1.67755C 18.974 1.94496 19.2467 2.10587 19.5141 2.03696L 19.2645 1.0686ZM 21.3566 1.60043C 21.6265 1.54204 21.7979 1.27591 21.7395 1.00601C 21.6811 0.736116 21.415 0.564654 21.1451 0.623043L 21.3566 1.60043ZM 23.0419 0.251382C 22.7699 0.299175 22.5881 0.558398 22.6359 0.830373C 22.6837 1.10235 22.943 1.28408 23.2149 1.23629L 23.0419 0.251382ZM 25.0865 0.94494C 25.3601 0.907789 25.5518 0.65585 25.5147 0.382218C 25.4775 0.108586 25.2256 -0.0831196 24.9519 -0.0459689L 25.0865 0.94494ZM 26.8712 -0.26866C 26.5963 -0.242161 26.395 0.0021452 26.4215 0.277013C 26.448 0.551881 26.6923 0.753224 26.9672 0.726725L 26.8712 -0.26866ZM 28.8553 0.581484C 29.131 0.565622 29.3416 0.329275 29.3258 0.0535888C 29.3099 -0.222098 29.0736 -0.432727 28.7979 -0.416865L 28.8553 0.581484ZM 30.7291 -0.490783C 30.453 -0.485513 30.2335 -0.257424 30.2388 0.018668C 30.244 0.29476 30.4721 0.514305 30.7482 0.509035L 30.7291 -0.490783ZM 32.5791 0.507813C 32.8552 0.5127 33.083 0.29284 33.0878 0.0167407C 33.0927 -0.259358 32.8729 -0.487143 32.5968 -0.492031L 32.5791 0.507813ZM 34.398 -0.428079C 34.1222 -0.442798 33.8867 -0.231191 33.872 0.044559C 33.8573 0.320309 34.0689 0.55578 34.3447 0.570499L 34.398 -0.428079ZM 36.1067 0.696262C 36.3818 0.720866 36.6247 0.517844 36.6493 0.2428C 36.6739 -0.0322444 36.4709 -0.275157 36.1958 -0.299761L 36.1067 0.696262ZM 37.988 -0.106807C 37.714 -0.141322 37.4639 0.0527999 37.4294 0.326777C 37.3949 0.600754 37.589 0.850836 37.863 0.885351L 37.988 -0.106807ZM 39.6112 1.13785C 39.8838 1.18228 40.1407 0.997349 40.1851 0.724804C 40.2296 0.452259 40.0446 0.195302 39.7721 0.150875L 39.6112 1.13785ZM 41.5457 0.473204C 41.275 0.418891 41.0114 0.594346 40.9571 0.865094C 40.9028 1.13584 41.0783 1.39936 41.349 1.45367L 41.5457 0.473204ZM 43.0741 1.83257C 43.3427 1.89672 43.6125 1.73099 43.6766 1.4624C 43.7407 1.19382 43.575 0.924079 43.3064 0.85993L 43.0741 1.83257ZM 45.0519 1.31064C 44.7858 1.23673 44.5102 1.3925 44.4363 1.65857C 44.3624 1.92464 44.5182 2.20025 44.7842 2.27415L 45.0519 1.31064ZM 0.32174 11.9444C 0.563959 11.7407 0.806315 11.5409 1.05248 11.3419L 0.423803 10.5643C 0.173916 10.7663 -0.0758433 10.9722 -0.32174 11.1789L 0.32174 11.9444ZM 2.54795 10.1798C 3.05482 9.80126 3.56532 9.43513 4.08699 9.07605L 3.51996 8.25234C 2.99037 8.61693 2.46423 8.99429 1.94962 9.37854L 2.54795 10.1798ZM 5.66742 8.03249C 6.20178 7.69425 6.73897 7.36861 7.287 7.0508L 6.78531 6.18575C 6.22891 6.50847 5.67516 6.84415 5.13262 7.18751L 5.66742 8.03249ZM 8.94341 6.13262C 9.5021 5.83694 10.0628 5.55397 10.634 5.27961L 10.201 4.37822C 9.62105 4.65685 9.04295 4.94858 8.47567 5.24876L 8.94341 6.13262ZM 12.3566 4.4931C 12.9364 4.24191 13.5174 4.0035 14.1085 3.77443L 13.7472 2.842C 13.1469 3.07466 12.5478 3.32049 11.9591 3.57551L 12.3566 4.4931ZM 15.8873 3.12478C 16.4847 2.91975 17.0826 2.72749 17.6902 2.54528L 17.4029 1.58744C 16.7859 1.77252 16.1693 1.97077 15.5627 2.17893L 15.8873 3.12478ZM 19.5141 2.03696C 20.1253 1.87942 20.7363 1.73459 21.3566 1.60043L 21.1451 0.623043C 20.5153 0.759323 19.8852 0.908677 19.2645 1.0686L 19.5141 2.03696ZM 23.2149 1.23629C 23.8364 1.12706 24.4571 1.03036 25.0865 0.94494L 24.9519 -0.0459689C 24.3129 0.04082 23.6729 0.140518 23.0419 0.251382L 23.2149 1.23629ZM 26.9672 0.726725C 27.5947 0.666201 28.221 0.617958 28.8553 0.581484L 28.7979 -0.416865C 28.1538 -0.379786 27.5083 -0.33006 26.8712 -0.26866L 26.9672 0.726725ZM 30.7482 0.509035C 31.0641 0.503 31.3783 0.499994 31.6957 0.5L 31.6957 -0.5C 31.3735 -0.499994 31.0498 -0.496897 30.7291 -0.490783L 30.7482 0.509035ZM 31.6957 0.5C 31.9915 0.499995 32.2845 0.502593 32.5791 0.507813L 32.5968 -0.492031C 32.2978 -0.497318 31.9959 -0.499995 31.6957 -0.5L 31.6957 0.5ZM 34.3447 0.570499C 34.9364 0.602066 35.5208 0.643833 36.1067 0.696262L 36.1958 -0.299761C 35.601 -0.352946 34.9987 -0.395992 34.398 -0.428079L 34.3447 0.570499ZM 37.863 0.885351C 38.4506 0.95935 39.0304 1.04315 39.6112 1.13785L 39.7721 0.150875C 39.1823 0.0547596 38.5846 -0.031629 37.988 -0.106807L 37.863 0.885351ZM 41.349 1.45367C 41.9293 1.57006 42.5014 1.69577 43.0741 1.83257L 43.3064 0.85993C 42.7249 0.721057 42.1349 0.591432 41.5457 0.473204L 41.349 1.45367ZM 44.7842 2.27415C 45.0689 2.35323 45.3504 2.43419 45.633 2.51828L 45.9182 1.55981C 45.6312 1.47443 45.341 1.39094 45.0519 1.31064L 44.7842 2.27415Z"/>
<path id="path4_stroke" d="M -0.38266 48.6258C -0.560399 48.8372 -0.533162 49.1526 -0.321825 49.3303C -0.110487 49.508 0.204921 49.4808 0.38266 49.2695L -0.38266 48.6258ZM 8.92753 -0.175161C 8.83079 -0.433804 8.5427 -0.565053 8.28406 -0.468315C 8.02541 -0.371576 7.89416 -0.0834824 7.9909 0.175161L 8.92753 -0.175161ZM 0.997442 48.5241C 1.17109 48.3093 1.13779 47.9945 0.923077 47.8209C 0.708363 47.6472 0.393536 47.6805 0.219892 47.8952L 0.997442 48.5241ZM 1.38227 46.4C 1.21701 46.6212 1.2624 46.9345 1.48364 47.0998C 1.70488 47.265 2.01819 47.2197 2.18344 46.9984L 1.38227 46.4ZM 3.30981 45.4282C 3.46641 45.2007 3.40898 44.8894 3.18153 44.7328C 2.95409 44.5762 2.64276 44.6337 2.48616 44.8611L 3.30981 45.4282ZM 3.52981 43.2808C 3.38212 43.5141 3.45154 43.823 3.68487 43.9707C 3.9182 44.1184 4.22708 44.0489 4.37477 43.8156L 3.52981 43.2808ZM 5.37658 42.163C 5.51512 41.9241 5.43379 41.6181 5.19491 41.4796C 4.95604 41.341 4.65008 41.4224 4.51154 41.6612L 5.37658 42.163ZM 5.42972 40.0049C 5.30056 40.2489 5.39371 40.5515 5.63778 40.6807C 5.88186 40.8098 6.18442 40.7167 6.31359 40.4726L 5.42972 40.0049ZM 7.1841 38.7472C 7.30367 38.4983 7.19881 38.1996 6.94989 38.08C 6.70098 37.9605 6.40227 38.0653 6.2827 38.3143L 7.1841 38.7472ZM 7.06916 36.5917C 6.95939 36.8451 7.07582 37.1395 7.32921 37.2493C 7.5826 37.359 7.877 37.2426 7.98676 36.9892L 7.06916 36.5917ZM 8.72021 35.2011C 8.81999 34.9436 8.69215 34.654 8.43466 34.5542C 8.17718 34.4544 7.88756 34.5823 7.78778 34.8397L 8.72021 35.2011ZM 8.43735 33.0609C 8.34772 33.3221 8.4868 33.6065 8.748 33.6962C 9.00919 33.7858 9.29359 33.6467 9.38321 33.3855L 8.43735 33.0609ZM 9.97464 31.5453C 10.054 31.2808 9.90385 31.0021 9.63935 30.9227C 9.37484 30.8434 9.09611 30.9935 9.01679 31.258L 9.97464 31.5453ZM 9.52505 29.4342C 9.45614 29.7016 9.61706 29.9742 9.88447 30.0431C 10.1519 30.112 10.4245 29.9511 10.4934 29.6837L 9.52505 29.4342ZM 10.9389 27.8031C 10.9973 27.5332 10.8258 27.2671 10.5559 27.2087C 10.286 27.1503 10.0199 27.3218 9.96152 27.5917L 10.9389 27.8031ZM 10.3256 25.7333C 10.2778 26.0053 10.4596 26.2645 10.7316 26.3123C 11.0035 26.3601 11.2627 26.1784 11.3105 25.9064L 10.3256 25.7333ZM 11.6079 23.9963C 11.645 23.7227 11.4533 23.4708 11.1797 23.4336C 10.906 23.3965 10.6541 23.5882 10.6169 23.8618L 11.6079 23.9963ZM 10.8351 21.9811C 10.8087 22.256 11.01 22.5003 11.2849 22.5268C 11.5597 22.5533 11.804 22.3519 11.8305 22.0771L 10.8351 21.9811ZM 11.9787 20.1504C 11.9946 19.8747 11.784 19.6384 11.5083 19.6225C 11.2326 19.6067 10.9962 19.8173 10.9804 20.093L 11.9787 20.1504ZM 11.0528 18.2001C 11.0476 18.4762 11.2671 18.7043 11.5432 18.7095C 11.8193 18.7148 12.0474 18.4953 12.0527 18.2192L 11.0528 18.2001ZM 12.0497 16.1403C 12.0437 15.8642 11.815 15.6453 11.5389 15.6513C 11.2628 15.6574 11.0439 15.8861 11.05 16.1622L 12.0497 16.1403ZM 10.9543 13.9835C 10.9725 14.259 11.2106 14.4676 11.4862 14.4494C 11.7617 14.4312 11.9703 14.1931 11.9521 13.9176L 10.9543 13.9835ZM 11.7564 11.7012C 11.7259 11.4268 11.4788 11.2289 11.2043 11.2593C 10.9299 11.2897 10.732 11.5369 10.7624 11.8113L 11.7564 11.7012ZM 10.474 9.65008C 10.5167 9.92291 10.7724 10.1095 11.0452 10.0669C 11.3181 10.0242 11.5047 9.76851 11.462 9.49568L 10.474 9.65008ZM 11.0693 7.30543C 11.0144 7.03478 10.7506 6.85984 10.4799 6.91467C 10.2093 6.96951 10.0343 7.23336 10.0892 7.50401L 11.0693 7.30543ZM 9.60822 5.37749C 9.67519 5.64539 9.94666 5.80828 10.2146 5.74131C 10.4825 5.67434 10.6453 5.40288 10.5784 5.13498L 9.60822 5.37749ZM 9.99012 2.98882C 9.91113 2.72422 9.63259 2.57375 9.36799 2.65274C 9.10339 2.73173 8.95292 3.01027 9.03191 3.27488L 9.99012 2.98882ZM 8.36123 1.20046C 8.4521 1.46123 8.73715 1.59895 8.99792 1.50809C 9.25868 1.41722 9.39641 1.13217 9.30554 0.871404L 8.36123 1.20046ZM 0.38266 49.2695C 0.589416 49.0236 0.795374 48.7739 0.997442 48.5241L 0.219892 47.8952C 0.0208568 48.1414 -0.178986 48.3837 -0.38266 48.6258L 0.38266 49.2695ZM 2.18344 46.9984C 2.56774 46.4839 2.94517 45.9578 3.30981 45.4282L 2.48616 44.8611C 2.12703 45.3827 1.76085 45.8932 1.38227 46.4L 2.18344 46.9984ZM 4.37477 43.8156C 4.71814 43.2731 5.05384 42.7194 5.37658 42.163L 4.51154 41.6612C 4.19372 42.2093 3.86806 42.7464 3.52981 43.2808L 4.37477 43.8156ZM 6.31359 40.4726C 6.61376 39.9053 6.90548 39.3272 7.1841 38.7472L 6.2827 38.3143C 6.00835 38.8855 5.7254 39.4462 5.42972 40.0049L 6.31359 40.4726ZM 7.98676 36.9892C 8.24176 36.4005 8.48757 35.8013 8.72021 35.2011L 7.78778 34.8397C 7.55873 35.4309 7.32034 36.0119 7.06916 36.5917L 7.98676 36.9892ZM 9.38321 33.3855C 9.59135 32.7789 9.78957 32.1623 9.97464 31.5453L 9.01679 31.258C 8.8346 31.8656 8.64236 32.4636 8.43735 33.0609L 9.38321 33.3855ZM 10.4934 29.6837C 10.6533 29.0631 10.8027 28.4329 10.9389 27.8031L 9.96152 27.5917C 9.82738 28.2119 9.68256 28.823 9.52505 29.4342L 10.4934 29.6837ZM 11.3105 25.9064C 11.4214 25.2753 11.5211 24.6354 11.6079 23.9963L 10.6169 23.8618C 10.5315 24.4911 10.4348 25.1119 10.3256 25.7333L 11.3105 25.9064ZM 11.8305 22.0771C 11.8919 21.4399 11.9417 20.7944 11.9787 20.1504L 10.9804 20.093C 10.9439 20.7273 10.8957 21.3535 10.8351 21.9811L 11.8305 22.0771ZM 12.0527 18.2192C 12.0588 17.8985 12.0619 17.5748 12.0619 17.2526L 11.0619 17.2526C 11.0619 17.57 11.0589 17.8842 11.0528 18.2001L 12.0527 18.2192ZM 12.0619 17.2526C 12.0619 16.8818 12.0578 16.5092 12.0497 16.1403L 11.05 16.1622C 11.0579 16.5256 11.0619 16.8873 11.0619 17.2526L 12.0619 17.2526ZM 11.9521 13.9176C 11.9031 13.1761 11.8374 12.4335 11.7564 11.7012L 10.7624 11.8113C 10.8424 12.5326 10.9061 13.2531 10.9543 13.9835L 11.9521 13.9176ZM 11.462 9.49568C 11.3474 8.76195 11.2156 8.02806 11.0693 7.30543L 10.0892 7.50401C 10.2334 8.21569 10.3611 8.92749 10.474 9.65008L 11.462 9.49568ZM 10.5784 5.13498C 10.3984 4.415 10.2012 3.69586 9.99012 2.98882L 9.03191 3.27488C 9.23979 3.97113 9.43103 4.66851 9.60822 5.37749L 10.5784 5.13498ZM 9.30554 0.871404C 9.18365 0.521623 9.05699 0.170979 8.92753 -0.175161L 7.9909 0.175161C 8.1184 0.516012 8.24122 0.856024 8.36123 1.20046L 9.30554 0.871404Z"/>
<path id="path5_stroke" d="M 8.80435 1.76083L 9.865 2.8215C 10.2326 2.4539 10.3837 1.92217 10.2642 1.41621C 10.1448 0.910243 9.77187 0.5022 9.27868 0.337806L 8.80435 1.76083ZM 3.52174 0L 3.99607 -1.42303C 3.45708 -1.60269 2.86284 -1.46241 2.46109 -1.06067L 3.52174 0ZM 0 3.52167L -1.06065 2.461C -1.46241 2.86275 -1.6027 3.45701 -1.42302 3.99602L 0 3.52167ZM 1.76087 8.80417L 0.337848 9.27852C 0.502245 9.7717 0.910282 10.1446 1.41624 10.264C 1.92219 10.3835 2.45392 10.2324 2.82152 9.86484L 1.76087 8.80417ZM 9.27868 0.337806L 3.99607 -1.42303L 3.04741 1.42303L 8.33002 3.18386L 9.27868 0.337806ZM 2.46109 -1.06067L -1.06065 2.461L 1.06065 4.58234L 4.58239 1.06067L 2.46109 -1.06067ZM -1.42302 3.99602L 0.337848 9.27852L 3.18389 8.32982L 1.42302 3.04732L -1.42302 3.99602ZM 2.82152 9.86484L 9.865 2.8215L 7.7437 0.700163L 0.70022 7.7435L 2.82152 9.86484Z"/>
<path id="path6_stroke" d="M 19.3696 15.8475L 20.8696 15.8475C 20.8696 15.2408 20.5041 14.6939 19.9436 14.4617C 19.3831 14.2295 18.7379 14.3578 18.3089 14.7868L 19.3696 15.8475ZM 15.8478 19.3692L 15.1767 20.7107C 15.7542 20.9996 16.4518 20.8865 16.9085 20.4298L 15.8478 19.3692ZM 10.0123 16.4497L 10.6834 15.1082L 10.6827 15.1079L 10.0123 16.4497ZM 0.457826 3.19063L 1.9429 2.97952L 1.94262 2.97758L 0.457826 3.19063ZM 0 0L 0.212128 -1.48492C -0.255425 -1.55172 -0.727129 -1.3944 -1.06099 -1.06033C -1.39485 -0.726259 -1.55188 -0.254457 -1.48479 0.213054L 0 0ZM 3.18013 0.454295L 2.968 1.93922L 2.96813 1.93924L 3.18013 0.454295ZM 16.443 10.0191L 15.1005 10.6881L 15.1011 10.6894L 16.443 10.0191ZM 18.3089 14.7868L 14.7872 18.3085L 16.9085 20.4298L 20.4302 16.9082L 18.3089 14.7868ZM 16.519 18.0277L 10.6834 15.1082L 9.34117 17.7912L 15.1767 20.7107L 16.519 18.0277ZM 10.6827 15.1079C 5.95664 12.7465 2.68699 8.21386 1.9429 2.97952L -1.02724 3.40174C -0.144297 9.61282 3.73519 14.9902 9.34186 17.7915L 10.6827 15.1079ZM 1.94262 2.97758L 1.48479 -0.213054L -1.48479 0.213054L -1.02697 3.40368L 1.94262 2.97758ZM -0.212128 1.48492L 2.968 1.93922L 3.39226 -1.03063L 0.212128 -1.48492L -0.212128 1.48492ZM 2.96813 1.93924C 8.20405 2.68675 12.7429 5.95708 15.1005 10.6881L 17.7855 9.35014C 14.9873 3.73455 9.60186 -0.144108 3.39213 -1.03065L 2.96813 1.93924ZM 15.1011 10.6894C 15.8725 12.2339 16.6047 13.6984 17.144 14.7733C 17.4138 15.3111 17.6362 15.7533 17.7909 16.059C 17.8686 16.2125 17.9312 16.3355 17.9738 16.4181C 17.9959 16.461 18.0169 16.5012 18.0311 16.5278C 18.0401 16.5446 18.0564 16.574 18.0676 16.5936C 18.0783 16.6119 18.1117 16.6654 18.1361 16.7017C 18.1482 16.7188 18.1785 16.7598 18.1972 16.7837C 18.2278 16.8207 18.3199 16.9194 18.3839 16.9785C 18.4419 17.0265 18.6026 17.1368 18.7079 17.1939C 18.8961 17.271 19.4272 17.3466 19.7586 17.2963C 20.1289 17.1413 20.6302 16.6606 20.7659 16.3955C 20.8203 16.2287 20.8659 15.9523 20.8696 15.8475L 17.8696 15.8475C 17.8732 15.7428 17.9188 15.4665 17.9732 15.2997C 18.1089 15.0347 18.6102 14.5541 18.9804 14.399C 19.3118 14.3488 19.8428 14.4243 20.0309 14.5014C 20.1362 14.5585 20.2969 14.6687 20.3547 14.7167C 20.4562 14.8051 20.5221 14.8874 20.5408 14.9108C 20.5223 14.8872 20.6127 15.0082 20.601 14.9916C 20.6381 15.0451 20.6634 15.0897 20.6635 15.0898C 20.6576 15.0795 20.6777 15.1151 20.6762 15.1123C 20.6694 15.0996 20.6591 15.0799 20.6404 15.0436C 20.6012 14.9677 20.5437 14.8546 20.4675 14.7041C 20.3145 14.4018 20.0945 13.9645 19.8255 13.4282C 19.2871 12.3549 18.5561 10.8929 17.7849 9.34892L 15.1011 10.6894Z"/>
<path id="path7_stroke" d="M 0.70022 2.461C 0.114428 3.04678 0.114418 3.99652 0.700198 4.58232C 1.28598 5.16811 2.23573 5.16812 2.82152 4.58234L 0.70022 2.461ZM 5.28261 0L 6.34326 1.06067C 6.77226 0.631676 6.9006 -0.0135027 6.66843 -0.574018C 6.43626 -1.13453 5.8893 -1.5 5.28261 -1.5L 5.28261 0ZM 0 -1.5C -0.828427 -1.5 -1.5 -0.828427 -1.5 0C -1.5 0.828427 -0.828427 1.5 0 1.5L 0 -1.5ZM 2.82152 4.58234L 6.34326 1.06067L 4.22196 -1.06067L 0.70022 2.461L 2.82152 4.58234ZM 5.28261 -1.5L 0 -1.5L 0 1.5L 5.28261 1.5L 5.28261 -1.5Z"/>
<path id="path8_stroke" d="M 4.58239 2.8215C 5.16818 2.23572 5.16819 1.28598 4.58241 0.700184C 3.99663 0.114392 3.04688 0.114382 2.46109 0.700163L 4.58239 2.8215ZM 0 5.2825L -1.5 5.2825C -1.5 5.88919 -1.13454 6.43614 -0.574032 6.66832C -0.0135245 6.90049 0.63165 6.77216 1.06065 6.34317L 0 5.2825ZM 1.5 0C 1.5 -0.828427 0.828427 -1.5 0 -1.5C -0.828427 -1.5 -1.5 -0.828427 -1.5 0L 1.5 0ZM 2.46109 0.700163L -1.06065 4.22183L 1.06065 6.34317L 4.58239 2.8215L 2.46109 0.700163ZM 1.5 5.2825L 1.5 0L -1.5 0L -1.5 5.2825L 1.5 5.2825Z"/>
</defs>
</svg>
