<svg width="64" height="72" viewBox="0 0 64 72" version="1.1" xmlns="http://www.w3.org/2000/svg" xmlns:xlink="http://www.w3.org/1999/xlink">
<title>Stroke 229</title>
<desc>Created using Figma</desc>
<g id="Canvas" transform="translate(89 -16371)">
<g id="Stroke 229">
<use xlink:href="#path0_stroke" transform="translate(-87 16373)" fill="#F2412F"/>
</g>
</g>
<defs>
<path id="path0_stroke" d="M 0 68L -1.5 68C -1.5 68.8284 -0.828427 69.5 3.33067e-16 69.5L 0 68ZM 15 68L 15 69.5C 15.8284 69.5 16.5 68.8284 16.5 68L 15 68ZM 45 68L 43.5 68C 43.5 68.8284 44.1716 69.5 45 69.5L 45 68ZM 60 68L 60 69.5C 60.8284 69.5 61.5 68.8284 61.5 68L 60 68ZM 61.5 29.5652C 61.5 12.3874 47.3767 -1.5 30 -1.5L 30 1.5C 45.7613 1.5 58.5 14.0853 58.5 29.5652L 61.5 29.5652ZM 30 -1.5C 12.6233 -1.5 -1.5 12.3874 -1.5 29.5652L 1.5 29.5652C 1.5 14.0853 14.2387 1.5 30 1.5L 30 -1.5ZM -1.5 29.5652L -1.5 68L 1.5 68L 1.5 29.5652L -1.5 29.5652ZM 0 69.5L 15 69.5L 15 66.5L 0 66.5L 0 69.5ZM 16.5 68L 16.5 29.5652L 13.5 29.5652L 13.5 68L 16.5 68ZM 16.5 29.5652C 16.5 22.2513 22.5247 16.2826 30 16.2826L 30 13.2826C 20.9093 13.2826 13.5 20.5533 13.5 29.5652L 16.5 29.5652ZM 30 16.2826C 37.4753 16.2826 43.5 22.2513 43.5 29.5652L 46.5 29.5652C 46.5 20.5533 39.0907 13.2826 30 13.2826L 30 16.2826ZM 43.5 29.5652L 43.5 68L 46.5 68L 46.5 29.5652L 43.5 29.5652ZM 45 69.5L 60 69.5L 60 66.5L 45 66.5L 45 69.5ZM 61.5 68L 61.5 29.5652L 58.5 29.5652L 58.5 68L 61.5 68Z"/>
</defs>
</svg>
