<svg width="71" height="70" viewBox="0 0 71 70" version="1.1" xmlns="http://www.w3.org/2000/svg" xmlns:xlink="http://www.w3.org/1999/xlink">
<title>Group 70</title>
<desc>Created using Figma</desc>
<g id="Canvas" transform="translate(93 -15024)">
<g id="Group 70">
<g id="Stroke 34">
<use xlink:href="#path0_stroke" transform="translate(-85.1739 15026)" fill="#F2412F"/>
</g>
<g id="Stroke 36">
<use xlink:href="#path1_stroke" transform="translate(-91 15086.3)" fill="#F2412F"/>
</g>
<g id="Stroke 37">
<use xlink:href="#path2_stroke" transform="translate(-38.5652 15037.5)" fill="#F2412F"/>
</g>
<g id="Stroke 38">
<use xlink:href="#path3_stroke" transform="translate(-76.4348 15044.7)" fill="#F2412F"/>
</g>
</g>
</g>
<defs>
<path id="path0_stroke" d="M 1.5 0C 1.5 -0.828427 0.828427 -1.5 0 -1.5C -0.828427 -1.5 -1.5 -0.828427 -1.5 0L 1.5 0ZM -1.5 66C -1.5 66.8284 -0.828427 67.5 0 67.5C 0.828427 67.5 1.5 66.8284 1.5 66L -1.5 66ZM -1.5 0L -1.5 66L 1.5 66L 1.5 0L -1.5 0Z"/>
<path id="path1_stroke" d="M 0 -1.5C -0.828427 -1.5 -1.5 -0.828427 -1.5 0C -1.5 0.828427 -0.828427 1.5 0 1.5L 0 -1.5ZM 67 1.5C 67.8284 1.5 68.5 0.828427 68.5 0C 68.5 -0.828427 67.8284 -1.5 67 -1.5L 67 1.5ZM 0 1.5L 67 1.5L 67 -1.5L 0 -1.5L 0 1.5Z"/>
<path id="path2_stroke" d="M 14.5652 0L 16.0652 0C 16.0652 -0.828427 15.3936 -1.5 14.5652 -1.5L 14.5652 0ZM 0 0L 0 -1.5C -0.608747 -1.5 -1.15713 -1.13209 -1.38797 -0.568811C -1.61881 -0.00553107 -1.48633 0.641405 -1.05266 1.0686L 0 0ZM 14.5652 14.3478L 13.5126 15.4164C 13.9433 15.8408 14.5867 15.965 15.1444 15.7315C 15.7022 15.498 16.0652 14.9525 16.0652 14.3478L 14.5652 14.3478ZM 14.5652 -1.5L 0 -1.5L 0 1.5L 14.5652 1.5L 14.5652 -1.5ZM -1.05266 1.0686L 13.5126 15.4164L 15.6179 13.2792L 1.05266 -1.0686L -1.05266 1.0686ZM 16.0652 14.3478L 16.0652 0L 13.0652 0L 13.0652 14.3478L 16.0652 14.3478Z"/>
<path id="path3_stroke" d="M 46.2048 1.0686C 46.795 0.487239 46.8021 -0.462481 46.2208 -1.05266C 45.6394 -1.64283 44.6897 -1.64997 44.0995 -1.0686L 46.2048 1.0686ZM 29.1304 15.7826L 28.0778 16.8512C 28.6617 17.4264 29.5992 17.4264 30.1831 16.8512L 29.1304 15.7826ZM 23.3043 10.0435L 24.357 8.97487C 23.7731 8.39968 22.8356 8.39968 22.2517 8.97487L 23.3043 10.0435ZM -1.05266 31.9314C -1.64283 32.5128 -1.64997 33.4625 -1.0686 34.0527C -0.487239 34.6428 0.462481 34.65 1.05266 34.0686L -1.05266 31.9314ZM 44.0995 -1.0686L 28.0778 14.714L 30.1831 16.8512L 46.2048 1.0686L 44.0995 -1.0686ZM 30.1831 14.714L 24.357 8.97487L 22.2517 11.1121L 28.0778 16.8512L 30.1831 14.714ZM 22.2517 8.97487L -1.05266 31.9314L 1.05266 34.0686L 24.357 11.1121L 22.2517 8.97487Z"/>
</defs>
</svg>
