<svg width="70" height="71" viewBox="0 0 70 71" version="1.1" xmlns="http://www.w3.org/2000/svg" xmlns:xlink="http://www.w3.org/1999/xlink">
<title>Stroke 423</title>
<desc>Created using Figma</desc>
<g id="Canvas" transform="translate(93 -11854)">
<g id="Stroke 423">
<use xlink:href="#path0_stroke" transform="matrix(0.707107 -0.707107 0.707107 0.707107 -101 11899)" fill="#F2412F"/>
</g>
</g>
<defs>
<path id="path0_stroke" d="M 63.8914 30.4979L 63.0823 31.761L 63.0824 31.7611L 63.8914 30.4979ZM 58.8837 33.4513L 57.389 33.5777L 57.3891 33.5778L 58.8837 33.4513ZM 60.1186 48.0484L 60.1186 49.5484C 60.5384 49.5484 60.939 49.3725 61.223 49.0634C 61.5071 48.7543 61.6486 48.3403 61.6132 47.922L 60.1186 48.0484ZM 44.166 45.5916L 42.9107 44.7705L 42.91 44.7716L 44.166 45.5916ZM 30.576 45.5916L 31.832 44.7716L 31.8313 44.7705L 30.576 45.5916ZM 14.6234 48.0484L 13.1288 47.922C 13.0934 48.3403 13.2349 48.7543 13.519 49.0634C 13.803 49.3725 14.2036 49.5484 14.6234 49.5484L 14.6234 48.0484ZM 15.8583 33.4513L 17.353 33.5778L 17.353 33.5777L 15.8583 33.4513ZM 10.8506 30.4979L 11.6596 31.7611L 11.6597 31.761L 10.8506 30.4979ZM 10.8506 17.5505L 11.6597 16.2875L 11.6596 16.2873L 10.8506 17.5505ZM 15.8583 14.5971L 17.353 14.4708L 17.353 14.4707L 15.8583 14.5971ZM 14.6234 0L 14.6234 -1.5C 14.2036 -1.5 13.803 -1.32408 13.519 -1.01497C 13.2349 -0.705866 13.0934 -0.291868 13.1288 0.126443L 14.6234 0ZM 30.576 2.45688L 31.8313 3.27799L 31.832 3.27686L 30.576 2.45688ZM 44.166 2.45688L 42.91 3.27686L 42.9107 3.27799L 44.166 2.45688ZM 60.1186 0L 61.6132 0.126443C 61.6486 -0.291868 61.5071 -0.705866 61.223 -1.01497C 60.939 -1.32408 60.5384 -1.5 60.1186 -1.5L 60.1186 0ZM 58.8837 14.5971L 57.3891 14.4707L 57.389 14.4708L 58.8837 14.5971ZM 63.8914 17.5505L 63.0824 16.2873L 63.0823 16.2875L 63.8914 17.5505ZM 73.242 24.0242C 73.242 27.9273 70.7277 30.5323 68.2427 30.5323L 68.2427 33.5323C 72.9395 33.5323 76.242 28.9685 76.242 24.0242L 73.242 24.0242ZM 68.2427 30.5323C 66.6595 30.5987 65.9332 30.0245 64.7004 29.2348L 63.0824 31.7611C 64.2804 32.5282 65.7768 33.4659 68.2427 33.5323L 68.2427 30.5323ZM 64.7006 29.2349C 61.4252 27.1366 57.0564 29.6433 57.389 33.5777L 60.3784 33.325C 60.2626 31.9548 61.8276 30.9572 63.0823 31.761L 64.7006 29.2349ZM 57.3891 33.5778L 58.6239 48.1749L 61.6132 47.922L 60.3784 33.3249L 57.3891 33.5778ZM 60.1186 46.5484L 45.5374 46.5484L 45.5374 49.5484L 60.1186 49.5484L 60.1186 46.5484ZM 45.5374 46.5484C 45.4979 46.5484 45.4783 46.5393 45.4665 46.5321C 45.4506 46.5224 45.434 46.5062 45.422 46.4847C 45.41 46.4633 45.4085 46.4476 45.4086 46.4423C 45.4086 46.4401 45.4088 46.4383 45.4096 46.4358C 45.4103 46.4337 45.4129 46.4256 45.4221 46.4115L 42.91 44.7716C 41.5339 46.8794 43.1288 49.5484 45.5374 49.5484L 45.5374 46.5484ZM 45.4213 46.4127C 46.1435 45.3077 46.943 43.8375 46.9951 41.642L 43.9951 41.642C 44.0473 43.0533 43.5924 43.7292 42.9107 44.7705L 45.4213 46.4127ZM 46.9951 41.642C 46.9951 36.9614 42.3355 33.7355 37.371 33.7355L 37.371 36.7355C 41.3821 36.7355 43.9951 39.2434 43.9951 41.642L 46.9951 41.642ZM 37.371 33.7355C 32.4065 33.7355 27.7469 36.9614 27.7469 41.642L 30.7469 41.642C 30.7469 39.2434 33.36 36.7355 37.371 36.7355L 37.371 33.7355ZM 27.7469 41.642C 27.799 43.8375 28.5985 45.3077 29.3207 46.4127L 31.8313 44.7705C 31.1496 43.7292 30.6947 43.0533 30.7469 41.642L 27.7469 41.642ZM 29.3199 46.4115C 29.3291 46.4256 29.3318 46.4337 29.3324 46.4358C 29.3332 46.4383 29.3334 46.4401 29.3334 46.4423C 29.3335 46.4476 29.332 46.4633 29.32 46.4847C 29.308 46.5062 29.2914 46.5224 29.2755 46.5321C 29.2637 46.5393 29.2441 46.5484 29.2046 46.5484L 29.2046 49.5484C 31.6132 49.5484 33.2081 46.8794 31.832 44.7716L 29.3199 46.4115ZM 29.2046 46.5484L 14.6234 46.5484L 14.6234 49.5484L 29.2046 49.5484L 29.2046 46.5484ZM 16.1181 48.1749L 17.353 33.5778L 14.3636 33.3249L 13.1288 47.922L 16.1181 48.1749ZM 17.353 33.5777C 17.6856 29.6433 13.3168 27.1366 10.0414 29.2349L 11.6597 31.761C 12.9144 30.9572 14.4795 31.9548 14.3636 33.325L 17.353 33.5777ZM 10.0416 29.2348C 8.80883 30.0245 8.08248 30.5987 6.49931 30.5323L 6.49931 33.5323C 8.9652 33.4659 10.4616 32.5282 11.6596 31.7611L 10.0416 29.2348ZM 6.49931 30.5323C 4.01436 30.5323 1.5 27.9273 1.5 24.0242L -1.5 24.0242C -1.5 28.9685 1.80252 33.5323 6.49931 33.5323L 6.49931 30.5323ZM 1.5 24.0242C 1.5 20.1211 4.01436 17.5161 6.49931 17.5161L 6.49931 14.5161C 1.80252 14.5161 -1.5 19.08 -1.5 24.0242L 1.5 24.0242ZM 6.49931 17.5161C 8.08248 17.4497 8.80883 18.0239 10.0416 18.8136L 11.6596 16.2873C 10.4616 15.5203 8.9652 14.5825 6.49931 14.5161L 6.49931 17.5161ZM 10.0414 18.8135C 13.3168 20.9119 17.6856 18.4052 17.353 14.4708L 14.3636 14.7235C 14.4795 16.0936 12.9144 17.0912 11.6597 16.2875L 10.0414 18.8135ZM 17.353 14.4707L 16.1181 -0.126443L 13.1288 0.126443L 14.3636 14.7236L 17.353 14.4707ZM 14.6234 1.5L 29.2046 1.5L 29.2046 -1.5L 14.6234 -1.5L 14.6234 1.5ZM 29.2046 1.5C 29.2441 1.5 29.2637 1.50918 29.2755 1.51635C 29.2914 1.52602 29.308 1.54222 29.32 1.5637C 29.332 1.58511 29.3335 1.60084 29.3334 1.60611C 29.3334 1.60834 29.3332 1.61012 29.3324 1.6126C 29.3318 1.61476 29.3291 1.62281 29.3199 1.6369L 31.832 3.27686C 33.2081 1.16899 31.6132 -1.5 29.2046 -1.5L 29.2046 1.5ZM 29.3207 1.63576C 28.5985 2.7407 27.799 4.21096 27.7469 6.40646L 30.7469 6.40646C 30.6947 4.99512 31.1496 4.31922 31.8313 3.27799L 29.3207 1.63576ZM 27.7469 6.40646C 27.7469 11.087 32.4065 14.3129 37.371 14.3129L 37.371 11.3129C 33.36 11.3129 30.7469 8.80504 30.7469 6.40646L 27.7469 6.40646ZM 37.371 14.3129C 42.3355 14.3129 46.9951 11.087 46.9951 6.40646L 43.9951 6.40646C 43.9951 8.80504 41.3821 11.3129 37.371 11.3129L 37.371 14.3129ZM 46.9951 6.40646C 46.943 4.21096 46.1435 2.7407 45.4213 1.63576L 42.9107 3.27799C 43.5924 4.31922 44.0473 4.99512 43.9951 6.40646L 46.9951 6.40646ZM 45.4221 1.6369C 45.4129 1.62281 45.4103 1.61476 45.4096 1.6126C 45.4088 1.61012 45.4086 1.60834 45.4086 1.60611C 45.4085 1.60084 45.41 1.58511 45.422 1.5637C 45.434 1.54222 45.4506 1.52602 45.4665 1.51635C 45.4783 1.50918 45.4979 1.5 45.5374 1.5L 45.5374 -1.5C 43.1288 -1.5 41.5339 1.16899 42.91 3.27686L 45.4221 1.6369ZM 45.5374 1.5L 60.1186 1.5L 60.1186 -1.5L 45.5374 -1.5L 45.5374 1.5ZM 58.6239 -0.126443L 57.3891 14.4707L 60.3784 14.7236L 61.6132 0.126443L 58.6239 -0.126443ZM 57.389 14.4708C 57.0564 18.4052 61.4252 20.9119 64.7006 18.8135L 63.0823 16.2875C 61.8276 17.0912 60.2626 16.0936 60.3784 14.7235L 57.389 14.4708ZM 64.7004 18.8136C 65.9332 18.0239 66.6595 17.4497 68.2427 17.5161L 68.2427 14.5161C 65.7768 14.5825 64.2804 15.5203 63.0824 16.2873L 64.7004 18.8136ZM 68.2427 17.5161C 70.7277 17.5161 73.242 20.1211 73.242 24.0242L 76.242 24.0242C 76.242 19.08 72.9395 14.5161 68.2427 14.5161L 68.2427 17.5161Z"/>
</defs>
</svg>
