<svg width="69" height="66" viewBox="0 0 69 66" version="1.1" xmlns="http://www.w3.org/2000/svg" xmlns:xlink="http://www.w3.org/1999/xlink">
<title>Group 176</title>
<desc>Created using Figma</desc>
<g id="Canvas" transform="translate(92 -2634)">
<g id="Group 176">
<g id="Stroke 170">
<use xlink:href="#path0_stroke" transform="translate(-90 2683.05)" fill="#F2412F"/>
</g>
<g id="Stroke 172">
<use xlink:href="#path1_stroke" transform="translate(-84.3484 2636)" fill="#F2412F"/>
</g>
<g id="Stroke 174">
<use xlink:href="#path2_stroke" transform="translate(-77.8798 2644.14)" fill="#F2412F"/>
</g>
</g>
</g>
<defs>
<path id="path0_stroke" d="M 53.6957 3.67496L 54.0935 5.12123C 54.8611 4.91007 55.3301 4.136 55.1618 3.35786L 53.6957 3.67496ZM 11.3043 3.67496L 9.83825 3.35786C 9.66375 4.16466 10.1739 4.96084 10.9798 5.13943L 11.3043 3.67496ZM 11.7 0L 13.1987 0.0631199C 13.2182 -0.401184 13.0215 -0.848332 12.6659 -1.14759C 12.3104 -1.44685 11.8362 -1.56442 11.3821 -1.46592L 11.7 0ZM 51.8012 0.0601191C 51.86 1.51122 51.9959 2.89981 52.2296 3.99206L 55.1618 3.35786C 54.9602 2.4379 54.853 1.307 54.7988 -0.0601191L 51.8012 0.0601191ZM 53.6957 3.67496C 53.2978 2.22869 53.2979 2.22864 53.2981 2.22861C 53.298 2.22862 53.2981 2.22859 53.2981 2.2286C 53.2979 2.22865 53.2978 2.22867 53.2975 2.22877C 53.2965 2.22904 53.2954 2.22934 53.2934 2.22988C 53.289 2.23109 53.2831 2.23268 53.2743 2.23506C 53.2557 2.2401 53.2295 2.24714 53.1928 2.25688C 53.1174 2.27694 53.0088 2.30542 52.8626 2.34277C 52.5659 2.41861 52.1382 2.52495 51.5828 2.6546C 50.4626 2.91619 48.878 3.26039 46.9398 3.60761C 43.0432 4.30656 37.8765 4.99645 32.5 4.99318L 32.5 7.99318C 38.0746 7.9899 43.5057 7.27069 47.4692 6.56053C 49.461 6.2032 51.1219 5.84284 52.2649 5.57602C 52.841 5.44145 53.2992 5.32762 53.6055 5.24934C 53.7609 5.20963 53.8831 5.17757 53.963 5.15634C 54.004 5.14544 54.0367 5.13665 54.0575 5.13103C 54.0684 5.12808 54.0774 5.12563 54.0829 5.12413C 54.0859 5.12331 54.0886 5.12258 54.0901 5.12217C 54.091 5.12193 54.0918 5.1217 54.0923 5.12157C 54.0926 5.1215 54.0929 5.12141 54.093 5.12137C 54.0933 5.1213 54.0935 5.12123 53.6957 3.67496ZM 32.5 4.99318C 28.3599 4.99645 23.1838 4.30512 18.9688 3.60437C 16.8662 3.25502 15.0353 2.90716 13.7173 2.64428C 13.0608 2.51336 12.5394 2.40503 12.1778 2.32853C 11.9981 2.29053 11.8611 2.26104 11.767 2.24066C 11.7206 2.23059 11.6861 2.22305 11.6623 2.21785C 11.6507 2.2153 11.6424 2.21346 11.6365 2.21217C 11.6337 2.21155 11.6318 2.21113 11.6304 2.21082C 11.6298 2.21068 11.6294 2.2106 11.6291 2.21053C 11.6289 2.2105 11.6289 2.21049 11.6288 2.21047C 11.6288 2.21048 11.6289 2.21049 11.3043 3.67496C 10.9798 5.13943 10.98 5.13946 10.9802 5.13951C 10.9803 5.13954 10.9805 5.13959 10.9808 5.13965C 10.9813 5.13975 10.982 5.13992 10.9829 5.14012C 10.9846 5.1405 10.9873 5.1411 10.9907 5.14183C 10.9971 5.14325 11.0071 5.14545 11.0198 5.14824C 11.0447 5.1537 11.0827 5.16199 11.1314 5.17256C 11.2278 5.19346 11.3723 5.22452 11.5569 5.26358C 11.9239 5.3412 12.4623 5.45305 13.1305 5.58633C 14.462 5.85187 16.3403 6.20857 18.4769 6.56377C 22.7401 7.27213 28.1618 7.9899 32.5 7.99318L 32.5 4.99318ZM 12.7704 3.99206C 13.0043 2.89817 13.1372 1.51106 13.1987 0.0631199L 10.2013 -0.0631199C 10.1441 1.30716 10.0396 2.43954 9.83825 3.35786L 12.7704 3.99206ZM 11.3821 -1.46592C 7.73062 -0.67183 4.60487 0.369609 2.45394 1.53107C 0.378196 2.65837 -1.5 4.27461 -1.5 6.49318L 1.5 6.49318C 1.5 6.10208 1.89822 5.24674 3.88568 4.16738C 5.79795 3.12217 8.5222 2.22185 12.0179 1.46592L 11.3821 -1.46592ZM -1.5 6.49318C -1.5 8.48919 0.0274896 9.99131 1.7683 11.062C 3.53489 12.1409 6.12098 13.1352 9.14169 13.9234C 15.1245 15.476 23.4389 16.4453 32.5 16.4478L 32.5 13.4478C 23.6127 13.4504 15.677 12.5273 9.89695 11.02C 7.03622 10.2782 4.86265 9.45072 3.33994 8.5066C 1.79145 7.55422 1.5 6.83206 1.5 6.49318L -1.5 6.49318ZM 32.5 16.4478C 41.5611 16.4453 49.8755 15.476 55.8583 13.9234C 58.879 13.1352 61.4651 12.1409 63.2317 11.062C 64.9725 9.99131 66.5 8.48919 66.5 6.49318L 63.5 6.49318C 63.5 6.83206 63.2085 7.55422 61.6601 8.5066C 60.1374 9.45072 57.9638 10.2782 55.1031 11.02C 49.323 12.5273 41.3873 13.4504 32.5 13.4478L 32.5 16.4478ZM 66.5 6.49318C 66.5 4.27461 64.6218 2.65837 62.5461 1.53107C 60.3951 0.369609 57.2694 -0.67183 53.6179 -1.46592L 52.9821 1.46592C 56.4778 2.22185 59.202 3.12217 61.1143 4.16737C 63.1018 5.24674 63.5 6.10208 63.5 6.49318L 66.5 6.49318Z"/>
<path id="path1_stroke" d="M 53.6957 5.63644L 55.1365 6.05346C 55.1757 5.91793 55.1957 5.77754 55.1957 5.63644L 53.6957 5.63644ZM 0 5.63644L -1.5 5.63644C -1.5 5.77754 -1.48009 5.91793 -1.44087 6.05346L 0 5.63644ZM 5.65217 50.728L 4.18602 50.4111C 4.01168 51.2179 4.52184 52.0139 5.32764 52.1924L 5.65217 50.728ZM 49.5096 50.4111C 49.0701 48.3771 49.0016 45.1814 49.2322 41.2683C 49.4609 37.3773 49.9725 32.9453 50.6315 28.466C 51.9484 19.5064 53.8256 10.5792 55.1365 6.05346L 52.2548 5.21942C 50.9148 9.85293 48.9951 18.9792 47.6634 28.0295C 46.998 32.5551 46.4722 37.1171 46.2374 41.0919C 46.0044 45.0447 46.0461 48.5866 46.5773 51.0448L 49.5096 50.4111ZM 55.1957 5.63644C 55.1957 4.69107 54.6059 4.00576 54.1393 3.59655C 53.6799 3.20123 52.9744 2.76844 52.2234 2.4135C 50.7767 1.7377 48.6595 1.05561 46.1686 0.48133C 41.2341 -0.65155 34.3538 -1.49719 26.8478 -1.5L 26.8478 1.5C 34.1703 1.49719 40.714 2.30303 45.4962 3.405C 47.8637 3.94814 49.6781 4.52932 50.9485 5.12911C 51.556 5.41198 51.9053 5.62006 52.1612 5.85202C 52.4098 6.07008 52.1957 5.99844 52.1957 5.63644L 55.1957 5.63644ZM 26.8478 -1.5C 19.3418 -1.49719 12.4616 -0.65155 7.52701 0.48133C 5.03614 1.05561 2.91894 1.7377 1.47225 2.4135C 0.72129 2.76844 0.0157286 3.20123 -0.44363 3.59655C -0.910219 4.00576 -1.5 4.69107 -1.5 5.63644L 1.5 5.63644C 1.5 5.99844 1.28582 6.07008 1.53447 5.85202C 1.79034 5.62006 2.13964 5.41198 2.74719 5.12911C 4.01752 4.52932 5.83193 3.94814 8.19945 3.405C 12.9817 2.30303 19.5253 1.49719 26.8478 1.5L 26.8478 -1.5ZM -1.44087 6.05346C -0.129951 10.5792 1.7472 19.5064 3.0642 28.466C 3.72316 32.9453 4.23475 37.3773 4.46348 41.2683C 4.69409 45.1814 4.62557 48.3771 4.18602 50.4111L 7.11833 51.0448C 7.64954 48.5866 7.69124 45.0447 7.45828 41.0919C 7.22344 37.1171 6.69768 32.5551 6.03227 28.0295C 4.70051 18.9792 2.78082 9.85293 1.44087 5.21942L -1.44087 6.05346ZM 5.65217 50.728C 5.32764 52.1924 5.32779 52.1925 5.32799 52.1925C 5.32812 52.1925 5.32837 52.1926 5.32863 52.1927C 5.32908 52.1928 5.32986 52.1929 5.33077 52.1931C 5.33245 52.1935 5.33517 52.1941 5.33852 52.1948C 5.34494 52.1963 5.35496 52.1985 5.36768 52.2013C 5.39256 52.2067 5.43051 52.215 5.47927 52.2256C 5.57567 52.2465 5.72011 52.2775 5.90476 52.3166C 6.27171 52.3942 6.81012 52.5061 7.47835 52.6393C 8.80981 52.9049 10.6881 53.2616 12.8247 53.6168C 17.0879 54.3251 22.5096 55.0429 26.8478 55.0462L 26.8478 52.0462C 22.7078 52.0495 17.5316 51.3581 13.3166 50.6574C 11.214 50.308 9.38312 49.9602 8.06513 49.6973C 7.40863 49.5664 6.88726 49.458 6.52561 49.3815C 6.34595 49.3435 6.20889 49.3141 6.11486 49.2937C 6.06841 49.2836 6.03391 49.2761 6.01015 49.2709C 5.99855 49.2683 5.9902 49.2665 5.98433 49.2652C 5.98153 49.2646 5.97963 49.2641 5.97822 49.2638C 5.97758 49.2637 5.9772 49.2636 5.97688 49.2635C 5.97676 49.2635 5.97671 49.2635 5.97665 49.2635C 5.97665 49.2635 5.97671 49.2635 5.65217 50.728ZM 26.8478 55.0462C 32.4224 55.0429 37.8535 54.3237 41.817 53.6135C 43.8088 53.2562 45.4698 52.8959 46.6127 52.629C 47.1889 52.4945 47.647 52.3806 47.9533 52.3023C 48.1087 52.2626 48.2309 52.2306 48.3108 52.2093C 48.3519 52.1984 48.3845 52.1897 48.4053 52.184C 48.4163 52.1811 48.4253 52.1786 48.4308 52.1771C 48.4338 52.1763 48.4364 52.1756 48.4379 52.1752C 48.4388 52.1749 48.4397 52.1747 48.4401 52.1746C 48.4404 52.1745 48.4407 52.1744 48.4408 52.1744C 48.4411 52.1743 48.4413 52.1742 48.0435 50.728C 47.6456 49.2817 47.6458 49.2817 47.6459 49.2816C 47.6459 49.2816 47.646 49.2816 47.6459 49.2816C 47.6457 49.2817 47.6457 49.2817 47.6453 49.2818C 47.6443 49.2821 47.6432 49.2823 47.6413 49.2829C 47.6368 49.2841 47.631 49.2857 47.6222 49.2881C 47.6035 49.2931 47.5773 49.3002 47.5407 49.3099C 47.4652 49.3299 47.3566 49.3584 47.2105 49.3958C 46.9138 49.4716 46.486 49.578 45.9306 49.7076C 44.8105 49.9692 43.2258 50.3134 41.2876 50.6606C 37.391 51.3596 32.2243 52.0495 26.8478 52.0462L 26.8478 55.0462Z"/>
<path id="path2_stroke" d="M 3.75387 38.02C 3.7411 38.8483 4.40223 39.5302 5.23056 39.543C 6.05889 39.5558 6.74074 38.8946 6.75352 38.0663L 3.75387 38.02ZM 1.46027 -0.342951C 1.27086 -1.14943 0.463534 -1.64968 -0.342951 -1.46027C -1.14943 -1.27086 -1.64968 -0.463534 -1.46027 0.342951L 1.46027 -0.342951ZM 6.75352 38.0663C 6.92894 26.6957 3.60092 8.77186 1.46027 -0.342951L -1.46027 0.342951C 0.67212 9.42257 3.92324 27.0422 3.75387 38.02L 6.75352 38.0663Z"/>
</defs>
</svg>
