<svg width="66" height="61" viewBox="0 0 66 61" version="1.1" xmlns="http://www.w3.org/2000/svg" xmlns:xlink="http://www.w3.org/1999/xlink">
<title>Group</title>
<desc>Created using Figma</desc>
<g id="Canvas" transform="translate(90 -4158)">
<g id="Group">
<g id="Group">
<g id="Vector">
<use xlink:href="#path0_stroke" transform="translate(-88 4160)" fill="#F2412F"/>
</g>
<g id="Vector">
<use xlink:href="#path1_stroke" transform="translate(-83.9682 4170.24)" fill="#F2412F"/>
</g>
</g>
</g>
</g>
<defs>
<path id="path0_stroke" d="M 23.7073 40.6832L 25.2073 40.6832C 25.2073 40.4478 25.1518 40.2156 25.0455 40.0056L 23.7073 40.6832ZM 38.2927 40.6832L 36.9545 40.0056C 36.8482 40.2156 36.7927 40.4478 36.7927 40.6832L 38.2927 40.6832ZM 62 9.39198L 61.1 8.19198C 60.7223 8.47526 60.5 8.91985 60.5 9.39198L 62 9.39198ZM 63.5 9.16655C 63.5 7.3177 62.0106 5.8397 60.3981 4.75914C 58.7208 3.64164 56.2578 2.53443 53.3715 1.61653C 47.656 -0.1919 39.6784 -1.49508 30.9986 -1.5L 30.9986 1.5C 39.4356 1.49508 46.9587 2.72594 52.4646 4.47617C 55.1891 5.3376 57.2671 6.26587 58.7281 7.25133C 60.2538 8.27374 60.5 8.96617 60.5 9.16655L 63.5 9.16655ZM 30.9986 -1.5C 22.3216 -1.49508 14.3447 -0.191898 8.62917 1.61653C 5.74288 2.53442 3.27975 3.64161 1.60232 4.7591C -0.0102743 5.83958 -1.5 7.31759 -1.5 9.16655L 1.5 9.16655C 1.5 8.96628 1.7462 8.27385 3.27222 7.25138C 4.7334 6.2659 6.81158 5.33761 9.53604 4.47617C 15.042 2.72594 22.5644 1.49508 30.9986 1.5L 30.9986 -1.5ZM -1.5 9.16655C -1.5 9.20593 -1.5 9.26229 -1.5 9.3088C -1.5 9.33206 -1.5 9.35285 -1.5 9.36783C -1.5 9.37532 -1.5 9.38136 -1.5 9.38553C -1.5 9.38761 -1.5 9.38922 -1.5 9.39032C -1.5 9.39086 -1.5 9.39128 -1.5 9.39156C -1.5 9.3917 -1.5 9.3918 -1.5 9.39187C -1.5 9.39191 -1.5 9.39194 -1.5 9.39195C -1.5 9.39196 -1.5 9.39197 -1.5 9.39197C -1.5 9.39198 -1.5 9.39198 -1.5 9.39198C -1.5 9.39198 -1.5 9.39198 0 9.39198C 1.5 9.39198 1.5 9.39198 1.5 9.39198C 1.5 9.39198 1.5 9.39198 1.5 9.39197C 1.5 9.39197 1.5 9.39196 1.5 9.39195C 1.5 9.39194 1.5 9.39191 1.5 9.39187C 1.5 9.3918 1.5 9.3917 1.5 9.39156C 1.5 9.39128 1.5 9.39086 1.5 9.39032C 1.5 9.38922 1.5 9.38761 1.5 9.38553C 1.5 9.38136 1.5 9.37532 1.5 9.36783C 1.5 9.35285 1.5 9.33206 1.5 9.3088C 1.5 9.26229 1.5 9.20593 1.5 9.16655L -1.5 9.16655ZM -1.5 9.39198C -1.5 11.7295 0.0495844 14.4953 1.97103 17.1813C 3.95146 19.9468 6.62889 23.0242 9.37478 26.0463C 12.1204 29.0679 14.9628 32.0707 17.3393 34.76C 19.7475 37.4847 21.5562 39.7554 22.369 41.3608L 25.0455 40.0056C 24.0334 38.0068 21.9663 35.4651 19.5872 32.7733C 17.1764 30.0459 14.3201 27.028 11.5951 24.0289C 8.87043 21.0303 6.30537 18.0869 4.41098 15.4358C 2.4576 12.7052 1.5 10.6587 1.5 9.39198L -1.5 9.39198ZM 22.2073 40.6832L 22.2073 53.4403L 25.2073 53.4403L 25.2073 40.6832L 22.2073 40.6832ZM 22.2073 53.4403C 22.2073 55.5405 23.8398 56.8126 25.3891 57.4849C 26.9312 58.1416 29.0556 58.4946 30.9996 58.5C 32.9436 58.4957 35.0683 58.1438 36.6107 57.4873C 38.1613 56.8147 39.7927 55.5418 39.7927 53.4403L 36.7927 53.4403C 36.7927 53.714 36.601 54.2215 35.4168 54.7351C 34.2244 55.2649 32.7028 55.5054 31.0004 55.5C 29.2981 55.5044 27.7761 55.2631 26.5834 54.7329C 25.3979 54.2185 25.2073 53.7112 25.2073 53.4403L 22.2073 53.4403ZM 39.7927 53.4403L 39.7927 40.6832L 36.7927 40.6832L 36.7927 53.4403L 39.7927 53.4403ZM 39.631 41.3608C 40.4438 39.7554 42.2525 37.4847 44.6607 34.76C 47.0372 32.0707 49.8796 29.0679 52.6252 26.0463C 55.3711 23.0242 58.0485 19.9468 60.029 17.1813C 61.9504 14.4953 63.5 11.7295 63.5 9.39198L 60.5 9.39198C 60.5 10.6587 59.5424 12.7052 57.589 15.4358C 55.6946 18.0869 53.1296 21.0303 50.4049 24.0289C 47.6799 27.028 44.8236 30.0459 42.4128 32.7733C 40.0337 35.4651 37.9666 38.0068 36.9545 40.0056L 39.631 41.3608ZM 62 10.892C 63.0607 10.4526 63.5 9.39198 63.5 9.39198C 63.5 9.39198 63.5 9.39198 63.5 9.39197C 63.5 9.39197 63.5 9.39196 63.5 9.39195C 63.5 9.39194 63.5 9.39191 63.5 9.39187C 63.5 9.3918 63.5 9.3917 63.5 9.39156C 63.5 9.39128 63.5 9.39086 63.5 9.39032C 63.5 9.38922 63.5 9.38761 63.5 9.38553C 63.5 9.38136 63.5 9.37532 63.5 9.36783C 63.5 9.35285 63.5 9.33206 63.5 9.3088C 63.5 9.26229 63.5 9.20593 63.5 9.16655L 60.5 9.16655C 60.5 9.20593 60.5 9.26229 60.5 9.3088C 60.5 9.33206 60.5 9.35285 60.5 9.36783C 60.5 9.37532 60.5 9.38136 60.5 9.38553C 60.5 9.38761 60.5 9.38922 60.5 9.39032C 60.5 9.39086 60.5 9.39128 60.5 9.39156C 60.5 9.3917 60.5 9.3918 60.5 9.39187C 60.5 9.39191 60.5 9.39194 60.5 9.39195C 60.5 9.39196 60.5 9.39197 60.5 9.39197C 60.5 9.39198 60.5 9.39198 60.5 9.39198C 60.5 9.39198 60.9393 8.33132 62 7.89198L 62 10.892Z"/>
<path id="path1_stroke" d="M 1.3112 -0.728526C 0.908848 -1.45268 -0.00436977 -1.71356 -0.728526 -1.3112C -1.45268 -0.908847 -1.71356 0.00436993 -1.3112 0.728527L 1.3112 -0.728526ZM 55.2503 0.728527C 55.6526 0.00436993 55.3918 -0.908847 54.6676 -1.3112C 53.9435 -1.71356 53.0302 -1.45268 52.6279 -0.728526L 55.2503 0.728527ZM -1.3112 0.728527C -0.524059 2.14523 1.03465 3.16943 2.78226 3.9414C 4.53989 4.71392 6.83852 5.37309 9.35897 5.87571C 14.3667 6.86914 20.7119 7.37154 26.9695 7.3727C 33.2272 7.37154 39.5724 6.86914 44.5801 5.87571C 47.1006 5.37309 49.3992 4.71392 51.1568 3.9414C 52.9044 3.16943 54.4632 2.14523 55.2503 0.728527L 52.6279 -0.728526C 52.3274 -0.187657 51.5207 0.501014 49.9446 1.19721C 48.3786 1.89287 46.3952 2.45718 43.9949 2.93335C 39.161 3.89748 33.109 4.37387 26.9695 4.3727C 20.8301 4.37387 14.7781 3.89748 9.94423 2.93335C 7.54384 2.45718 5.56051 1.89287 3.99446 1.19721C 2.41839 0.501014 1.61172 -0.187657 1.3112 -0.728526L -1.3112 0.728527Z"/>
</defs>
</svg>
