<svg width="77" height="75" viewBox="0 0 77 75" version="1.1" xmlns="http://www.w3.org/2000/svg" xmlns:xlink="http://www.w3.org/1999/xlink">
<title>Group 661.2</title>
<desc>Created using Figma</desc>
<g id="Canvas" transform="translate(96 -4679)">
<g id="Group 661.2">
<g id="Stroke 506">
<use xlink:href="#path0_stroke" transform="translate(-94 4724.22)" fill="#F2412F"/>
</g>
<g id="Stroke 507">
<use xlink:href="#path1_stroke" transform="translate(-74.9571 4681)" fill="#F2412F"/>
</g>
<g id="Stroke 508">
<use xlink:href="#path2_stroke" transform="translate(-81.3057 4711.87)" fill="#F2412F"/>
</g>
<g id="Stroke 509">
<use xlink:href="#path3_stroke" transform="translate(-57.5014 4711.87)" fill="#F2412F"/>
</g>
</g>
</g>
<defs>
<path id="path0_stroke" d="M 63.0625 20.5344L 61.6098 20.9083C 61.7479 21.4446 62.1702 21.8612 62.7083 21.992L 63.0625 20.5344ZM 62.4785 18.2655L 61.4933 17.1344C 61.0653 17.5072 60.8843 18.0897 61.0258 18.6394L 62.4785 18.2655ZM 65.0113 13.2862L 65.0113 11.7862C 64.2303 11.7862 63.58 12.3855 63.5163 13.1639L 65.0113 13.2862ZM 66.303 12.2274L 64.8153 12.0357L 64.8148 12.04L 66.303 12.2274ZM 66.6141 9.81341L 68.1018 10.0051L 68.1019 10.0046L 66.6141 9.81341ZM 65.3953 8.45824L 63.8972 8.38272C 63.8766 8.79096 64.0235 9.18992 64.304 9.48731C 64.5844 9.78471 64.974 9.95478 65.3828 9.95819L 65.3953 8.45824ZM 65.5477 5.43612L 64.4991 4.36351C 64.2291 4.62745 64.0686 4.9835 64.0496 5.3606L 65.5477 5.43612ZM 66.1666 4.83108L 67.2151 5.90369C 67.2245 5.89456 67.2337 5.8853 67.2428 5.87593L 66.1666 4.83108ZM 66.1666 1.81204L 64.9212 2.64813L 64.9242 2.65259L 66.1666 1.81204ZM 57.4732 1.207L 57.488 2.70692C 57.7892 2.70395 58.0825 2.6104 58.3297 2.43844L 57.4732 1.207ZM 52.1791 8.45516L 52.1791 9.95516C 52.6108 9.95516 53.0215 9.7692 53.3063 9.44484C 53.5911 9.12048 53.7224 8.68915 53.6665 8.26112L 52.1791 8.45516ZM 50.8175 9.81341L 49.3296 10.003L 49.3298 10.0051L 50.8175 9.81341ZM 51.1286 12.2274L 52.6168 12.04L 52.6163 12.0357L 51.1286 12.2274ZM 52.5632 13.2862L 54.0581 13.1632C 53.9941 12.3851 53.3439 11.7862 52.5632 11.7862L 52.5632 13.2862ZM 54.9785 18.1636L 56.4313 18.537C 56.5695 17.9992 56.3993 17.429 55.9889 17.055L 54.9785 18.1636ZM 54.3691 20.5344L 54.7233 21.992C 55.2616 21.8612 55.684 21.4443 55.8219 20.9078L 54.3691 20.5344ZM 49.2496 21.7784L 48.8954 20.3208L 48.8916 20.3218L 49.2496 21.7784ZM 47.6087 22.4452L 46.8705 23.751C 47.3298 24.0107 47.8918 24.0099 48.3504 23.749L 47.6087 22.4452ZM 45.9646 21.7784L 46.3226 20.3218L 46.3188 20.3208L 45.9646 21.7784ZM 40.8451 20.5344L 39.3924 20.9083C 39.5305 21.4446 39.9528 21.8612 40.4909 21.992L 40.8451 20.5344ZM 40.2611 18.2655L 39.2759 17.1344C 38.8479 17.5072 38.6669 18.0897 38.8084 18.6394L 40.2611 18.2655ZM 42.7939 13.2862L 42.7939 11.7862C 42.0129 11.7862 41.3626 12.3855 41.2989 13.1639L 42.7939 13.2862ZM 44.0857 12.2274L 42.5979 12.0357L 42.5974 12.04L 44.0857 12.2274ZM 44.3967 9.81341L 45.8844 10.0051L 45.8845 10.0046L 44.3967 9.81341ZM 43.1779 8.45824L 41.6798 8.38272C 41.6592 8.79096 41.8061 9.18992 42.0866 9.48731C 42.367 9.78471 42.7566 9.95478 43.1654 9.95819L 43.1779 8.45824ZM 43.3303 5.43612L 42.2817 4.36351C 42.0117 4.62745 41.8512 4.9835 41.8322 5.3606L 43.3303 5.43612ZM 43.9492 4.83108L 44.9977 5.90369C 45.0071 5.89456 45.0163 5.8853 45.0254 5.87593L 43.9492 4.83108ZM 43.9492 1.81204L 42.7038 2.64813L 42.7068 2.65259L 43.9492 1.81204ZM 35.2558 1.207L 35.2706 2.70692C 35.5718 2.70395 35.8651 2.6104 36.1123 2.43844L 35.2558 1.207ZM 29.9617 8.45516L 29.9617 9.95516C 30.3934 9.95516 30.8041 9.76921 31.0889 9.44484C 31.3737 9.12048 31.505 8.68915 31.4491 8.26113L 29.9617 8.45516ZM 28.6001 9.81341L 27.1122 10.003L 27.1124 10.0051L 28.6001 9.81341ZM 28.9112 12.2274L 30.3994 12.04L 30.3989 12.0357L 28.9112 12.2274ZM 30.3458 13.2862L 31.8407 13.1632C 31.7767 12.3851 31.1265 11.7862 30.3458 11.7862L 30.3458 13.2862ZM 32.7611 18.1636L 34.2139 18.537C 34.3521 17.9992 34.182 17.429 33.7715 17.055L 32.7611 18.1636ZM 32.1517 20.5344L 32.5059 21.992C 33.0442 21.8612 33.4666 21.4443 33.6045 20.9078L 32.1517 20.5344ZM 27.0322 21.7784L 26.678 20.3208L 26.6742 20.3218L 27.0322 21.7784ZM 25.3913 22.4452L 24.6531 23.751C 25.1124 24.0107 25.6744 24.0099 26.133 23.749L 25.3913 22.4452ZM 23.7472 21.7784L 24.1052 20.3218L 24.1014 20.3208L 23.7472 21.7784ZM 18.6277 20.5344L 17.175 20.9083C 17.3131 21.4446 17.7354 21.8612 18.2735 21.992L 18.6277 20.5344ZM 18.0437 18.2655L 17.0585 17.1344C 16.6305 17.5072 16.4496 18.0897 16.591 18.6394L 18.0437 18.2655ZM 20.5765 13.2862L 20.5765 11.7862C 19.7955 11.7862 19.1452 12.3855 19.0815 13.1639L 20.5765 13.2862ZM 21.8683 12.2274L 20.3806 12.0357L 20.38 12.04L 21.8683 12.2274ZM 22.1793 9.81341L 23.667 10.0051L 23.6671 10.0046L 22.1793 9.81341ZM 20.9605 8.45824L 19.4624 8.38272C 19.4418 8.79096 19.5888 9.18992 19.8692 9.48731C 20.1496 9.78471 20.5393 9.95478 20.948 9.95819L 20.9605 8.45824ZM 21.1129 5.43612L 20.0643 4.36351C 19.7943 4.62745 19.6338 4.9835 19.6148 5.3606L 21.1129 5.43612ZM 21.7318 4.83108L 22.7804 5.90369C 22.7897 5.89456 22.7989 5.8853 22.808 5.87593L 21.7318 4.83108ZM 21.7318 1.81204L 20.4864 2.64813L 20.4894 2.65259L 21.7318 1.81204ZM 13.0384 1.207L 13.0532 2.70692C 13.3544 2.70395 13.6477 2.6104 13.8949 2.43844L 13.0384 1.207ZM 7.74435 8.45516L 7.74435 9.95516C 8.176 9.95516 8.58673 9.7692 8.87152 9.44484C 9.15632 9.12048 9.28758 8.68915 9.23175 8.26112L 7.74435 8.45516ZM 6.38274 9.81341L 4.89477 10.003L 4.89504 10.0051L 6.38274 9.81341ZM 6.69378 12.2274L 8.18204 12.04L 8.18148 12.0357L 6.69378 12.2274ZM 8.12839 13.2862L 9.62333 13.1632C 9.55928 12.3851 8.9091 11.7862 8.12839 11.7862L 8.12839 13.2862ZM 10.5437 18.1636L 11.9965 18.537C 12.1348 17.9992 11.9646 17.429 11.5541 17.055L 10.5437 18.1636ZM 9.93435 20.5344L 10.2885 21.992C 10.8268 21.8612 11.2492 21.4443 11.3871 20.9078L 9.93435 20.5344ZM 4.81483 21.7784L 4.46063 20.3208L 4.46043 20.3209L 4.81483 21.7784ZM 0 27.7826L -1.5 27.7826C -1.5 28.611 -0.828427 29.2826 3.33067e-16 29.2826L 0 27.7826ZM 73 27.7826L 73 29.2826C 73.8284 29.2826 74.5 28.611 74.5 27.7826L 73 27.7826ZM 68.5362 20.3208L 63.4167 19.0768L 62.7083 21.992L 67.8278 23.236L 68.5362 20.3208ZM 64.5151 20.1605L 63.9311 17.8916L 61.0258 18.6394L 61.6098 20.9083L 64.5151 20.1605ZM 63.4637 19.3966C 65.1828 17.8992 66.3216 15.6652 66.5063 13.4086L 63.5163 13.1639C 63.3963 14.6301 62.6307 16.1437 61.4933 17.1344L 63.4637 19.3966ZM 65.0113 14.7862L 65.0716 14.7862L 65.0716 11.7862L 65.0113 11.7862L 65.0113 14.7862ZM 65.0716 14.7862C 66.4172 14.7862 67.6163 13.8047 67.7913 12.4148L 64.8148 12.04C 64.8374 11.8602 64.9765 11.7862 65.0716 11.7862L 65.0716 14.7862ZM 67.7907 12.4191L 68.1018 10.0051L 65.1264 9.62172L 64.8153 12.0357L 67.7907 12.4191ZM 68.1019 10.0046C 68.3145 8.34973 66.9988 6.97158 65.4078 6.9583L 65.3828 9.95819C 65.2708 9.95726 65.0977 9.84476 65.1263 9.6222L 68.1019 10.0046ZM 66.8934 8.53376L 67.0458 5.51164L 64.0496 5.3606L 63.8972 8.38272L 66.8934 8.53376ZM 66.5962 6.50873L 67.2151 5.90369L 65.118 3.75847L 64.4991 4.36351L 66.5962 6.50873ZM 67.2428 5.87593C 67.8718 5.22808 68.2712 4.41042 68.2712 3.457C 68.2712 2.55069 67.9097 1.71166 67.4089 0.971492L 64.9242 2.65259C 65.2296 3.10398 65.2712 3.35927 65.2712 3.457C 65.2712 3.50761 65.2675 3.60368 65.0903 3.78623L 67.2428 5.87593ZM 67.4119 0.975955C 66.2331 -0.780014 64.2577 -1.5 61.9833 -1.5L 61.9833 1.5C 63.651 1.5 64.4877 2.00245 64.9212 2.64812L 67.4119 0.975955ZM 61.9833 -1.5C 60.9206 -1.49984 58.6637 -1.37215 56.6167 -0.0244413L 58.3297 2.43844C 59.6027 1.47711 60.9641 1.49984 61.9833 1.5L 61.9833 -1.5ZM 57.4584 -0.292929C 54.8192 -0.266869 52.9257 0.272949 51.7355 1.47806C 50.5246 2.70419 50.384 4.27763 50.384 5.43612L 53.384 5.43612C 53.384 4.43992 53.5369 3.92349 53.8701 3.58608C 54.224 3.22765 55.1252 2.73026 57.488 2.70692L 57.4584 -0.292929ZM 50.384 5.43612C 50.3857 5.88734 50.4659 6.72532 50.5408 7.39587C 50.5784 7.73232 50.6164 8.04746 50.6443 8.27374C 50.6584 8.38767 50.6703 8.48182 50.6785 8.54603C 50.6826 8.57851 50.6859 8.60436 50.6881 8.62149C 50.6893 8.63023 50.6902 8.63717 50.6908 8.64165C 50.6911 8.64398 50.6913 8.64586 50.6915 8.64704C 50.6915 8.64767 50.6916 8.64821 50.6916 8.64853C 50.6917 8.6487 50.6917 8.64887 50.6917 8.64896C 50.6917 8.64902 50.6917 8.64907 50.6917 8.6491C 50.6917 8.64915 50.6917 8.64919 52.1791 8.45516C 53.6665 8.26112 53.6665 8.26115 53.6665 8.26116C 53.6665 8.26115 53.6665 8.26116 53.6665 8.26115C 53.6665 8.2611 53.6665 8.26106 53.6665 8.26096C 53.6665 8.26073 53.6664 8.26045 53.6664 8.25999C 53.6663 8.25898 53.6661 8.25761 53.6658 8.25563C 53.6653 8.25151 53.6645 8.24565 53.6635 8.23763C 53.6614 8.22125 53.6584 8.19775 53.6544 8.16687C 53.6465 8.10439 53.6353 8.01586 53.6217 7.90584C 53.5943 7.68422 53.5584 7.3864 53.5223 7.06263C 53.4496 6.41274 53.3822 5.7412 53.384 5.43612L 50.384 5.43612ZM 52.1791 6.95516L 52.049 6.95516L 52.049 9.95516L 52.1791 9.95516L 52.1791 6.95516ZM 52.049 6.95516C 50.4444 6.95516 49.1177 8.34023 49.3296 10.003L 52.3055 9.62381C 52.3333 9.84191 52.1619 9.95516 52.049 9.95516L 52.049 6.95516ZM 49.3298 10.0051L 49.6409 12.4191L 52.6163 12.0357L 52.3052 9.62172L 49.3298 10.0051ZM 49.6403 12.4148C 49.8153 13.8047 51.0144 14.7862 52.36 14.7862L 52.36 11.7862C 52.4551 11.7862 52.5942 11.8602 52.6168 12.04L 49.6403 12.4148ZM 52.36 14.7862L 52.5632 14.7862L 52.5632 11.7862L 52.36 11.7862L 52.36 14.7862ZM 51.0682 13.4093C 51.2491 15.6057 52.331 17.7802 53.9681 19.2723L 55.9889 17.055C 54.9028 16.0651 54.1756 14.5908 54.0581 13.1632L 51.0682 13.4093ZM 53.5257 17.7902L 52.9164 20.161L 55.8219 20.9078L 56.4313 18.537L 53.5257 17.7902ZM 54.0149 19.0768L 48.8954 20.3208L 49.6038 23.236L 54.7233 21.992L 54.0149 19.0768ZM 48.8916 20.3218C 48.1825 20.5013 47.4453 20.8151 46.867 21.1414L 48.3504 23.749C 48.7814 23.5012 49.136 23.3457 49.6076 23.2351L 48.8916 20.3218ZM 48.3469 21.1394C 47.7671 20.8142 47.0317 20.5013 46.3226 20.3218L 45.6066 23.2351C 46.0782 23.3457 46.4347 23.5021 46.8705 23.751L 48.3469 21.1394ZM 46.3188 20.3208L 41.1993 19.0768L 40.4909 21.992L 45.6104 23.236L 46.3188 20.3208ZM 42.2977 20.1605L 41.7137 17.8916L 38.8084 18.6394L 39.3924 20.9083L 42.2977 20.1605ZM 41.2463 19.3966C 42.9654 17.8992 44.1042 15.6652 44.2889 13.4086L 41.2989 13.1639C 41.1789 14.6301 40.4133 16.1437 39.2759 17.1344L 41.2463 19.3966ZM 42.7939 14.7862L 42.8542 14.7862L 42.8542 11.7862L 42.7939 11.7862L 42.7939 14.7862ZM 42.8542 14.7862C 44.1998 14.7862 45.3989 13.8047 45.5739 12.4148L 42.5974 12.04C 42.62 11.8602 42.7591 11.7862 42.8542 11.7862L 42.8542 14.7862ZM 45.5734 12.4191L 45.8844 10.0051L 42.909 9.62172L 42.598 12.0357L 45.5734 12.4191ZM 45.8845 10.0046C 46.0971 8.34973 44.7814 6.97158 43.1904 6.9583L 43.1654 9.95819C 43.0534 9.95726 42.8803 9.84475 42.9089 9.6222L 45.8845 10.0046ZM 44.676 8.53376L 44.8284 5.51164L 41.8322 5.3606L 41.6798 8.38272L 44.676 8.53376ZM 44.3788 6.50873L 44.9977 5.90369L 42.9006 3.75847L 42.2817 4.36351L 44.3788 6.50873ZM 45.0254 5.87593C 45.6544 5.22808 46.0538 4.41042 46.0538 3.457C 46.0538 2.55069 45.6923 1.71166 45.1915 0.971492L 42.7068 2.65259C 43.0122 3.10398 43.0538 3.35927 43.0538 3.457C 43.0538 3.50761 43.0502 3.60368 42.8729 3.78623L 45.0254 5.87593ZM 45.1945 0.975955C 44.0157 -0.780014 42.0403 -1.5 39.766 -1.5L 39.766 1.5C 41.4336 1.5 42.2703 2.00245 42.7038 2.64812L 45.1945 0.975955ZM 39.766 -1.5C 38.7032 -1.49984 36.4463 -1.37215 34.3993 -0.0244413L 36.1123 2.43844C 37.3853 1.47711 38.7467 1.49984 39.766 1.5L 39.766 -1.5ZM 35.241 -0.292929C 32.6018 -0.266869 30.7083 0.272949 29.5181 1.47806C 28.3073 2.70419 28.1666 4.27763 28.1666 5.43612L 31.1666 5.43612C 31.1666 4.43992 31.3195 3.92349 31.6527 3.58608C 32.0067 3.22765 32.9078 2.73026 35.2706 2.70692L 35.241 -0.292929ZM 28.1666 5.43612C 28.1683 5.88734 28.2485 6.72532 28.3234 7.39587C 28.3611 7.73232 28.399 8.04746 28.4269 8.27374C 28.441 8.38766 28.4529 8.48182 28.4611 8.54603C 28.4652 8.5785 28.4685 8.60435 28.4708 8.62149C 28.4719 8.63023 28.4728 8.63717 28.4734 8.64165C 28.4737 8.64398 28.4739 8.64586 28.4741 8.64704C 28.4741 8.64767 28.4742 8.64821 28.4743 8.64852C 28.4743 8.6487 28.4743 8.64887 28.4743 8.64896C 28.4743 8.64901 28.4743 8.64907 28.4743 8.6491C 28.4743 8.64915 28.4743 8.64919 29.9617 8.45516C 31.4491 8.26113 31.4491 8.26115 31.4491 8.26116C 31.4491 8.26116 31.4491 8.26116 31.4491 8.26115C 31.4491 8.2611 31.4491 8.26106 31.4491 8.26096C 31.4491 8.26073 31.449 8.26045 31.449 8.25999C 31.4489 8.25898 31.4487 8.25761 31.4484 8.25564C 31.4479 8.25151 31.4471 8.24565 31.4461 8.23763C 31.444 8.22125 31.441 8.19775 31.437 8.16687C 31.4291 8.10439 31.4179 8.01586 31.4043 7.90584C 31.3769 7.68422 31.341 7.38641 31.3049 7.06263C 31.2322 6.41274 31.1648 5.7412 31.1666 5.43612L 28.1666 5.43612ZM 29.9617 6.95516L 29.8316 6.95516L 29.8316 9.95516L 29.9617 9.95516L 29.9617 6.95516ZM 29.8316 6.95516C 28.227 6.95516 26.9003 8.34023 27.1122 10.003L 30.0881 9.62381C 30.1159 9.84191 29.9445 9.95516 29.8316 9.95516L 29.8316 6.95516ZM 27.1124 10.0051L 27.4235 12.4191L 30.3989 12.0357L 30.0878 9.62172L 27.1124 10.0051ZM 27.4229 12.4148C 27.5979 13.8047 28.797 14.7862 30.1427 14.7862L 30.1427 11.7862C 30.2377 11.7862 30.3768 11.8602 30.3994 12.04L 27.4229 12.4148ZM 30.1427 14.7862L 30.3458 14.7862L 30.3458 11.7862L 30.1427 11.7862L 30.1427 14.7862ZM 28.8508 13.4093C 29.0317 15.6057 30.1136 17.7802 31.7507 19.2723L 33.7715 17.055C 32.6854 16.0651 31.9583 14.5908 31.8407 13.1632L 28.8508 13.4093ZM 31.3084 17.7902L 30.699 20.161L 33.6045 20.9078L 34.2139 18.537L 31.3084 17.7902ZM 31.7975 19.0768L 26.678 20.3208L 27.3864 23.236L 32.5059 21.992L 31.7975 19.0768ZM 26.6742 20.3218C 25.9651 20.5013 25.2279 20.8151 24.6496 21.1414L 26.133 23.749C 26.564 23.5012 26.9186 23.3457 27.3902 23.2351L 26.6742 20.3218ZM 26.1295 21.1394C 25.5497 20.8142 24.8143 20.5013 24.1052 20.3218L 23.3892 23.2351C 23.8608 23.3457 24.2173 23.5021 24.6531 23.751L 26.1295 21.1394ZM 24.1014 20.3208L 18.9819 19.0768L 18.2735 21.992L 23.393 23.236L 24.1014 20.3208ZM 20.0803 20.1605L 19.4963 17.8916L 16.591 18.6394L 17.175 20.9083L 20.0803 20.1605ZM 19.0289 19.3966C 20.748 17.8992 21.8868 15.6652 22.0715 13.4086L 19.0815 13.1639C 18.9615 14.6301 18.1959 16.1437 17.0585 17.1344L 19.0289 19.3966ZM 20.5765 14.7862L 20.6368 14.7862L 20.6368 11.7862L 20.5765 11.7862L 20.5765 14.7862ZM 20.6368 14.7862C 21.9824 14.7862 23.1815 13.8047 23.3565 12.4148L 20.38 12.04C 20.4026 11.8602 20.5417 11.7862 20.6368 11.7862L 20.6368 14.7862ZM 23.356 12.4191L 23.667 10.0051L 20.6916 9.62172L 20.3806 12.0357L 23.356 12.4191ZM 23.6671 10.0046C 23.8798 8.34973 22.5641 6.97158 20.973 6.9583L 20.948 9.95819C 20.836 9.95726 20.6629 9.84475 20.6915 9.6222L 23.6671 10.0046ZM 22.4586 8.53376L 22.611 5.51164L 19.6148 5.3606L 19.4624 8.38272L 22.4586 8.53376ZM 22.1614 6.50873L 22.7804 5.90369L 20.6832 3.75847L 20.0643 4.36351L 22.1614 6.50873ZM 22.808 5.87593C 23.437 5.22808 23.8364 4.41042 23.8364 3.457C 23.8364 2.55069 23.4749 1.71166 22.9742 0.971492L 20.4894 2.65259C 20.7948 3.10398 20.8364 3.35927 20.8364 3.457C 20.8364 3.50761 20.8328 3.60368 20.6555 3.78623L 22.808 5.87593ZM 22.9772 0.975955C 21.7983 -0.780014 19.8229 -1.5 17.5486 -1.5L 17.5486 1.5C 19.2163 1.5 20.0529 2.00245 20.4864 2.64812L 22.9772 0.975955ZM 17.5486 -1.5C 16.4858 -1.49984 14.2289 -1.37215 12.182 -0.0244413L 13.8949 2.43844C 15.1679 1.47711 16.5293 1.49984 17.5486 1.5L 17.5486 -1.5ZM 13.0236 -0.292929C 10.3844 -0.266869 8.49089 0.272949 7.30075 1.47806C 6.08986 2.70419 5.94917 4.27763 5.94917 5.43612L 8.94917 5.43612C 8.94917 4.43992 9.10207 3.92349 9.43529 3.58608C 9.78926 3.22765 10.6904 2.73026 13.0532 2.70692L 13.0236 -0.292929ZM 5.94917 5.43612C 5.95095 5.88734 6.03113 6.72532 6.10604 7.39587C 6.14366 7.73232 6.18159 8.04746 6.20955 8.27374C 6.22363 8.38766 6.23551 8.48182 6.24369 8.54603C 6.24783 8.5785 6.25115 8.60435 6.25336 8.62149C 6.25449 8.63023 6.25539 8.63717 6.25597 8.64165C 6.25627 8.64398 6.25652 8.64586 6.25667 8.64704C 6.25675 8.64767 6.25682 8.64821 6.25686 8.64853C 6.25689 8.6487 6.25691 8.64887 6.25692 8.64896C 6.25693 8.64902 6.25694 8.64907 6.25694 8.6491C 6.25695 8.64915 6.25695 8.64919 7.74435 8.45516C 9.23175 8.26112 9.23175 8.26115 9.23175 8.26116C 9.23175 8.26116 9.23175 8.26116 9.23175 8.26115C 9.23174 8.2611 9.23174 8.26106 9.23172 8.26096C 9.23169 8.26073 9.23166 8.26045 9.2316 8.25999C 9.23147 8.25898 9.23129 8.25761 9.23103 8.25563C 9.2305 8.25151 9.22974 8.24565 9.2287 8.23763C 9.22659 8.22125 9.22357 8.19775 9.21964 8.16687C 9.21167 8.10439 9.2005 8.01586 9.1869 7.90584C 9.15952 7.68422 9.12365 7.38641 9.08748 7.06263C 9.0148 6.41274 8.94739 5.7412 8.94917 5.43612L 5.94917 5.43612ZM 7.74435 6.95516L 7.61422 6.95516L 7.61422 9.95516L 7.74435 9.95516L 7.74435 6.95516ZM 7.61422 6.95516C 6.00961 6.95516 4.68289 8.34023 4.89477 10.003L 7.87071 9.62381C 7.8985 9.84191 7.72709 9.95516 7.61422 9.95516L 7.61422 6.95516ZM 4.89504 10.0051L 5.20608 12.4191L 8.18148 12.0357L 7.87044 9.62172L 4.89504 10.0051ZM 5.20553 12.4148C 5.38052 13.8047 6.57965 14.7862 7.92526 14.7862L 7.92526 11.7862C 8.02035 11.7862 8.15939 11.8602 8.18203 12.04L 5.20553 12.4148ZM 7.92526 14.7862L 8.12839 14.7862L 8.12839 11.7862L 7.92526 11.7862L 7.92526 14.7862ZM 6.63345 13.4093C 6.81427 15.6057 7.89623 17.7802 9.53334 19.2723L 11.5541 17.055C 10.468 16.0651 9.74086 14.5908 9.62333 13.1632L 6.63345 13.4093ZM 9.09096 17.7902L 8.48157 20.161L 11.3871 20.9078L 11.9965 18.537L 9.09096 17.7902ZM 9.58016 19.0768L 4.46063 20.3208L 5.16902 23.236L 10.2885 21.992L 9.58016 19.0768ZM 4.46043 20.3209C 0.981873 21.1667 -1.5 24.2222 -1.5 27.7795L 1.5 27.7795C 1.5 25.6567 2.98552 23.7669 5.16923 23.236L 4.46043 20.3209ZM -1.5 27.7795L -1.5 27.7826L 1.5 27.7826L 1.5 27.7795L -1.5 27.7795ZM 0 29.2826L 73 29.2826L 73 26.2826L 0 26.2826L 0 29.2826ZM 74.5 27.7826L 74.5 27.7795L 71.5 27.7795L 71.5 27.7826L 74.5 27.7826ZM 74.5 27.7795C 74.5 24.2211 72.0138 21.1664 68.5364 20.3209L 67.8276 23.236C 70.0125 23.7672 71.5 25.6578 71.5 27.7795L 74.5 27.7795Z"/>
<path id="path1_stroke" d="M 22.7697 22.8156L 21.3264 23.2243C 21.4768 23.7555 21.9068 24.1611 22.4459 24.2803L 22.7697 22.8156ZM 22.0555 20.2936L 21.123 19.1187C 20.6488 19.4951 20.4473 20.1197 20.6123 20.7023L 22.0555 20.2936ZM 25.1501 14.7618L 25.1501 13.2618C 24.374 13.2618 23.7261 13.8538 23.6562 14.6267L 25.1501 14.7618ZM 26.7307 13.5857L 28.2159 13.7958L 28.216 13.7948L 26.7307 13.5857ZM 27.1084 10.9031L 25.6236 10.6901L 25.623 10.694L 27.1084 10.9031ZM 25.6198 9.39668L 24.1221 9.31458C 24.0997 9.72338 24.2453 10.1236 24.5253 10.4223C 24.8052 10.7211 25.1951 10.8924 25.6045 10.8966L 25.6198 9.39668ZM 25.8039 6.03807L 24.811 4.91372C 24.51 5.17955 24.3281 5.55498 24.3062 5.95598L 25.8039 6.03807ZM 26.5625 5.36821L 27.5554 6.49256C 27.5666 6.48261 27.5778 6.47248 27.5887 6.46219L 26.5625 5.36821ZM 26.5625 2.01269L 25.3568 2.9051L 25.3574 2.90592L 26.5625 2.01269ZM 15.9394 1.33974L 15.953 2.83967C 16.2323 2.83714 16.5053 2.75668 16.7413 2.60736L 15.9394 1.33974ZM 9.46461 9.39359L 9.46461 10.8936C 9.89941 10.8936 10.3128 10.7049 10.5977 10.3765C 10.8826 10.048 11.011 9.61208 10.9496 9.18164L 9.46461 9.39359ZM 7.80148 10.9031L 6.31563 11.1088L 6.31637 11.114L 7.80148 10.9031ZM 8.18235 13.5857L 9.66755 13.3755L 9.66745 13.3748L 8.18235 13.5857ZM 9.93435 14.7618L 11.4283 14.6277C 11.3589 13.8544 10.7108 13.2618 9.93435 13.2618L 9.93435 14.7618ZM 12.8861 20.1825L 14.3298 20.5897C 14.4908 20.0189 14.3003 19.4068 13.8439 19.0281L 12.8861 20.1825ZM 12.1434 22.8156L 12.4672 24.2803C 13.0068 24.161 13.4371 23.7547 13.5871 23.2228L 12.1434 22.8156ZM 5.88761 24.1986L 5.56382 22.734L 5.56352 22.734L 5.88761 24.1986ZM 0 30.8695L -1.5 30.8695C -1.5 31.6979 -0.828427 32.3695 3.33067e-16 32.3695L 0 30.8695ZM 34.913 30.8695L 34.913 32.3695C 35.7415 32.3695 36.413 31.6979 36.413 30.8695L 34.913 30.8695ZM 29.3492 22.734L 23.0934 21.351L 22.4459 24.2803L 28.7017 25.6632L 29.3492 22.734ZM 24.2129 22.407L 23.4988 19.8849L 20.6123 20.7023L 21.3264 23.2243L 24.2129 22.407ZM 22.988 21.4685C 25.0256 19.8514 26.4168 17.4095 26.644 14.8969L 23.6562 14.6267C 23.5088 16.2568 22.5704 17.9699 21.123 19.1187L 22.988 21.4685ZM 25.1501 16.2618L 25.2231 16.2618L 25.2231 13.2618L 25.1501 13.2618L 25.1501 16.2618ZM 25.2231 16.2618C 26.5901 16.2618 27.9969 15.3438 28.2159 13.7958L 25.2455 13.3755C 25.2514 13.3336 25.2657 13.299 25.2801 13.2752C 25.2939 13.2526 25.3052 13.2436 25.306 13.2429C 25.3069 13.2422 25.3005 13.2473 25.2853 13.2524C 25.2706 13.2574 25.2498 13.2618 25.2231 13.2618L 25.2231 16.2618ZM 28.216 13.7948L 28.5937 11.1122L 25.623 10.694L 25.2453 13.3765L 28.216 13.7948ZM 28.5932 11.1161C 28.8662 9.21327 27.2223 7.913 25.6352 7.89675L 25.6045 10.8966C 25.6744 10.8973 25.6939 10.9239 25.6806 10.9104C 25.673 10.9028 25.6538 10.8801 25.6386 10.8376C 25.6224 10.7923 25.6165 10.7393 25.6236 10.6901L 28.5932 11.1161ZM 27.1176 9.47877L 27.3017 6.12017L 24.3062 5.95598L 24.1221 9.31458L 27.1176 9.47877ZM 26.7968 7.16243L 27.5554 6.49256L 25.5696 4.24385L 24.811 4.91372L 26.7968 7.16243ZM 27.5887 6.46219C 28.3129 5.78286 28.8004 4.90129 28.8004 3.84209C 28.8004 2.83999 28.362 1.92142 27.7675 1.11946L 25.3574 2.90592C 25.7469 3.43135 25.8004 3.72904 25.8004 3.84209C 25.8004 3.89806 25.796 4.03055 25.5362 4.27422L 27.5887 6.46219ZM 27.7681 1.12028C 26.3876 -0.744828 24.1108 -1.5 21.4493 -1.5L 21.4493 1.5C 23.6058 1.5 24.7632 2.10309 25.3568 2.9051L 27.7681 1.12028ZM 21.4493 -1.5C 20.1567 -1.49987 17.5278 -1.37642 15.1374 0.0721149L 16.7413 2.60736C 18.4009 1.49373 20.1964 1.49987 21.4493 1.5L 21.4493 -1.5ZM 15.9258 -0.160202C 12.755 -0.13141 10.5736 0.456077 9.21171 1.71044C 7.78833 3.02147 7.60596 4.7351 7.60596 6.03807L 10.606 6.03807C 10.606 4.95175 10.7806 4.34399 11.2442 3.91706C 11.7692 3.43348 13.0045 2.86645 15.953 2.83967L 15.9258 -0.160202ZM 7.60596 6.03807C 7.60808 6.53927 7.70537 7.46903 7.79636 8.21385C 7.84206 8.58755 7.88812 8.93745 7.92209 9.18874C 7.93919 9.31524 7.95362 9.41976 7.96356 9.49106C 7.96859 9.52711 7.97262 9.55579 7.97531 9.57481C 7.97667 9.58452 7.97777 9.59221 7.97847 9.59719C 7.97884 9.59977 7.97913 9.60186 7.97932 9.60316C 7.97942 9.60386 7.9795 9.60445 7.97955 9.60481C 7.97958 9.605 7.97961 9.60519 7.97962 9.60529C 7.97963 9.60535 7.97964 9.60541 7.97965 9.60544C 7.97965 9.60549 7.97966 9.60554 9.46461 9.39359C 10.9496 9.18164 10.9496 9.18166 10.9496 9.18168C 10.9496 9.18167 10.9496 9.18168 10.9496 9.18166C 10.9496 9.18161 10.9495 9.18156 10.9495 9.18145C 10.9495 9.1812 10.9495 9.18088 10.9494 9.18037C 10.9492 9.17925 10.949 9.17772 10.9487 9.17552C 10.948 9.17094 10.9471 9.16442 10.9459 9.15551C 10.9433 9.13731 10.9396 9.11119 10.9348 9.07689C 10.9252 9.00747 10.9116 8.9091 10.8951 8.78686C 10.8618 8.54067 10.8182 8.2097 10.7742 7.84986C 10.6859 7.12761 10.6038 6.37962 10.606 6.03807L 7.60596 6.03807ZM 9.46461 7.89359L 9.30909 7.89359L 9.30909 10.8936L 9.46461 10.8936L 9.46461 7.89359ZM 9.30909 7.89359C 7.69724 7.89359 6.05232 9.20621 6.31564 11.1088L 9.28731 10.6975C 9.29385 10.7447 9.28795 10.7952 9.27239 10.8383C 9.25783 10.8786 9.23961 10.8999 9.23251 10.907C 9.21969 10.9199 9.23895 10.8936 9.30909 10.8936L 9.30909 7.89359ZM 6.31637 11.114L 6.69724 13.7965L 9.66745 13.3748L 9.28658 10.6923L 6.31637 11.114ZM 6.69714 13.7958C 6.91567 15.3402 8.31572 16.2618 9.68678 16.2618L 9.68678 13.2618C 9.6315 13.2618 9.60601 13.2434 9.6071 13.2442C 9.60853 13.2453 9.61998 13.2547 9.63361 13.2772C 9.64794 13.3009 9.66179 13.3348 9.66755 13.3755L 6.69714 13.7958ZM 9.68678 16.2618L 9.93435 16.2618L 9.93435 13.2618L 9.68678 13.2618L 9.68678 16.2618ZM 8.44035 14.8959C 8.65989 17.342 9.98364 19.7234 11.9283 21.3369L 13.8439 19.0281C 12.4623 17.8818 11.5706 16.2132 11.4283 14.6277L 8.44035 14.8959ZM 11.4424 19.7753L 10.6997 22.4085L 13.5871 23.2228L 14.3298 20.5897L 11.4424 19.7753ZM 11.8196 21.351L 5.56382 22.734L 6.21139 25.6632L 12.4672 24.2803L 11.8196 21.351ZM 5.56352 22.734C 1.53801 23.6248 -1.5 26.8911 -1.5 30.8664L 1.5 30.8664C 1.5 28.532 3.31808 26.3035 6.2117 25.6632L 5.56352 22.734ZM -1.5 30.8664L -1.5 30.8695L 1.5 30.8695L 1.5 30.8664L -1.5 30.8664ZM 0 32.3695L 34.913 32.3695L 34.913 29.3695L 0 29.3695L 0 32.3695ZM 36.413 30.8695L 36.413 30.8664L 33.413 30.8664L 33.413 30.8695L 36.413 30.8695ZM 36.413 30.8664C 36.413 26.8911 33.375 23.6248 29.3495 22.734L 28.7013 25.6632C 31.595 26.3035 33.413 28.532 33.413 30.8664L 36.413 30.8664Z"/>
<path id="path2_stroke" d="M -1.5 6.1739C -1.5 7.00233 -0.828427 7.6739 0 7.6739C 0.828427 7.6739 1.5 7.00233 1.5 6.1739L -1.5 6.1739ZM 0 0L 0 -1.5C -0.828427 -1.5 -1.5 -0.828427 -1.5 3.33067e-16L 0 0ZM 47.6087 0L 49.1087 0C 49.1087 -0.828427 48.4371 -1.5 47.6087 -1.5L 47.6087 0ZM 46.1087 6.1739C 46.1087 7.00233 46.7803 7.6739 47.6087 7.6739C 48.4371 7.6739 49.1087 7.00233 49.1087 6.1739L 46.1087 6.1739ZM 1.5 6.1739L 1.5 0L -1.5 0L -1.5 6.1739L 1.5 6.1739ZM 0 1.5L 47.6087 1.5L 47.6087 -1.5L 0 -1.5L 0 1.5ZM 46.1087 0L 46.1087 6.1739L 49.1087 6.1739L 49.1087 0L 46.1087 0Z"/>
<path id="path3_stroke" d="M 1.5 0C 1.5 -0.828427 0.828427 -1.5 0 -1.5C -0.828427 -1.5 -1.5 -0.828427 -1.5 0L 1.5 0ZM -1.5 6.1739C -1.5 7.00233 -0.828427 7.6739 0 7.6739C 0.828427 7.6739 1.5 7.00233 1.5 6.1739L -1.5 6.1739ZM -1.5 0L -1.5 6.1739L 1.5 6.1739L 1.5 0L -1.5 0Z"/>
</defs>
</svg>
