<svg width="72" height="76" viewBox="0 0 72 76" version="1.1" xmlns="http://www.w3.org/2000/svg" xmlns:xlink="http://www.w3.org/1999/xlink">
<title>Group 87.2</title>
<desc>Created using Figma</desc>
<g id="Canvas" transform="translate(93 -12880)">
<g id="Group 87.2">
<g id="Stroke 83">
<use xlink:href="#path0_stroke" transform="translate(-41.5455 12897.7)" fill="#F2412F"/>
</g>
<g id="Stroke 85">
<use xlink:href="#path1_stroke" transform="translate(-41.5455 12903.9)" fill="#F2412F"/>
</g>
<g id="Stroke 88">
<use xlink:href="#path2_stroke" transform="translate(-32.2727 12910.2)" fill="#F2412F"/>
</g>
<g id="Stroke 76">
<use xlink:href="#path3_stroke" transform="translate(-91 12910.2)" fill="#F2412F"/>
</g>
<g id="Stroke 77">
<use xlink:href="#path1_stroke" transform="translate(-91 12916.4)" fill="#F2412F"/>
</g>
<g id="Stroke 78">
<use xlink:href="#path4_stroke" transform="translate(-81.7273 12922.7)" fill="#F2412F"/>
</g>
<g id="Stroke 79">
<use xlink:href="#path5_stroke" transform="translate(-66.2727 12882)" fill="#F2412F"/>
</g>
<g id="Stroke 81">
<use xlink:href="#path1_stroke" transform="translate(-66.2727 12888.3)" fill="#F2412F"/>
</g>
<g id="Stroke 82">
<use xlink:href="#path6_stroke" transform="translate(-57 12894.5)" fill="#F2412F"/>
</g>
</g>
</g>
<defs>
<path id="path0_stroke" d="M 9.27273 56.3478L 8.43335 57.591C 8.94054 57.9334 9.60491 57.9334 10.1121 57.591L 9.27273 56.3478ZM 18.5455 50.087L 19.3848 51.3301C 19.7979 51.0512 20.0455 50.5854 20.0455 50.087L 18.5455 50.087ZM 18.5455 6.26087L 20.0455 6.26087C 20.0455 5.76246 19.7979 5.29661 19.3848 5.01771L 18.5455 6.26087ZM 9.27273 0L 10.1121 -1.24316C 9.60491 -1.58561 8.94054 -1.58561 8.43335 -1.24316L 9.27273 0ZM 0 6.26087L -0.839373 5.01771C -1.25244 5.29661 -1.5 5.76246 -1.5 6.26087L 0 6.26087ZM -0.839373 51.3301L 8.43335 57.591L 10.1121 55.1047L 0.839373 48.8438L -0.839373 51.3301ZM 10.1121 57.591L 19.3848 51.3301L 17.7061 48.8438L 8.43335 55.1047L 10.1121 57.591ZM 20.0455 50.087L 20.0455 6.26087L 17.0455 6.26087L 17.0455 50.087L 20.0455 50.087ZM 19.3848 5.01771L 10.1121 -1.24316L 8.43335 1.24316L 17.7061 7.50403L 19.3848 5.01771ZM 8.43335 -1.24316L -0.839373 5.01771L 0.839373 7.50403L 10.1121 1.24316L 8.43335 -1.24316ZM -1.5 6.26087L -1.5 50.087L 1.5 50.087L 1.5 6.26087L -1.5 6.26087Z"/>
<path id="path1_stroke" d="M 0.839373 -1.24316C 0.152794 -1.70674 -0.779589 -1.52595 -1.24316 -0.839373C -1.70674 -0.152794 -1.52595 0.779589 -0.839373 1.24316L 0.839373 -1.24316ZM 9.27273 6.26087L 8.43335 7.50403C 8.94054 7.84648 9.60491 7.84648 10.1121 7.50403L 9.27273 6.26087ZM 19.3848 1.24316C 20.0714 0.779589 20.2522 -0.152794 19.7886 -0.839373C 19.325 -1.52595 18.3927 -1.70674 17.7061 -1.24316L 19.3848 1.24316ZM -0.839373 1.24316L 8.43335 7.50403L 10.1121 5.01771L 0.839373 -1.24316L -0.839373 1.24316ZM 10.1121 7.50403L 19.3848 1.24316L 17.7061 -1.24316L 8.43335 5.01771L 10.1121 7.50403Z"/>
<path id="path2_stroke" d="M 1.5 0C 1.5 -0.828427 0.828427 -1.5 0 -1.5C -0.828427 -1.5 -1.5 -0.828427 -1.5 0L 1.5 0ZM -1.5 43.8261C -1.5 44.6545 -0.828427 45.3261 0 45.3261C 0.828427 45.3261 1.5 44.6545 1.5 43.8261L -1.5 43.8261ZM -1.5 0L -1.5 43.8261L 1.5 43.8261L 1.5 0L -1.5 0Z"/>
<path id="path3_stroke" d="M 9.27273 43.8261L 8.43335 45.0693C 8.94054 45.4117 9.60491 45.4117 10.1121 45.0693L 9.27273 43.8261ZM 18.5455 37.5652L 19.3848 38.8084C 19.7979 38.5295 20.0455 38.0636 20.0455 37.5652L 18.5455 37.5652ZM 18.5455 6.26087L 20.0455 6.26087C 20.0455 5.76246 19.7979 5.29661 19.3848 5.01771L 18.5455 6.26087ZM 9.27273 0L 10.1121 -1.24316C 9.60491 -1.58561 8.94054 -1.58561 8.43335 -1.24316L 9.27273 0ZM 0 6.26087L -0.839373 5.01771C -1.25244 5.29661 -1.5 5.76246 -1.5 6.26087L 0 6.26087ZM -0.839373 38.8084L 8.43335 45.0693L 10.1121 42.5829L 0.839373 36.3221L -0.839373 38.8084ZM 10.1121 45.0693L 19.3848 38.8084L 17.7061 36.3221L 8.43335 42.5829L 10.1121 45.0693ZM 20.0455 37.5652L 20.0455 6.26087L 17.0455 6.26087L 17.0455 37.5652L 20.0455 37.5652ZM 19.3848 5.01771L 10.1121 -1.24316L 8.43335 1.24316L 17.7061 7.50403L 19.3848 5.01771ZM 8.43335 -1.24316L -0.839373 5.01771L 0.839373 7.50403L 10.1121 1.24316L 8.43335 -1.24316ZM -1.5 6.26087L -1.5 37.5652L 1.5 37.5652L 1.5 6.26087L -1.5 6.26087Z"/>
<path id="path4_stroke" d="M 1.5 0C 1.5 -0.828427 0.828427 -1.5 0 -1.5C -0.828427 -1.5 -1.5 -0.828427 -1.5 0L 1.5 0ZM -1.5 31.3043C -1.5 32.1328 -0.828427 32.8043 0 32.8043C 0.828427 32.8043 1.5 32.1328 1.5 31.3043L -1.5 31.3043ZM -1.5 0L -1.5 31.3043L 1.5 31.3043L 1.5 0L -1.5 0Z"/>
<path id="path5_stroke" d="M 9.27273 72L 8.43335 73.2432C 8.94054 73.5856 9.60491 73.5856 10.1121 73.2432L 9.27273 72ZM 18.5455 65.7391L 19.3848 66.9823C 19.7979 66.7034 20.0455 66.2375 20.0455 65.7391L 18.5455 65.7391ZM 18.5455 6.26087L 20.0455 6.26087C 20.0455 5.76246 19.7979 5.29661 19.3848 5.01771L 18.5455 6.26087ZM 9.27273 0L 10.1121 -1.24316C 9.60491 -1.58561 8.94054 -1.58561 8.43335 -1.24316L 9.27273 0ZM 0 6.26087L -0.839373 5.01771C -1.25244 5.29661 -1.5 5.76246 -1.5 6.26087L 0 6.26087ZM -0.839373 66.9823L 8.43335 73.2432L 10.1121 70.7568L 0.839373 64.496L -0.839373 66.9823ZM 10.1121 73.2432L 19.3848 66.9823L 17.7061 64.496L 8.43335 70.7568L 10.1121 73.2432ZM 20.0455 65.7391L 20.0455 6.26087L 17.0455 6.26087L 17.0455 65.7391L 20.0455 65.7391ZM 19.3848 5.01771L 10.1121 -1.24316L 8.43335 1.24316L 17.7061 7.50403L 19.3848 5.01771ZM 8.43335 -1.24316L -0.839373 5.01771L 0.839373 7.50403L 10.1121 1.24316L 8.43335 -1.24316ZM -1.5 6.26087L -1.5 65.7391L 1.5 65.7391L 1.5 6.26087L -1.5 6.26087Z"/>
<path id="path6_stroke" d="M 1.5 0C 1.5 -0.828427 0.828427 -1.5 0 -1.5C -0.828427 -1.5 -1.5 -0.828427 -1.5 0L 1.5 0ZM -1.5 59.4783C -1.5 60.3067 -0.828427 60.9783 0 60.9783C 0.828427 60.9783 1.5 60.3067 1.5 59.4783L -1.5 59.4783ZM -1.5 0L -1.5 59.4783L 1.5 59.4783L 1.5 0L -1.5 0Z"/>
</defs>
</svg>
