<svg width="14" height="10" viewBox="0 0 14 10" version="1.1" xmlns="http://www.w3.org/2000/svg" xmlns:xlink="http://www.w3.org/1999/xlink">
<title>Group 662</title>
<desc>Created using Figma</desc>
<g id="Canvas" transform="translate(7 -80)">
<g id="Group 662">
<g id="Rectangle 6">
<mask id="mask0_outline_ins">
<use xlink:href="#path0_fill" fill="white" transform="translate(-7 80)"/>
</mask>
<g mask="url(#mask0_outline_ins)">
<use xlink:href="#path1_stroke_2x" transform="translate(-7 80)" fill="#3562B6"/>
</g>
</g>
<g id="Rectangle 6.1">
<mask id="mask1_outline_ins">
<use xlink:href="#path0_fill" fill="white" transform="translate(-3 83)"/>
</mask>
<g mask="url(#mask1_outline_ins)">
<use xlink:href="#path1_stroke_2x" transform="translate(-3 83)" fill="#3562B6"/>
</g>
</g>
</g>
</g>
<defs>
<path id="path0_fill" d="M 0 0L 10 0L 10 7L 0 7L 0 0Z"/>
<path id="path1_stroke_2x" d="M 0 0L 0 -1L -1 -1L -1 0L 0 0ZM 10 0L 11 0L 11 -1L 10 -1L 10 0ZM 10 7L 10 8L 11 8L 11 7L 10 7ZM 0 7L -1 7L -1 8L 0 8L 0 7ZM 0 1L 10 1L 10 -1L 0 -1L 0 1ZM 9 0L 9 7L 11 7L 11 0L 9 0ZM 10 6L 0 6L 0 8L 10 8L 10 6ZM 1 7L 1 0L -1 0L -1 7L 1 7Z"/>
</defs>
</svg>
