<svg width="655" height="113" viewBox="0 0 655 113" version="1.1" xmlns="http://www.w3.org/2000/svg" xmlns:xlink="http://www.w3.org/1999/xlink">
<title>Group</title>
<desc>Created using Figma</desc>
<g id="Canvas" transform="translate(5 217)">
<g id="Group">
<g id="Vector">
<use xlink:href="#path0_fill" transform="translate(-5 -217)" fill="#F2412F"/>
</g>
</g>
</g>
<defs>
<path id="path0_fill" d="M 326.958 16.3834C 326.683 16.0794 326.43 15.7364 326.122 15.4339C 316.159 5.14313 303.065 0 286.786 0C 270.535 0 257.44 5.14313 247.474 15.4339C 238.267 24.9362 233.378 37.3502 232.65 52.5644C 232.499 53.3378 232.401 54.2301 232.347 55.2127C 232.218 57.9739 232.327 60.7305 232.605 63.4104L 232.583 63.4104C 231.13 59.8096 228.984 56.5564 225.979 53.9292C 225.13 53.0248 220.98 50.3058 218.597 49.8499C 224.251 44.7715 226.801 37.5006 225.778 26.1445C 225.428 11.3155 212 1.78159 197.364 1.8809L 167.137 1.8809L 166.908 1.88692L 166.902 2.32178L 166.902 77.1771L 166.992 105.409L 166.966 105.415L 156.165 77.1922L 126.984 2.65282L 110.734 2.65282L 99.9327 30.3291L 85.6076 66.954L 71.0452 104.255L 70.9776 104.261L 47.6885 70.3126C 55.7525 68.8816 62.2555 65.7743 67.1687 60.9427C 69.5472 58.6209 71.4374 55.9636 72.8993 53.0339C 77.3393 43.67 78.6404 30.5428 72.8993 20.568C 71.2751 17.3043 69.1235 14.4212 66.3859 11.958C 59.3811 5.71944 49.3052 2.61821 36.1281 2.61821L 0 2.61821L 0 113L 22.6415 113L 22.6415 71.2034L 24.7901 71.2034L 53.4372 113L 67.633 113L 76.9681 113L 88.6247 113L 98.7848 85.3237L 139.102 85.3237L 149.151 113L 167.013 112.923L 167.013 112.985L 197.245 112.985C 209.279 112.985 218.799 110.249 225.694 103.152C 229.596 99.119 232.566 94.4167 233.994 88.7304C 234.844 84.6511 235.278 80.1835 235.09 75.7401L 235.095 75.7401C 236.127 79.1558 237.305 82.0825 238.405 84.2252C 239.011 85.4952 239.651 86.6614 240.328 87.7071C 242.337 91.1168 244.71 94.3369 247.503 97.2696C 257.523 107.729 270.616 112.955 286.785 112.955C 302.98 112.955 316.069 107.729 326.065 97.2696C 336.09 86.8449 341.077 73.2242 341.077 56.418C 341.077 42.3519 337.621 30.606 330.81 21.1368L 330.721 21.0044L 331.877 20.9954L 351.707 20.9954L 351.707 112.4L 389.508 112.4L 399.674 84.7233L 439.992 84.7233L 450.034 112.4L 471.06 112.4L 427.874 2.04341L 411.623 2.04341L 371.972 103.516L 371.922 103.528L 371.922 20.9984L 395.522 20.9984L 395.522 2.04492L 328.024 2.04492L 328.024 16.248L 328.014 17.5827C 327.659 17.1749 327.312 16.7746 326.958 16.3834ZM 49.6373 48.5859C 46.9613 51.0461 41.9324 52.2544 34.588 52.2544L 22.6415 52.2544L 22.6415 21.4678L 35.0673 21.4678C 41.9895 21.4678 46.8711 22.8898 49.7154 25.7413C 52.0999 28.0901 53.3004 31.8098 53.3004 36.8942C 53.3004 42.5189 52.0684 46.4011 49.6373 48.5859ZM 106.021 65.3876L 118.803 29.5798L 131.843 65.3876L 106.021 65.3876ZM 634.76 1.87488L 634.76 72.3876C 634.76 78.8413 633.171 83.9047 630.019 87.6229C 626.637 91.4283 621.89 93.3544 615.748 93.3544C 609.639 93.3544 604.892 91.4298 601.593 87.6229C 598.414 83.9664 596.819 78.8714 596.819 72.3876L 596.819 1.87488L 576.577 1.87488L 576.577 19.7931L 576.577 28.525L 576.561 28.519C 575.976 25.4659 575.084 22.5287 573.94 19.8728C 572.325 16.6001 570.177 13.7261 567.433 11.2598C 560.427 5.02426 550.352 1.91701 537.174 1.91701L 501.046 1.91701L 501.046 112.305L 523.686 112.305L 523.686 70.5037L 525.836 70.5037L 554.48 112.303L 578.02 112.303L 548.731 69.6084C 556.797 68.1804 563.304 65.0792 568.22 60.2415C 570.593 57.9257 572.489 55.2684 573.942 52.3327C 575.103 50.2321 575.951 47.8622 576.513 45.3402L 576.579 45.3162L 576.579 52.2514L 576.579 72.4132C 576.579 83.658 580.047 92.9947 586.963 100.433C 594.285 108.286 603.854 112.224 615.748 112.224C 627.641 112.224 637.245 108.286 644.526 100.433C 651.505 92.9586 655 83.6218 655 72.4132L 655 1.87488L 634.76 1.87488ZM 550.683 47.8892C 548.007 50.3464 542.975 51.5517 535.643 51.5517L 523.687 51.5517L 523.687 20.7682L 536.113 20.7682C 543.037 20.7682 547.915 22.1901 550.766 25.0446C 553.146 27.3904 554.34 31.1131 554.34 36.1976C 554.34 41.8222 553.113 45.7014 550.683 47.8892ZM 476.818 112.305L 496.633 112.305L 496.633 92.3733L 476.818 92.3733L 476.818 112.305ZM 197.048 20.2189C 201.934 20.2189 205.985 24.2711 205.985 29.1705L 205.985 33.4906C 205.985 38.4155 201.96 42.4391 197.048 42.4391C 196.841 42.4391 196.627 42.4331 196.422 42.4211L 187.225 42.4211L 187.225 33.4891L 187.225 29.169L 187.225 20.2174C 190.207 20.2189 194.064 20.2189 197.048 20.2189ZM 200.846 60.8644C 208.335 60.8644 214.461 67.0067 214.461 74.5092L 214.461 81.1014C 214.461 88.601 208.335 94.7372 200.846 94.7372C 200.526 94.7372 200.209 94.7191 199.901 94.6966L 187.226 94.6966L 187.226 81.1014L 187.226 74.5092L 187.226 60.8644L 200.821 60.8644L 200.846 60.8644ZM 406.905 64.7797L 419.717 28.9749L 432.726 64.7797L 406.905 64.7797ZM 312.27 82.9267C 305.769 89.6979 297.281 93.0805 286.785 93.0805C 276.311 93.0805 267.823 89.6979 261.349 82.9267C 254.847 76.1614 251.605 67.3242 251.605 56.4195C 251.605 45.3989 254.847 36.5376 261.293 29.8582C 267.772 23.2073 276.26 19.8458 286.785 19.8458C 297.337 19.8458 305.825 23.2073 312.27 29.8582C 318.749 36.5376 321.959 45.3989 321.959 56.4195C 321.96 67.3242 318.751 76.1614 312.27 82.9267Z"/>
</defs>
</svg>
