<svg width="50" height="54" viewBox="0 0 50 54" version="1.1" xmlns="http://www.w3.org/2000/svg" xmlns:xlink="http://www.w3.org/1999/xlink">
<title>&#194;&#171;</title>
<desc>Created using Figma</desc>
<g id="Canvas" transform="translate(-77 -13674)">
<g id="&#194;&#171;">
<use xlink:href="#path0_fill" transform="translate(70 13585)" fill="#FBD81A"/>
</g>
</g>
<defs>
<path id="path0_fill" d="M 28.29 142.928L 7.728 116.294L 28.29 89.66C 28.658 90.028 29.118 90.534 29.67 91.178C 30.222 91.73 30.682 92.19 31.05 92.558C 31.97 93.478 32.43 94.49 32.43 95.594C 32.43 96.698 32.062 97.94 31.326 99.32L 20.7 116.294L 31.326 133.268C 32.062 134.648 32.43 135.752 32.43 136.58C 32.43 137.408 32.246 138.144 31.878 138.788C 31.602 139.432 31.326 139.892 31.05 140.168C 30.866 140.444 30.36 140.95 29.532 141.686C 28.796 142.422 28.382 142.836 28.29 142.928ZM 52.716 142.928L 32.154 116.294L 52.716 89.66C 53.084 90.028 53.544 90.534 54.096 91.178C 54.648 91.73 55.108 92.19 55.476 92.558C 56.396 93.478 56.856 94.49 56.856 95.594C 56.856 96.698 56.488 97.94 55.752 99.32L 45.126 116.294L 55.752 133.268C 56.488 134.648 56.856 135.752 56.856 136.58C 56.856 137.408 56.672 138.144 56.304 138.788C 56.028 139.432 55.752 139.892 55.476 140.168C 55.292 140.444 54.786 140.95 53.958 141.686C 53.222 142.422 52.808 142.836 52.716 142.928Z"/>
</defs>
</svg>
