<svg width="40" height="45" viewBox="0 0 40 45" version="1.1" xmlns="http://www.w3.org/2000/svg" xmlns:xlink="http://www.w3.org/1999/xlink">
<title>&#194;&#171;</title>
<desc>Created using Figma</desc>
<g id="Canvas" transform="translate(-77 -2030)">
<g id="&#194;&#171;">
<use xlink:href="#path0_fill" transform="translate(70 1977)" fill="#FBD81A"/>
</g>
</g>
<defs>
<path id="path0_fill" d="M 20.52 53.864L 26.784 53.864C 28.152 53.864 28.548 54.476 27.972 55.7L 17.712 75.896L 27.648 96.092C 28.224 97.316 27.828 97.928 26.46 97.928L 19.98 97.928C 18.54 97.928 17.568 97.316 17.064 96.092L 7.884 77.84C 7.668 77.264 7.56 76.688 7.56 76.112C 7.56 75.464 7.704 74.816 7.992 74.168L 17.496 55.7C 18.072 54.476 19.08 53.864 20.52 53.864ZM 38.448 53.864L 44.712 53.864C 45.648 53.864 46.116 54.152 46.116 54.728C 46.116 55.016 46.044 55.34 45.9 55.7L 35.64 75.896L 45.576 96.092C 46.152 97.316 45.756 97.928 44.388 97.928L 37.908 97.928C 36.468 97.928 35.496 97.316 34.992 96.092L 25.812 77.84C 25.596 77.264 25.488 76.688 25.488 76.112C 25.488 75.464 25.632 74.816 25.92 74.168L 35.424 55.7C 36 54.476 37.008 53.864 38.448 53.864Z"/>
</defs>
</svg>
