<svg width="61" height="54" viewBox="0 0 61 54" version="1.1" xmlns="http://www.w3.org/2000/svg" xmlns:xlink="http://www.w3.org/1999/xlink">
<title>&#194;&#171;</title>
<desc>Created using Figma</desc>
<g id="Canvas" transform="translate(-69 -8533)">
<g id="&#194;&#171;">
<use xlink:href="#path0_fill" transform="translate(60 8416)" fill="#F2412F"/>
</g>
</g>
<defs>
<path id="path0_fill" d="M 41.3789 147.05C 40.5088 146.18 39.8965 145.487 39.542 144.972C 39.1875 144.456 39.0103 144.005 39.0103 143.618C 39.0103 143.231 39.4453 142.571 40.3154 141.636C 41.2178 140.669 42.7808 139.171 45.0044 137.141C 47.2603 135.11 49.1777 133.37 50.7568 131.92C 52.3359 130.438 54.4951 128.343 57.2344 125.636C 63.0029 119.932 66 117.08 66.2256 117.08C 66.4834 117.08 67.1118 117.531 68.1108 118.433C 69.1421 119.303 69.6577 119.916 69.6577 120.27C 69.6577 120.625 67.5791 124.459 63.4219 131.775C 59.2646 139.09 57.186 143.086 57.186 143.763C 57.186 144.44 59.2646 148.404 63.4219 155.655C 67.5791 162.906 69.6577 166.789 69.6577 167.305C 69.6577 167.82 69.1582 168.481 68.1592 169.287C 67.1602 170.092 66.5317 170.495 66.2739 170.495C 66.0161 170.495 65.1138 169.754 63.5669 168.271C 62.0522 166.757 59.9253 164.646 57.186 161.939C 54.4468 159.2 52.3843 157.202 50.9985 155.945C 49.645 154.688 48.2593 153.431 46.8413 152.174C 45.4556 150.885 44.4082 149.918 43.6992 149.274C 43.0225 148.629 42.249 147.888 41.3789 147.05ZM 11.6982 147.05C 10.8281 146.18 10.2158 145.487 9.86133 144.972C 9.50684 144.456 9.32959 144.005 9.32959 143.618C 9.32959 143.231 9.76465 142.571 10.6348 141.636C 11.5371 140.669 13.1001 139.171 15.3237 137.141C 17.5796 135.11 19.4971 133.37 21.0762 131.92C 22.6553 130.438 24.8145 128.343 27.5537 125.636C 33.3223 119.932 36.3193 117.08 36.5449 117.08C 36.8027 117.08 37.4312 117.531 38.4302 118.433C 39.4614 119.303 39.9771 119.916 39.9771 120.27C 39.9771 120.625 37.8984 124.459 33.7412 131.775C 29.584 139.09 27.5054 143.086 27.5054 143.763C 27.5054 144.44 29.584 148.404 33.7412 155.655C 37.8984 162.906 39.9771 166.789 39.9771 167.305C 39.9771 167.82 39.4775 168.481 38.4785 169.287C 37.4795 170.092 36.8511 170.495 36.5933 170.495C 36.3355 170.495 35.4331 169.754 33.8862 168.271C 32.3716 166.757 30.2446 164.646 27.5054 161.939C 24.7661 159.2 22.7036 157.202 21.3179 155.945C 19.9644 154.688 18.5786 153.431 17.1606 152.174C 15.7749 150.885 14.7275 149.918 14.0186 149.274C 13.3418 148.629 12.5684 147.888 11.6982 147.05Z"/>
</defs>
</svg>
