<svg width="50" height="37" viewBox="0 0 50 37" version="1.1" xmlns="http://www.w3.org/2000/svg" xmlns:xlink="http://www.w3.org/1999/xlink">
<title>&#194;&#171;</title>
<desc>Created using Figma</desc>
<g id="Canvas" transform="translate(-77 -15996)">
<g id="&#194;&#171;">
<use xlink:href="#path0_fill" transform="translate(70 15948)" fill="#B3BFD8"/>
</g>
</g>
<defs>
<path id="path0_fill" d="M 7.27734 66.8037L 7.20996 66.8037C 6.98535 66.3994 6.98535 66.0176 7.20996 65.6582L 7.27734 65.6582L 27.9639 48.8799C 28.4131 48.2061 29.1094 48.2959 30.0527 49.1494C 30.9961 49.958 31.4229 50.4971 31.333 50.7666L 30.9287 51.9795L 20.8213 66.2646L 30.9287 80.4824L 31.333 81.6953C 31.5576 82.3242 30.749 83.0879 28.9072 83.9863C 28.5928 84.166 28.2783 84.0537 27.9639 83.6494L 7.27734 66.8037ZM 32.0742 66.8037L 32.0068 66.8037C 31.7822 66.3994 31.7822 66.0176 32.0068 65.6582L 32.0742 65.6582L 52.7607 48.8799C 53.21 48.2061 53.9062 48.2959 54.8496 49.1494C 55.793 49.958 56.2197 50.4971 56.1299 50.7666L 55.7256 51.9795L 45.6182 66.2646L 55.7256 80.4824L 56.1299 81.6953C 56.3545 82.3242 55.5459 83.0879 53.7041 83.9863C 53.3896 84.166 53.0752 84.0537 52.7607 83.6494L 32.0742 66.8037Z"/>
</defs>
</svg>
