<svg width="57" height="49" viewBox="0 0 57 49" version="1.1" xmlns="http://www.w3.org/2000/svg" xmlns:xlink="http://www.w3.org/1999/xlink">
<title>&#194;&#171;</title>
<desc>Created using Figma</desc>
<g id="Canvas" transform="translate(-74 -15141)">
<g id="&#194;&#171;">
<use xlink:href="#path0_fill" transform="translate(70 15086)" fill="#3562B6"/>
</g>
</g>
<defs>
<path id="path0_fill" d="M 4.85156 81.6562L 17.9238 103.623L 33.0176 103.623L 21.6973 80.7129C 21.4277 79.9043 21.4277 79.1855 21.6973 78.5566L 33.4219 55.7812L 19.002 55.7812L 4.85156 78.0176C 4.04297 79.1855 3.99805 80.3086 4.7168 81.3867C 4.80664 81.4766 4.85156 81.5664 4.85156 81.6562ZM 31.5352 81.6562L 44.2031 103.623L 59.7012 103.623L 48.3809 80.7129C 48.1113 79.9043 48.1113 79.1855 48.3809 78.5566L 60.1055 55.7812L 45.2812 55.7812L 31.5352 78.0176C 30.7266 79.1855 30.6816 80.3086 31.4004 81.3867C 31.4902 81.4766 31.5352 81.5664 31.5352 81.6562Z"/>
</defs>
</svg>
