<svg width="1920" height="137" viewBox="0 0 1920 137" version="1.1" xmlns="http://www.w3.org/2000/svg" xmlns:xlink="http://www.w3.org/1999/xlink">
<title>Vector</title>
<desc>Created using Figma</desc>
<g id="Canvas" transform="translate(420 -4998)">
<g id="Vector">
<use xlink:href="#path0_stroke" transform="translate(-548 5000.69)" fill="#B4C1DA"/>
</g>
</g>
<defs>
<path id="path0_stroke" d="M 364 55.3143L 363.798 57.8061L 364 55.3143ZM 662 125.314L 662.298 122.832L 662 125.314ZM 925 50.3138L 923.976 48.0331L 925 50.3138ZM 1280 34.3149L 1279.03 36.619L 1280 34.3149ZM 1510 125.314L 1509.88 122.817L 1510 125.314ZM 1952 7.31389L 1951.57 9.7772L 1952 7.31389ZM 0.737 133.703C 1.50254 133.466 2.28367 133.221 3.06793 132.97L 1.54431 128.208C 0.771936 128.455 0.0156228 128.693 -0.737 128.925L 0.737 133.703ZM 7.8264 131.4C 9.35962 130.879 10.9332 130.333 12.5312 129.767L 10.8625 125.054C 9.2786 125.615 7.73624 126.15 6.22003 126.665L 7.8264 131.4ZM 17.1773 128.095C 18.7046 127.537 20.2636 126.96 21.8452 126.368L 20.0937 121.685C 18.52 122.274 16.9789 122.844 15.4615 123.398L 17.1773 128.095ZM 26.4958 124.613C 28.0049 124.039 29.5394 123.451 31.0944 122.852L 29.2977 118.186C 27.7467 118.783 26.2216 119.368 24.7178 119.94L 26.4958 124.613ZM 35.7422 121.055C 37.2499 120.469 38.7788 119.874 40.3269 119.27L 38.51 114.612C 36.9632 115.215 35.4381 115.809 33.9328 116.394L 35.7422 121.055ZM 44.9395 117.469C 46.4571 116.876 47.9928 116.275 49.5469 115.668L 47.7273 111.011C 46.1727 111.618 44.6367 112.219 43.1194 112.812L 44.9395 117.469ZM 54.1387 113.876C 55.6631 113.282 57.2034 112.683 58.7611 112.078L 56.952 107.417C 55.3923 108.022 53.8487 108.623 52.3229 109.217L 54.1387 113.876ZM 63.3449 110.304C 64.8743 109.714 66.4175 109.12 67.9773 108.523L 66.1887 103.854C 64.6258 104.452 63.0769 105.048 61.545 105.639L 63.3449 110.304ZM 72.5642 106.773C 74.0972 106.191 75.6422 105.607 77.2031 105.02L 75.443 100.34C 73.878 100.928 72.3254 101.515 70.7889 102.099L 72.5642 106.773ZM 81.8024 103.299C 83.338 102.728 84.8842 102.156 86.4457 101.582L 84.7206 96.8887C 83.1543 97.4645 81.5989 98.0399 80.059 98.6127L 81.8024 103.299ZM 91.0649 99.8946C 92.6025 99.3366 94.1495 98.779 95.7112 98.2202L 94.0267 93.5125C 92.4595 94.0733 90.902 94.6347 89.3594 95.1944L 91.0649 99.8946ZM 100.357 96.5702C 101.896 96.0276 103.443 95.4862 105.005 94.9442L 103.366 90.2206C 101.798 90.7646 100.239 91.3101 98.6942 91.8547L 100.357 96.5702ZM 109.682 93.3348C 111.222 92.8091 112.77 92.2853 114.332 91.7616L 112.742 87.021C 111.174 87.5469 109.613 88.075 108.067 88.6028L 109.682 93.3348ZM 119.043 90.1962C 120.585 89.6887 122.133 89.1837 123.695 88.6795L 122.159 83.9214C 120.59 84.4279 119.028 84.9372 117.48 85.4468L 119.043 90.1962ZM 128.406 87.1736C 129.962 86.6813 131.523 86.1922 133.098 85.7044L 131.618 80.9283C 130.036 81.4185 128.46 81.912 126.898 82.4065L 128.406 87.1736ZM 137.807 84.2612C 139.378 83.7852 140.954 83.3128 142.543 82.8422L 141.123 78.048C 139.526 78.521 137.935 78.9979 136.357 79.4762L 137.807 84.2612ZM 147.25 81.4643C 148.829 81.0076 150.413 80.5551 152.009 80.1047L 150.652 75.2925C 149.047 75.7452 147.447 76.2022 145.86 76.6612L 147.25 81.4643ZM 156.736 78.7882C 158.314 78.3544 159.896 77.9251 161.491 77.4984L 160.199 72.6683C 158.596 73.0973 156.997 73.531 155.411 73.967L 156.736 78.7882ZM 166.268 76.2379C 167.845 75.8276 169.425 75.4221 171.018 75.0196L 169.793 70.172C 168.192 70.5767 166.594 70.9865 165.009 71.399L 166.268 76.2379ZM 175.816 73.8255C 177.401 73.4368 178.99 73.0534 180.591 72.6732L 179.436 67.8085C 177.826 68.1908 176.22 68.5785 174.625 68.9692L 175.816 73.8255ZM 185.382 71.554C 186.985 71.1856 188.592 70.8227 190.21 70.4636L 189.127 65.5824C 187.499 65.9435 185.875 66.3105 184.262 66.681L 185.382 71.554ZM 194.994 69.4207C 196.597 69.0775 198.203 68.74 199.82 68.4066L 198.811 63.5096C 197.184 63.845 195.56 64.1863 193.947 64.5315L 194.994 69.4207ZM 204.652 67.4298C 206.253 67.1127 207.856 66.8015 209.469 66.4947L 208.536 61.5826C 206.912 61.8913 205.291 62.2062 203.681 62.5252L 204.652 67.4298ZM 214.327 65.5909C 215.934 65.2983 217.544 65.0119 219.164 64.7302L 218.308 59.8041C 216.677 60.0875 215.049 60.3774 213.431 60.6717L 214.327 65.5909ZM 224.01 63.9075C 225.633 63.6386 227.258 63.3761 228.894 63.1187L 228.116 58.1795C 226.47 58.4385 224.826 58.7042 223.193 58.9748L 224.01 63.9075ZM 233.738 62.3763C 235.357 62.1349 236.977 61.9 238.608 61.6704L 237.91 56.7192C 236.269 56.9503 234.629 57.1881 233 57.431L 233.738 62.3763ZM 243.51 61.0009C 245.124 60.7872 246.739 60.5801 248.365 60.3785L 247.749 55.4165C 246.113 55.6194 244.478 55.8291 242.854 56.0441L 243.51 61.0009ZM 253.254 59.7929C 254.887 59.6042 256.52 59.4224 258.165 59.2464L 257.632 54.2748C 255.978 54.4519 254.324 54.6361 252.68 54.8259L 253.254 59.7929ZM 263.037 58.7457C 264.668 58.5849 266.299 58.4311 267.942 58.2833L 267.494 53.3034C 265.841 53.4521 264.188 53.608 262.546 53.7698L 263.037 58.7457ZM 272.86 57.8619C 274.485 57.7296 276.109 57.6043 277.745 57.4853L 277.382 52.4985C 275.736 52.6183 274.09 52.7453 272.455 52.8783L 272.86 57.8619ZM 282.661 57.1486C 284.3 57.0435 285.938 56.9454 287.587 56.8539L 287.31 51.8616C 285.65 51.9537 283.99 52.0531 282.341 52.1589L 282.661 57.1486ZM 292.48 56.6037C 294.117 56.527 295.755 56.4574 297.402 56.3946L 297.212 51.3982C 295.553 51.4615 293.894 51.532 292.246 51.6091L 292.48 56.6037ZM 302.337 56.2282C 303.966 56.1804 305.594 56.1396 307.232 56.1058L 307.129 51.1069C 305.48 51.1409 303.83 51.1822 302.19 51.2303L 302.337 56.2282ZM 312.157 56.0257C 313.801 56.0062 315.445 55.9939 317.099 55.9889L 317.084 50.9889C 315.419 50.994 313.753 51.0065 312.097 51.0261L 312.157 56.0257ZM 321.993 55.9954C 323.631 56.0048 325.268 56.0213 326.914 56.0452L 326.987 51.0458C 325.329 51.0217 323.67 51.0049 322.022 50.9955L 321.993 55.9954ZM 331.863 56.1391C 333.49 56.1772 335.116 56.2224 336.753 56.2751L 336.914 51.2777C 335.266 51.2246 333.618 51.1788 331.98 51.1405L 331.863 56.1391ZM 341.666 56.455C 343.31 56.5225 344.952 56.5972 346.605 56.6798L 346.854 51.686C 345.191 51.6029 343.526 51.5272 341.871 51.4592L 341.666 56.455ZM 351.501 56.9461C 353.132 57.042 354.762 57.145 356.402 57.256L 356.739 52.2674C 355.089 52.1557 353.437 52.0513 351.795 51.9547L 351.501 56.9461ZM 361.326 57.6112C 362.15 57.6743 362.972 57.7391 363.798 57.8061L 364.202 52.8224C 363.371 52.755 362.538 52.6894 361.708 52.6258L 361.326 57.6112ZM 363.798 57.8061C 364.594 57.8706 365.388 57.9398 366.196 58.015L 366.659 53.0366C 365.837 52.96 365.013 52.8882 364.202 52.8224L 363.798 57.8061ZM 371.087 58.5259C 372.681 58.7097 374.284 58.9107 375.92 59.1311L 376.587 54.1759C 374.929 53.9525 373.278 53.7455 371.66 53.5588L 371.087 58.5259ZM 380.769 59.8273C 382.38 60.0722 383.999 60.3316 385.646 60.6076L 386.472 55.6764C 384.808 55.3974 383.151 55.1321 381.521 54.8841L 380.769 59.8273ZM 390.451 61.4465C 392.051 61.7367 393.659 62.0387 395.289 62.3547L 396.24 57.446C 394.596 57.1273 392.958 56.8198 391.343 56.5268L 390.451 61.4465ZM 400.115 63.3173C 401.705 63.6432 403.302 63.979 404.918 64.3264L 405.969 59.4382C 404.342 59.0883 402.721 58.7476 401.119 58.4192L 400.115 63.3173ZM 409.754 65.3886C 411.335 65.7432 412.923 66.1059 414.527 66.4785L 415.659 61.6083C 414.046 61.2335 412.439 60.8665 410.847 60.5097L 409.754 65.3886ZM 419.339 67.6148C 420.922 67.9943 422.511 68.3809 424.114 68.7759L 425.31 63.9212C 423.7 63.5244 422.096 63.1341 420.505 62.7526L 419.339 67.6148ZM 428.904 69.9713C 430.488 70.3713 432.078 70.7772 433.679 71.1902L 434.928 66.3487C 433.321 65.9342 431.719 65.5251 430.128 65.1235L 428.904 69.9713ZM 438.453 72.4336C 440.036 72.8499 441.625 73.2712 443.224 73.6985L 444.515 68.868C 442.911 68.4394 441.313 68.0155 439.724 67.5978L 438.453 72.4336ZM 447.986 74.9804C 449.569 75.4096 451.157 75.843 452.754 76.2814L 454.077 71.4598C 452.477 71.0204 450.882 70.5849 449.294 70.1546L 447.986 74.9804ZM 457.507 77.5938C 459.089 78.0331 460.676 78.4757 462.27 78.9224L 463.619 74.1079C 462.022 73.6605 460.43 73.2161 458.844 72.776L 457.507 77.5938ZM 467.018 80.2586C 468.599 80.7053 470.185 81.1548 471.776 81.6075L 473.144 76.7982C 471.551 76.345 469.961 75.8943 468.377 75.4469L 467.018 80.2586ZM 476.522 82.9611C 478.103 83.4131 479.687 83.8673 481.277 84.3238L 482.657 79.5181C 481.066 79.0612 479.479 78.6062 477.897 78.1538L 476.522 82.9611ZM 486.023 85.6892C 487.603 86.1445 489.186 86.6015 490.774 87.06L 492.161 82.2563C 490.573 81.7976 488.988 81.3402 487.407 80.8847L 486.023 85.6892ZM 495.522 88.4319C 497.102 88.8887 498.685 89.3466 500.272 89.8055L 501.661 85.0023C 500.074 84.5435 498.491 84.0855 496.91 83.6286L 495.522 88.4319ZM 505.022 91.1787C 506.603 91.6355 508.187 92.0928 509.773 92.5503L 511.159 87.7462C 509.573 87.2889 507.991 86.8318 506.41 86.3752L 505.022 91.1787ZM 514.527 93.92C 516.109 94.3751 517.693 94.8303 519.28 95.285L 520.657 90.4786C 519.073 90.0243 517.49 89.5697 515.909 89.1149L 514.527 93.92ZM 524.038 96.6463C 525.622 97.0982 527.208 97.5498 528.795 98.0003L 530.16 93.1903C 528.575 92.7404 526.992 92.2898 525.41 91.8383L 524.038 96.6463ZM 533.558 99.3483C 535.144 99.7956 536.733 100.242 538.321 100.687L 539.669 95.8721C 538.083 95.428 536.5 94.9828 534.916 94.5361L 533.558 99.3483ZM 543.09 102.017C 544.679 102.458 546.27 102.898 547.86 103.336L 549.187 98.5148C 547.599 98.0781 546.014 97.6397 544.428 97.1992L 543.09 102.017ZM 552.635 104.643C 554.227 105.076 555.822 105.508 557.415 105.937L 558.715 101.109C 557.126 100.681 555.538 100.251 553.949 99.8183L 552.635 104.643ZM 562.197 107.217C 563.794 107.641 565.392 108.063 566.988 108.482L 568.256 103.645C 566.665 103.228 565.074 102.808 563.482 102.384L 562.197 107.217ZM 571.779 109.729C 573.38 110.142 574.982 110.553 576.581 110.959L 577.812 106.113C 576.218 105.708 574.625 105.3 573.03 104.888L 571.779 109.729ZM 581.383 112.169C 582.988 112.569 584.594 112.966 586.197 113.358L 587.385 108.502C 585.789 108.111 584.193 107.717 582.594 107.317L 581.383 112.169ZM 591.011 114.525C 592.62 114.911 594.231 115.292 595.837 115.668L 596.977 110.8C 595.378 110.426 593.78 110.047 592.177 109.663L 591.011 114.525ZM 600.666 116.786C 602.279 117.154 603.894 117.519 605.504 117.876L 606.589 112.995C 604.987 112.639 603.386 112.278 601.78 111.911L 600.666 116.786ZM 610.349 118.938C 611.967 119.287 613.587 119.631 615.2 119.968L 616.223 115.074C 614.618 114.739 613.014 114.398 611.404 114.051L 610.349 118.938ZM 620.062 120.967C 621.686 121.294 623.311 121.616 624.928 121.93L 625.88 117.021C 624.272 116.709 622.665 116.391 621.051 116.066L 620.062 120.967ZM 629.807 122.856C 631.437 123.159 633.068 123.455 634.689 123.743L 635.561 118.819C 633.951 118.534 632.34 118.242 630.721 117.941L 629.807 122.856ZM 639.587 124.589C 641.222 124.863 642.859 125.131 644.486 125.389L 645.268 120.45C 643.654 120.194 642.04 119.931 640.415 119.658L 639.587 124.589ZM 649.401 126.142C 651.043 126.386 652.687 126.621 654.319 126.845L 655 121.892C 653.381 121.669 651.764 121.438 650.134 121.196L 649.401 126.142ZM 659.25 127.495C 660.068 127.598 660.887 127.698 661.702 127.796L 662.298 122.832C 661.491 122.735 660.685 122.636 659.875 122.534L 659.25 127.495ZM 661.702 127.796C 662.538 127.896 663.376 127.993 664.208 128.086L 664.76 123.116C 663.939 123.025 663.122 122.931 662.298 122.832L 661.702 127.796ZM 669.183 128.594C 670.851 128.75 672.523 128.89 674.175 129.014L 674.55 124.028C 672.92 123.906 671.293 123.769 669.647 123.616L 669.183 128.594ZM 679.16 129.343C 680.834 129.438 682.513 129.517 684.171 129.581L 684.362 124.584C 682.726 124.522 681.095 124.445 679.443 124.351L 679.16 129.343ZM 689.158 129.725C 690.836 129.758 692.519 129.775 694.182 129.776L 694.185 124.776C 692.546 124.775 690.91 124.758 689.256 124.726L 689.158 129.725ZM 699.178 129.732C 700.852 129.701 702.532 129.655 704.192 129.593L 704.005 124.596C 702.369 124.657 700.737 124.703 699.087 124.733L 699.178 129.732ZM 709.191 129.358C 710.859 129.264 712.531 129.154 714.185 129.029L 713.809 124.044C 712.179 124.167 710.553 124.274 708.909 124.366L 709.191 129.358ZM 719.179 128.605C 720.838 128.448 722.502 128.275 724.149 128.088L 723.585 123.12C 721.962 123.304 720.344 123.473 718.708 123.627L 719.179 128.605ZM 729.127 127.477C 730.78 127.258 732.438 127.023 734.079 126.775L 733.333 121.831C 731.714 122.076 730.101 122.304 728.471 122.52L 729.127 127.477ZM 739.023 125.983C 740.667 125.704 742.316 125.409 743.949 125.103L 743.027 120.189C 741.415 120.491 739.809 120.778 738.187 121.053L 739.023 125.983ZM 748.855 124.138C 750.488 123.802 752.126 123.45 753.749 123.088L 752.659 118.208C 751.056 118.566 749.459 118.909 747.848 119.24L 748.855 124.138ZM 758.619 121.958C 760.237 121.569 761.861 121.164 763.471 120.75L 762.225 115.908C 760.633 116.317 759.048 116.712 757.45 117.097L 758.619 121.958ZM 768.302 119.467C 769.905 119.028 771.514 118.574 773.111 118.111L 771.72 113.309C 770.141 113.766 768.567 114.21 766.981 114.644L 768.302 119.467ZM 777.899 116.688C 779.488 116.203 781.082 115.704 782.666 115.198L 781.142 110.436C 779.574 110.937 778.012 111.425 776.44 111.905L 777.899 116.688ZM 787.411 113.646C 788.984 113.121 790.563 112.582 792.133 112.036L 790.491 107.314C 788.935 107.855 787.385 108.383 785.826 108.904L 787.411 113.646ZM 796.839 110.369C 798.398 109.807 799.961 109.233 801.517 108.653L 799.77 103.968C 798.226 104.544 796.688 105.108 795.143 105.666L 796.839 110.369ZM 806.181 106.886C 807.728 106.291 809.279 105.686 810.824 105.075L 808.985 100.425C 807.45 101.032 805.921 101.629 804.387 102.219L 806.181 106.886ZM 815.447 103.222C 816.983 102.599 818.523 101.966 820.059 101.329L 818.141 96.711C 816.615 97.3451 815.093 97.97 813.567 98.5891L 815.447 103.222ZM 824.645 99.4036C 826.169 98.757 827.698 98.1021 829.224 97.4426L 827.241 92.8529C 825.722 93.5092 824.209 94.1574 822.693 94.8005L 824.645 99.4036ZM 833.782 95.4555C 835.296 94.7901 836.814 94.1176 838.33 93.4409L 836.293 88.8749C 834.783 89.5488 833.277 90.2158 831.77 90.8782L 833.782 95.4555ZM 842.869 91.4021C 844.373 90.7219 845.882 90.0357 847.39 89.3459L 845.31 84.7989C 843.807 85.4866 842.308 86.1684 840.809 86.8461L 842.869 91.4021ZM 851.914 87.2665C 853.41 86.5753 854.911 85.8791 856.412 85.1799L 854.301 80.6473C 852.803 81.345 851.31 82.0379 849.817 82.7273L 851.914 87.2665ZM 860.916 83.075C 862.409 82.3749 863.907 81.6708 865.406 80.964L 863.275 76.4412C 861.777 77.147 860.284 77.849 858.794 78.5479L 860.916 83.075ZM 869.896 78.8438C 871.387 78.138 872.883 77.4291 874.382 76.7181L 872.239 72.2006C 870.741 72.9112 869.247 73.619 867.757 74.3242L 869.896 78.8438ZM 878.861 74.5921C 880.353 73.8836 881.848 73.1731 883.348 72.4608L 881.203 67.9443C 879.703 68.6567 878.207 69.3672 876.716 70.0756L 878.861 74.5921ZM 887.821 70.3378C 889.313 69.6298 890.81 68.9207 892.311 68.2101L 890.173 63.6906C 888.67 64.4017 887.171 65.1119 885.678 65.8202L 887.821 70.3378ZM 896.783 66.0978C 898.276 65.3939 899.772 64.6898 901.274 63.9847L 899.15 59.4584C 897.646 60.1646 896.145 60.8706 894.651 61.5753L 896.783 66.0978ZM 905.755 61.8877C 907.249 61.1905 908.747 60.4939 910.252 59.7966L 908.149 55.2601C 906.642 55.9589 905.138 56.6583 903.641 57.3567L 905.755 61.8877ZM 914.745 57.7222C 916.241 57.034 917.742 56.347 919.249 55.6598L 917.175 51.1101C 915.664 51.7992 914.156 52.4897 912.656 53.1795L 914.745 57.7222ZM 923.757 53.615C 924.512 53.2744 925.266 52.9346 926.024 52.5945L 923.976 48.0331C 923.216 48.3743 922.457 48.7162 921.7 49.0577L 923.757 53.615ZM 926.024 52.5945C 926.778 52.2561 927.531 51.9188 928.285 51.5816L 926.245 47.0167C 925.489 47.3548 924.732 47.6939 923.976 48.0331L 926.024 52.5945ZM 932.817 49.5666C 934.329 48.8979 935.84 48.233 937.356 47.57L 935.353 42.9889C 933.832 43.6541 932.311 44.3232 930.795 44.9939L 932.817 49.5666ZM 941.903 45.5942C 943.42 44.9391 944.937 44.2885 946.459 43.6403L 944.5 39.0401C 942.972 39.6908 941.444 40.3464 939.921 41.0038L 941.903 45.5942ZM 951.023 41.711C 952.547 41.0719 954.069 40.4382 955.598 39.8072L 953.691 35.1853C 952.155 35.8191 950.619 36.4585 949.089 37.1002L 951.023 41.711ZM 960.182 37.9318C 961.713 37.3112 963.243 36.6966 964.779 36.0853L 962.931 31.4395C 961.387 32.0539 959.842 32.6746 958.304 33.2982L 960.182 37.9318ZM 969.386 34.2711C 970.924 33.6714 972.462 33.0784 974.006 32.4892L 972.225 27.8175C 970.671 28.41 969.117 29.0096 967.57 29.6125L 969.386 34.2711ZM 978.637 30.7435C 980.184 30.1671 981.729 29.5981 983.283 29.0334L 981.575 24.3341C 980.011 24.9024 978.447 25.4783 976.891 26.0582L 978.637 30.7435ZM 987.938 27.3634C 989.494 26.8126 991.049 26.2699 992.612 25.732L 990.985 21.0041C 989.411 21.5457 987.836 22.0956 986.27 22.6499L 987.938 27.3634ZM 997.293 24.1449C 998.859 23.6221 1000.42 23.1081 1002 22.5993L 1000.46 17.842C 998.872 18.3545 997.286 18.8759 995.71 19.4023L 997.293 24.1449ZM 1006.7 21.102C 1008.28 20.6095 1009.85 20.1264 1011.43 19.649L 1009.99 14.8619C 1008.4 15.343 1006.8 15.8336 1005.21 16.3297L 1006.7 21.102ZM 1016.17 18.2483C 1017.75 17.7885 1019.34 17.3385 1020.93 16.8949L 1019.59 12.0783C 1017.98 12.5256 1016.37 12.9829 1014.78 13.4463L 1016.17 18.2483ZM 1025.69 15.5969C 1027.28 15.172 1028.87 14.7574 1030.48 14.3497L 1029.24 9.50416C 1027.63 9.91544 1026.01 10.3372 1024.4 10.7657L 1025.69 15.5969ZM 1035.27 13.1603C 1036.87 12.7724 1038.47 12.3952 1040.08 12.0254L 1038.96 7.15215C 1037.33 7.52535 1035.7 7.90946 1034.09 8.30076L 1035.27 13.1603ZM 1044.89 10.9504C 1046.5 10.6014 1048.11 10.2634 1049.73 9.93337L 1048.73 5.03413C 1047.09 5.3673 1045.46 5.71173 1043.83 6.06393L 1044.89 10.9504ZM 1054.57 8.97805C 1056.19 8.66973 1057.8 8.37262 1059.43 8.08409L 1058.55 3.161C 1056.91 3.45239 1055.26 3.75532 1053.63 4.06658L 1054.57 8.97805ZM 1064.29 7.25319C 1065.91 6.98711 1067.53 6.73245 1069.17 6.48689L 1068.42 1.54253C 1066.77 1.7906 1065.12 2.05041 1063.48 2.31911L 1064.29 7.25319ZM 1074.06 5.78462C 1075.68 5.56213 1077.31 5.35119 1078.94 5.14988L 1078.33 0.187269C 1076.68 0.390694 1075.02 0.605995 1073.38 0.830727L 1074.06 5.78462ZM 1083.86 4.57988C 1085.49 4.40208 1087.11 4.23591 1088.75 4.07987L 1088.28 -0.897657C 1086.62 -0.739933 1084.96 -0.570261 1083.31 -0.390647L 1083.86 4.57988ZM 1093.68 3.64563C 1095.31 3.5132 1096.94 3.39242 1098.59 3.28225L 1098.25 -1.70656C 1096.59 -1.59518 1094.93 -1.47182 1093.28 -1.33801L 1093.68 3.64563ZM 1103.52 2.98648C 1105.16 2.89983 1106.79 2.82487 1108.44 2.761L 1108.25 -2.23525C 1106.58 -2.17067 1104.91 -2.09408 1103.26 -2.00655L 1103.52 2.98648ZM 1113.38 2.60489C 1115.02 2.56452 1116.66 2.53582 1118.31 2.51869L 1118.26 -2.48104C 1116.59 -2.4637 1114.91 -2.43437 1113.25 -2.39361L 1113.38 2.60489ZM 1123.24 2.50252C 1124.88 2.50876 1126.53 2.52661 1128.19 2.5565L 1128.28 -2.44269C 1126.6 -2.47287 1124.92 -2.49111 1123.26 -2.49745L 1123.24 2.50252ZM 1133.1 2.67965C 1134.75 2.73249 1136.39 2.79681 1138.05 2.87351L 1138.28 -2.12115C 1136.6 -2.19864 1134.92 -2.26434 1133.26 -2.31778L 1133.1 2.67965ZM 1142.96 3.13531C 1144.6 3.23418 1146.23 3.3443 1147.89 3.46704L 1148.26 -1.5192C 1146.59 -1.64321 1144.92 -1.75567 1143.26 -1.85562L 1142.96 3.13531ZM 1152.81 3.86742C 1154.44 4.01148 1156.07 4.16651 1157.71 4.33434L 1158.22 -0.639747C 1156.56 -0.8093 1154.9 -0.967593 1153.25 -1.11319L 1152.81 3.86742ZM 1162.64 4.87296C 1164.26 5.06111 1165.88 5.25992 1167.51 5.47164L 1168.15 0.513237C 1166.51 0.299368 1164.86 0.0964434 1163.22 -0.0936652L 1162.64 4.87296ZM 1172.41 6.14138C 1174.04 6.37434 1175.66 6.61785 1177.29 6.87457L 1178.07 1.93513C 1176.42 1.67586 1174.76 1.42741 1173.12 1.19208L 1172.41 6.14138ZM 1182.15 7.67096C 1183.78 7.94862 1185.41 8.23674 1187.05 8.53835L 1187.95 3.6209C 1186.29 3.31636 1184.64 3.02254 1182.99 2.74212L 1182.15 7.67096ZM 1191.86 9.45635C 1193.47 9.77448 1195.09 10.1027 1196.71 10.4444L 1197.74 5.55151C 1196.1 5.2066 1194.46 4.87203 1192.83 4.55082L 1191.86 9.45635ZM 1201.54 11.4921C 1203.13 11.8488 1204.73 12.2151 1206.33 12.5948L 1207.48 7.72891C 1205.86 7.34572 1204.24 6.97249 1202.63 6.6125L 1201.54 11.4921ZM 1211.16 13.767C 1212.75 14.1621 1214.33 14.5666 1215.92 14.9843L 1217.19 10.1475C 1215.58 9.72597 1213.97 9.31412 1212.37 8.91546L 1211.16 13.767ZM 1220.69 16.2633C 1222.29 16.7007 1223.88 17.1475 1225.48 17.6077L 1226.86 12.8018C 1225.24 12.3375 1223.62 11.8829 1222.02 11.4417L 1220.69 16.2633ZM 1230.19 18.9871C 1231.76 19.4587 1233.34 19.9393 1234.92 20.4332L 1236.41 15.6594C 1234.81 15.1614 1233.21 14.6726 1231.62 14.197L 1230.19 18.9871ZM 1239.65 21.9337C 1241.2 22.4362 1242.75 22.9473 1244.31 23.4715L 1245.9 18.7312C 1244.33 18.2028 1242.75 17.6832 1241.19 17.1766L 1239.65 21.9337ZM 1249.01 25.0746C 1250.56 25.6137 1252.11 26.1613 1253.67 26.722L 1255.36 22.0162C 1253.79 21.4511 1252.21 20.8948 1250.65 20.3514L 1249.01 25.0746ZM 1258.29 28.4079C 1259.84 28.9812 1261.39 29.5629 1262.94 30.1576L 1264.73 25.4868C 1263.16 24.8877 1261.59 24.2971 1260.03 23.7195L 1258.29 28.4079ZM 1267.55 31.944C 1269.07 32.5423 1270.59 33.1486 1272.12 33.7675L 1274 29.1322C 1272.45 28.5089 1270.91 27.8937 1269.38 27.291L 1267.55 31.944ZM 1276.72 35.6529C 1277.49 35.9727 1278.26 36.294 1279.03 36.619L 1280.97 32.0109C 1280.19 31.6835 1279.41 31.3577 1278.64 31.0356L 1276.72 35.6529ZM 1279.03 36.619C 1279.82 36.9502 1280.59 37.2816 1281.36 37.6201L 1283.37 33.0399C 1282.58 32.6944 1281.77 32.349 1280.97 32.0109L 1279.03 36.619ZM 1285.91 39.6859C 1287.45 40.4122 1288.94 41.1453 1290.43 41.8992L 1292.69 37.4378C 1291.17 36.6687 1289.61 35.9051 1288.04 35.1633L 1285.91 39.6859ZM 1294.88 44.2267C 1296.37 45.03 1297.82 45.8384 1299.26 46.6665L 1301.75 42.3317C 1300.28 41.4879 1298.78 40.6477 1297.26 39.8282L 1294.88 44.2267ZM 1303.59 49.2277C 1305.03 50.1085 1306.45 50.9931 1307.86 51.8957L 1310.55 47.686C 1309.12 46.7686 1307.66 45.8531 1306.19 44.9562L 1303.59 49.2277ZM 1312.06 54.6562C 1313.47 55.598 1314.84 56.5426 1316.21 57.5019L 1319.08 53.4042C 1317.69 52.4324 1316.27 51.461 1314.85 50.5049L 1312.06 54.6562ZM 1320.33 60.4308C 1321.7 61.4238 1323.05 62.4189 1324.4 63.4244L 1327.39 59.4143C 1326.03 58.3998 1324.65 57.3848 1323.26 56.3806L 1320.33 60.4308ZM 1328.45 66.4693C 1329.79 67.4948 1331.13 68.5217 1332.47 69.554L 1335.52 65.5972C 1334.18 64.5607 1332.83 63.5228 1331.47 62.4905L 1328.45 66.4693ZM 1336.48 72.6676C 1337.82 73.7095 1339.15 74.7525 1340.49 75.7952L 1343.57 71.8512C 1342.23 70.8096 1340.89 69.766 1339.55 68.7225L 1336.48 72.6676ZM 1344.51 78.9217C 1345.86 79.9609 1347.21 81.0006 1348.56 82.0343L 1351.59 78.061C 1350.25 77.0335 1348.91 76.0037 1347.58 74.9682L 1344.51 78.9217ZM 1352.64 85.1204C 1354 86.138 1355.38 87.1553 1356.76 88.1613L 1359.7 84.119C 1358.33 83.124 1356.98 82.1261 1355.63 81.1172L 1352.64 85.1204ZM 1360.92 91.145C 1362.31 92.123 1363.73 93.0998 1365.15 94.0605L 1367.95 89.9173C 1366.55 88.971 1365.17 88.0211 1363.8 87.0557L 1360.92 91.145ZM 1369.45 96.8968C 1370.87 97.8175 1372.33 98.7355 1373.8 99.6339L 1376.41 95.3683C 1374.97 94.4864 1373.56 93.5999 1372.15 92.6943L 1369.45 96.8968ZM 1378.22 102.262C 1379.7 103.111 1381.2 103.956 1382.72 104.778L 1385.1 100.382C 1383.62 99.5757 1382.17 98.7639 1380.72 97.9309L 1378.22 102.262ZM 1387.31 107.179C 1388.82 107.942 1390.37 108.699 1391.93 109.433L 1394.06 104.907C 1392.53 104.189 1391.04 103.464 1389.56 102.716L 1387.31 107.179ZM 1396.63 111.556C 1398.19 112.235 1399.79 112.905 1401.41 113.552L 1403.27 108.91C 1401.68 108.277 1400.15 107.635 1398.62 106.971L 1396.63 111.556ZM 1406.21 115.393C 1407.8 115.975 1409.43 116.548 1411.07 117.098L 1412.66 112.357C 1411.05 111.818 1409.49 111.269 1407.93 110.699L 1406.21 115.393ZM 1416.02 118.678C 1417.63 119.165 1419.27 119.642 1420.93 120.098L 1422.26 115.276C 1420.63 114.83 1419.05 114.372 1417.48 113.894L 1416.02 118.678ZM 1425.93 121.4C 1427.57 121.804 1429.25 122.196 1430.95 122.569L 1432.02 117.686C 1430.36 117.32 1428.74 116.942 1427.13 116.545L 1425.93 121.4ZM 1435.97 123.611C 1437.64 123.935 1439.35 124.248 1441.06 124.541L 1441.91 119.613C 1440.22 119.324 1438.57 119.022 1436.93 118.703L 1435.97 123.611ZM 1446.11 125.346C 1447.79 125.596 1449.51 125.834 1451.25 126.054L 1451.88 121.094C 1450.17 120.877 1448.5 120.647 1446.84 120.401L 1446.11 125.346ZM 1456.3 126.645C 1457.99 126.826 1459.72 126.995 1461.46 127.148L 1461.9 122.168C 1460.18 122.016 1458.5 121.852 1456.83 121.674L 1456.3 126.645ZM 1466.52 127.548C 1468.21 127.667 1469.94 127.773 1471.68 127.866L 1471.95 122.873C 1470.23 122.782 1468.54 122.678 1466.87 122.561L 1466.52 127.548ZM 1476.77 128.095C 1478.46 128.157 1480.17 128.208 1481.9 128.246L 1482.01 123.247C 1480.3 123.209 1478.62 123.16 1476.95 123.098L 1476.77 128.095ZM 1487.04 128.32C 1488.71 128.332 1490.41 128.333 1492.13 128.322L 1492.1 123.322C 1490.4 123.333 1488.73 123.332 1487.07 123.32L 1487.04 128.32ZM 1497.33 128.255C 1498.98 128.223 1500.67 128.18 1502.36 128.126L 1502.2 123.129C 1500.52 123.182 1498.87 123.224 1497.23 123.256L 1497.33 128.255ZM 1507.51 127.932C 1508.37 127.895 1509.25 127.854 1510.12 127.811L 1509.88 122.817C 1509.01 122.86 1508.15 122.9 1507.29 122.937L 1507.51 127.932ZM 1510.12 127.811C 1510.96 127.77 1511.81 127.721 1512.65 127.666L 1512.33 122.677C 1511.51 122.73 1510.7 122.777 1509.88 122.817L 1510.12 127.811ZM 1517.75 127.256C 1519.43 127.095 1521.14 126.907 1522.84 126.696L 1522.23 121.734C 1520.56 121.941 1518.92 122.122 1517.27 122.279L 1517.75 127.256ZM 1527.88 126.002C 1529.56 125.748 1531.26 125.47 1532.95 125.171L 1532.08 120.247C 1530.42 120.54 1528.78 120.809 1527.13 121.058L 1527.88 126.002ZM 1537.92 124.236C 1539.58 123.904 1541.25 123.55 1542.92 123.18L 1541.84 118.299C 1540.2 118.664 1538.57 119.007 1536.94 119.333L 1537.92 124.236ZM 1547.87 122.03C 1549.5 121.633 1551.15 121.216 1552.8 120.785L 1551.53 115.949C 1549.9 116.374 1548.3 116.78 1546.69 117.171L 1547.87 122.03ZM 1557.72 119.449C 1559.33 118.998 1560.95 118.528 1562.57 118.047L 1561.15 113.254C 1559.55 113.73 1557.96 114.189 1556.37 114.634L 1557.72 119.449ZM 1567.46 116.558C 1569.05 116.058 1570.66 115.542 1572.27 115.016L 1570.71 110.265C 1569.12 110.786 1567.54 111.291 1565.96 111.786L 1567.46 116.558ZM 1577.08 113.408C 1578.67 112.863 1580.28 112.304 1581.88 111.736L 1580.22 107.023C 1578.62 107.586 1577.04 108.136 1575.46 108.676L 1577.08 113.408ZM 1586.62 110.031C 1588.21 109.452 1589.8 108.861 1591.39 108.262L 1589.63 103.582C 1588.05 104.177 1586.48 104.76 1584.91 105.334L 1586.62 110.031ZM 1596.11 106.46C 1597.68 105.857 1599.25 105.242 1600.82 104.621L 1598.98 99.9716C 1597.42 100.589 1595.86 101.196 1594.31 101.796L 1596.11 106.46ZM 1605.54 102.731C 1607.09 102.106 1608.64 101.472 1610.2 100.832L 1608.3 96.2087C 1606.75 96.8455 1605.21 97.4733 1603.67 98.0949L 1605.54 102.731ZM 1614.87 98.8933C 1616.42 98.243 1617.98 97.5848 1619.54 96.9216L 1617.59 92.3197C 1616.03 92.9804 1614.49 93.6335 1612.94 94.281L 1614.87 98.8933ZM 1624.17 94.9446C 1625.71 94.2803 1627.26 93.6092 1628.81 92.934L 1626.82 88.3496C 1625.27 89.0229 1623.73 89.6898 1622.19 90.352L 1624.17 94.9446ZM 1633.44 90.9072C 1634.97 90.2343 1636.51 89.5559 1638.05 88.8741L 1636.02 84.3034C 1634.49 84.9837 1632.96 85.6589 1631.43 86.3302L 1633.44 90.9072ZM 1642.67 86.8159C 1644.2 86.1324 1645.74 85.4446 1647.27 84.754L 1645.22 80.1932C 1643.69 80.8828 1642.16 81.5684 1640.63 82.2507L 1642.67 86.8159ZM 1651.86 82.6864C 1653.4 81.9943 1654.93 81.299 1656.47 80.6015L 1654.41 76.0471C 1652.87 76.744 1651.34 77.4379 1649.81 78.1292L 1651.86 82.6864ZM 1661.06 78.5217C 1662.58 77.8293 1664.11 77.1348 1665.64 76.4387L 1663.57 71.8871C 1662.04 72.583 1660.51 73.2771 1658.99 73.9691L 1661.06 78.5217ZM 1670.24 74.3456C 1671.77 73.6527 1673.29 72.9587 1674.82 72.2637L 1672.75 67.7117C 1671.22 68.407 1669.7 69.1013 1668.17 69.7942L 1670.24 74.3456ZM 1679.41 70.1822C 1680.94 69.4877 1682.47 68.7928 1684.01 68.0975L 1681.95 63.542C 1680.41 64.2379 1678.87 64.9338 1677.34 65.6288L 1679.41 70.1822ZM 1688.59 66.0283C 1690.12 65.3398 1691.65 64.652 1693.18 63.9642L 1691.13 59.4022C 1689.6 60.091 1688.07 60.7807 1686.54 61.4699L 1688.59 66.0283ZM 1697.79 61.9032C 1699.32 61.2213 1700.85 60.5409 1702.38 59.861L 1700.35 55.2897C 1698.82 55.971 1697.28 56.6539 1695.75 57.3369L 1697.79 61.9032ZM 1706.98 57.8291C 1708.52 57.1529 1710.06 56.4791 1711.6 55.8064L 1709.6 51.2232C 1708.06 51.8976 1706.51 52.5746 1704.97 53.2522L 1706.98 57.8291ZM 1716.21 53.8052C 1717.75 53.1408 1719.29 52.4795 1720.83 51.8198L 1718.86 47.2223C 1717.32 47.8839 1715.77 48.549 1714.23 49.2152L 1716.21 53.8052ZM 1725.47 49.8496C 1727.01 49.1976 1728.55 48.5496 1730.1 47.9036L 1728.17 43.2893C 1726.62 43.9375 1725.07 44.5899 1723.52 45.2439L 1725.47 49.8496ZM 1734.74 45.9789C 1736.29 45.3403 1737.84 44.7064 1739.4 44.0751L 1737.52 39.4419C 1735.96 40.0757 1734.4 40.7145 1732.84 41.3554L 1734.74 45.9789ZM 1744.06 42.1988C 1745.62 41.5776 1747.17 40.9617 1748.73 40.349L 1746.9 35.6949C 1745.34 36.3104 1743.77 36.9315 1742.21 37.5554L 1744.06 42.1988ZM 1753.42 38.5259C 1754.98 37.9232 1756.54 37.3267 1758.11 36.7339L 1756.34 32.057C 1754.77 32.6529 1753.19 33.2551 1751.62 33.8606L 1753.42 38.5259ZM 1762.81 34.9736C 1764.38 34.3916 1765.95 33.8166 1767.53 33.2457L 1765.83 28.5446C 1764.24 29.1186 1762.66 29.6998 1761.08 30.2849L 1762.81 34.9736ZM 1772.26 31.5532C 1773.84 30.9946 1775.41 30.4437 1777 29.8976L 1775.37 25.1709C 1773.77 25.7203 1772.18 26.2777 1770.59 26.8394L 1772.26 31.5532ZM 1781.75 28.28C 1783.34 27.7469 1784.92 27.2221 1786.51 26.7026L 1784.96 21.9492C 1783.36 22.4721 1781.75 23.0036 1780.16 23.54L 1781.75 28.28ZM 1791.29 25.1674C 1792.89 24.6622 1794.48 24.1661 1796.08 23.6759L 1794.62 18.8951C 1793 19.3888 1791.39 19.8918 1789.78 20.4003L 1791.29 25.1674ZM 1800.88 22.2299C 1802.49 21.7551 1804.09 21.29 1805.7 20.8314L 1804.33 16.0228C 1802.71 16.4849 1801.08 16.957 1799.47 17.4352L 1800.88 22.2299ZM 1810.53 19.4824C 1812.14 19.0405 1813.75 18.609 1815.37 18.1846L 1814.1 13.3482C 1812.47 13.776 1810.84 14.2145 1809.21 14.6598L 1810.53 19.4824ZM 1820.23 16.9399C 1821.85 16.5335 1823.47 16.1381 1825.09 15.7505L 1823.93 10.8866C 1822.29 11.2776 1820.65 11.6799 1819.01 12.0897L 1820.23 16.9399ZM 1829.97 14.6182C 1831.61 14.2499 1833.23 13.893 1834.87 13.5448L 1833.83 8.65443C 1832.18 9.00594 1830.52 9.36931 1828.87 9.74094L 1829.97 14.6182ZM 1839.77 12.5325C 1841.41 12.2049 1843.04 11.8894 1844.69 11.5832L 1843.77 6.6678C 1842.11 6.97705 1840.45 7.29871 1838.79 7.62939L 1839.77 12.5325ZM 1849.62 10.6989C 1851.26 10.4147 1852.9 10.143 1854.55 9.8814L 1853.77 4.94302C 1852.1 5.20737 1850.43 5.48464 1848.77 5.77172L 1849.62 10.6989ZM 1859.5 9.13274C 1861.16 8.89461 1862.8 8.66947 1864.46 8.45521L 1863.82 3.49651C 1862.14 3.71316 1860.46 3.94318 1858.79 4.18383L 1859.5 9.13274ZM 1869.42 7.85003C 1871.08 7.66026 1872.74 7.48389 1874.4 7.31924L 1873.91 2.34355C 1872.23 2.51013 1870.54 2.69052 1868.86 2.88239L 1869.42 7.85003ZM 1879.38 6.86545C 1881.04 6.72674 1882.7 6.60176 1884.36 6.48934L 1884.03 1.50067C 1882.34 1.61448 1880.64 1.74244 1878.96 1.88274L 1879.38 6.86545ZM 1889.36 6.1928C 1891.02 6.10758 1892.68 6.0363 1894.34 5.97839L 1894.17 0.98141C 1892.48 1.04008 1890.79 1.11312 1889.1 1.19934L 1889.36 6.1928ZM 1899.34 5.8466C 1901.01 5.81655 1902.67 5.80074 1904.35 5.79926L 1904.34 0.799267C 1902.65 0.800805 1900.94 0.817024 1899.25 0.847404L 1899.34 5.8466ZM 1909.33 5.83776C 1911 5.86503 1912.65 5.90658 1914.32 5.96328L 1914.49 0.966162C 1912.8 0.90876 1911.1 0.866103 1909.41 0.838428L 1909.33 5.83776ZM 1919.33 6.17767C 1920.99 6.26365 1922.64 6.36389 1924.3 6.48006L 1924.65 1.49221C 1922.96 1.37451 1921.27 1.27155 1919.59 1.18436L 1919.33 6.17767ZM 1929.27 6.87282C 1930.94 7.01938 1932.59 7.18032 1934.26 7.35816L 1934.79 2.38638C 1933.1 2.20613 1931.4 2.04074 1929.71 1.89212L 1929.27 6.87282ZM 1939.21 7.93255C 1940.86 8.13929 1942.5 8.36017 1944.15 8.59858L 1944.86 3.64985C 1943.19 3.40816 1941.5 3.18107 1939.83 2.97141L 1939.21 7.93255ZM 1949.1 9.3601C 1949.92 9.49538 1950.75 9.63375 1951.57 9.7772L 1952.43 4.85058C 1951.59 4.70512 1950.74 4.56283 1949.9 4.42563L 1949.1 9.3601ZM 1951.57 9.7772C 1952.42 9.92471 1953.27 10.0713 1954.12 10.2167L 1954.97 5.28949C 1954.12 5.14418 1953.28 4.99793 1952.43 4.85058L 1951.57 9.7772ZM 1959.13 11.0775C 1960.78 11.3603 1962.42 11.6393 1964.05 11.9141L 1964.88 6.98425C 1963.26 6.70978 1961.62 6.43148 1959.97 6.14899L 1959.13 11.0775ZM 1968.87 12.7266C 1970.46 12.9935 1972.03 13.2565 1973.59 13.5155L 1974.41 8.58308C 1972.85 8.32443 1971.28 8.06204 1969.69 7.79552L 1968.87 12.7266ZM 1978.61 14.3439C 1980.29 14.6195 1981.95 14.8906 1983.59 15.1569L 1984.39 10.2215C 1982.75 9.95556 1981.09 9.6852 1979.42 9.40999L 1978.61 14.3439ZM 1988.46 15.9422C 1990.06 16.1993 1991.65 16.4521 1993.21 16.7002L 1993.99 11.7617C 1992.43 11.514 1990.85 11.262 1989.25 11.0053L 1988.46 15.9422ZM 1998.15 17.4765C 1999.84 17.7403 2001.51 17.9989 2003.16 18.2519L 2003.92 13.3099C 2002.27 13.0573 2000.61 12.7996 1998.92 12.5363L 1998.15 17.4765ZM 2008.03 18.9952C 2009.64 19.2376 2011.22 19.475 2012.78 19.7069L 2013.52 14.7612C 2011.96 14.5297 2010.38 14.2933 2008.78 14.0514L 2008.03 18.9952ZM 2017.79 20.4444C 2019.48 20.6899 2021.14 20.9294 2022.77 21.1624L 2023.48 16.2125C 2021.85 15.98 2020.19 15.7416 2018.51 15.4966L 2017.79 20.4444ZM 2027.6 21.8431C 2029.24 22.0722 2030.86 22.2949 2032.45 22.5109L 2033.12 17.5565C 2031.54 17.3411 2029.93 17.1195 2028.29 16.891L 2027.6 21.8431ZM 2037.5 23.188C 2039.15 23.4061 2040.77 23.6172 2042.36 23.8207L 2043 18.8611C 2041.41 18.6582 2039.8 18.4485 2038.15 18.231L 2037.5 23.188ZM 2047.19 24.4276C 2048.92 24.6407 2050.61 24.8451 2052.26 25.0403L 2052.85 20.0749C 2051.2 19.8804 2049.53 19.6775 2047.81 19.4652L 2047.19 24.4276ZM 2057.11 25.6001C 2058.8 25.7907 2060.45 25.9719 2062.06 26.1429L 2062.59 21.171C 2060.99 21.0008 2059.35 20.8213 2057.67 20.6316L 2057.11 25.6001ZM 2067.05 26.6565C 2068.7 26.82 2070.3 26.9729 2071.86 27.1147L 2072.31 22.1354C 2070.77 21.9945 2069.18 21.8435 2067.54 21.681L 2067.05 26.6565ZM 2076.96 27.5559C 2078.61 27.6906 2080.22 27.8125 2081.76 27.9209L 2082.11 22.9333C 2080.58 22.8258 2079.01 22.706 2077.36 22.5724L 2076.96 27.5559ZM 2086.88 28.2472C 2088.6 28.3438 2090.25 28.4226 2091.8 28.4835L 2092 23.4874C 2090.46 23.4273 2088.86 23.3505 2087.17 23.2551L 2086.88 28.2472ZM 2096.79 28.6252C 2098.61 28.6552 2100.32 28.6568 2101.88 28.6322L 2101.8 23.6328C 2100.28 23.657 2098.65 23.6554 2096.87 23.6259L 2096.79 28.6252ZM 2106.95 28.4364C 2108.89 28.3088 2110.63 28.1199 2112.07 27.8888L 2111.28 22.9517C 2109.96 23.1644 2108.45 23.3277 2106.63 23.4471L 2106.95 28.4364ZM 2117.52 26.3657C 2118.86 25.7161 2120.16 24.723 2120.7 23.1739C 2121.27 21.5465 2120.77 20.0274 2120.07 18.9114L 2115.83 21.561C 2115.94 21.7448 2115.96 21.8224 2115.95 21.801C 2115.94 21.7594 2115.94 21.6481 2115.98 21.5198C 2116.02 21.4013 2116.07 21.3854 2115.99 21.4572C 2115.91 21.5365 2115.71 21.6833 2115.34 21.8639L 2117.52 26.3657ZM 2115.71 14.8596C 2114.4 13.983 2112.8 13.0763 2111.13 12.2391L 2108.89 16.7076C 2110.44 17.4874 2111.78 18.2422 2112.94 19.0212L 2115.71 14.8596ZM 2106.46 10.109C 2104.92 9.4655 2103.29 8.84194 2101.7 8.278L 2100.03 12.9923C 2101.56 13.5337 2103.06 14.1076 2104.54 14.7238L 2106.46 10.109ZM 2096.85 6.71076C 2095.12 6.20728 2093.4 5.76755 2091.85 5.43489L 2090.8 10.3248C 2092.26 10.6354 2093.8 11.0296 2095.45 11.5103L 2096.85 6.71076ZM 2086.53 4.66524C 2085.43 4.61412 2084.24 4.68826 2083.39 4.88853L 2084.61 9.73925C 2084.99 9.63175 2085.44 9.61409 2086.29 9.65919L 2086.53 4.66524Z"/>
</defs>
</svg>
