<svg width="246" height="245" viewBox="0 0 246 245" fill="none" xmlns="http://www.w3.org/2000/svg">
<rect x="0.804688" width="244.614" height="244.19" rx="73" fill="white"/>
<rect x="0.804688" width="244.614" height="244.19" rx="73" fill="url(#paint0_linear)"/>
<path d="M169.688 103.807C178.249 103.807 184.671 110.726 184.671 119.242C184.671 127.757 178.249 134.676 169.688 134.676C164.872 134.676 161.661 133.08 157.915 129.354L147.748 119.242L157.915 109.129C161.661 104.871 164.872 103.807 169.688 103.807ZM169.688 92.0977C160.591 92.0977 154.705 95.8233 149.354 100.613L131.16 119.242L149.354 137.87C154.17 142.66 160.591 146.385 169.688 146.385C184.671 146.385 195.908 134.144 195.908 119.242C196.443 104.339 184.671 92.0977 169.688 92.0977Z" fill="#005826"/>
<path d="M80.3257 103.807C85.1416 103.807 88.3522 105.403 92.6331 109.129L102.8 119.242L92.6331 129.354C88.8873 133.08 85.1416 134.676 80.3257 134.676C71.764 134.676 65.3427 127.757 65.3427 119.242C65.8778 110.194 72.2991 103.807 80.3257 103.807ZM80.3257 92.0977C65.3427 92.0977 54.1055 104.339 54.1055 119.242C54.1055 134.144 65.3427 146.385 80.3257 146.385C89.4225 146.385 95.3086 142.66 100.66 137.87L118.853 119.242L100.66 100.613C95.8437 95.8233 89.4225 92.0977 80.3257 92.0977Z" fill="#72BF44"/>
<path d="M125.271 141.068L135.438 151.18C139.184 154.906 140.789 158.631 140.789 163.421C140.789 171.937 134.368 178.324 125.271 178.324C116.174 178.324 109.753 171.937 109.753 163.421C109.753 158.631 111.358 155.438 115.104 151.18L125.271 141.068ZM125.271 125.633C123.666 125.633 106.542 143.729 106.542 143.729C101.726 148.519 97.9805 154.906 97.9805 163.954C97.9805 178.856 110.288 190.033 125.271 190.033C140.254 190.033 152.561 178.856 152.561 163.954C152.561 154.906 148.816 149.051 144 143.729L125.271 125.633Z" fill="#00A651"/>
<path d="M109.753 74.5364C109.753 66.0207 116.709 59.6339 125.271 59.6339C127.411 59.6339 129.552 60.1661 131.157 60.6984C136.508 62.8273 140.789 68.1496 140.789 74.5364C140.789 79.3265 139.184 82.5199 135.438 86.7778L125.271 96.8902L115.104 86.7778C111.358 83.0522 109.753 79.3265 109.753 74.5364ZM97.9805 74.5364C97.9805 83.5844 101.726 89.4389 106.542 94.7613L125.271 112.857L144 94.7613C148.816 89.9712 152.561 83.5844 152.561 74.5364C152.561 59.6339 140.254 48.457 125.271 48.457C110.288 48.457 97.9805 59.6339 97.9805 74.5364Z" fill="#B2D235"/>
<defs>
<linearGradient id="paint0_linear" x1="123.112" y1="0" x2="123.112" y2="244.19" gradientUnits="userSpaceOnUse">
<stop stop-color="white" stop-opacity="0"/>
<stop offset="1" stop-color="#EFF2E6"/>
</linearGradient>
</defs>
</svg>
