<svg width="553" height="299" viewBox="0 0 553 299" fill="none" xmlns="http://www.w3.org/2000/svg">
<ellipse cx="107.739" cy="232.936" rx="8.18251" ry="8.17318" transform="rotate(180 107.739 232.936)" fill="#72BF44"/>
<ellipse cx="529.475" cy="22.8158" rx="7.84157" ry="7.83263" transform="rotate(180 529.475 22.8158)" fill="#C3E441"/>
<ellipse cx="406.241" cy="185.748" rx="6.47782" ry="6.47043" transform="rotate(180 406.241 185.748)" fill="#72BF44"/>
<ellipse cx="163.869" cy="49.2671" rx="6.81875" ry="6.81098" transform="rotate(180 163.869 49.2671)" fill="#C3E441"/>
<path d="M469.949 98.7568C469.949 96.2014 472.023 94.127 474.586 94.127C477.148 94.127 479.223 96.2014 479.223 98.7568C479.223 101.312 477.148 103.387 474.586 103.387C472.023 103.387 469.949 101.312 469.949 98.7568Z" stroke="#72BF44" stroke-width="3"/>
<path d="M1.50046 101.824C1.50046 98.3278 4.33806 95.491 7.84203 95.491C11.346 95.491 14.1836 98.3278 14.1836 101.824C14.1836 105.319 11.346 108.156 7.84203 108.156C4.33806 108.156 1.50046 105.319 1.50046 101.824Z" stroke="#C3E441" stroke-width="3"/>
<path d="M253.114 291.167C253.114 287.672 255.951 284.835 259.455 284.835C262.959 284.835 265.797 287.672 265.797 291.167C265.797 294.663 262.959 297.5 259.455 297.5C255.951 297.5 253.114 294.663 253.114 291.167Z" stroke="#C3E441" stroke-width="3"/>
<rect width="17.7136" height="5.45345" rx="2.72672" transform="matrix(0.500428 -0.865778 0.866272 0.499572 539.41 201.602)" fill="#C3E441"/>
<rect width="17.7187" height="5.4519" rx="2.72595" transform="matrix(0.70751 0.706703 -0.70751 0.706703 44.0586 0.648438)" fill="#72BF44"/>
<rect width="14.3" height="4.40253" rx="2.20126" transform="matrix(0.500428 0.865778 -0.866272 0.499572 419.016 22.1953)" fill="#C3E441"/>
<rect width="14.3082" height="4.40001" rx="2.20001" transform="matrix(-0.866272 0.499572 -0.500428 -0.865778 73.6445 123.621)" fill="#C3E441"/>
<rect width="10.6504" height="10.6504" rx="3" transform="matrix(-0.70751 -0.706703 0.70751 -0.706703 398.285 285.379)" fill="#005826"/>
</svg>
