<?xml version="1.0" standalone="no"?>
<!-- Generator: Adobe Fireworks 10, Export SVG Extension by Aaron Beall (http://fireworks.abeall.com) . Version: 0.6.0  -->
<!DOCTYPE svg PUBLIC "-//W3C//DTD SVG 1.1//EN" "http://www.w3.org/Graphics/SVG/1.1/DTD/svg11.dtd">
<svg id="" viewBox="0 0 108 160" style="background-color:#ffffff00" version="1.1"
xmlns="http://www.w3.org/2000/svg" xmlns:xlink="http://www.w3.org/1999/xlink" xml:space="preserve"
x="0px" y="0px" width="108px" height="160px"
>
<g id="Layer%201">
<path d="M 22.9355 126.847 C 21.5455 126.1403 19.8079 126.4936 19.1129 127.907 L 12.1628 140.2739 L 5.2126 127.907 C 4.5176 126.4936 2.7801 126.1403 1.39 126.847 C 0 127.5536 -0.3475 129.3203 0.3475 130.7337 L 9.0352 146.6341 L 9.0352 155.4676 C 9.0352 156.881 10.4252 158.2944 11.8153 158.2944 C 13.2053 158.2944 14.5953 156.881 14.5953 155.4676 L 14.5953 146.6341 L 23.6305 130.7337 C 24.673 129.3203 24.3255 127.5536 22.9355 126.847 ZM 79.2317 126.1403 L 60.4663 126.1403 C 59.0763 126.1403 57.6863 127.5536 57.6863 128.967 C 57.6863 130.3804 59.0763 131.7937 60.4663 131.7937 L 67.069 131.7937 L 67.069 155.4676 C 67.069 156.881 68.459 158.2944 69.849 158.2944 C 70.544 158.2944 71.239 157.941 71.9341 157.5877 C 72.6291 156.881 72.6291 156.1743 72.6291 155.4676 L 72.6291 131.7937 L 79.2317 131.7937 C 80.6218 131.7937 82.0118 130.3804 82.0118 128.967 C 82.0118 127.5536 80.6218 126.1403 79.2317 126.1403 ZM 49.6936 142.7473 C 49.6936 147.6941 47.6085 152.9942 41.3534 153.3476 C 38.5733 153.3476 36.1408 152.2876 34.7508 150.5208 C 33.3607 148.7541 32.6657 145.9274 32.6657 142.7473 C 32.6657 138.5072 33.7082 131.7937 41.3534 131.7937 C 46.9135 131.7937 49.6936 135.3272 49.6936 142.7473 ZM 55.6012 142.7473 C 55.6012 132.1471 50.3886 125.7869 41.3534 125.4336 C 32.6657 125.4336 26.7581 132.1471 26.7581 142.394 C 26.7581 147.3408 27.8006 151.2275 30.2332 154.0543 C 33.0132 157.2343 36.8358 159.001 41.3534 159.001 C 51.0836 159.001 55.6012 150.8742 55.6012 142.7473 ZM 98.3446 145.9274 L 90.6995 145.9274 L 94.522 136.3872 L 98.3446 145.9274 ZM 107.727 154.7609 L 97.3021 128.2603 C 96.9546 127.2003 95.9121 126.4936 94.8696 126.4936 C 94.1746 126.4936 93.132 126.847 92.437 128.2603 L 81.6643 154.7609 C 80.9693 156.1743 81.6643 157.5877 83.0543 158.2944 C 84.4443 159.001 85.8344 158.2944 86.5294 156.881 L 88.6144 151.5809 L 100.777 151.5809 L 102.862 156.881 C 103.21 157.941 104.252 158.6477 105.295 158.6477 C 105.642 158.6477 105.99 158.2944 106.337 158.2944 C 107.727 157.941 108.422 156.1743 107.727 154.7609 ZM 54.2136 77.0285 C 47.611 77.0285 42.3984 82.3286 42.3984 89.0421 C 42.3984 95.7556 47.611 101.056 54.2136 101.056 C 60.8163 101.056 66.0289 95.7556 66.0289 89.0421 C 66.0289 82.3286 60.8163 77.0285 54.2136 77.0285 ZM 78.1916 0 C 74.7166 0 71.9365 2.8267 71.9365 6.3602 L 71.9365 12.367 C 71.9365 17.3137 70.199 21.9072 66.7239 25.4406 C 63.2488 28.974 59.0787 30.7407 54.2136 30.7407 C 49.696 30.7407 45.1784 28.974 41.7034 25.4406 C 38.2283 21.9072 36.4907 17.3137 36.4907 12.367 L 36.4907 6.3602 C 36.4907 2.8267 33.7107 0 30.2356 0 C 26.7605 0 23.9805 2.8267 23.9805 6.3602 L 23.9805 12.367 C 23.9805 20.4938 27.108 28.2673 32.6682 34.2741 C 36.4907 38.5142 41.7034 41.341 47.2635 42.7543 L 47.9585 42.7543 L 47.9585 58.6547 L 47.2635 58.6547 C 41.7034 60.0681 36.8382 62.8948 32.6682 67.1349 C 27.108 72.7884 23.9805 80.9152 23.9805 89.0421 L 23.9805 95.4023 C 23.9805 98.9357 26.7605 101.762 30.2356 101.762 C 33.7107 101.762 36.4907 98.9357 36.4907 95.4023 L 36.4907 89.0421 C 36.4907 84.0953 38.2283 79.5019 41.7034 75.9685 C 45.1784 72.7884 49.3485 70.6683 54.2136 70.6683 C 58.7312 70.6683 63.2488 72.435 66.7239 75.9685 C 70.199 79.5019 71.9365 84.0953 71.9365 89.0421 L 71.9365 95.4023 C 71.9365 98.9357 74.7166 101.762 78.1916 101.762 C 81.6667 101.762 84.4468 98.9357 84.4468 95.4023 L 84.4468 89.0421 C 84.4468 80.9152 81.3192 73.1417 75.7591 67.1349 C 71.9365 62.8948 66.7239 60.0681 61.1638 58.6547 L 60.4688 58.6547 L 60.4688 42.7543 L 61.1638 42.7543 C 66.7239 41.341 71.589 38.5142 75.7591 34.2741 C 81.3192 28.6207 84.4468 20.4938 84.4468 12.367 L 84.4468 6.3602 C 84.4468 2.8267 81.6667 0 78.1916 0 Z" fill="#ffffff"/>
</g>
</svg>
