<?xml version="1.0" standalone="no"?>
<!-- Generator: Adobe Fireworks 10, Export SVG Extension by Aaron Beall (http://fireworks.abeall.com) . Version: 0.6.0  -->
<!DOCTYPE svg PUBLIC "-//W3C//DTD SVG 1.1//EN" "http://www.w3.org/Graphics/SVG/1.1/DTD/svg11.dtd">
<svg id="" viewBox="0 0 250 145" style="background-color:#ffffff00" version="1.1"
xmlns="http://www.w3.org/2000/svg" xmlns:xlink="http://www.w3.org/1999/xlink" xml:space="preserve"
x="0px" y="0px" width="250px" height="145px"
>
<g id="Layer%201">
<path d="M 98 72.0001 C 98 57.8094 87.219 47 72.9999 47 C 58.7807 47 48 57.8094 48 72.0001 C 48 86.1909 58.7807 97 72.9999 97 C 87.219 97 98 86.1909 98 72.0001 L 98 72.0001 Z" fill="#ffffff"/>
<path d="M 83 72.0001 C 83 66.3238 78.6876 62 72.9999 62 C 67.3123 62 63 66.3238 63 72.0001 C 63 77.6763 67.3123 82 72.9999 82 C 78.6876 82 83 77.6763 83 72.0001 L 83 72.0001 Z" stroke="#01ac6a" stroke-width="6" fill="#ffffff"/>
<path d="M 20.8333 126.686 L 18.4331 126.686 L 18.4331 124.286 L 18.4331 72.5 C 18.4331 42.1614 42.4374 18.314 72.9167 18.314 C 103.396 18.314 127.4 42.1614 127.4 72.5 L 127.4 124.286 L 127.4 126.686 L 125 126.686 L 20.8333 126.686 L 20.8333 126.686 ZM 142.708 54.186 L 140.943 54.186 L 140.417 52.5009 C 131.337 23.4095 105.14 2.4003 72.9167 2.4003 C 33.6043 2.4003 2.4003 33.4457 2.4003 72.5 L 2.4003 134.643 C 2.4003 137.2 3.2468 139.147 4.557 140.45 C 5.8683 141.754 7.833 142.6 10.4167 142.6 L 239.583 142.6 C 242.167 142.6 244.132 141.754 245.443 140.45 C 246.753 139.147 247.6 137.2 247.6 134.643 L 247.6 113.929 C 247.6 111.371 246.753 109.424 245.443 108.122 C 244.132 106.818 242.167 105.972 239.583 105.972 C 237 105.972 235.035 106.818 233.724 108.122 C 232.413 109.424 231.567 111.371 231.567 113.929 L 231.567 124.286 L 231.567 126.686 L 229.167 126.686 L 145.833 126.686 L 143.433 126.686 L 143.433 124.286 L 143.433 103.571 L 143.433 101.171 L 145.833 101.171 L 156.25 101.171 C 158.834 101.171 160.798 100.325 162.11 99.0211 C 163.42 97.7185 164.266 95.7718 164.266 93.2143 L 164.266 62.1429 C 164.266 59.5853 163.42 57.6387 162.11 56.336 C 160.798 55.0322 158.834 54.186 156.25 54.186 L 142.708 54.186 L 142.708 54.186 Z" stroke="#01ac6a" stroke-width="4" fill="#202020"/>
</g>
</svg>
